<svg width="588" height="417" viewBox="0 0 588 417" fill="none" xmlns="http://www.w3.org/2000/svg">
<path d="M437.863 147.629C437.863 147.629 443.207 143.237 451.605 156.223C460.003 169.21 463.438 176.849 463.438 176.849C463.438 176.849 465.538 179.522 467.351 177.422C469.164 175.321 471.263 169.783 474.699 170.356C478.23 171.024 479.852 174.748 479.757 180.573C479.661 186.302 479.948 199.002 480.043 200.148C480.043 201.294 480.902 202.821 482.333 201.58C483.765 200.339 491.686 189.549 496.553 193.559C501.419 197.569 498.652 213.611 498.366 215.426C498.079 217.144 498.461 217.908 499.32 218.195C500.179 218.577 502.469 214.662 504.855 211.606C507.241 208.646 510.485 205.59 513.157 208.169C515.83 210.747 517.738 222.396 508.577 242.544L503.71 251.615L493.403 252.093C471.263 251.806 461.625 245.027 460.384 241.589C459.144 238.056 463.343 236.433 467.064 235.574C470.786 234.714 475.271 234.332 475.367 233.377C475.462 232.422 474.985 231.754 473.267 231.277C471.55 230.799 455.804 226.502 454.277 220.296C452.75 214.089 465.919 211.606 467.637 210.842C469.355 210.078 468.305 208.646 467.255 208.169C466.206 207.691 454.945 201.962 449.696 199.575C444.447 197.188 441.68 194.132 442.634 190.694C443.588 187.352 449.505 187.734 452.177 187.066C454.849 186.302 453.322 183.246 453.322 183.246C453.322 183.246 447.883 176.849 439.771 163.671C431.66 150.494 438.053 147.534 438.053 147.534" fill="#EBEBEB"/>
<path d="M505.428 253.239C499.415 243.594 488.441 226.693 479.089 212.083C469.736 197.474 461.243 184.297 455.231 174.652C452.177 169.878 449.791 165.963 448.074 163.289C447.215 161.952 446.547 160.902 446.165 160.234C445.974 159.852 445.783 159.661 445.688 159.47C445.592 159.279 445.497 159.183 445.497 159.183C445.497 159.183 445.592 159.279 445.688 159.47C445.783 159.661 445.974 159.947 446.165 160.329C446.642 161.093 447.215 162.143 448.074 163.48C449.696 166.154 452.177 170.069 455.136 174.939C461.148 184.583 469.546 197.76 478.898 212.37C488.25 226.98 499.32 243.881 505.332 253.43" fill="#E0E0E0"/>
<path d="M472.027 178.376C472.027 178.376 471.931 178.663 471.836 179.14C471.74 179.618 471.645 180.286 471.454 181.146C471.168 182.864 470.786 185.156 470.5 187.734C470.214 190.312 469.927 192.604 469.641 194.323C469.546 195.087 469.45 195.755 469.355 196.328C469.259 196.806 469.259 197.092 469.259 197.092C469.259 197.092 469.355 196.806 469.45 196.328C469.546 195.851 469.641 195.182 469.832 194.323C470.118 192.604 470.404 190.312 470.786 187.734C471.168 185.156 471.454 182.864 471.645 181.146C471.74 180.382 471.836 179.713 471.931 179.14C472.027 178.567 472.027 178.376 472.027 178.376Z" fill="#E0E0E0"/>
<path d="M468.305 197.283C468.305 197.188 463.533 196.233 457.617 195.182C451.7 194.132 446.928 193.368 446.928 193.368C446.928 193.464 451.7 194.419 457.617 195.469C463.533 196.519 468.305 197.379 468.305 197.283Z" fill="#E0E0E0"/>
<path d="M483.765 219.054C483.765 219.054 483.479 219.054 483.001 219.054C482.429 219.15 481.761 219.15 480.997 219.245C479.28 219.436 476.894 219.627 474.222 219.818C471.55 220.009 469.164 220.105 467.446 220.105C466.587 220.105 465.919 220.105 465.347 220.2C464.869 220.2 464.583 220.2 464.583 220.296C464.583 220.296 464.869 220.296 465.347 220.391C465.824 220.391 466.492 220.391 467.446 220.487C469.164 220.487 471.645 220.487 474.222 220.296C476.894 220.105 479.28 219.818 480.997 219.627C481.856 219.532 482.524 219.436 483.001 219.341C483.479 219.054 483.765 219.054 483.765 219.054Z" fill="#E0E0E0"/>
<path d="M490.827 202.63C490.827 202.63 490.731 202.821 490.445 203.203C490.254 203.681 489.968 204.254 489.586 204.922C488.918 206.354 487.964 208.36 487.009 210.651C486.055 212.848 485.101 214.948 484.528 216.381C484.242 217.049 483.956 217.622 483.765 218.099C483.574 218.481 483.478 218.768 483.574 218.768C483.574 218.768 483.669 218.577 483.956 218.195C484.147 217.717 484.433 217.144 484.815 216.476C485.483 215.044 486.437 213.039 487.391 210.747C488.345 208.551 489.3 206.45 489.872 205.018C490.159 204.349 490.445 203.776 490.636 203.299C490.731 202.821 490.827 202.63 490.827 202.63Z" fill="#E0E0E0"/>
<path d="M506.764 220.104C506.764 220.104 506.573 220.391 506.382 220.868C506.096 221.441 505.714 222.205 505.332 223.065C504.473 224.974 503.233 227.553 501.897 230.417C500.561 233.282 499.415 235.86 498.557 237.77C498.175 238.629 497.793 239.393 497.602 239.966C497.411 240.539 497.221 240.825 497.316 240.825C497.316 240.825 497.507 240.539 497.698 240.061C497.984 239.488 498.366 238.725 498.747 237.865C499.606 235.955 500.847 233.377 502.183 230.513C503.519 227.648 504.664 225.07 505.523 223.16C505.905 222.301 506.286 221.537 506.477 220.964C506.668 220.391 506.859 220.104 506.764 220.104Z" fill="#E0E0E0"/>
<path d="M497.411 240.252C497.411 240.252 497.03 240.252 496.457 240.252C495.789 240.252 494.93 240.348 493.88 240.443C491.686 240.634 488.632 240.825 485.292 240.921C481.952 241.016 478.898 241.112 476.703 241.112C475.653 241.112 474.794 241.112 474.126 241.112C473.554 241.112 473.172 241.112 473.172 241.112C473.172 241.112 473.554 241.207 474.126 241.207C474.699 241.207 475.653 241.303 476.703 241.303C478.898 241.398 481.952 241.398 485.292 241.207C488.632 241.112 491.686 240.825 493.88 240.634C495.026 240.539 495.885 240.443 496.457 240.348C497.03 240.348 497.411 240.252 497.411 240.252Z" fill="#E0E0E0"/>
<path d="M521.937 184.01C521.937 184.01 521.842 185.633 522.223 188.689C522.605 191.745 523.655 196.233 526.518 201.293L526.613 201.102H526.422L526.518 201.293C532.721 212.37 542.073 228.889 553.238 248.751L553.429 249.037L553.62 248.751C562.113 235.192 571.752 219.818 581.868 203.681C582.345 202.917 582.822 202.153 583.299 201.484L583.49 201.102H583.108L583.299 201.484C585.494 197.76 586.925 193.654 587.594 189.548C587.88 187.448 588.071 185.442 587.975 183.342C587.88 182.291 587.88 181.336 587.784 180.286C587.594 179.236 587.498 178.281 587.307 177.231C585.78 169.305 581.391 162.239 575.76 157.465C572.897 155.077 569.748 153.263 566.503 152.022L565.263 151.544L564.69 151.353L564.022 151.162C563.163 150.971 562.4 150.685 561.541 150.494C559.823 150.208 558.201 149.921 556.579 149.921C554.956 149.73 553.334 149.921 551.712 150.017C550.948 150.112 550.185 150.208 549.421 150.399C549.039 150.494 548.658 150.494 548.276 150.589C547.894 150.685 547.513 150.78 547.131 150.876C546.367 151.067 545.699 151.258 544.936 151.449C544.268 151.735 543.504 152.022 542.836 152.213C542.455 152.308 542.168 152.499 541.787 152.595C541.5 152.786 541.119 152.881 540.832 153.072C540.164 153.359 539.592 153.741 538.924 154.027C534.057 156.892 530.43 160.52 527.949 164.149C525.468 167.777 524.037 171.406 523.178 174.366C522.796 175.894 522.414 177.231 522.319 178.376C522.128 179.522 522.033 180.573 522.033 181.337C522.033 182.1 521.937 182.769 521.937 183.151C521.937 183.819 521.937 184.01 521.937 184.01C521.937 184.01 521.937 183.819 522.033 183.342C522.033 182.864 522.128 182.291 522.128 181.527C522.128 180.668 522.319 179.713 522.51 178.567C522.605 177.421 522.987 176.085 523.369 174.557C524.227 171.597 525.659 168.064 528.236 164.435C530.717 160.807 534.343 157.178 539.115 154.409C539.687 154.123 540.355 153.741 541.023 153.454C541.31 153.263 541.691 153.168 541.978 152.977C542.264 152.786 542.646 152.69 543.027 152.595C543.695 152.308 544.363 152.117 545.127 151.831C545.795 151.64 546.558 151.449 547.322 151.258C547.703 151.162 548.085 151.067 548.467 150.971C548.849 150.876 549.23 150.876 549.612 150.78C550.375 150.685 551.139 150.494 551.902 150.494C553.429 150.399 555.052 150.303 556.674 150.399C558.296 150.399 559.919 150.78 561.636 150.971C562.495 151.162 563.259 151.449 564.118 151.64L564.69 151.831L565.263 152.022L566.503 152.499C569.748 153.741 572.897 155.555 575.665 157.942C581.2 162.716 585.494 169.592 587.021 177.422C586.925 178.376 587.116 179.331 587.212 180.286C587.307 181.336 587.307 182.291 587.403 183.342C587.498 185.347 587.307 187.448 587.021 189.453C586.353 193.559 584.921 197.569 582.822 201.198L582.631 201.58H583.013L582.822 201.198C582.345 201.866 581.868 202.63 581.391 203.394C571.275 219.627 561.636 234.905 553.143 248.56H553.525C542.264 228.794 532.912 212.274 526.613 201.198L526.518 201.389H526.709L526.613 201.198C523.75 196.233 522.701 191.649 522.223 188.689C522.033 187.161 521.937 186.015 521.937 185.156C521.937 184.774 521.937 184.488 521.937 184.297C521.937 184.106 521.937 184.01 521.937 184.01Z" fill="#E0E0E0"/>
<path d="M533.866 183.628C533.866 183.628 533.866 183.533 533.866 183.246C533.866 182.96 533.866 182.673 533.961 182.292C533.961 182.101 533.961 181.814 533.961 181.528C533.961 181.241 534.057 180.955 534.057 180.668C534.152 180 534.248 179.331 534.534 178.472C534.916 176.849 535.679 174.939 536.824 172.934C538.065 170.928 539.783 168.828 542.073 167.013C544.459 165.295 547.417 163.767 550.757 163.099C554.193 162.526 558.01 162.621 561.636 163.958C562.591 164.244 563.449 164.722 564.308 165.104C565.167 165.581 566.026 166.059 566.885 166.727C567.744 167.3 568.507 168.064 569.271 168.732C569.939 169.496 570.702 170.26 571.275 171.119C572.515 172.838 573.565 174.748 574.233 176.849C574.901 178.949 575.283 181.146 575.283 183.342C575.283 185.634 574.901 187.83 574.233 189.835C573.565 191.936 572.515 193.846 571.275 195.564C570.702 196.424 569.939 197.188 569.271 197.951C568.507 198.62 567.744 199.384 566.885 199.957C566.122 200.625 565.167 201.103 564.308 201.58C563.449 202.057 562.495 202.439 561.636 202.821C558.01 204.254 554.193 204.349 550.757 203.776C547.322 203.203 544.363 201.675 542.073 199.957C539.687 198.142 537.969 196.137 536.729 194.132C535.488 192.127 534.725 190.217 534.438 188.594C534.152 187.83 534.057 187.066 533.961 186.397C533.866 186.111 533.866 185.825 533.866 185.538C533.866 185.252 533.866 185.061 533.77 184.774C533.77 184.392 533.675 184.01 533.675 183.819C533.961 183.724 533.866 183.628 533.866 183.628C533.866 183.628 533.866 183.724 533.866 184.01C533.866 184.297 533.866 184.583 533.866 184.965C533.866 185.156 533.866 185.443 533.866 185.729C533.866 186.016 533.961 186.302 533.961 186.588C534.057 187.257 534.152 187.925 534.343 188.785C534.725 190.408 535.488 192.318 536.633 194.418C537.874 196.424 539.592 198.62 541.978 200.434C544.363 202.248 547.322 203.776 550.853 204.349C554.288 204.922 558.201 204.827 561.923 203.394C562.877 203.108 563.736 202.63 564.69 202.153C565.549 201.675 566.503 201.103 567.267 200.53C568.126 199.957 568.889 199.193 569.652 198.524C570.32 197.76 571.084 196.997 571.752 196.042C572.993 194.323 574.138 192.318 574.806 190.217C575.474 188.116 575.855 185.825 575.855 183.533C575.855 181.241 575.474 178.949 574.71 176.849C574.042 174.748 572.897 172.743 571.657 171.024C571.084 170.165 570.32 169.401 569.557 168.541C568.794 167.873 568.03 167.109 567.171 166.536C566.408 165.868 565.454 165.39 564.595 164.913C563.64 164.435 562.781 164.053 561.827 163.671C558.105 162.239 554.193 162.239 550.757 162.812C547.322 163.48 544.268 165.008 541.882 166.823C539.496 168.637 537.779 170.833 536.633 172.838C535.488 174.939 534.725 176.849 534.343 178.472C534.152 179.236 534.057 180 533.961 180.668C533.961 180.955 533.866 181.241 533.866 181.528C533.866 181.814 533.866 182.005 533.866 182.292C533.866 182.673 533.866 183.055 533.866 183.246C533.866 183.533 533.866 183.628 533.866 183.628Z" fill="#E0E0E0"/>
<path d="M553.811 193.368L541.691 184.87L544.65 180.668L552.761 186.302L563.354 172.934L567.362 176.18L553.811 193.368Z" fill="#E0E0E0"/>
<path fill-rule="evenodd" clip-rule="evenodd" d="M215.413 36.3863C211.787 36.8638 208.351 37.7231 205.107 39.1555L197.472 32.7578L184.398 42.6885L188.502 51.6643C186.307 54.4335 184.494 57.5846 183.158 60.9266L173.328 61.786L171.133 78.0189L180.39 81.4565C180.867 85.085 181.726 88.5225 183.158 91.7691L176.764 99.4081L186.689 112.49L195.659 108.384C198.427 110.58 201.576 112.394 204.916 113.731L205.775 123.566L221.998 125.763L225.434 116.5C229.06 116.023 232.495 115.164 235.74 113.731L243.375 120.129L256.449 110.198L252.345 101.222C254.54 98.4532 256.353 95.3022 257.689 91.9601L267.519 91.1007L269.713 74.8678L260.552 71.4303C260.075 67.8017 259.216 64.3642 257.785 61.1176L264.178 53.4786L254.254 40.3968L245.283 44.5028C242.516 42.3065 239.366 40.4923 236.026 39.1555L235.168 29.3202L218.944 27.124L215.413 36.3863ZM220.28 58.8259C231.446 59.2079 239.366 69.616 236.79 80.5016C234.881 88.5225 227.342 94.2518 219.135 93.9653C207.97 93.5834 200.049 83.1752 202.626 72.2897C204.534 64.2687 211.978 58.5394 220.28 58.8259Z" fill="white"/>
<path fill-rule="evenodd" clip-rule="evenodd" d="M363.236 88.3316C360.945 88.6181 358.655 89.191 356.556 90.1459L351.593 86.0399L343.1 92.5331L345.772 98.3578C344.34 100.172 343.195 102.177 342.241 104.374L335.847 104.946L334.416 115.45L340.428 117.742C340.714 120.034 341.287 122.325 342.241 124.426L338.137 129.391L344.531 137.89L350.353 135.216C352.166 136.648 354.17 137.794 356.365 138.749L356.937 145.147L367.435 146.579L369.725 140.563C372.015 140.277 374.306 139.704 376.405 138.749L381.368 142.855L389.861 136.362L387.189 130.537C388.62 128.723 389.765 126.718 390.72 124.521L397.114 123.949L398.545 113.445L392.533 111.153C392.247 108.861 391.674 106.57 390.72 104.469L394.823 99.5037L388.429 91.0053L382.608 93.6789C380.795 92.2466 378.791 91.1008 376.596 90.1459L376.023 83.7482L365.526 82.3159L363.236 88.3316ZM366.48 102.941C373.733 103.228 378.886 110.007 377.169 117.073C375.928 122.325 371.061 125.954 365.717 125.763C358.464 125.476 353.311 118.697 355.029 111.631C356.174 106.379 361.041 102.75 366.48 102.941Z" fill="#EBEBEB"/>
<path d="M274.867 165.39C274.867 165.39 273.34 165.963 271.049 167.873C268.855 169.783 265.992 173.411 265.133 178.758C264.751 181.432 264.751 184.392 265.801 187.448C266.755 190.408 268.568 193.463 271.24 195.755C272.576 196.997 274.103 197.951 275.821 198.715C277.539 199.479 279.352 200.052 281.261 200.339C285.078 200.912 289.277 200.148 292.903 198.238C296.529 196.233 299.392 193.177 300.919 189.644C301.778 187.925 302.255 186.015 302.542 184.201C302.828 182.387 302.732 180.477 302.446 178.758C301.969 175.225 300.347 172.074 298.343 169.687C296.339 167.204 293.857 165.581 291.376 164.531C286.414 162.43 281.833 162.812 279.066 163.671C276.203 164.435 274.867 165.39 274.867 165.39C274.962 165.486 276.298 164.626 279.161 163.958C281.929 163.289 286.318 163.003 291.09 165.104C293.38 166.154 295.766 167.777 297.675 170.164C299.488 172.552 301.015 175.512 301.492 178.854C301.778 180.477 301.778 182.291 301.492 184.01C301.301 185.729 300.728 187.543 299.965 189.167C298.438 192.509 295.766 195.373 292.331 197.283C288.895 199.097 284.982 199.861 281.356 199.288C279.543 199.097 277.825 198.524 276.203 197.76C274.58 196.997 273.149 196.137 271.908 194.991C269.332 192.795 267.614 189.93 266.66 187.066C265.705 184.201 265.61 181.337 265.896 178.758C266.66 173.602 269.236 170.069 271.336 168.064C273.435 166.25 274.867 165.581 274.867 165.39Z" fill="#EBEBEB"/>
<path d="M255.113 150.59C255.113 150.59 255.113 150.399 255.017 149.921C254.922 149.444 254.731 148.871 254.54 148.011C254.063 146.293 253.395 143.81 252.44 140.468L252.345 140.659C256.258 138.558 261.316 135.789 267.423 132.447L267.137 132.351C269.236 134.739 271.527 137.317 274.008 140.181L274.103 140.277H274.294C277.73 139.418 281.451 139.036 285.364 139.131H285.555L285.65 138.94C287.273 136.075 288.895 133.02 290.708 129.869L290.231 130.06C295.384 131.588 300.919 133.211 306.741 134.93L306.454 134.548C306.263 137.794 306.073 141.327 305.786 144.956V145.242L305.977 145.338C308.936 147.152 311.989 149.444 314.661 152.308L314.852 152.499L315.139 152.404C318.192 151.544 321.628 150.59 325.159 149.539L324.586 149.348C327.163 154.123 329.93 159.183 332.793 164.435L332.889 163.862C330.503 165.963 327.831 168.35 325.063 170.737L324.872 170.928L324.968 171.215C325.827 174.557 326.304 178.376 326.113 182.196V182.482L326.399 182.673C329.262 184.297 332.316 186.015 335.465 187.734L335.179 187.161C333.652 192.413 332.03 197.951 330.407 203.681L330.98 203.299C327.735 203.108 324.204 202.917 320.578 202.63H320.292L320.101 202.917C318.288 205.972 315.902 208.932 313.23 211.511C313.134 211.702 313.325 210.938 313.039 212.084V212.179V212.37L313.134 212.657L313.325 213.325L313.707 214.566L314.471 217.049C314.948 218.672 315.425 220.391 315.902 222.014L316.188 221.441C311.13 224.211 306.073 226.98 301.11 229.749L301.778 229.844C299.488 227.266 297.198 224.592 294.907 222.11L294.716 221.919L294.43 222.014C290.804 222.874 287.082 223.351 283.455 223.256H283.169L282.978 223.542C281.261 226.598 279.638 229.653 277.921 232.613L278.493 232.327C272.863 230.704 267.328 229.08 261.984 227.553L262.365 228.03C262.556 224.497 262.747 221.059 262.938 217.622V217.335L262.652 217.144C259.407 215.235 256.544 212.847 253.967 210.174L253.776 209.983L253.49 210.078C250.055 211.033 246.715 211.988 243.47 212.943L243.947 213.134C240.989 207.882 238.317 202.821 235.645 198.047L235.549 198.524C238.317 196.137 240.798 193.845 243.279 191.649L243.47 191.458L243.375 191.267C242.42 187.448 242.039 183.724 242.134 180.191V180L241.943 179.904C238.603 178.09 235.645 176.467 232.877 174.939L233.068 175.321C234.881 168.923 236.504 163.48 237.84 158.802L237.553 158.992C241.657 159.183 245.092 159.374 247.955 159.565H248.051L248.146 159.47C250.055 156.223 251.868 154.027 253.108 152.69C253.681 152.022 254.158 151.544 254.54 151.162C255.017 150.781 255.208 150.59 255.113 150.59C255.113 150.59 254.922 150.781 254.54 151.067C254.158 151.353 253.681 151.831 253.013 152.499C251.772 153.836 249.864 156.032 247.86 159.279L248.051 159.183C245.188 158.992 241.848 158.802 237.649 158.515H237.458L237.362 158.706C236.026 163.385 234.404 168.828 232.495 175.225L232.4 175.512L232.591 175.607C235.358 177.135 238.317 178.854 241.657 180.668L241.466 180.382C241.37 183.915 241.657 187.734 242.707 191.649L242.802 191.267C240.321 193.464 237.744 195.755 234.977 198.142L234.69 198.333L234.881 198.62C237.458 203.394 240.225 208.36 243.088 213.707L243.279 213.993L243.661 213.898C246.905 212.943 250.246 211.988 253.681 211.033L253.204 210.938C255.781 213.611 258.739 215.999 262.079 218.004L261.888 217.526C261.697 220.964 261.506 224.401 261.22 227.935V228.316L261.602 228.412C266.946 229.94 272.481 231.563 278.111 233.282L278.493 233.377L278.684 232.995C280.306 230.035 282.024 226.98 283.742 223.924L283.265 224.211C286.986 224.306 290.804 223.924 294.525 222.969L294.048 222.778C296.339 225.356 298.629 227.935 300.919 230.608L301.206 230.895L301.587 230.704C306.55 228.03 311.608 225.261 316.665 222.396L317.047 222.205L316.952 221.823C316.475 220.2 315.997 218.481 315.52 216.858L314.757 214.375L314.375 213.134L314.184 212.466L314.089 212.179V211.988V211.893C313.802 212.943 313.993 212.179 313.993 212.466C316.856 209.792 319.242 206.736 321.055 203.585L320.578 203.872C324.109 204.063 327.64 204.349 330.98 204.54H331.362L331.457 204.158C333.08 198.524 334.702 192.891 336.229 187.639L336.324 187.257L335.942 187.066C332.793 185.347 329.739 183.628 326.877 182.005L327.163 182.482C327.258 178.567 326.781 174.652 325.922 171.215L325.731 171.692C328.403 169.305 331.075 166.918 333.461 164.817L333.748 164.531L333.557 164.149C330.694 158.897 327.831 153.836 325.254 149.062L325.063 148.775L324.682 148.871C321.246 149.826 317.811 150.876 314.661 151.735L315.139 151.831C312.371 148.966 309.317 146.579 306.263 144.765L306.454 145.147C306.645 141.518 306.836 137.985 307.027 134.739V134.452L306.741 134.357C300.919 132.638 295.384 131.11 290.231 129.582L289.945 129.487L289.754 129.773C288.036 132.924 286.318 136.075 284.696 138.845L284.982 138.654C280.974 138.558 277.157 139.036 273.722 139.895L274.008 139.99C271.527 137.221 269.236 134.548 267.137 132.256L266.946 132.065L266.755 132.16C260.648 135.598 255.59 138.367 251.772 140.563L251.677 140.659V140.754C252.631 144.001 253.395 146.388 253.872 148.107C254.158 148.871 254.349 149.539 254.445 150.017C255.017 150.303 255.113 150.59 255.113 150.59Z" fill="#EBEBEB"/>
<path d="M214.745 167.873L229.728 108.289L168.748 107.238L214.745 167.873Z" fill="#ECECEC"/>
<path d="M187.146 118.851L208.087 146.463L96.565 231.142L75.6243 203.53L187.146 118.851Z" fill="#ECECEC"/>
<path d="M105.763 320.175L98.0335 337.745C98.0335 337.745 113.302 351.495 112.157 354.933L77.6112 341.183L88.5858 313.3L105.763 320.175Z" fill="#412D83"/>
<path d="M77.6112 341.087L78.8518 338.318L111.585 352.546C111.585 352.546 112.825 353.787 112.253 354.838L77.6112 341.087Z" fill="#412D83"/>
<path d="M44.8785 345.002L35.1445 361.522C35.1445 361.522 48.6957 376.895 47.2643 380.142L14.5315 362.476L28.5599 336.026L44.8785 345.002Z" fill="#412D83"/>
<path d="M14.5316 362.572L16.0584 359.994L46.8825 377.85C46.8825 377.85 48.0277 379.283 47.2642 380.237L14.5316 362.572Z" fill="#412D83"/>
<path d="M87.1543 112.681L108.435 114.304L109.103 102.368C109.103 102.368 117.692 102.273 118.933 93.87C120.173 85.4671 121.509 65.9876 121.509 65.9876C112.348 60.4493 100.992 60.2584 91.735 65.5102L90.399 66.2741L87.1543 112.681Z" fill="#FFBE9D"/>
<path d="M109.103 102.368C109.103 102.368 103.759 102.082 98.606 97.6895C98.606 97.6895 100.419 104.278 108.913 104.66L109.103 102.368Z" fill="#EB996E"/>
<path d="M90.1127 75.3454C90.0172 75.2499 84.5776 72.8628 84.005 78.592C83.337 84.3213 89.2537 83.7483 89.3492 83.6529C89.3492 83.4619 90.1127 75.3454 90.1127 75.3454Z" fill="#FFBE9D"/>
<path d="M87.8224 81.2656C87.8224 81.2656 87.7269 81.3611 87.5361 81.3611C87.3452 81.4565 87.0589 81.4565 86.7726 81.2656C86.2001 80.9791 85.8183 79.9287 85.8183 78.8784C85.8183 78.3055 86.0092 77.828 86.2955 77.4461C86.4863 77.0641 86.868 76.7776 87.1543 76.7776C87.4406 76.7776 87.6315 76.9686 87.7269 77.1596C87.8224 77.3506 87.7269 77.4461 87.7269 77.4461C87.7269 77.4461 87.8224 77.3506 87.8224 77.1596C87.8224 77.0641 87.7269 76.8731 87.6315 76.7776C87.5361 76.6822 87.3452 76.5867 87.0589 76.5867C86.5818 76.5867 86.2 76.9686 85.9137 77.3506C85.6274 77.828 85.4366 78.3055 85.4366 78.8784C85.3412 80.0242 85.8183 81.1701 86.6772 81.552C87.0589 81.743 87.4406 81.6475 87.6315 81.4565C87.7269 81.3611 87.8224 81.2656 87.8224 81.2656Z" fill="#EB996E"/>
<path d="M117.883 79.3558C117.788 80.0242 117.215 80.5016 116.547 80.4062C115.879 80.3107 115.402 79.8332 115.497 79.1648C115.593 78.4964 116.165 78.019 116.833 78.1145C117.501 78.1145 117.979 78.6874 117.883 79.3558Z" fill="#412D83"/>
<path d="M118.265 77.7326C118.074 77.8281 117.31 77.0642 115.974 76.8732C114.734 76.6822 113.684 77.1597 113.493 77.0642C113.398 76.9687 113.589 76.6822 114.066 76.4913C114.543 76.2048 115.211 76.0138 116.07 76.2048C116.833 76.3003 117.501 76.6822 117.883 77.0642C118.265 77.3507 118.36 77.6371 118.265 77.7326Z" fill="#412D83"/>
<path d="M105.382 77.828C105.286 78.4964 104.714 78.9738 104.046 78.8783C103.378 78.7828 102.9 78.3054 102.996 77.637C103.091 76.9686 103.664 76.4911 104.332 76.5866C104.904 76.6821 105.382 77.255 105.382 77.828Z" fill="#412D83"/>
<path d="M105.572 76.2048C105.382 76.3003 104.618 75.5364 103.282 75.3454C102.042 75.1544 100.992 75.6318 100.801 75.5364C100.706 75.4409 100.896 75.1544 101.374 74.9634C101.851 74.677 102.519 74.486 103.378 74.677C104.141 74.7725 104.809 75.1544 105.191 75.5364C105.573 75.8228 105.668 76.1093 105.572 76.2048Z" fill="#412D83"/>
<path d="M108.913 86.422C108.913 86.3265 109.771 86.3265 111.012 86.3265C111.298 86.3265 111.68 86.3265 111.776 86.1355C111.871 85.9445 111.776 85.5626 111.68 85.0851C111.489 84.2257 111.298 83.3664 111.012 82.4115C110.153 78.6875 109.581 75.5364 109.771 75.5364C109.962 75.5364 110.726 78.4965 111.585 82.316C111.776 83.2709 111.966 84.1302 112.157 84.9896C112.253 85.3716 112.348 85.849 112.157 86.3265C112.062 86.5174 111.776 86.7084 111.585 86.7084C111.394 86.7084 111.203 86.7084 111.012 86.7084C109.676 86.6129 108.913 86.422 108.913 86.422Z" fill="#412D83"/>
<path d="M105 86.7083C105.191 86.7083 105 88.1406 106.05 89.2864C107.099 90.4323 108.626 90.5278 108.626 90.7187C108.626 90.8142 108.245 90.9097 107.672 90.9097C107.099 90.8142 106.145 90.5278 105.573 89.7639C104.905 89.0954 104.714 88.2361 104.714 87.5676C104.714 87.0902 104.905 86.7083 105 86.7083Z" fill="#412D83"/>
<path d="M106.622 71.1437C106.431 71.4302 105.191 71.1437 103.664 71.1437C102.137 71.0482 100.801 71.3347 100.705 71.0482C100.61 70.8572 100.896 70.5708 101.469 70.2843C102.041 69.9979 102.805 69.8069 103.759 69.8069C104.714 69.8069 105.477 70.0933 106.05 70.3798C106.431 70.6663 106.718 71.0482 106.622 71.1437Z" fill="#412D83"/>
<path d="M118.265 73.9128C117.979 74.1993 117.12 73.7218 116.07 73.6263C115.02 73.4354 114.066 73.5309 113.875 73.2444C113.78 73.0534 113.97 72.767 114.448 72.576C114.829 72.385 115.593 72.194 116.261 72.385C117.024 72.4805 117.597 72.8625 117.883 73.2444C118.36 73.4354 118.456 73.8173 118.265 73.9128Z" fill="#412D83"/>
<path d="M126.281 61.404C126.472 60.3537 126.281 59.2078 125.518 58.4439C124.754 57.68 123.418 57.5845 122.655 58.2529C123.227 56.9161 122.368 55.1018 120.937 54.8154C119.601 54.5289 118.265 55.3883 116.929 55.5793C115.593 55.7703 114.257 55.2928 113.112 54.5289C111.966 53.8605 110.917 53.0011 109.676 52.3327C107.195 50.9959 104.141 50.7094 101.469 51.4733C98.7969 52.2372 96.4111 54.147 95.0751 56.6296C93.3573 55.7703 91.067 56.4387 89.731 57.871C88.3949 59.3033 87.8224 61.3085 87.7269 63.2183C87.7269 64.5551 87.9178 65.7965 88.2041 67.1333C88.2041 67.2288 88.204 67.3243 88.1086 67.4197C87.536 72.0032 87.3452 77.5414 89.2538 77.8279C92.6893 78.4008 92.7848 71.8122 92.7848 71.8122C97.1746 70.7618 96.5066 64.2687 97.7472 63.4093C98.8923 62.6454 101.469 60.6401 109.581 66.4649C112.73 68.6611 117.311 69.234 119.887 69.043C119.983 69.043 120.078 69.043 120.078 69.043C120.078 69.043 120.078 69.043 120.173 69.043H120.269C121.128 68.9475 121.891 68.7566 122.655 68.3746C123.514 67.9927 124.372 67.4197 124.85 66.5604C125.327 65.701 125.327 64.6506 124.754 63.8867C125.422 63.3138 126.09 62.4544 126.281 61.404Z" fill="#412D83"/>
<path d="M109.103 109.721L108.149 143.046L87.4406 98.4534L88.0132 94.3474L109.103 109.721Z" fill="#EBEBEB"/>
<path d="M95.3614 209.314C96.1249 209.601 139.26 253.143 138.305 261.069C137.351 268.899 106.622 326.955 106.622 326.955L84.7686 316.165L105.286 265.27L105 262.119L79.9016 241.494L81.2376 208.359L95.3614 209.314Z" fill="#261363"/>
<path d="M86.1046 217.908C85.6275 218.672 78.1839 287.232 76.1798 290.765C74.1758 294.298 44.2105 352.832 44.2105 352.832L21.9751 343.856L49.1729 279.593L46.1191 218.768L47.8368 201.58L81.4285 208.455L86.1046 217.908Z" fill="#261363"/>
<path d="M76.5615 289.524C76.5615 289.524 76.6569 289.333 76.7523 288.855C76.8478 288.378 76.9432 287.71 77.0386 286.85C77.3249 285.036 77.7067 282.553 78.1838 279.593C79.0427 273.386 80.2833 264.888 81.6193 255.53C82.9554 246.172 84.1005 237.674 84.9594 231.467C85.3411 228.412 85.7229 225.929 85.9137 224.115C86.0092 223.255 86.1046 222.587 86.1046 222.11C86.2 221.632 86.2 221.441 86.2 221.441C86.2 221.441 86.1046 221.632 86.0091 222.11C85.9137 222.587 85.8183 223.255 85.7229 224.115C85.4366 225.929 85.0548 228.412 84.5777 231.372C83.7188 237.579 82.4782 246.077 81.1422 255.435C79.8061 264.793 78.6609 273.291 77.8021 279.498C77.4203 282.553 77.0386 285.036 76.8478 286.85C76.7523 287.71 76.6569 288.378 76.6569 288.855C76.5614 289.333 76.466 289.524 76.5615 289.524Z" fill="#455A64"/>
<path d="M49.65 277.588C49.5546 277.588 50.1272 280.071 50.986 283.031C51.8449 285.991 52.6084 288.378 52.7038 288.378C52.7992 288.378 52.2266 285.895 51.3677 282.935C50.5089 279.88 49.7454 277.492 49.65 277.588Z" fill="#455A64"/>
<path d="M46.2146 293.057C46.2146 293.057 46.7871 292.484 47.4551 291.338C48.1231 290.192 48.7911 288.569 49.2683 286.659C49.65 284.75 49.65 282.935 49.5546 281.599C49.4592 280.357 49.1729 279.593 49.1729 279.593C48.982 279.593 49.65 282.744 48.7911 286.564C48.0277 290.383 46.1192 292.961 46.2146 293.057Z" fill="#455A64"/>
<path d="M112.444 257.822C112.444 257.727 110.63 258.491 108.817 260.114C107.099 261.737 106.145 263.456 106.241 263.456C106.336 263.551 107.386 262.024 109.103 260.4C110.917 258.873 112.539 257.918 112.444 257.822Z" fill="#455A64"/>
<path d="M109.103 255.817C109.008 255.721 107.958 256.676 107.004 258.204C106.05 259.732 105.668 261.164 105.763 261.164C105.859 261.259 106.431 259.923 107.386 258.395C108.245 256.962 109.199 255.912 109.103 255.817Z" fill="#455A64"/>
<path d="M106.145 155.841L100.61 183.246L96.1248 221.441C96.1248 221.441 77.6112 218.863 69.7859 216.38C60.6245 213.516 40.775 211.033 40.775 211.033L44.115 214.375C36.9577 212.37 32.4725 205.59 32.4725 205.59C44.783 194.227 55.185 170.833 55.185 170.833L64.5372 124.521C64.5372 124.521 65.9687 118.028 66.8276 115.068C67.6864 112.203 81.8102 102.75 83.8142 101.604L85.0548 101.031L85.4366 97.3074L86.868 96.448L102.137 110.198C105.095 112.872 107.004 116.596 107.481 120.606C107.958 124.808 108.435 130.919 108.149 138.081C107.958 143.428 106.145 155.841 106.145 155.841Z" fill="#412D83"/>
<path d="M95.5511 108.384C95.5511 108.384 103.663 112.681 105.094 116.405C106.526 120.129 102.327 160.52 102.327 160.52L131.433 161.093L131.529 178.472C131.529 178.472 85.34 182.1 83.5268 179.618C81.141 176.276 78.2781 144.669 78.2781 144.669L77.2284 121.943C77.2284 121.943 79.9004 104.564 95.5511 108.384Z" fill="#412D83"/>
<g opacity="0.3">
<g opacity="0.3">
<path opacity="0.3" d="M100.61 183.151C96.6974 184.392 93.0711 184.583 88.9675 184.201C84.864 183.819 80.6651 181.623 79.1382 177.803C77.993 174.843 78.4701 171.597 78.2793 168.446C78.0884 165.677 77.4204 163.003 77.0387 160.329C76.6569 157.656 77.993 152.69 78.9473 150.017C78.9473 150.017 79.997 168.732 82.9554 176.658C83.3371 177.708 83.8143 178.854 84.7686 179.522C85.8183 180.382 87.2498 180.477 88.5858 180.573C92.3076 180.955 101.278 180.286 101.278 180.286" fill="black"/>
</g>
</g>
<path d="M77.2296 124.33C77.2296 124.33 77.2296 124.426 77.2296 124.712C77.2296 124.999 77.2296 125.381 77.2296 125.954C77.325 127.004 77.3249 128.627 77.4204 130.633C77.5158 132.638 77.6113 135.12 77.8021 137.985C77.993 140.85 78.0884 144.096 78.4701 147.725C78.7564 151.353 79.1382 155.268 79.6153 159.47C80.0925 163.671 80.5696 168.159 81.4285 172.934C81.6193 174.079 81.8102 175.321 82.1919 176.467C82.5736 177.612 83.2417 178.758 84.2914 179.618C85.2457 180.382 86.5817 180.954 87.9178 180.954C89.1584 180.954 90.4944 180.954 91.8305 180.954C96.9837 180.859 102.423 180.573 107.863 180.286C116.07 179.809 124.086 179.331 131.53 178.758H131.721V178.567C131.721 172.456 131.625 166.631 131.625 161.284V161.093H131.434C119.792 160.807 110.153 160.616 103.378 160.52C100.037 160.425 97.3654 160.425 95.5522 160.425C94.6934 160.425 93.93 160.425 93.4528 160.425C92.9756 160.425 92.7848 160.425 92.7848 160.425C92.7848 160.425 93.0711 160.425 93.4528 160.52C93.93 160.52 94.5979 160.52 95.5522 160.616C97.3654 160.711 100.037 160.711 103.378 160.902C110.153 161.093 119.792 161.38 131.434 161.666L131.243 161.475C131.243 166.822 131.243 172.647 131.339 178.758L131.53 178.567C124.086 179.045 116.165 179.618 107.863 180C102.328 180.286 96.9837 180.573 91.8305 180.668C90.4944 180.668 89.2538 180.763 88.0132 180.668C86.7726 180.763 85.6275 180.191 84.6732 179.522C83.7188 178.758 83.0508 177.708 82.6691 176.562C82.2873 175.416 82.0965 174.27 81.9056 173.029C81.1422 168.35 80.5696 163.862 80.0925 159.661C79.6153 155.459 79.2336 151.544 78.8518 147.916C78.4701 144.287 78.3747 141.041 78.1839 138.176C77.993 135.311 77.8021 132.829 77.7067 130.823C77.6113 128.818 77.4204 127.29 77.4204 126.145C77.4204 125.667 77.325 125.19 77.325 124.903C77.325 124.521 77.2296 124.33 77.2296 124.33Z" fill="#412D83"/>
<path d="M125.804 178.185C125.899 178.185 125.995 174.461 125.995 169.783C125.995 165.104 125.804 161.38 125.708 161.38C125.613 161.38 125.518 165.104 125.518 169.783C125.518 174.461 125.613 178.185 125.804 178.185Z" fill="#412D83"/>
<path d="M128.858 163.958C128.953 163.958 128.667 163.576 128.094 163.767C127.808 163.862 127.522 164.149 127.522 164.531C127.522 164.912 127.712 165.39 128.094 165.581C128.571 165.772 128.953 165.581 129.239 165.39C129.526 165.103 129.621 164.721 129.526 164.435C129.43 163.862 129.048 163.767 128.953 163.862C128.953 163.958 129.144 164.149 129.144 164.531C129.144 164.721 129.048 164.912 128.858 165.103C128.667 165.294 128.38 165.294 128.19 165.199C127.999 165.103 127.808 164.817 127.808 164.626C127.808 164.435 127.903 164.244 128.094 164.149C128.571 163.958 128.858 164.053 128.858 163.958Z" fill="#412D83"/>
<path d="M64.3464 128.245C64.3464 128.245 49.1728 148.011 47.3596 153.454C45.5464 158.801 46.978 166.631 50.0317 170.26C53.0855 173.984 55.5667 172.456 55.5667 172.456L64.3464 128.245Z" fill="#412D83"/>
<path d="M56.1393 170.928C56.1393 171.024 57.8571 171.501 59.9565 171.788C62.056 172.17 63.7738 172.361 63.8692 172.17C63.9647 171.979 62.1515 171.597 60.052 171.31C57.8571 170.928 56.1393 170.737 56.1393 170.928Z" fill="#412D83"/>
<path d="M53.2764 185.538C53.2764 185.538 53.0855 185.92 52.8947 186.588C52.7038 187.257 52.3221 188.211 51.8449 189.453C50.986 191.84 49.5546 195.182 47.7414 198.62C45.9282 202.057 44.115 205.113 42.6836 207.309C42.0156 208.359 41.3476 209.219 40.9658 209.792C40.5841 210.365 40.3932 210.747 40.3932 210.747C40.3932 210.747 40.6795 210.46 41.1567 209.887C41.6338 209.314 42.2064 208.455 42.9699 207.404C44.4967 205.304 46.4054 202.248 48.2185 198.811C50.0317 195.278 51.3677 192.031 52.1312 189.548C52.5129 188.307 52.7992 187.352 52.9901 186.588C53.1809 185.92 53.2764 185.538 53.2764 185.538Z" fill="#412D83"/>
<g opacity="0.3">
<g opacity="0.3">
<path opacity="0.3" d="M52.2267 187.83C49.8409 192.127 47.3597 196.423 43.7333 199.766C42.3973 200.911 40.9658 201.962 40.0115 203.394C39.0572 204.826 38.5801 206.832 39.5344 208.264C39.8207 208.741 40.4887 209.219 41.0612 209.123C41.443 209.028 41.8247 208.646 42.0156 208.359C46.5962 202.535 50.0317 195.755 52.0358 188.593" fill="black"/>
</g>
</g>
<g opacity="0.3">
<g opacity="0.3">
<path opacity="0.3" d="M54.2307 172.456C52.1312 170.928 51.4632 168.159 51.7495 165.581C52.0358 163.003 53.1809 160.711 54.2307 158.419C57.4753 151.162 59.6703 144.669 61.5789 136.839L63.0104 131.396L55.5667 170.546L54.2307 172.456Z" fill="black"/>
</g>
</g>
<path d="M91.6396 106.665C91.735 106.57 90.399 105.424 88.7767 103.8C87.2498 102.273 86.1046 100.936 85.9137 100.936C85.8183 101.031 86.7726 102.559 88.3949 104.087C90.1127 105.806 91.5442 106.761 91.6396 106.665Z" fill="#412D83"/>
<path d="M93.1664 110.007C93.1664 110.103 94.0254 110.389 95.3614 111.058C96.6974 111.726 98.4151 112.872 100.037 114.495C101.66 116.119 102.71 117.933 103.378 119.27C104.046 120.606 104.236 121.561 104.332 121.466C104.332 121.466 104.332 121.179 104.236 120.797C104.141 120.415 103.95 119.747 103.664 119.079C103.091 117.646 102.042 115.832 100.324 114.113C98.7015 112.49 96.7928 111.344 95.4568 110.771C94.7888 110.485 94.2162 110.294 93.7391 110.198C93.4528 110.007 93.1664 110.007 93.1664 110.007Z" fill="#412D83"/>
<path d="M52.5129 176.371C52.5129 176.371 52.6084 176.275 52.7038 175.989C52.8947 175.703 53.0855 175.321 53.2764 174.843C53.8489 173.793 54.5169 172.36 55.4713 170.546C56.4256 166.249 57.7616 159.852 59.1931 152.881C60.5291 146.292 61.7697 140.277 62.6286 135.789C63.0103 133.688 63.392 131.874 63.5829 130.632C63.6783 130.059 63.7738 129.582 63.8692 129.2C63.9647 128.914 63.9646 128.723 63.9646 128.723C63.9646 128.723 63.8692 128.914 63.7738 129.2C63.6783 129.582 63.5829 130.059 63.3921 130.632C63.1058 131.874 62.724 133.688 62.2469 135.789C61.2926 140.181 60.052 146.197 58.6205 152.786C57.1891 159.852 55.853 166.154 54.9941 170.546C54.1352 172.36 53.4672 173.793 52.9901 174.843C52.7992 175.321 52.6084 175.703 52.4175 175.989C52.6084 176.18 52.5129 176.371 52.5129 176.371Z" fill="#412D83"/>
<path d="M102.805 160.52C102.805 160.52 102.9 160.043 102.996 159.088C103.091 158.037 103.282 156.796 103.378 155.173C103.759 151.831 104.141 147.247 104.618 142.186C105.095 137.126 105.477 132.542 105.668 129.2C105.763 127.577 105.859 126.24 105.954 125.285C106.05 124.33 106.05 123.853 105.954 123.853C105.954 123.853 105.859 124.33 105.763 125.285C105.668 126.335 105.477 127.577 105.382 129.2C105 132.542 104.618 137.126 104.141 142.186C103.664 147.247 103.282 151.831 103.091 155.173C102.996 156.796 102.9 158.133 102.805 159.088C102.805 160.043 102.805 160.52 102.805 160.52Z" fill="#412D83"/>
<path d="M131.052 163.098C131.052 163.098 137.351 158.324 138.878 158.038C140.023 157.847 147.085 157.942 150.234 158.038C151.475 158.038 152.524 158.992 152.524 160.234C152.524 160.329 152.524 160.425 152.524 160.425C152.238 161.762 150.998 162.048 150.998 162.048C150.998 162.048 152.62 162.525 152.715 164.34C152.715 166.154 150.52 166.536 150.52 166.536C150.52 166.536 150.616 166.631 150.807 166.822C152.047 168.064 151.379 170.069 149.757 170.451L148.803 170.642C148.803 170.642 150.139 171.215 150.139 172.456C150.139 174.843 144.699 175.321 144.699 175.321C144.699 175.321 131.434 177.421 131.148 177.326C130.766 177.326 131.052 163.098 131.052 163.098Z" fill="#FFBE9D"/>
<path d="M148.993 155.173C148.898 155.937 148.707 157.656 147.371 158.419L139.928 158.133C139.928 158.133 145.463 156.223 146.226 155.268C146.512 154.982 146.894 154.504 147.276 154.218C148.039 153.741 149.089 154.313 148.993 155.173Z" fill="#FFBE9D"/>
<path d="M143.459 158.037C143.459 158.133 144.985 158.324 146.799 158.324C148.707 158.324 150.139 158.228 150.139 158.037C150.139 157.942 148.612 157.751 146.799 157.751C144.985 157.846 143.459 157.942 143.459 158.037Z" fill="#EB996E"/>
<path d="M145.176 162.239C145.176 162.335 146.512 162.621 148.135 162.526C149.757 162.43 151.093 162.144 150.998 162.048C150.998 161.953 149.662 162.048 148.135 162.048C146.417 162.048 145.176 162.048 145.176 162.239Z" fill="#EB996E"/>
<path d="M141.359 161.666C141.264 161.762 141.359 162.144 141.836 162.43C142.218 162.717 142.695 162.621 142.695 162.526C142.695 162.43 142.409 162.239 142.123 162.048C141.741 161.857 141.455 161.571 141.359 161.666Z" fill="#EB996E"/>
<path d="M144.317 166.918C144.317 167.013 145.749 167.109 147.467 167.013C149.184 166.918 150.616 166.822 150.616 166.631C150.616 166.536 149.184 166.44 147.467 166.536C145.749 166.631 144.317 166.822 144.317 166.918Z" fill="#EB996E"/>
<path d="M140.118 164.913C140.023 164.913 139.928 165.008 139.928 165.295C139.928 165.581 139.928 166.058 140.214 166.345C140.5 166.727 140.882 166.918 141.168 166.918C141.454 166.918 141.645 166.918 141.645 166.822C141.645 166.727 140.977 166.631 140.596 166.058C140.118 165.581 140.214 164.913 140.118 164.913Z" fill="#EB996E"/>
<path d="M143.172 171.501C143.172 171.597 144.508 171.597 146.035 171.406C147.658 171.215 148.898 170.928 148.898 170.833C148.898 170.737 147.562 170.737 146.035 170.928C144.413 171.119 143.172 171.406 143.172 171.501Z" fill="#EB996E"/>
<path d="M139.069 169.209C138.973 169.209 138.878 169.4 138.878 169.687C138.878 169.973 138.973 170.355 139.26 170.737C139.832 171.406 140.405 171.597 140.5 171.501C140.596 171.406 140.118 170.928 139.641 170.355C139.26 169.782 139.164 169.209 139.069 169.209Z" fill="#EB996E"/>
<path d="M46.5963 214.662C44.0196 214.471 41.5384 212.848 40.2024 210.651C40.0115 210.365 39.9161 210.079 40.107 209.792C40.2024 209.601 40.4887 209.601 40.6795 209.601C42.779 209.601 44.7831 209.983 46.7871 210.651C46.978 210.747 47.2643 210.842 47.3597 211.033C47.4551 211.224 47.3597 211.415 47.3597 211.511C47.0734 212.561 46.8825 213.516 46.5963 214.566" fill="#412D83"/>
<g opacity="0.4">
<g opacity="0.4">
<path opacity="0.4" d="M46.5963 214.662C44.0196 214.471 41.5384 212.848 40.2024 210.651C40.0115 210.365 39.9161 210.079 40.107 209.792C40.2024 209.601 40.4887 209.601 40.6795 209.601C42.779 209.601 44.7831 209.983 46.7871 210.651C46.978 210.747 47.2643 210.842 47.3597 211.033C47.4551 211.224 47.3597 211.415 47.3597 211.511C47.0734 212.561 46.8825 213.516 46.5963 214.566" fill="black"/>
</g>
</g>
<path d="M109.103 109.721C109.103 109.721 112.157 119.938 111.298 119.365C110.439 118.792 108.626 117.169 108.626 117.169L109.103 109.721Z" fill="#EBEBEB"/>
<path d="M109.008 114.495L110.63 118.506C110.821 118.888 110.917 119.365 110.917 119.747C111.012 120.893 111.203 122.898 110.535 123.089C109.581 123.28 108.722 122.325 108.722 122.325L109.008 114.495Z" fill="#C6368B"/>
<path d="M57.2845 115.068C57.2845 115.068 73.6031 108.67 82.6691 114.304C91.735 119.938 93.3574 128.914 98.7015 128.914C109.199 128.914 108.817 121.466 108.817 121.466L111.012 122.134C111.012 123.662 113.398 134.548 102.423 135.884C91.3533 137.221 86.6772 122.134 76.7524 122.134C66.8276 122.134 59.2885 127.482 59.2885 127.482L52.1312 122.994L57.2845 115.068Z" fill="#C6368B"/>
<path d="M99.0832 135.789C99.0832 135.789 94.9797 133.688 92.7848 128.532C90.2082 122.707 84.7686 116.023 80.2833 114.304C75.7026 112.586 65.2053 111.44 57.9525 116.214L53.2764 122.516L59.2885 126.431C59.2885 126.431 64.0601 123.853 69.8814 122.134C77.4204 120.034 81.9057 122.421 86.2955 126.527C86.5818 126.813 86.7726 127.004 87.0589 127.291C88.2041 128.532 91.1625 131.397 93.93 133.402C96.2203 135.025 98.1289 135.789 99.0832 135.789Z" fill="#C6368B"/>
<path d="M436.908 46.8898C446.546 48.4176 453.703 40.2057 455.898 33.0441C457.998 26.36 458.952 19.3894 461.91 13.0872C466.014 4.20689 476.893 0.100924 486.627 0.960312C496.456 1.72421 506.286 6.59408 514.875 11.1775L512.489 64.6505C512.489 64.6505 493.689 44.5981 484.718 44.3117C469.64 43.7388 470.499 68.47 455.898 72.0986C455.898 72.0986 435.381 77.6369 421.543 59.7807C412.764 48.4176 412 34.5719 412 34.5719C412 34.5719 418.68 44.1207 436.908 46.8898Z" fill="#C6368B"/>
<path d="M515.257 2.29712C515.162 2.29712 512.49 59.1122 509.34 129.105C506.191 199.193 503.805 256.008 503.901 256.008C503.996 256.008 506.668 199.193 509.817 129.105C512.967 59.1122 515.352 2.29712 515.257 2.29712Z" fill="#412D83"/>
<g opacity="0.2">
<g opacity="0.2">
<path opacity="0.2" d="M463.534 29.3201C462.197 34.2854 459.239 40.9696 456.376 45.362C453.609 49.7544 449.314 53.3829 444.256 54.4333C443.302 54.6243 442.348 54.7198 441.584 55.1017C440.726 55.4837 439.962 56.2476 439.962 57.2024C439.962 58.6348 441.394 59.4942 442.634 60.1626C444.447 61.022 446.261 61.9768 448.169 62.2633C450.173 62.6452 451.7 62.8362 453.036 61.4039C454.181 60.1626 455.708 58.6348 456.567 57.2024C460.957 49.6589 463.152 38.8688 463.534 30.3704" fill="black"/>
</g>
</g>
<path d="M450.459 63.6958C450.459 63.6958 450.65 63.6003 450.937 63.4093C451.223 63.2183 451.605 62.9319 452.082 62.5499C453.036 61.786 454.372 60.4492 455.613 58.6349C456.949 56.8207 458.189 54.4335 459.144 51.6643C460.193 48.8952 461.052 45.7441 461.816 42.4975C463.343 35.9089 464.011 29.7977 464.297 25.3098C464.392 23.1135 464.488 21.2993 464.392 20.0579C464.392 19.485 464.392 19.0076 464.392 18.6256C464.392 18.3392 464.392 18.1482 464.392 18.1482C464.392 18.1482 464.392 18.3392 464.297 18.6256C464.297 19.0076 464.297 19.485 464.201 20.0579C464.106 21.2993 464.106 23.1135 463.915 25.3098C463.629 29.7022 462.865 35.8134 461.339 42.402C460.575 45.6486 459.716 48.7997 458.762 51.5689C457.808 54.338 456.567 56.6297 455.326 58.444C454.086 60.2582 452.845 61.5951 451.891 62.359C451.032 63.2183 450.459 63.6958 450.459 63.6958Z" fill="#412D83"/>
<path d="M573.565 267.371L445.783 288.282V267.371H573.565Z" fill="#E0E0E0"/>
<path d="M424.693 314.637L296.816 335.644V314.637H424.693Z" fill="#E0E0E0"/>
<path d="M276.68 359.898L148.898 380.906V359.898H276.68Z" fill="#E0E0E0"/>
<path d="M128.953 395.897L1.17121 416.904V395.897H128.953Z" fill="#E0E0E0"/>
<path d="M445.688 251.711H573.565V267.371H445.688V251.711Z" fill="#412D83"/>
<g opacity="0.3">
<path opacity="0.3" d="M445.783 251.711H485.673V267.371H445.783V251.711Z" fill="black"/>
</g>
<path d="M296.816 298.978H424.693V314.638H296.816V298.978Z" fill="#412D83"/>
<g opacity="0.3">
<path opacity="0.3" d="M296.816 298.977H336.706V314.637H296.816V298.977Z" fill="black"/>
</g>
<path d="M148.803 344.238H276.68V359.898H148.803V344.238Z" fill="#412D83"/>
<g opacity="0.3">
<path opacity="0.3" d="M148.898 344.238H188.788V359.898H148.898V344.238Z" fill="black"/>
</g>
<path d="M0.88488 380.237H128.762V395.897H0.88488V380.237Z" fill="#412D83"/>
<g opacity="0.3">
<path opacity="0.3" d="M0.980316 380.237H40.8704V395.897H0.980316V380.237Z" fill="black"/>
</g>
<path d="M79.7107 323.135C79.7107 325.045 78.1839 326.573 76.2753 326.573C74.3666 326.573 72.8397 325.045 72.8397 323.135C72.8397 321.226 74.3666 319.698 76.2753 319.698C78.1839 319.698 79.7107 321.226 79.7107 323.135Z" fill="#EBEBEB"/>
</svg>
