<svg width="318" height="326" viewBox="0 0 318 326" fill="none" xmlns="http://www.w3.org/2000/svg">
<g opacity="0.25">
<path d="M191.414 0H16.6238V60.9966H191.414V0Z" fill="#F0F0F0"/>
<path d="M188.049 57.7036V3.354L19.8873 3.354V57.7036L188.049 57.7036Z" fill="#E7E7E7"/>
<path d="M76.9668 0.684082H73.6523V60.3122H76.9668V0.684082Z" fill="#F0F0F0"/>
<path d="M55.2355 57.75H73.6602V3.40045H55.2355L55.2355 57.75Z" fill="#E1E1E1"/>
<path d="M112.412 57.75H130.837V3.40045H112.412V57.75Z" fill="#E1E1E1"/>
<path d="M169.58 57.75H188.004V3.40045H169.58V57.75Z" fill="#E1E1E1"/>
<path d="M134.093 0.684082H130.779V60.3122H134.093V0.684082Z" fill="#F0F0F0"/>
<path d="M6.29425e-05 61.0732H16.5725L16.5725 0.0766449H6.29425e-05L6.29425e-05 61.0732Z" fill="#E7E7E7"/>
<path d="M62.2468 57.7706H31.6365L38.8504 11.3389H69.4606L62.2468 57.7706Z" fill="#ECECEC"/>
<path d="M122.2 57.7706H91.4922L96.8539 11.3389H127.464L122.2 57.7706Z" fill="#F5F5F5"/>
<path d="M107.577 57.7719H79.6965L91.3947 15.5435H119.275L107.577 57.7719Z" fill="#E1E1E1"/>
<path d="M50.5485 7.625H19.9382V57.7713H50.5485V7.625Z" fill="#F5F5F5"/>
<path d="M181.276 7.625H150.666V57.7713H181.276V7.625Z" fill="#F5F5F5"/>
<path d="M159.634 57.7719H135.848L144.134 15.5435H167.92L159.634 57.7719Z" fill="#E1E1E1"/>
<path d="M147.838 57.7714H134.093V18.5732H160.901L147.838 57.7714Z" fill="#F5F5F5"/>
<path d="M181.373 7.625H174.354V57.7713H181.373V7.625Z" fill="#FAFAFA"/>
<path d="M41.7748 53.9587C41.2874 53.9587 40.8975 53.5677 40.8975 53.0789V12.3168C40.8975 11.828 41.2874 11.437 41.7748 11.437C42.2623 11.437 42.6522 11.828 42.6522 12.3168V53.0789C42.6522 53.5677 42.2623 53.9587 41.7748 53.9587Z" fill="#F0F0F0"/>
<path d="M248.638 61.0947H73.8474V122.091H248.638V61.0947Z" fill="#F0F0F0"/>
<path d="M245.329 118.735V64.3857L77.1673 64.3857V118.735L245.329 118.735Z" fill="#E7E7E7"/>
<path d="M134.288 61.7783H130.974V121.406H134.288V61.7783Z" fill="#F0F0F0"/>
<path d="M112.481 118.74H130.905V64.3907H112.481V118.74Z" fill="#E1E1E1"/>
<path d="M169.658 118.74H188.083V64.3907H169.658V118.74Z" fill="#E1E1E1"/>
<path d="M226.825 118.74H245.25V64.3907H226.825V118.74Z" fill="#E1E1E1"/>
<path d="M191.317 61.7783H188.002V121.406H191.317V61.7783Z" fill="#F0F0F0"/>
<path d="M57.2454 122.063H73.8179L73.8179 61.0669H57.2454L57.2454 122.063Z" fill="#E7E7E7"/>
<path d="M176.499 118.767H145.889L153.103 72.4326H183.713L176.499 118.767Z" fill="#ECECEC"/>
<path d="M236.647 118.767H206.037L211.301 72.4326H242.009L236.647 118.767Z" fill="#F5F5F5"/>
<path d="M222.024 118.767H194.144L205.842 76.5391H233.723L222.024 118.767Z" fill="#E1E1E1"/>
<path d="M164.703 68.6211H134.093V118.767H164.703V68.6211Z" fill="#F5F5F5"/>
<path d="M124.247 68.6211H93.6367V118.767H124.247V68.6211Z" fill="#F5F5F5"/>
<path d="M102.605 118.767H78.9165L87.1052 76.5391H110.892L102.605 118.767Z" fill="#E1E1E1"/>
<path d="M90.8098 118.767H77.1619V79.667H103.873L90.8098 118.767Z" fill="#F5F5F5"/>
<path d="M124.345 68.6211H117.326V118.767H124.345V68.6211Z" fill="#FAFAFA"/>
<path d="M155.93 115.053C155.442 115.053 155.052 114.662 155.052 114.173V73.411C155.052 72.9223 155.442 72.5312 155.93 72.5312C156.417 72.5312 156.807 72.9223 156.807 73.411V114.173C156.904 114.564 156.417 115.053 155.93 115.053Z" fill="#F0F0F0"/>
<path d="M203.892 34.7012V47.1155C203.892 54.7401 210.131 61.0939 217.833 61.0939C225.437 61.0939 231.773 54.8379 231.773 47.1155V34.7012H203.892Z" fill="#ECECEC"/>
<path d="M116.643 199.999H29.6868V210.165H116.643V199.999Z" fill="#E7E7E7"/>
<path d="M116.546 210.165H35.4385V276.636H116.546V210.165Z" fill="#ECECEC"/>
<path d="M116.575 276.718H312.227V210.247L116.575 210.247V276.718Z" fill="#F5F5F5"/>
<path d="M35.5359 213.957L312.296 213.957V210.242L35.5359 210.242V213.957Z" fill="#E1E1E1"/>
<path d="M116.596 210.211L318 210.211V200.045L116.596 200.045V210.211Z" fill="#F0F0F0"/>
<path d="M35.4385 276.733V292.862L51.621 276.733H35.4385Z" fill="#ECECEC"/>
<path d="M116.643 276.733V292.862L132.826 276.733H116.643Z" fill="#F5F5F5"/>
<path d="M312.296 276.733V292.862L296.113 276.733H312.296Z" fill="#F5F5F5"/>
<path d="M116.643 276.733V292.862L100.461 276.733H116.643Z" fill="#ECECEC"/>
<path d="M231.091 276.733V292.862L214.908 276.733H231.091Z" fill="#E1E1E1"/>
<path d="M231.091 276.733V292.862L247.273 276.733H231.091Z" fill="#E1E1E1"/>
<path d="M169.09 164.026L163.144 197.555H137.7L136.725 199.999H162.754H178.644H221.83L228.166 164.026H169.09Z" fill="#E1E1E1"/>
</g>
<path d="M75.0173 316.811H82.2312L82.5237 299.998H75.3098L75.0173 316.811Z" fill="#FF8B7B"/>
<path d="M31.5391 316.811H38.7529L41.9699 299.998H34.7561L31.5391 316.811Z" fill="#FF8B7B"/>
<path d="M39.2403 316.029H31.1491C30.8566 316.029 30.5642 316.225 30.5642 316.518L29.2968 322.97C29.1994 323.654 29.6868 324.24 30.3692 324.24C33.1962 324.143 34.561 324.045 38.168 324.045C40.4101 324.045 44.8944 324.24 47.9165 324.24C50.841 324.24 51.231 321.21 50.0611 320.917C44.407 319.646 42.2623 317.984 40.5076 316.42C40.1177 316.127 39.7277 316.029 39.2403 316.029Z" fill="#1A2E35"/>
<path d="M82.1337 316.029H74.2374C73.945 316.029 73.6525 316.225 73.6525 316.518L72.3852 322.97C72.2877 323.654 72.7752 324.24 73.4576 324.24C76.2846 324.24 80.4765 324.045 83.986 324.045C88.1778 324.045 88.6652 324.24 93.5395 324.24C96.464 324.24 97.2439 321.21 95.9766 320.917C90.3225 319.646 88.8602 319.548 83.8885 316.518C83.401 316.225 82.8161 316.029 82.1337 316.029Z" fill="#1A2E35"/>
<path d="M80.2815 87.1936L90.1275 83.9678C90.1275 83.9678 100.363 107.721 103.775 109.188C108.455 111.143 114.889 117.496 119.568 121.406C119.763 122.677 119.178 125.805 118.398 126.685C110.014 124.73 99.681 119.94 96.269 116.812C88.5677 109.579 80.2815 87.1936 80.2815 87.1936Z" fill="#FF8B7B"/>
<path d="M77.942 81.7197C75.1149 88.0736 86.3257 108.21 86.3257 108.21L101.143 101.368C101.143 101.368 98.3163 91.4948 93.832 83.6748C89.1527 75.5614 81.0615 74.6817 77.942 81.7197Z" fill="#FFF567"/>
<path opacity="0.2" d="M91.8822 96.872C88.6651 92.3754 83.401 91.1047 78.7217 90.9092C81.1588 98.9248 86.3255 108.211 86.3255 108.211L94.8067 104.301C94.5142 101.564 93.5394 99.1203 91.8822 96.872Z" fill="black"/>
<path d="M118.593 120.625L127.172 121.994L124.93 131.084C124.93 131.084 120.543 129.325 116.643 125.904L118.593 120.625Z" fill="#CD5B51"/>
<path d="M134.678 125.903L131.558 130.888L124.929 131.182L127.172 122.091L134.678 125.903Z" fill="#CD5B51"/>
<path opacity="0.2" d="M82.5238 299.998L82.4263 308.698H75.115L75.31 299.998H82.5238Z" fill="black"/>
<path opacity="0.2" d="M34.7561 299.998H41.97L40.3128 308.698H33.0989L34.7561 299.998Z" fill="black"/>
<path d="M87.398 77.6145C87.398 77.6145 95.3918 100.39 89.3477 143.401C77.6495 143.401 56.3003 143.401 50.6462 143.401C50.2562 137.438 53.2782 105.376 46.8442 77.2235C46.8442 77.2235 53.4732 75.8549 59.8097 75.5617C64.7815 75.3662 71.8979 75.1707 76.2847 75.5617C82.0363 76.0504 87.398 77.6145 87.398 77.6145Z" fill="#FFF567"/>
<path opacity="0.2" d="M70.0455 104.398H58.8347L58.5422 97.2617H69.753L70.0455 104.398Z" fill="black"/>
<path d="M70.2404 104.104H59.0297L58.5422 97.2617H69.753L70.2404 104.104Z" fill="white"/>
<path d="M62.929 101.466H59.8095L59.6145 98.4355H62.6365L62.929 101.466Z" fill="#FFF567"/>
<path d="M69.0707 99.901H63.6116V99.3145H69.0707V99.901Z" fill="#E1E1E1"/>
<path d="M67.9984 101.075H63.7091L63.6116 100.488H67.9984V101.075Z" fill="#E1E1E1"/>
<path d="M63.0265 102.834H59.907V102.247H62.929L63.0265 102.834Z" fill="#E1E1E1"/>
<path d="M63.8064 102.834H69.363L69.2655 102.247H63.8064V102.834Z" fill="#E1E1E1"/>
<path d="M64.2938 98.5328C63.9039 98.5328 63.6114 98.2395 63.6114 97.9463L63.5139 96.5777C63.5139 96.2845 63.7089 95.9912 64.0988 95.9912C64.3913 95.9912 64.6837 96.2845 64.7812 96.5777L64.8787 97.9463C64.7812 98.3373 64.5863 98.5328 64.2938 98.5328Z" fill="#1A2E35"/>
<path opacity="0.2" d="M55.4227 84.1636C56.2026 88.7579 55.0328 99.8037 50.9384 112.609C50.646 102.736 49.7686 91.3971 47.429 79.9603V79.8625C49.9636 79.667 54.7403 79.7648 55.4227 84.1636Z" fill="black"/>
<path d="M61.5643 60.1172C62.7341 65.3957 63.4165 72.0428 59.8096 75.5618C59.8096 75.5618 62.0517 80.9381 71.8977 80.9381C80.8663 80.9381 76.2845 75.5618 76.2845 75.5618C70.3379 74.1933 70.4354 66.862 71.4103 62.6587L61.5643 60.1172Z" fill="#FF8B7B"/>
<path d="M71.8978 79.96L74.7248 83.088L74.0424 85.3363C73.945 85.7273 73.555 85.9228 73.1651 85.9228L71.2154 86.0205C70.9229 86.0205 70.533 85.9228 70.4355 85.6295L68.8757 83.3812L71.8978 79.96Z" fill="#1A2E35"/>
<path d="M71.8976 79.9604C70.1429 82.5997 68.5832 86.1188 68.5832 86.1188C68.5832 86.1188 56.7875 81.9155 57.1774 75.5617C57.1774 75.5617 59.8095 74.2909 60.8819 73.4111C60.8819 73.4111 61.4668 77.4189 71.8976 79.9604Z" fill="white"/>
<path d="M71.8977 79.9603C74.1399 82.5018 75.6021 85.6298 75.6021 85.6298C75.6021 85.6298 79.989 81.8176 78.1368 75.5615C78.1368 75.5615 76.577 74.8772 74.9197 74.584C74.9197 74.584 75.6996 78.5918 71.8977 79.9603Z" fill="white"/>
<path d="M72.9701 84.9456C73.2626 84.8479 78.1368 109.579 78.8192 115.639C80.184 123.753 76.4796 132.648 76.3821 132.648C76.3821 132.648 73.6525 125.708 72.8726 115.248C72.2877 104.887 72.0928 90.9084 71.1179 84.9456C71.5079 84.9456 72.5802 84.9456 72.9701 84.9456Z" fill="#1A2E35"/>
<path opacity="0.2" d="M71.4103 62.6587C70.8253 65.1025 70.6304 68.6215 71.7027 71.3586C70.8254 71.2608 69.948 70.9675 69.0706 70.5765C65.6587 69.0125 64.0014 66.5687 62.2467 62.8542C62.0517 61.8767 61.9542 60.9969 61.7593 60.1172L71.4103 62.6587Z" fill="black"/>
<path d="M73.4575 43.9873L76.1871 52.5894C79.1116 49.1681 76.6745 44.4761 73.4575 43.9873Z" fill="#1A2E35"/>
<path d="M57.08 53.6655C59.1272 60.6058 60.0046 64.8091 64.3914 67.6439C70.9229 71.9449 78.8192 66.8619 78.8192 59.4328C78.8192 52.7857 75.4072 42.5219 67.9008 41.1534C60.5895 39.8826 55.0328 46.7252 57.08 53.6655Z" fill="#FF8B7B"/>
<path d="M59.9072 58.944C61.8569 57.6732 62.6368 51.1239 60.8821 48.8757C67.1211 48.5824 70.2406 46.4319 70.4356 45.3566C72.5803 46.3341 78.1369 46.7251 77.4545 43.8904C76.7721 41.1533 73.8476 39.4916 72.5803 39.4916C70.4356 37.2433 64.9764 35.2883 61.1745 38.4163C54.5455 38.4163 50.9386 43.7926 52.8883 45.9431C48.9889 48.3869 49.9638 53.5677 52.8883 55.034C51.0361 57.5755 58.7374 63.6361 59.9072 58.944Z" fill="#1A2E35"/>
<path d="M55.8127 62.0718C57.1775 63.4404 59.0297 64.1246 60.6869 64.1246C63.0266 64.1246 63.6115 61.7786 62.3442 59.9213C61.2718 58.1618 58.6397 56.109 56.4951 56.9888C54.3504 57.8685 54.2529 60.5078 55.8127 62.0718Z" fill="#FF8B7B"/>
<path d="M63.9041 143.401C63.9041 143.401 64.6839 152.492 65.6588 164.907C66.7311 178.885 68.1934 197.164 68.9733 211.045C68.9733 211.143 68.9733 211.143 68.9733 211.241C69.1682 213.88 69.2657 216.324 69.3632 218.572C70.4356 241.152 72.6777 307.036 72.6777 307.036H84.9608C84.9608 307.036 91.1024 239.882 91.3948 216.812C91.6873 194.623 89.3476 143.401 89.3476 143.401H63.9041Z" fill="#1A2E35"/>
<path d="M71.8977 303.224C71.8002 303.224 71.9951 307.232 71.9951 307.232H86.1305L86.6179 302.735L71.8977 303.224Z" fill="#FFF567"/>
<path opacity="0.2" d="M65.6587 164.906C66.731 178.885 68.1933 197.164 68.9732 211.045C68.9732 211.143 68.9732 211.143 68.9732 211.24C71.9952 198.044 73.165 181.72 72.7751 154.74L65.6587 164.906Z" fill="black"/>
<path d="M75.6996 143.401C75.6996 143.401 68.8756 195.894 64.8787 216.715C60.4919 239.491 43.7245 307.134 43.7245 307.134H30.4666C30.4666 307.134 40.8974 241.348 43.2371 218.767C45.6742 194.33 50.7434 143.401 50.7434 143.401H75.6996Z" fill="#1A2E35"/>
<path d="M30.2717 303.516C30.1742 303.516 29.6868 307.231 29.6868 307.231H44.3095L45.4793 302.93L30.2717 303.516Z" fill="#FFF567"/>
<path d="M68.0959 53.2739C68.1934 53.8604 68.6808 54.2514 68.9733 54.1537C69.2657 54.0559 69.5582 53.5672 69.3632 52.9807C69.2658 52.3942 68.7783 52.0032 68.4859 52.1009C68.1934 52.1987 67.9984 52.7852 68.0959 53.2739Z" fill="#1A2E35"/>
<path d="M74.5298 51.9067C74.6273 52.4932 75.1147 52.8843 75.4072 52.7865C75.7971 52.6887 75.9921 52.2 75.7971 51.6135C75.6996 51.027 75.2122 50.636 74.9197 50.7337C74.5298 50.8315 74.4323 51.3202 74.5298 51.9067Z" fill="#1A2E35"/>
<path d="M72.5801 52.6875C72.5801 52.6875 74.6273 55.7178 76.4795 56.9885C75.6996 58.1616 73.9449 58.0638 73.9449 58.0638L72.5801 52.6875Z" fill="#E16453"/>
<path d="M72.7751 60.3127C72.8726 60.3127 72.8726 60.215 72.8726 60.1172C72.8726 60.0195 72.7751 59.9217 72.6776 60.0195C70.2405 60.606 68.5833 59.1397 68.5833 59.1397C68.4858 59.042 68.3883 59.042 68.3883 59.1397C68.2908 59.2375 68.2908 59.3352 68.3883 59.3352C68.3883 59.433 70.143 60.997 72.7751 60.3127Z" fill="#1A2E35"/>
<path d="M65.6586 51.6127C65.7561 51.6127 65.8536 51.515 65.8536 51.4172C66.4385 50.0487 67.7058 49.8532 67.7058 49.8532C67.9008 49.8532 67.9983 49.6577 67.9983 49.4622C67.9983 49.2667 67.8033 49.1689 67.6083 49.1689C67.5109 49.1689 65.9511 49.4622 65.2687 51.124C65.1712 51.3195 65.2687 51.515 65.4637 51.6127C65.5612 51.6127 65.6586 51.6127 65.6586 51.6127Z" fill="#1A2E35"/>
<path d="M76.8695 48.9729C76.8695 48.9729 76.967 48.9729 76.967 48.8752C77.0645 48.7774 77.0645 48.4842 76.967 48.3864C75.6997 46.9201 74.1399 47.2134 74.0425 47.2134C73.8475 47.2134 73.75 47.4089 73.75 47.6044C73.75 47.7999 73.945 47.8977 74.1399 47.8977C74.2374 47.8977 75.4072 47.7022 76.4796 48.8752C76.5771 48.9729 76.772 49.0707 76.8695 48.9729Z" fill="#1A2E35"/>
<path d="M42.4574 85.4346L52.2059 89.4424C52.2059 89.4424 44.992 110.263 44.5046 113.587C48.5015 115.053 52.7908 120.918 58.055 124.828C57.9575 126.001 55.6179 128.934 54.7405 129.618C46.8443 125.806 34.8536 120.527 34.2687 115.933C32.9039 105.669 42.4574 85.4346 42.4574 85.4346Z" fill="#FF8B7B"/>
<path d="M55.7152 124.438H63.904L61.5643 132.453C61.5643 132.453 56.4951 132.16 53.5706 128.445L55.7152 124.438Z" fill="#FF8B7B"/>
<path d="M68.7783 126.002L66.3412 133.137L61.5645 132.453L63.9041 124.438L68.7783 126.002Z" fill="#FF8B7B"/>
<path d="M46.8441 77.2231C40.0201 78.2006 32.7087 102.052 32.7087 102.052L48.4038 108.015C48.4038 108.015 53.3756 98.8261 56.2026 90.4195C59.4196 81.6219 54.1554 76.1478 46.8441 77.2231Z" fill="#FFF567"/>
<path d="M41.6774 317.3C42.2623 317.3 42.7497 317.202 43.0422 316.909C43.3346 316.714 43.4321 316.42 43.3346 316.029C43.3346 315.736 43.1397 315.638 43.0422 315.541C42.2623 315.15 39.9227 316.616 39.6302 316.714C39.5327 316.714 39.5327 316.811 39.5327 316.909C39.5327 317.007 39.6302 317.007 39.6302 317.007C40.3126 317.105 40.995 317.3 41.6774 317.3ZM42.7497 315.736C42.8472 315.736 42.9447 315.736 42.9447 315.736C42.9447 315.736 43.0422 315.834 43.0422 315.932C43.0422 316.225 43.0422 316.42 42.8472 316.518C42.4573 316.811 41.4824 316.909 40.3126 316.616C41.0925 316.323 42.1648 315.736 42.7497 315.736Z" fill="#FFF567"/>
<path d="M39.8253 317.006C40.6052 316.615 42.0675 314.953 41.8725 314.171C41.8725 314.074 41.775 313.78 41.2876 313.683C40.9952 313.683 40.8002 313.683 40.6052 313.878C39.8253 314.562 39.6304 316.615 39.6304 316.713C39.6304 316.908 39.6304 316.908 39.8253 317.006C39.8253 317.006 39.7279 317.006 39.8253 317.006ZM41.1901 314.074C41.1901 314.074 41.2876 314.074 41.1901 314.074C41.4826 314.074 41.4826 314.171 41.4826 314.269C41.5801 314.758 40.7027 315.931 39.9228 316.517C40.0203 315.931 40.2153 314.66 40.7027 314.269C40.8977 314.074 41.0926 314.074 41.1901 314.074Z" fill="#FFF567"/>
<path d="M85.2533 317.3C85.9357 317.3 86.6181 317.202 87.008 316.811C87.203 316.616 87.3005 316.323 87.3005 315.932C87.3005 315.736 87.203 315.541 87.008 315.443C86.1306 314.954 83.2061 316.42 82.9136 316.616C82.8162 316.616 82.8162 316.714 82.8162 316.811C82.8162 316.909 82.9136 316.909 82.9136 316.909C83.596 317.105 84.3759 317.3 85.2533 317.3ZM86.5206 315.736C86.6181 315.736 86.7155 315.736 86.813 315.834C86.9105 315.834 86.9105 315.932 86.9105 316.029C86.9105 316.225 86.9105 316.42 86.7156 316.616C86.3256 317.007 85.0583 317.105 83.4986 316.811C84.4734 316.323 85.8382 315.736 86.5206 315.736Z" fill="#FFF567"/>
<path d="M83.011 317.006C83.9858 316.615 85.6431 315.051 85.4481 314.171C85.4481 313.976 85.2531 313.78 84.7657 313.683C84.3758 313.683 84.0833 313.78 83.7908 313.976C82.9135 314.758 82.7185 316.713 82.7185 316.811C82.7185 316.908 82.7185 316.908 82.816 317.006C82.9135 317.006 82.9135 317.006 83.011 317.006ZM84.6682 314.074H84.7657C85.0582 314.074 85.0581 314.269 85.0581 314.269C85.1556 314.758 83.9858 316.029 83.1084 316.517C83.2059 315.931 83.4009 314.758 83.9858 314.269C84.2783 314.171 84.4732 314.074 84.6682 314.074Z" fill="#FFF567"/>
<path d="M210.131 55.7178H205.55V56.6953H210.131V55.7178Z" fill="#FFF567"/>
<path d="M201.455 55.7178H182.738V56.6953H201.455V55.7178Z" fill="#FFF567"/>
<path d="M241.522 230.594H123.662C118.398 230.594 113.719 226.293 113.426 220.917L102.898 68.7184C102.508 63.4398 106.602 59.041 111.867 59.041H229.726C234.99 59.041 239.669 63.3421 239.962 68.7184L250.393 220.917C250.783 226.195 246.786 230.594 241.522 230.594Z" fill="#FFF567"/>
<path d="M123.37 227.369C119.861 227.369 116.741 224.534 116.546 220.917L106.115 68.7191C105.92 65.2001 108.552 62.2676 112.062 62.2676H229.921C233.43 62.2676 236.55 65.1024 236.745 68.7191L247.176 220.917C247.371 224.436 244.739 227.369 241.229 227.369H123.37Z" fill="white"/>
<g opacity="0.2">
<g opacity="0.2">
<path opacity="0.2" d="M234.795 137.633H127.659L123.662 78.7871H230.798L234.795 137.633ZM128.342 136.851H233.918L230.018 79.6669H124.442L128.342 136.851Z" fill="#FFF567"/>
<path opacity="0.2" d="M230.993 87.8777H124.637L124.54 87.0957H230.896L230.993 87.8777Z" fill="#FFF567"/>
<path opacity="0.2" d="M231.578 96.1863H125.222L125.125 95.4043H231.481L231.578 96.1863Z" fill="#FFF567"/>
<path opacity="0.2" d="M232.163 104.495H125.807L125.709 103.713H232.066L232.163 104.495Z" fill="#FFF567"/>
<path opacity="0.2" d="M232.748 112.803H126.294V112.021H232.651L232.748 112.803Z" fill="#FFF567"/>
<path opacity="0.2" d="M233.235 121.113H126.879V120.233H233.235V121.113Z" fill="#FFF567"/>
<path opacity="0.2" d="M233.82 129.325H127.464V128.543H233.82V129.325Z" fill="#FFF567"/>
</g>
<g opacity="0.2">
<path opacity="0.2" d="M122.103 83.7723H113.816V82.9902H122.005L122.103 83.7723Z" fill="#FFF567"/>
<path opacity="0.2" d="M122.688 92.0809H114.401V91.2988H122.59L122.688 92.0809Z" fill="#FFF567"/>
<path opacity="0.2" d="M123.175 100.39H114.986L114.889 99.5098H123.175V100.39Z" fill="#FFF567"/>
<path opacity="0.2" d="M123.76 108.6H115.571L115.474 107.818H123.76V108.6Z" fill="#FFF567"/>
<path opacity="0.2" d="M124.345 116.91H116.156L116.059 116.128H124.345V116.91Z" fill="#FFF567"/>
<path opacity="0.2" d="M124.93 125.219H116.741L116.644 124.437H124.832L124.93 125.219Z" fill="#FFF567"/>
<path opacity="0.2" d="M125.514 133.527H117.228V132.745H125.417L125.514 133.527Z" fill="#FFF567"/>
</g>
</g>
<path d="M128.244 137.634L127.757 136.95L140.527 129.227L144.427 125.317L153.103 117.595L161.974 121.016L171.137 105.767L183.615 109.09L199.7 98.4356L207.694 101.857L228.848 91.2998L229.238 91.9841L207.792 102.737L199.798 99.3154L183.81 109.97L171.527 106.744L162.364 121.994L153.298 118.572L145.011 125.904L141.015 129.911L128.244 137.634Z" fill="#E1E1E1"/>
<path d="M128.342 137.536L127.659 136.949L139.942 122.971L143.452 115.053L155.247 121.896L160.512 108.895L170.845 99.4129L183.811 106.842L199.213 92.0816L210.229 98.6309L228.069 81.4268L228.654 82.111L210.424 99.7062L199.408 93.0591L184.005 107.82L170.942 100.488L161.194 109.481L155.637 123.069L143.842 116.226L140.625 123.557L128.342 137.536Z" fill="#FFF567"/>
<path d="M160.219 179.862L168.993 150.146C181.763 154.642 190.83 166.568 191.804 179.862C192.877 195.111 182.738 208.307 167.921 211.044L160.219 179.862Z" fill="#E1E1E1"/>
<path d="M160.219 179.862L167.823 211.044C166.068 211.338 164.216 211.533 162.364 211.533C145.109 211.533 129.804 197.261 128.634 179.862C127.464 162.56 140.722 148.19 157.977 148.19C161.681 148.19 165.386 148.875 168.895 150.145L160.219 179.862Z" fill="#FFF567"/>
<path d="M213.348 177.221H203.99L206.329 211.434H215.785L213.348 177.221Z" fill="#E1E1E1"/>
<path d="M213.348 177.221H203.99L202.625 156.303H211.984L213.348 177.221Z" fill="#FFF567"/>
<path d="M229.726 183.477H220.367L222.317 211.433H231.675L229.726 183.477Z" fill="#E1E1E1"/>
<path d="M229.726 183.476H220.367L219.49 170.573H228.849L229.726 183.476Z" fill="#FFF567"/>
<path d="M283.44 73.6064C282.465 78.3962 281.588 87.1938 284.902 90.4196C284.902 90.4196 281.49 96.7734 273.399 100.195C266.965 96.1869 270.085 90.4196 270.085 90.4196C275.446 89.1489 275.251 85.1411 274.374 81.4265L283.44 73.6064Z" fill="#FF8B7B"/>
<path d="M286.56 93.2542C290.069 90.8105 290.264 86.3139 290.264 86.3139C290.264 86.3139 277.591 83.0882 270.67 85.0432C268.525 86.7049 265.21 89.7352 265.21 89.7352C265.21 89.7352 266.088 91.6902 269.987 92.961C273.887 94.0363 286.56 93.2542 286.56 93.2542Z" fill="#1A2E35"/>
<path d="M301.28 96.9688C303.619 100.39 305.764 103.811 307.811 107.428C309.858 111.045 311.711 114.662 313.465 118.474C313.855 119.451 314.245 120.429 314.635 121.406L314.928 122.189L315.025 122.58L315.123 122.775L315.22 123.166C315.512 124.144 315.61 125.121 315.61 125.903C315.512 127.663 315.025 128.933 314.44 130.106C313.855 131.279 313.27 132.257 312.588 133.137C309.858 136.753 306.641 139.393 303.132 141.836L300.5 138.708C302.937 135.776 305.374 132.648 307.129 129.52C307.519 128.738 307.909 127.956 308.104 127.272C308.299 126.587 308.396 126.001 308.396 125.708C308.396 125.61 308.299 125.512 308.299 125.512L308.201 125.317L308.006 125.023L307.714 124.339C307.324 123.459 306.836 122.58 306.446 121.797C305.569 120.038 304.692 118.376 303.717 116.714C302.742 115.053 301.767 113.293 300.792 111.631C298.745 108.308 296.6 104.887 294.553 101.759L301.28 96.9688Z" fill="#FF8B7B"/>
<path d="M301.962 137.829L293.286 137.145L298.063 143.792C298.063 143.792 303.23 143.205 304.399 139.979L301.962 137.829Z" fill="#FF8B7B"/>
<path d="M287.632 140.957L291.921 146.235L299.33 143.596L293.286 137.145L287.632 140.957Z" fill="#FF8B7B"/>
<path d="M298.16 92.082L292.604 99.6089L292.993 108.895L302.352 117.4C302.352 117.4 307.129 113.978 311.321 110.459C306.154 98.5336 301.377 93.0595 298.16 92.082Z" fill="#FFF567"/>
<path opacity="0.2" d="M296.113 99.3154L293.188 109.188L296.308 112.023C295.918 105.083 296.113 99.3154 296.113 99.3154Z" fill="black"/>
<path d="M255.462 97.8489C255.364 103.714 256.144 115.933 260.239 141.153H292.994C292.409 127.761 291.824 119.452 298.16 91.9839C298.16 91.9839 291.921 90.6154 284.902 90.3221C279.443 90.0289 274.861 89.8334 270.085 90.3221C266.868 90.6154 263.456 91.1041 260.824 91.5929C257.801 92.1794 255.559 94.8187 255.462 97.8489Z" fill="#FFF567"/>
<path opacity="0.2" d="M261.896 100.194L256.047 109.676C256.339 113.097 256.827 117.105 257.412 121.993L262.188 119.158C264.138 104.691 261.896 100.194 261.896 100.194Z" fill="black"/>
<path d="M262.773 102.737C261.506 107.233 260.044 111.827 258.581 116.324C257.119 120.821 255.657 125.317 254.097 129.814L253.805 130.693L253.317 131.769C253.025 132.453 252.635 133.137 252.245 133.724C251.465 134.994 250.588 136.07 249.613 137.047C247.663 139.1 245.421 140.566 243.081 141.739C238.402 144.085 233.723 145.356 228.654 145.943L227.971 141.935C230.018 141.348 232.163 140.469 234.21 139.589C236.257 138.709 238.207 137.634 239.864 136.461C241.619 135.288 243.179 133.919 244.446 132.453C245.031 131.671 245.616 130.987 246.006 130.107C246.201 129.716 246.396 129.325 246.591 128.934L246.786 128.347L246.981 127.468C248.151 122.971 249.418 118.377 250.783 113.88C252.05 109.384 253.415 104.887 254.877 100.391L262.773 102.737Z" fill="#FF8B7B"/>
<path d="M263.845 98.2397C262.481 94.9162 258.094 92.7656 258.094 92.7656C253.415 95.7959 251.562 99.0217 248.443 114.466C253.415 116.715 260.726 116.715 260.726 116.715L264.723 106.353C264.82 106.255 265.21 101.563 263.845 98.2397Z" fill="#FFF567"/>
<path d="M229.823 141.348L221.732 141.25L226.899 147.604C226.899 147.604 231.968 146.626 233.04 143.498L229.823 141.348Z" fill="#FF8B7B"/>
<path d="M216.273 145.356L220.855 150.439L226.899 147.604L221.635 141.25L216.273 145.356Z" fill="#FF8B7B"/>
<path d="M266.38 63.636C266.283 64.3203 265.795 64.7113 265.405 64.7113C265.015 64.6135 264.723 64.027 264.82 63.4405C264.918 62.7562 265.405 62.3652 265.795 62.3652C266.283 62.3652 266.478 62.9517 266.38 63.636Z" fill="#1A2E35"/>
<path d="M265.99 62.3659L264.528 61.6816C264.528 61.6816 265.113 63.0502 265.99 62.3659Z" fill="#1A2E35"/>
<path d="M266.088 59.6285C265.99 59.6285 265.893 59.5307 265.893 59.433C265.795 59.2375 265.893 59.042 266.088 58.9442C267.94 57.9667 269.5 58.9442 269.597 58.9442C269.792 59.042 269.792 59.3352 269.695 59.433C269.597 59.6285 269.402 59.6285 269.207 59.5307C269.11 59.5307 267.94 58.8465 266.478 59.5307C266.283 59.6285 266.185 59.6285 266.088 59.6285Z" fill="#1A2E35"/>
<path d="M266.38 65.6885C266.38 65.6885 264.82 68.23 263.358 69.403C264.041 70.3805 265.6 70.2828 265.6 70.2828L266.38 65.6885Z" fill="#FF5551"/>
<path d="M288.412 64.8087C286.56 72.6288 285.877 75.9523 281.198 79.2759C274.179 84.2612 265.016 80.2534 264.528 72.0423C264.138 64.711 267.258 53.1764 275.446 51.4168C283.635 49.7551 290.362 56.9886 288.412 64.8087Z" fill="#FF8B7B"/>
<path d="M295.886 68.508C296.643 61.9108 291.922 55.948 285.343 55.1897C278.764 54.4313 272.817 59.1647 272.061 65.7618C271.305 72.359 276.025 78.3218 282.604 79.0801C289.184 79.8384 295.13 75.1051 295.886 68.508Z" fill="#1A2E35"/>
<path d="M275.739 65.1998C284.512 59.4325 297.965 56.3044 295.041 47.3113C292.701 40.0778 281.88 39.6868 273.594 43.108C262.286 47.7023 267.063 70.9671 275.739 65.1998Z" fill="#1A2E35"/>
<path d="M286.949 52.2967C286.754 52.2967 286.657 52.1989 286.559 52.1012L277.298 39.1981C277.103 39.0025 277.201 38.7093 277.396 38.5138C277.591 38.3183 277.883 38.416 278.078 38.6115L287.339 51.5147C287.534 51.7102 287.437 52.0034 287.242 52.1989C287.144 52.2967 287.047 52.2967 286.949 52.2967Z" fill="#FFF567"/>
<path d="M292.604 55.6199C292.506 55.6199 292.409 55.6199 292.311 55.5222C292.116 55.3267 292.019 55.0334 292.214 54.8379L301.475 41.9348C301.67 41.7393 301.962 41.6415 302.157 41.837C302.352 42.0325 302.45 42.3258 302.255 42.5213L292.994 55.4244C292.896 55.5222 292.701 55.6199 292.604 55.6199Z" fill="#FFF567"/>
<path d="M297.347 69.1575C303.887 65.0829 306.539 57.5047 303.271 52.2313C300.003 46.9579 292.053 45.986 285.513 50.0607C278.974 54.1353 276.322 61.7134 279.589 66.9869C282.857 72.2603 290.808 73.2321 297.347 69.1575Z" fill="#1A2E35"/>
<path d="M260.239 141.25C260.239 141.25 262.968 202.051 263.553 226.684C264.138 252.295 264.333 312.119 264.333 312.119H270.767C270.767 312.119 281.101 262.363 277.981 226.684C282.563 199.216 285.682 141.25 285.682 141.25H260.239Z" fill="#FF8B7B"/>
<path d="M268.817 141.25C268.817 141.25 284.22 204.984 290.459 228.737C297.088 253.761 305.959 310.261 306.057 312.119H311.613C311.613 312.119 313.368 246.821 304.497 224.632C304.497 196.773 292.994 141.25 292.994 141.25H268.817Z" fill="#FF8B7B"/>
<path d="M307.909 310.556C312.686 309.773 312.686 312.12 313.076 314.563C313.271 316.03 313.173 317.594 312.393 318.962C310.833 321.797 312.393 325.902 307.032 325.902C301.67 325.902 301.182 324.729 302.45 322.188C303.815 319.646 304.497 317.007 304.984 314.172C305.374 312.804 305.764 310.947 307.909 310.556Z" fill="#1A2E35"/>
<path d="M312.783 315.345C312.881 318.571 313.173 326 313.173 326H312.296C312.296 326 311.321 318.082 310.736 315.931L312.783 315.345Z" fill="#1A2E35"/>
<path d="M274.764 67.5456C274.179 69.1096 272.814 70.1849 271.644 70.6736C269.695 71.4556 268.525 69.7939 268.915 67.8388C269.207 66.0793 270.572 63.6356 272.619 63.7333C274.569 63.8311 275.544 65.7861 274.764 67.5456Z" fill="#FF8B7B"/>
<g opacity="0.2">
<path opacity="0.2" d="M263.456 223.654C263.456 224.729 263.553 225.707 263.553 226.684C263.651 230.692 263.748 235.384 263.748 240.663L278.566 237.144C278.468 233.527 278.371 230.106 278.078 226.684C278.371 224.925 278.663 222.97 278.956 221.015L263.456 223.654Z" fill="black"/>
<path opacity="0.2" d="M304.497 224.632C304.497 222.188 304.399 219.549 304.204 216.714L288.022 219.451C288.899 222.97 289.776 226.098 290.459 228.737C290.849 230.399 291.336 232.061 291.726 234.016L306.349 230.497C305.861 228.346 305.179 226.391 304.497 224.632Z" fill="black"/>
</g>
<path d="M260.239 141.25L261.214 238.121L307.032 228.346C307.714 173.019 303.425 153.958 292.994 141.25H260.239Z" fill="#1A2E35"/>
<path opacity="0.2" d="M291.141 165.102C291.141 165.102 282.27 172.531 271.352 174.974C282.66 174.192 288.412 170.967 291.141 165.102Z" fill="black"/>
<path d="M258.971 135.091C258.874 136.068 259.556 140.76 259.556 141.347C259.654 141.933 259.751 146.43 259.946 147.408C260.141 148.385 297.575 147.799 296.796 146.235C296.016 144.671 293.676 141.542 293.676 140.858C293.676 140.174 293.384 135.091 293.091 134.7C292.896 134.309 259.166 133.527 258.971 135.091Z" fill="#FFF567"/>
<path opacity="0.2" d="M258.971 135.091C258.874 136.068 259.556 140.76 259.556 141.347C259.654 141.933 259.751 146.43 259.946 147.408C260.141 148.385 297.575 147.799 296.796 146.235C296.016 144.671 293.676 141.542 293.676 140.858C293.676 140.174 293.384 135.091 293.091 134.7C292.896 134.309 259.166 133.527 258.971 135.091Z" fill="white"/>
<path d="M264.333 309.773C262.676 314.661 257.802 323.263 257.802 323.263L267.063 320.722L271.547 313.586L270.572 311.728L264.333 309.773Z" fill="#FF8B7B"/>
<path d="M271.937 311.142C272.327 311.924 272.522 312.901 272.522 313.781C272.424 317.104 272.132 325.902 272.132 325.902H271.352C271.352 325.902 271.352 319.939 270.962 317.789C270.572 315.638 269.597 319.45 268.135 321.601C266.673 323.751 263.846 325.706 258.776 325.902C252.83 326 250.49 325.804 252.147 324.338C253.902 322.872 257.801 321.992 257.801 321.992C257.801 321.992 262.871 322.09 265.6 317.202C267.355 314.074 269.5 310.848 270.962 310.164C271.352 310.262 271.644 310.653 271.937 311.142Z" fill="#1A2E35"/>
</svg>
