<svg width="605" height="680" viewBox="0 0 605 680" fill="none" xmlns="http://www.w3.org/2000/svg">
<path d="M567.806 364.185C567.65 245.442 585.507 214.087 521.224 113.66C456.941 13.3882 299.185 -8.80824 179.936 65.542C60.5314 139.892 28.3901 235.663 28.3901 235.663C28.3901 235.663 -14.9309 347.421 45.9358 459.956C101.523 562.866 211.145 621.384 306.172 669.502H549.173C563.613 657.395 576.035 642.804 586.283 625.575C635.815 542.222 567.961 482.928 567.806 364.185Z" fill="#FFF567"/>
<path d="M279.776 39.4653C281.949 47.8472 280.863 32.4804 284.9 13.6988C288.937 -5.08274 296.079 2.52302 296.079 2.52302" stroke="#412D83" stroke-miterlimit="10" stroke-linecap="round" stroke-linejoin="round"/>
<path d="M278.378 20.3732L291.421 15.0957" stroke="#412D83" stroke-miterlimit="10" stroke-linecap="round" stroke-linejoin="round"/>
<path d="M301.98 8.73145C301.98 8.73145 294.216 24.7191 305.861 31.3935" stroke="#412D83" stroke-miterlimit="10" stroke-linecap="round" stroke-linejoin="round"/>
<path d="M313.004 4.23047C313.004 4.23047 325.736 11.3706 317.817 26.5821" stroke="#412D83" stroke-miterlimit="10" stroke-linecap="round" stroke-linejoin="round"/>
<path d="M304.153 14.1646L313.314 20.839" stroke="#412D83" stroke-miterlimit="10" stroke-linecap="round" stroke-linejoin="round"/>
<path d="M311.451 11.2148L304.309 22.5459" stroke="#412D83" stroke-miterlimit="10" stroke-linecap="round" stroke-linejoin="round"/>
<path d="M33.6693 414.632C33.6693 414.632 12.0864 414.321 12.0864 432.948" stroke="#412D83" stroke-miterlimit="10" stroke-linecap="round" stroke-linejoin="round"/>
<path d="M31.806 426.429C31.3402 423.635 21.8686 420.22 20.3159 427.36C18.7631 434.5 30.4086 430.154 33.9798 426.894C33.9798 426.894 27.3031 433.413 29.3217 435.276" stroke="#412D83" stroke-miterlimit="10" stroke-linecap="round" stroke-linejoin="round"/>
<path d="M33.2034 437.293C33.2034 437.293 30.4085 440.864 27.303 439.156" stroke="#412D83" stroke-miterlimit="10" stroke-linecap="round" stroke-linejoin="round"/>
<path d="M52.1467 424.721L35.9984 441.329C35.9984 441.329 44.0725 433.103 48.8859 435.741C54.7863 439.001 47.1779 447.849 40.8118 441.484" stroke="#412D83" stroke-miterlimit="10" stroke-linecap="round" stroke-linejoin="round"/>
<path d="M60.3761 429.223C60.3761 429.223 64.7237 448.936 42.5198 449.712" stroke="#412D83" stroke-miterlimit="10" stroke-linecap="round" stroke-linejoin="round"/>
<path d="M349.959 94.4128L357.877 95.6546V113.505L375.113 82.3057L402.13 86.6518" stroke="#412D83" stroke-miterlimit="10" stroke-linecap="round" stroke-linejoin="round"/>
<path d="M378.063 95.9653L389.864 116.92" stroke="#412D83" stroke-miterlimit="10" stroke-linecap="round" stroke-linejoin="round"/>
<path d="M392.969 98.4487L371.697 113.971" stroke="#412D83" stroke-miterlimit="10" stroke-linecap="round" stroke-linejoin="round"/>
<path d="M242.976 126.078C240.958 123.594 229.467 125.302 231.797 133.529C234.126 141.755 243.752 130.735 245.46 125.302C245.46 125.302 242.355 135.702 245.46 136.478" stroke="#412D83" stroke-miterlimit="10" stroke-linecap="round" stroke-linejoin="round"/>
<path d="M251.827 117.696L249.187 126.854C249.187 126.854 250.429 122.198 252.758 122.198C255.553 122.198 254.466 126.854 251.05 125.923" stroke="#412D83" stroke-miterlimit="10" stroke-linecap="round" stroke-linejoin="round"/>
<path d="M469.363 230.541L463.928 250.253L475.884 263.137" stroke="#412D83" stroke-miterlimit="10" stroke-linecap="round" stroke-linejoin="round"/>
<path d="M476.195 238.457L489.859 249.943" stroke="#412D83" stroke-miterlimit="10" stroke-linecap="round" stroke-linejoin="round"/>
<path d="M485.511 235.663L479.611 250.099" stroke="#412D83" stroke-miterlimit="10" stroke-linecap="round" stroke-linejoin="round"/>
<path d="M495.138 248.391C495.138 248.391 495.293 252.427 493.43 253.048" stroke="#412D83" stroke-miterlimit="10" stroke-linecap="round" stroke-linejoin="round"/>
<path d="M496.846 233.955L505.075 240.164" stroke="#412D83" stroke-miterlimit="10" stroke-linecap="round" stroke-linejoin="round"/>
<path d="M508.026 228.988L499.952 258.17" stroke="#412D83" stroke-miterlimit="10" stroke-linecap="round" stroke-linejoin="round"/>
<path d="M508.492 218.899L521.69 233.8L516.1 250.098" stroke="#412D83" stroke-miterlimit="10" stroke-linecap="round" stroke-linejoin="round"/>
<path d="M145.931 603.379L164.874 546.724L188.01 572.49L145.931 603.379Z" stroke="#412D83" stroke-miterlimit="10" stroke-linecap="round" stroke-linejoin="round"/>
<path d="M182.42 576.681L177.451 571.093L182.73 566.591" stroke="#412D83" stroke-miterlimit="10" stroke-linecap="round" stroke-linejoin="round"/>
<path d="M33.3519 284.918C43.2554 280.817 47.9583 269.467 43.856 259.567C39.7537 249.667 28.3998 244.965 18.4962 249.066C8.59264 253.167 3.88976 264.517 7.99204 274.418C12.0943 284.318 23.4483 289.019 33.3519 284.918Z" stroke="#412D83" stroke-miterlimit="10" stroke-linecap="round" stroke-linejoin="round"/>
<path d="M47.3332 271.519C59.2531 271.519 68.916 261.86 68.916 249.944C68.916 238.028 59.2531 228.368 47.3332 228.368C35.4133 228.368 25.7504 238.028 25.7504 249.944C25.7504 261.86 35.4133 271.519 47.3332 271.519Z" stroke="#412D83" stroke-miterlimit="10" stroke-linecap="round" stroke-linejoin="round"/>
<path d="M29.6322 247.925L26.9926 257.083" stroke="#412D83" stroke-miterlimit="10" stroke-linecap="round" stroke-linejoin="round"/>
<path d="M33.3587 249.167L29.6321 262.205" stroke="#412D83" stroke-miterlimit="10" stroke-linecap="round" stroke-linejoin="round"/>
<path d="M37.2404 251.341L33.3586 266.087" stroke="#412D83" stroke-miterlimit="10" stroke-linecap="round" stroke-linejoin="round"/>
<path d="M41.5882 255.687L38.7933 269.812" stroke="#412D83" stroke-miterlimit="10" stroke-linecap="round" stroke-linejoin="round"/>
<path d="M44.0725 260.188L41.5881 270.743" stroke="#412D83" stroke-miterlimit="10" stroke-linecap="round" stroke-linejoin="round"/>
<path d="M7.27304 242.183C5.56505 241.717 0.906883 246.063 4.47814 249.012C8.0494 251.962 8.98103 244.045 8.0494 241.096C8.0494 241.096 9.91267 246.839 11.4654 246.063" stroke="#412D83" stroke-miterlimit="10" stroke-linecap="round" stroke-linejoin="round"/>
<path d="M32.2718 217.192L38.4827 228.523C38.4827 228.523 35.3772 222.936 37.551 220.762C40.1907 218.124 43.7619 223.712 39.259 226.04" stroke="#412D83" stroke-miterlimit="10" stroke-linecap="round" stroke-linejoin="round"/>
<path d="M145.776 215.951L154.626 224.178" stroke="#412D83" stroke-miterlimit="10" stroke-linecap="round" stroke-linejoin="round"/>
<path d="M154.626 213.777L147.173 224.643" stroke="#412D83" stroke-miterlimit="10" stroke-linecap="round" stroke-linejoin="round"/>
<path d="M163.166 216.883L172.017 213.623" stroke="#412D83" stroke-miterlimit="10" stroke-linecap="round" stroke-linejoin="round"/>
<path d="M176.209 204.465L181.488 209.121" stroke="#412D83" stroke-miterlimit="10" stroke-linecap="round" stroke-linejoin="round"/>
<path d="M185.681 198.721L178.849 222.004" stroke="#412D83" stroke-miterlimit="10" stroke-linecap="round" stroke-linejoin="round"/>
<path d="M569.048 194.065L568.737 176.37H582.09C582.09 176.37 574.637 180.405 578.053 190.029C581.469 199.497 586.904 194.065 586.904 194.065" stroke="#412D83" stroke-miterlimit="10" stroke-linecap="round" stroke-linejoin="round"/>
<path d="M546.378 496.433L561.595 486.034L581.78 487.431L583.022 513.042L568.271 523.597L549.949 522.355L546.378 496.433Z" stroke="#412D83" stroke-miterlimit="10" stroke-linecap="round" stroke-linejoin="round"/>
<path d="M549.949 522.354L564.7 511.644L583.022 513.041" stroke="#412D83" stroke-miterlimit="10" stroke-linecap="round" stroke-linejoin="round"/>
<path d="M564.7 511.644L561.594 486.033" stroke="#412D83" stroke-miterlimit="10" stroke-linecap="round" stroke-linejoin="round"/>
<path d="M546.378 496.432L566.563 498.916L581.78 487.43" stroke="#412D83" stroke-miterlimit="10" stroke-linecap="round" stroke-linejoin="round"/>
<path d="M566.563 498.916L568.271 523.596" stroke="#412D83" stroke-miterlimit="10" stroke-linecap="round" stroke-linejoin="round"/>
<path d="M549.173 304.426L548.552 338.419L578.364 324.915L549.173 304.426Z" stroke="#412D83" stroke-miterlimit="10" stroke-linecap="round" stroke-linejoin="round"/>
<path d="M549.174 304.426L563.459 331.589" stroke="#412D83" stroke-miterlimit="10" stroke-linecap="round" stroke-linejoin="round"/>
<path d="M561.129 327.243L564.545 325.535L566.874 330.192" stroke="#412D83" stroke-miterlimit="10" stroke-linecap="round" stroke-linejoin="round"/>
<path d="M288.626 301.167L300.893 314.36" stroke="#412D83" stroke-miterlimit="10" stroke-linecap="round" stroke-linejoin="round"/>
<path d="M301.048 299.304L290.645 313.584" stroke="#412D83" stroke-miterlimit="10" stroke-linecap="round" stroke-linejoin="round"/>
<path d="M306.017 292.474C306.017 292.474 308.967 291.387 309.433 294.337C310.054 297.286 305.085 301.166 305.085 301.166H312.072" stroke="#412D83" stroke-miterlimit="10" stroke-linecap="round" stroke-linejoin="round"/>
<path d="M96.0886 102.795C97.3308 86.9622 106.647 73.6133 119.69 66.6284" stroke="#412D83" stroke-miterlimit="10" stroke-linecap="round" stroke-linejoin="round"/>
<path d="M130.404 150.137C118.914 147.343 109.131 140.203 102.921 130.579" stroke="#412D83" stroke-miterlimit="10" stroke-linecap="round" stroke-linejoin="round"/>
<path d="M185.836 109.935C183.817 134.77 162.235 153.086 137.391 151.224" stroke="#412D83" stroke-miterlimit="10" stroke-linecap="round" stroke-linejoin="round"/>
<path d="M144.534 61.5063C165.961 63.2138 182.731 79.6671 185.525 100.156" stroke="#412D83" stroke-miterlimit="10" stroke-linecap="round" stroke-linejoin="round"/>
<path d="M160.371 140.979C153.695 144.704 145.931 146.567 137.857 145.946C115.963 144.238 99.6599 125.146 101.523 103.26" stroke="#412D83" stroke-miterlimit="10" stroke-linecap="round" stroke-linejoin="round"/>
<path d="M103.852 92.0842C110.063 76.0966 126.056 65.3864 144.068 66.7834C165.961 68.4908 182.265 87.5828 180.401 109.469C179.625 118.472 176.054 126.543 170.464 132.752" stroke="#412D83" stroke-miterlimit="10" stroke-linecap="round" stroke-linejoin="round"/>
<path d="M137.08 77.8042L140.962 106.365L162.856 99.535" stroke="#412D83" stroke-miterlimit="10" stroke-linecap="round" stroke-linejoin="round"/>
<path d="M483.337 161.933C470.45 162.088 458.183 154.017 453.68 141.133C449.333 129.026 453.059 115.988 462.065 107.761" stroke="#412D83" stroke-miterlimit="10" stroke-linecap="round" stroke-linejoin="round"/>
<path d="M512.529 140.823C509.578 149.516 502.746 156.811 493.43 160.07" stroke="#412D83" stroke-miterlimit="10" stroke-linecap="round" stroke-linejoin="round"/>
<path d="M472.624 101.398C488.772 95.6546 506.628 104.192 512.373 120.49" stroke="#412D83" stroke-miterlimit="10" stroke-linecap="round" stroke-linejoin="round"/>
<path d="M498.399 107.917C503.057 111.177 506.939 115.833 508.957 121.576C513.926 135.857 506.473 151.534 492.188 156.656C481.474 160.381 469.984 157.122 462.686 149.205" stroke="#412D83" stroke-miterlimit="10" stroke-linecap="round" stroke-linejoin="round"/>
<path d="M457.097 139.893C452.128 125.612 459.581 109.935 473.866 104.813C479.3 102.95 484.735 102.795 489.859 104.192" stroke="#412D83" stroke-miterlimit="10" stroke-linecap="round" stroke-linejoin="round"/>
<path d="M472.468 113.815L483.027 130.734L473.4 143.151" stroke="#412D83" stroke-miterlimit="10" stroke-linecap="round" stroke-linejoin="round"/>
<path d="M263.006 594.686C263.006 586.149 267.354 578.543 274.031 574.042" stroke="#412D83" stroke-miterlimit="10" stroke-linecap="round" stroke-linejoin="round"/>
<path d="M306.017 611.916C301.514 616.728 294.992 619.677 287.85 619.677C276.825 619.677 267.509 612.537 264.248 602.758" stroke="#412D83" stroke-miterlimit="10" stroke-linecap="round" stroke-linejoin="round"/>
<path d="M287.85 569.696C301.669 569.696 312.849 580.872 312.849 594.686" stroke="#412D83" stroke-miterlimit="10" stroke-linecap="round" stroke-linejoin="round"/>
<path d="M287.85 616.728C275.739 616.728 265.801 606.794 265.801 594.687" stroke="#412D83" stroke-miterlimit="10" stroke-linecap="round" stroke-linejoin="round"/>
<path d="M270.77 580.872C274.807 575.905 281.018 572.645 288.005 572.645C300.116 572.645 310.054 582.579 310.054 594.686C310.054 602.913 305.551 610.208 298.719 613.933" stroke="#412D83" stroke-miterlimit="10" stroke-linecap="round" stroke-linejoin="round"/>
<path d="M284.434 609.743L287.85 594.686L283.192 582.424" stroke="#412D83" stroke-miterlimit="10" stroke-linecap="round" stroke-linejoin="round"/>
<path d="M315.799 342.765L305.551 537.41L175.898 530.581L176.985 509.936L186.146 335.935L267.82 340.126L315.799 342.765Z" fill="#F5F9FB"/>
<path opacity="0.2" d="M275.273 456.85L246.081 459.179L254.621 495.966L176.985 509.935L186.146 335.934L267.82 340.125L275.273 456.85Z" fill="black" fill-opacity="0.7"/>
<path d="M195.308 349.283L229.002 350.99" stroke="#412D83" stroke-width="2" stroke-miterlimit="10" stroke-linecap="round" stroke-linejoin="round"/>
<path d="M194.997 355.646L217.822 356.888" stroke="#412D83" stroke-width="2" stroke-miterlimit="10" stroke-linecap="round" stroke-linejoin="round"/>
<path d="M202.296 371.324L299.341 376.446" stroke="#412D83" stroke-width="2" stroke-miterlimit="10" stroke-linecap="round" stroke-linejoin="round"/>
<path d="M201.984 377.844L299.029 382.966" stroke="#412D83" stroke-width="2" stroke-miterlimit="10" stroke-linecap="round" stroke-linejoin="round"/>
<path d="M201.674 385.45L284.434 389.796" stroke="#412D83" stroke-width="2" stroke-miterlimit="10" stroke-linecap="round" stroke-linejoin="round"/>
<path d="M209.632 392.797L201.724 392.381L201.309 400.286L209.217 400.702L209.632 392.797Z" stroke="#412D83" stroke-miterlimit="10" stroke-linecap="round" stroke-linejoin="round"/>
<path d="M223.923 393.417L216.015 393.001L215.599 400.907L223.507 401.322L223.923 393.417Z" stroke="#412D83" stroke-miterlimit="10" stroke-linecap="round" stroke-linejoin="round"/>
<path d="M238.206 394.191L230.298 393.776L229.883 401.681L237.791 402.096L238.206 394.191Z" stroke="#412D83" stroke-miterlimit="10" stroke-linecap="round" stroke-linejoin="round"/>
<path d="M252.489 394.966L244.582 394.551L244.166 402.456L252.074 402.872L252.489 394.966Z" stroke="#412D83" stroke-miterlimit="10" stroke-linecap="round" stroke-linejoin="round"/>
<path d="M197.171 371.169C197.171 372.256 196.239 373.032 195.152 373.032C194.065 373.032 193.289 372.101 193.289 371.014C193.289 369.927 194.221 369.151 195.308 369.151C196.394 369.151 197.171 370.083 197.171 371.169Z" fill="#412D83"/>
<path d="M200.431 409.198L297.476 414.32" stroke="#412D83" stroke-width="2" stroke-miterlimit="10" stroke-linecap="round" stroke-linejoin="round"/>
<path d="M199.966 415.717L297.011 420.684" stroke="#412D83" stroke-width="2" stroke-miterlimit="10" stroke-linecap="round" stroke-linejoin="round"/>
<path d="M199.655 423.168L282.415 427.514" stroke="#412D83" stroke-width="2" stroke-miterlimit="10" stroke-linecap="round" stroke-linejoin="round"/>
<path d="M207.616 430.512L199.708 430.097L199.293 438.002L207.2 438.417L207.616 430.512Z" stroke="#412D83" stroke-miterlimit="10" stroke-linecap="round" stroke-linejoin="round"/>
<path d="M221.898 431.287L213.991 430.872L213.575 438.777L221.483 439.192L221.898 431.287Z" stroke="#412D83" stroke-miterlimit="10" stroke-linecap="round" stroke-linejoin="round"/>
<path d="M236.182 432.062L228.274 431.647L227.859 439.552L235.766 439.967L236.182 432.062Z" stroke="#412D83" stroke-miterlimit="10" stroke-linecap="round" stroke-linejoin="round"/>
<path d="M250.473 432.682L242.565 432.267L242.15 440.172L250.058 440.587L250.473 432.682Z" stroke="#412D83" stroke-miterlimit="10" stroke-linecap="round" stroke-linejoin="round"/>
<path d="M195.152 408.888C195.152 409.974 194.221 410.75 193.134 410.75C192.047 410.75 191.271 409.819 191.271 408.732C191.271 407.646 192.202 406.87 193.289 406.87C194.376 406.87 195.308 407.801 195.152 408.888Z" fill="#412D83"/>
<path d="M198.413 446.916L295.458 452.038" stroke="#412D83" stroke-width="2" stroke-miterlimit="10" stroke-linecap="round" stroke-linejoin="round"/>
<path d="M198.102 453.435L295.148 458.557" stroke="#412D83" stroke-width="2" stroke-miterlimit="10" stroke-linecap="round" stroke-linejoin="round"/>
<path d="M197.637 460.886L280.397 465.232" stroke="#412D83" stroke-width="2" stroke-miterlimit="10" stroke-linecap="round" stroke-linejoin="round"/>
<path d="M205.6 468.229L197.692 467.813L197.277 475.719L205.185 476.134L205.6 468.229Z" stroke="#412D83" stroke-miterlimit="10" stroke-linecap="round" stroke-linejoin="round"/>
<path d="M219.883 469.003L211.975 468.588L211.559 476.493L219.467 476.908L219.883 469.003Z" stroke="#412D83" stroke-miterlimit="10" stroke-linecap="round" stroke-linejoin="round"/>
<path d="M234.166 469.779L226.258 469.364L225.842 477.269L233.75 477.684L234.166 469.779Z" stroke="#412D83" stroke-miterlimit="10" stroke-linecap="round" stroke-linejoin="round"/>
<path d="M248.449 470.555L240.542 470.139L240.126 478.044L248.034 478.46L248.449 470.555Z" stroke="#412D83" stroke-miterlimit="10" stroke-linecap="round" stroke-linejoin="round"/>
<path d="M193.289 446.606C193.289 447.692 192.357 448.468 191.271 448.468C190.184 448.468 189.407 447.537 189.407 446.451C189.407 445.364 190.339 444.588 191.426 444.588C192.513 444.588 193.289 445.519 193.289 446.606Z" fill="#412D83"/>
<path d="M196.394 485.721L293.439 490.843" stroke="#412D83" stroke-width="2" stroke-miterlimit="10" stroke-linecap="round" stroke-linejoin="round"/>
<path d="M195.929 492.241L292.974 497.363" stroke="#412D83" stroke-width="2" stroke-miterlimit="10" stroke-linecap="round" stroke-linejoin="round"/>
<path d="M195.618 499.846L278.378 504.192" stroke="#412D83" stroke-width="2" stroke-miterlimit="10" stroke-linecap="round" stroke-linejoin="round"/>
<path d="M203.583 507.034L195.676 506.619L195.26 514.524L203.168 514.939L203.583 507.034Z" stroke="#412D83" stroke-miterlimit="10" stroke-linecap="round" stroke-linejoin="round"/>
<path d="M217.866 507.809L209.958 507.394L209.543 515.299L217.451 515.715L217.866 507.809Z" stroke="#412D83" stroke-miterlimit="10" stroke-linecap="round" stroke-linejoin="round"/>
<path d="M232.15 508.584L224.242 508.168L223.826 516.074L231.734 516.489L232.15 508.584Z" stroke="#412D83" stroke-miterlimit="10" stroke-linecap="round" stroke-linejoin="round"/>
<path d="M246.433 509.36L238.525 508.944L238.11 516.849L246.018 517.265L246.433 509.36Z" stroke="#412D83" stroke-miterlimit="10" stroke-linecap="round" stroke-linejoin="round"/>
<path d="M191.115 485.566C191.115 486.652 190.184 487.428 189.097 487.428C188.01 487.428 187.233 486.497 187.233 485.411C187.233 484.324 188.165 483.548 189.252 483.548C190.339 483.548 191.27 484.479 191.115 485.566Z" fill="#412D83"/>
<path d="M204.313 395.694L205.4 397.401L209.592 392.745" stroke="#412D83" stroke-width="2" stroke-miterlimit="10" stroke-linecap="round" stroke-linejoin="round"/>
<path d="M231.02 434.343L231.952 436.206L236.144 431.549" stroke="#412D83" stroke-width="2" stroke-miterlimit="10" stroke-linecap="round" stroke-linejoin="round"/>
<path d="M244.374 474.235L245.305 476.098L249.653 471.441" stroke="#412D83" stroke-width="2" stroke-miterlimit="10" stroke-linecap="round" stroke-linejoin="round"/>
<path d="M212.698 509.78L213.63 511.643L217.977 506.986" stroke="#412D83" stroke-width="2" stroke-miterlimit="10" stroke-linecap="round" stroke-linejoin="round"/>
<path d="M229.623 482.307L104.473 517.076L52.3019 329.105L104.163 314.825L177.451 294.491L224.809 464.923L229.623 482.307Z" fill="#F5F9FB"/>
<path opacity="0.2" d="M224.809 464.922L128.075 471.131L104.163 314.825L177.451 294.491L224.809 464.922Z" fill="black" fill-opacity="0.7"/>
<path d="M65.1895 338.884L97.7966 329.881" stroke="#412D83" stroke-width="2" stroke-miterlimit="10" stroke-linecap="round" stroke-linejoin="round"/>
<path d="M66.8975 345.093L89.1014 339.039" stroke="#412D83" stroke-width="2" stroke-miterlimit="10" stroke-linecap="round" stroke-linejoin="round"/>
<path d="M79.0086 357.666L172.638 331.744" stroke="#412D83" stroke-width="2" stroke-miterlimit="10" stroke-linecap="round" stroke-linejoin="round"/>
<path d="M80.7167 363.875L174.346 337.953" stroke="#412D83" stroke-width="2" stroke-miterlimit="10" stroke-linecap="round" stroke-linejoin="round"/>
<path d="M82.7352 371.17L162.545 348.974" stroke="#412D83" stroke-width="2" stroke-miterlimit="10" stroke-linecap="round" stroke-linejoin="round"/>
<path d="M92.5639 375.708L84.9341 377.827L87.054 385.454L94.6838 383.335L92.5639 375.708Z" stroke="#412D83" stroke-miterlimit="10" stroke-linecap="round" stroke-linejoin="round"/>
<path d="M106.376 371.821L98.7466 373.94L100.867 381.568L108.496 379.449L106.376 371.821Z" stroke="#412D83" stroke-miterlimit="10" stroke-linecap="round" stroke-linejoin="round"/>
<path d="M120.183 367.937L112.553 370.057L114.673 377.684L122.303 375.565L120.183 367.937Z" stroke="#412D83" stroke-miterlimit="10" stroke-linecap="round" stroke-linejoin="round"/>
<path d="M133.989 364.054L126.359 366.173L128.479 373.801L136.109 371.681L133.989 364.054Z" stroke="#412D83" stroke-miterlimit="10" stroke-linecap="round" stroke-linejoin="round"/>
<path d="M74.04 359.062C74.3505 360.149 73.7294 361.235 72.6425 361.546C71.5556 361.856 70.4687 361.235 70.1582 360.149C69.8476 359.062 70.4687 357.976 71.5556 357.665C72.6425 357.355 73.7294 357.976 74.04 359.062Z" fill="#412D83"/>
<path d="M89.1014 394.142L182.73 368.065" stroke="#412D83" stroke-width="2" stroke-miterlimit="10" stroke-linecap="round" stroke-linejoin="round"/>
<path d="M90.8094 400.351L184.439 374.43" stroke="#412D83" stroke-width="2" stroke-miterlimit="10" stroke-linecap="round" stroke-linejoin="round"/>
<path d="M92.828 407.647L172.793 385.45" stroke="#412D83" stroke-width="2" stroke-miterlimit="10" stroke-linecap="round" stroke-linejoin="round"/>
<path d="M102.781 411.999L95.1508 414.118L97.2706 421.745L104.9 419.626L102.781 411.999Z" stroke="#412D83" stroke-miterlimit="10" stroke-linecap="round" stroke-linejoin="round"/>
<path d="M116.623 408.268L108.993 410.387L111.113 418.014L118.743 415.895L116.623 408.268Z" stroke="#412D83" stroke-miterlimit="10" stroke-linecap="round" stroke-linejoin="round"/>
<path d="M130.28 404.426L122.65 406.545L124.77 414.173L132.4 412.054L130.28 404.426Z" stroke="#412D83" stroke-miterlimit="10" stroke-linecap="round" stroke-linejoin="round"/>
<path d="M144.093 400.539L136.463 402.658L138.583 410.285L146.213 408.166L144.093 400.539Z" stroke="#412D83" stroke-miterlimit="10" stroke-linecap="round" stroke-linejoin="round"/>
<path d="M84.1327 395.539C84.4432 396.625 83.8222 397.712 82.7353 398.022C81.6484 398.333 80.5614 397.712 80.2509 396.625C79.9404 395.539 80.5614 394.452 81.6484 394.142C82.7353 393.831 83.8222 394.452 84.1327 395.539Z" fill="#412D83"/>
<path d="M99.1941 430.619L192.823 404.542" stroke="#412D83" stroke-width="2" stroke-miterlimit="10" stroke-linecap="round" stroke-linejoin="round"/>
<path d="M101.057 436.828L194.531 410.751" stroke="#412D83" stroke-width="2" stroke-miterlimit="10" stroke-linecap="round" stroke-linejoin="round"/>
<path d="M103.076 444.123L182.886 421.926" stroke="#412D83" stroke-width="2" stroke-miterlimit="10" stroke-linecap="round" stroke-linejoin="round"/>
<path d="M112.879 448.487L105.249 450.606L107.369 458.234L114.999 456.115L112.879 448.487Z" stroke="#412D83" stroke-miterlimit="10" stroke-linecap="round" stroke-linejoin="round"/>
<path d="M126.691 444.601L119.061 446.72L121.181 454.347L128.811 452.228L126.691 444.601Z" stroke="#412D83" stroke-miterlimit="10" stroke-linecap="round" stroke-linejoin="round"/>
<path d="M140.533 440.871L132.903 442.99L135.023 450.617L142.653 448.498L140.533 440.871Z" stroke="#412D83" stroke-miterlimit="10" stroke-linecap="round" stroke-linejoin="round"/>
<path d="M154.34 436.988L146.71 439.107L148.83 446.734L156.459 444.615L154.34 436.988Z" stroke="#412D83" stroke-miterlimit="10" stroke-linecap="round" stroke-linejoin="round"/>
<path d="M94.2254 432.016C94.5359 433.102 93.9148 434.189 92.8279 434.499C91.741 434.81 90.6541 434.189 90.3436 433.102C90.033 432.016 90.6541 430.929 91.741 430.619C92.8279 430.309 93.9148 430.929 94.2254 432.016Z" fill="#412D83"/>
<path d="M109.597 468.027L203.226 441.95" stroke="#412D83" stroke-width="2" stroke-miterlimit="10" stroke-linecap="round" stroke-linejoin="round"/>
<path d="M111.461 474.236L205.09 448.314" stroke="#412D83" stroke-width="2" stroke-miterlimit="10" stroke-linecap="round" stroke-linejoin="round"/>
<path d="M113.479 481.531L193.289 459.334" stroke="#412D83" stroke-width="2" stroke-miterlimit="10" stroke-linecap="round" stroke-linejoin="round"/>
<path d="M123.269 485.899L115.639 488.018L117.759 495.645L125.389 493.526L123.269 485.899Z" stroke="#412D83" stroke-miterlimit="10" stroke-linecap="round" stroke-linejoin="round"/>
<path d="M137.117 482.165L129.487 484.285L131.607 491.912L139.237 489.793L137.117 482.165Z" stroke="#412D83" stroke-miterlimit="10" stroke-linecap="round" stroke-linejoin="round"/>
<path d="M150.923 478.283L143.293 480.402L145.413 488.029L153.043 485.91L150.923 478.283Z" stroke="#412D83" stroke-miterlimit="10" stroke-linecap="round" stroke-linejoin="round"/>
<path d="M164.729 474.399L157.099 476.519L159.219 484.146L166.849 482.027L164.729 474.399Z" stroke="#412D83" stroke-miterlimit="10" stroke-linecap="round" stroke-linejoin="round"/>
<path d="M104.629 469.423C104.939 470.51 104.318 471.596 103.231 471.907C102.144 472.217 101.057 471.596 100.747 470.51C100.436 469.423 101.057 468.337 102.144 468.026C103.231 467.716 104.318 468.337 104.629 469.423Z" fill="#412D83"/>
<path d="M101.523 376.446L103.076 377.688L105.56 371.945" stroke="#412D83" stroke-width="2" stroke-miterlimit="10" stroke-linecap="round" stroke-linejoin="round"/>
<path d="M97.7966 417.114L99.3494 418.356L101.834 412.613" stroke="#412D83" stroke-width="2" stroke-miterlimit="10" stroke-linecap="round" stroke-linejoin="round"/>
<path d="M107.889 453.125L109.442 454.522L111.926 448.779" stroke="#412D83" stroke-width="2" stroke-miterlimit="10" stroke-linecap="round" stroke-linejoin="round"/>
<path d="M145.931 482.617L147.484 484.014L149.968 478.271" stroke="#412D83" stroke-width="2" stroke-miterlimit="10" stroke-linecap="round" stroke-linejoin="round"/>
<path d="M241.883 251.006L112.673 263.413L131.334 457.626L260.545 445.219L241.883 251.006Z" fill="#F5F9FB"/>
<path d="M123.572 275.244L157.266 271.984" stroke="#412D83" stroke-width="2" stroke-miterlimit="10" stroke-linecap="round" stroke-linejoin="round"/>
<path d="M124.193 281.763L147.173 279.59" stroke="#412D83" stroke-width="2" stroke-miterlimit="10" stroke-linecap="round" stroke-linejoin="round"/>
<path d="M133.975 296.198L230.71 286.885" stroke="#412D83" stroke-width="2" stroke-miterlimit="10" stroke-linecap="round" stroke-linejoin="round"/>
<path d="M134.596 302.563L231.331 293.405" stroke="#412D83" stroke-width="2" stroke-miterlimit="10" stroke-linecap="round" stroke-linejoin="round"/>
<path d="M135.217 310.168L217.822 302.252" stroke="#412D83" stroke-width="2" stroke-miterlimit="10" stroke-linecap="round" stroke-linejoin="round"/>
<path d="M144.13 316.173L136.248 316.93L137.005 324.81L144.888 324.053L144.13 316.173Z" stroke="#412D83" stroke-miterlimit="10" stroke-linecap="round" stroke-linejoin="round"/>
<path d="M158.412 314.773L150.53 315.53L151.287 323.41L159.169 322.653L158.412 314.773Z" stroke="#412D83" stroke-miterlimit="10" stroke-linecap="round" stroke-linejoin="round"/>
<path d="M172.709 313.528L164.827 314.285L165.584 322.164L173.466 321.408L172.709 313.528Z" stroke="#412D83" stroke-miterlimit="10" stroke-linecap="round" stroke-linejoin="round"/>
<path d="M186.991 312.129L179.109 312.886L179.866 320.765L187.748 320.009L186.991 312.129Z" stroke="#412D83" stroke-miterlimit="10" stroke-linecap="round" stroke-linejoin="round"/>
<path d="M128.696 296.664C128.851 297.751 128.075 298.682 126.988 298.837C125.901 298.993 124.969 298.216 124.814 297.13C124.659 296.043 125.435 295.112 126.522 294.957C127.764 294.802 128.696 295.578 128.696 296.664Z" fill="#412D83"/>
<path d="M137.546 333.762L234.281 324.604" stroke="#412D83" stroke-width="2" stroke-miterlimit="10" stroke-linecap="round" stroke-linejoin="round"/>
<path d="M138.167 340.28L234.902 330.967" stroke="#412D83" stroke-width="2" stroke-miterlimit="10" stroke-linecap="round" stroke-linejoin="round"/>
<path d="M138.944 347.731L221.393 339.815" stroke="#412D83" stroke-width="2" stroke-miterlimit="10" stroke-linecap="round" stroke-linejoin="round"/>
<path d="M147.863 353.879L139.981 354.636L140.738 362.516L148.621 361.759L147.863 353.879Z" stroke="#412D83" stroke-miterlimit="10" stroke-linecap="round" stroke-linejoin="round"/>
<path d="M162.145 352.48L154.263 353.237L155.02 361.117L162.903 360.36L162.145 352.48Z" stroke="#412D83" stroke-miterlimit="10" stroke-linecap="round" stroke-linejoin="round"/>
<path d="M176.272 351.095L168.39 351.852L169.147 359.732L177.029 358.975L176.272 351.095Z" stroke="#412D83" stroke-miterlimit="10" stroke-linecap="round" stroke-linejoin="round"/>
<path d="M190.555 349.697L182.673 350.454L183.43 358.333L191.312 357.576L190.555 349.697Z" stroke="#412D83" stroke-miterlimit="10" stroke-linecap="round" stroke-linejoin="round"/>
<path d="M132.422 334.382C132.578 335.469 131.801 336.4 130.714 336.555C129.627 336.711 128.696 335.934 128.541 334.848C128.385 333.761 129.162 332.83 130.249 332.675C131.335 332.364 132.267 333.296 132.422 334.382Z" fill="#412D83"/>
<path d="M141.118 371.48L237.852 362.167" stroke="#412D83" stroke-width="2" stroke-miterlimit="10" stroke-linecap="round" stroke-linejoin="round"/>
<path d="M141.739 377.845L238.473 368.687" stroke="#412D83" stroke-width="2" stroke-miterlimit="10" stroke-linecap="round" stroke-linejoin="round"/>
<path d="M142.515 385.45L224.965 377.534" stroke="#412D83" stroke-width="2" stroke-miterlimit="10" stroke-linecap="round" stroke-linejoin="round"/>
<path d="M151.427 391.447L143.545 392.204L144.302 400.083L152.184 399.326L151.427 391.447Z" stroke="#412D83" stroke-miterlimit="10" stroke-linecap="round" stroke-linejoin="round"/>
<path d="M165.724 390.203L157.842 390.96L158.599 398.84L166.481 398.083L165.724 390.203Z" stroke="#412D83" stroke-miterlimit="10" stroke-linecap="round" stroke-linejoin="round"/>
<path d="M180.006 388.803L172.123 389.56L172.88 397.439L180.763 396.683L180.006 388.803Z" stroke="#412D83" stroke-miterlimit="10" stroke-linecap="round" stroke-linejoin="round"/>
<path d="M194.288 387.404L186.406 388.161L187.163 396.04L195.045 395.284L194.288 387.404Z" stroke="#412D83" stroke-miterlimit="10" stroke-linecap="round" stroke-linejoin="round"/>
<path d="M135.994 371.946C136.149 373.032 135.372 373.964 134.286 374.119C133.199 374.274 132.267 373.498 132.112 372.412C131.956 371.325 132.733 370.394 133.82 370.239C134.907 370.083 135.838 370.859 135.994 371.946Z" fill="#412D83"/>
<path d="M144.844 410.13L241.579 400.972" stroke="#412D83" stroke-width="2" stroke-miterlimit="10" stroke-linecap="round" stroke-linejoin="round"/>
<path d="M145.465 416.649L242.2 407.335" stroke="#412D83" stroke-width="2" stroke-miterlimit="10" stroke-linecap="round" stroke-linejoin="round"/>
<path d="M146.242 424.099L228.691 416.183" stroke="#412D83" stroke-width="2" stroke-miterlimit="10" stroke-linecap="round" stroke-linejoin="round"/>
<path d="M155.162 430.25L147.279 431.007L148.036 438.887L155.919 438.13L155.162 430.25Z" stroke="#412D83" stroke-miterlimit="10" stroke-linecap="round" stroke-linejoin="round"/>
<path d="M169.444 428.851L161.561 429.607L162.318 437.487L170.201 436.73L169.444 428.851Z" stroke="#412D83" stroke-miterlimit="10" stroke-linecap="round" stroke-linejoin="round"/>
<path d="M183.726 427.451L175.843 428.208L176.6 436.088L184.483 435.331L183.726 427.451Z" stroke="#412D83" stroke-miterlimit="10" stroke-linecap="round" stroke-linejoin="round"/>
<path d="M197.853 426.066L189.97 426.823L190.727 434.703L198.61 433.946L197.853 426.066Z" stroke="#412D83" stroke-miterlimit="10" stroke-linecap="round" stroke-linejoin="round"/>
<path d="M139.72 410.75C139.875 411.836 139.099 412.768 138.012 412.923C136.925 413.078 135.994 412.302 135.838 411.216C135.683 410.129 136.459 409.198 137.546 409.042C138.633 408.732 139.565 409.663 139.72 410.75Z" fill="#412D83"/>
<path d="M139.41 319.792L140.652 321.499L144.223 316.222" stroke="#412D83" stroke-width="2" stroke-miterlimit="10" stroke-linecap="round" stroke-linejoin="round"/>
<path d="M171.551 354.25L172.793 355.802L176.364 350.68" stroke="#412D83" stroke-width="2" stroke-miterlimit="10" stroke-linecap="round" stroke-linejoin="round"/>
<path d="M160.992 394.142L162.235 395.694L165.651 390.417" stroke="#412D83" stroke-width="2" stroke-miterlimit="10" stroke-linecap="round" stroke-linejoin="round"/>
<path d="M192.978 429.687L194.221 431.395L197.792 426.117" stroke="#412D83" stroke-width="2" stroke-miterlimit="10" stroke-linecap="round" stroke-linejoin="round"/>
<path d="M399.801 174.507H319.525C313.625 174.507 308.811 179.319 308.811 185.217V254.135C308.811 260.033 313.625 264.845 319.525 264.845H355.083L375.423 289.369L370.299 264.845H399.646C405.546 264.845 410.359 260.033 410.359 254.135V185.217C410.515 179.319 405.701 174.507 399.801 174.507Z" fill="white"/>
<path d="M366.107 212.381V205.085L360.672 204.62C360.362 203.533 359.896 202.291 359.275 201.36L362.846 197.169L357.722 192.047L353.53 195.617C352.443 194.996 351.356 194.53 350.269 194.22L349.803 188.787H342.505L342.04 194.22C340.953 194.53 339.711 194.996 338.779 195.617L334.587 192.047L329.463 197.169L333.034 201.36C332.413 202.446 331.947 203.533 331.636 204.62L326.202 205.085V212.381L331.636 212.846C331.947 213.933 332.413 215.174 333.034 216.106L329.463 220.297L334.587 225.419L338.779 221.849C339.866 222.47 340.953 222.935 342.04 223.246L342.505 228.679H349.803L350.269 223.246C351.356 222.935 352.598 222.47 353.53 221.849L357.722 225.419L362.846 220.297L359.275 216.106C359.896 215.019 360.362 213.933 360.672 212.846L366.107 212.381ZM346.077 217.192C341.419 217.192 337.537 213.467 337.537 208.655C337.537 203.999 341.263 200.118 346.077 200.118C350.735 200.118 354.617 203.843 354.617 208.655C354.617 213.312 350.735 217.192 346.077 217.192Z" fill="#412D83"/>
<path d="M390.329 228.523V223.401L386.448 223.09C386.292 222.314 385.826 221.538 385.516 220.762L388 217.813L384.274 214.088L381.324 216.571C380.547 216.105 379.771 215.795 378.994 215.64L378.684 211.759H373.56L373.249 215.64C372.473 215.795 371.697 216.261 370.92 216.571L367.97 214.088L364.244 217.813L366.728 220.762C366.262 221.538 365.952 222.314 365.796 223.09L361.915 223.401V228.523L365.796 228.833C365.952 229.61 366.417 230.386 366.728 231.162L364.244 234.111L367.97 237.836L370.92 235.353C371.697 235.818 372.473 236.129 373.249 236.284L373.56 240.164H378.684L378.994 236.284C379.771 236.129 380.547 235.663 381.324 235.353L384.274 237.836L388 234.111L385.516 231.162C385.982 230.386 386.292 229.61 386.448 228.833L390.329 228.523ZM376.044 232.093C372.784 232.093 369.989 229.454 369.989 226.039C369.989 222.78 372.628 219.986 376.044 219.986C379.305 219.986 382.1 222.625 382.1 226.039C382.1 229.299 379.305 232.093 376.044 232.093Z" fill="#412D83"/>
<path d="M364.865 240.63V236.905L362.07 236.594C361.915 235.973 361.604 235.508 361.449 234.887L363.312 232.714L360.672 230.075L358.499 231.938C358.033 231.627 357.412 231.472 356.791 231.317L356.48 228.523H352.753L352.443 231.317C351.822 231.472 351.356 231.783 350.735 231.938L348.561 230.075L345.921 232.714L347.785 234.887C347.474 235.353 347.319 235.973 347.164 236.594L344.369 236.905V240.63L347.164 240.941C347.319 241.561 347.629 242.027 347.785 242.648L345.921 244.821L348.561 247.46L350.735 245.597C351.201 245.908 351.822 246.063 352.443 246.218L352.753 249.012H356.48L356.791 246.218C357.412 246.063 357.877 245.752 358.499 245.597L360.672 247.46L363.312 244.821L361.449 242.648C361.759 242.182 361.915 241.561 362.07 240.941L364.865 240.63ZM354.772 243.114C352.443 243.114 350.424 241.251 350.424 238.767C350.424 236.284 352.288 234.421 354.772 234.421C357.256 234.421 359.12 236.284 359.12 238.767C359.12 241.251 357.101 243.114 354.772 243.114Z" fill="#412D83"/>
<path d="M357.567 439.311L420.142 669.968H429.458L366.883 439.311H357.567Z" fill="#757575"/>
<path d="M498.554 604.62H379.926V614.243H498.554V604.62Z" fill="#999999"/>
<path d="M561.75 387.623L485.201 670.123H475.884L552.434 387.623C555.228 377.223 548.707 368.686 537.993 368.686H472.003C461.289 368.686 450.109 377.223 447.314 387.623L370.765 670.123H361.449L437.998 387.623C442.19 372.256 458.494 359.683 474.487 359.683H540.478C556.315 359.683 565.942 372.101 561.75 387.623Z" fill="#757575"/>
<path d="M562.837 387.623L543.893 457.783C542.341 463.526 536.13 468.338 530.229 468.338H421.694C415.639 468.338 412.067 463.681 413.62 457.783L432.563 387.623C434.116 381.88 440.327 377.068 446.227 377.068H554.607C560.818 377.224 564.545 381.88 562.837 387.623Z" fill="#412D83"/>
<path opacity="0.2" d="M562.837 387.623L543.893 457.783C542.341 463.526 536.13 468.338 530.229 468.338H421.694C415.639 468.338 412.067 463.681 413.62 457.783L432.563 387.623C434.116 381.88 440.327 377.068 446.227 377.068H502.28C526.503 401.904 523.398 447.693 521.845 461.508C526.813 460.266 531.316 456.23 532.714 451.419L551.657 381.259C552.123 379.707 552.123 378.31 551.812 377.068H554.607C560.818 377.224 564.545 381.88 562.837 387.623Z" fill="black" fill-opacity="0.7"/>
<path d="M499.175 539.273L534.577 669.968H543.894L508.492 539.273H499.175Z" fill="#757575"/>
<path d="M508.491 524.216V536.944H368.902V524.216C368.902 518.938 373.094 514.748 378.373 514.748H499.175C503.523 514.748 507.249 517.697 508.336 521.732C508.491 522.509 508.491 523.44 508.491 524.216Z" fill="#412D83"/>
<path opacity="0.2" d="M508.181 521.732C503.678 527.01 495.604 532.443 481.629 536.944H368.902V524.216C368.902 518.938 373.094 514.748 378.373 514.748H499.175C503.523 514.903 507.094 517.852 508.181 521.732Z" fill="black" fill-opacity="0.7"/>
<path d="M513.305 545.171H365.486C364.088 545.171 362.846 543.929 362.846 542.532V535.858C362.846 534.461 364.088 533.219 365.486 533.219H513.305C514.702 533.219 515.945 534.461 515.945 535.858V542.532C515.945 543.929 514.702 545.171 513.305 545.171Z" fill="#999999"/>
<path d="M364.399 533.529C357.722 540.359 390.174 647.461 390.174 647.461C386.603 650.565 381.479 651.962 376.51 652.583C369.368 653.514 362.846 652.738 362.846 652.738C362.846 652.738 316.42 540.049 329.152 512.109C341.885 484.169 421.384 471.286 421.384 471.286L424.8 462.904L465.947 457.161L472.779 507.452C472.779 507.452 466.102 508.073 455.854 509.47C428.371 512.885 376.666 521.112 364.399 533.529Z" fill="#412D83"/>
<path opacity="0.3" d="M390.174 647.461C386.603 650.565 381.479 651.962 376.51 652.583C367.505 619.055 344.524 529.649 353.22 518.628C363.933 505.124 417.036 492.862 417.036 492.862C417.192 486.032 435.824 479.823 435.824 479.823L455.544 509.47C428.371 512.885 376.666 521.112 364.244 533.529C357.722 540.359 390.174 647.461 390.174 647.461Z" fill="black"/>
<path d="M364.399 533.529C357.722 540.359 390.174 647.461 390.174 647.461C386.603 650.565 381.479 651.962 376.51 652.583C369.368 653.514 362.846 652.738 362.846 652.738C362.846 652.738 316.42 540.049 329.152 512.109C341.885 484.169 421.384 471.286 421.384 471.286L424.8 462.904L465.947 457.161L472.779 507.452C472.779 507.452 466.102 508.073 455.854 509.47C428.371 512.885 376.666 521.112 364.399 533.529Z" stroke="#412D83" stroke-miterlimit="10" stroke-linecap="round" stroke-linejoin="round"/>
<path d="M341.419 432.171C334.587 430.929 383.187 388.399 383.187 388.399L406.633 404.076C406.633 404.076 366.883 432.171 360.517 432.947C354.151 433.723 341.419 432.171 341.419 432.171Z" fill="white"/>
<path opacity="0.2" d="M341.419 432.171C334.587 430.929 383.187 388.399 383.187 388.399L406.633 404.076C406.633 404.076 366.883 432.171 360.517 432.947C354.151 433.723 341.419 432.171 341.419 432.171Z" fill="black" fill-opacity="0.7"/>
<path d="M341.419 432.171C334.587 430.929 383.187 388.399 383.187 388.399L406.633 404.076C406.633 404.076 366.883 432.171 360.517 432.947C354.151 433.723 341.419 432.171 341.419 432.171Z" stroke="#412D83" stroke-miterlimit="10" stroke-linecap="round" stroke-linejoin="round"/>
<path d="M349.959 414.32C349.959 414.32 360.207 416.804 363.312 418.977C366.418 421.15 365.486 428.756 365.486 428.756C365.486 428.756 351.822 424.875 349.959 414.32Z" fill="white" stroke="#412D83" stroke-miterlimit="10" stroke-linecap="round" stroke-linejoin="round"/>
<path d="M343.438 394.763L362.381 431.084H364.554L346.698 393.055L343.438 394.763Z" fill="#412D83"/>
<path d="M360.517 420.994C360.517 420.994 348.561 412.457 345.611 412.457C342.661 412.457 333.966 422.857 333.966 427.979C333.966 433.101 353.064 436.05 356.791 431.549C358.654 429.376 354.928 424.099 354.928 424.099C354.928 424.099 360.517 429.842 362.07 430.773C363.623 431.704 366.573 430.463 366.573 430.463C366.573 430.463 362.691 424.254 360.517 420.994Z" fill="white" stroke="#412D83" stroke-miterlimit="10" stroke-linecap="round" stroke-linejoin="round"/>
<path d="M354.928 432.947C354.928 432.947 350.425 427.048 344.99 424.254" stroke="#412D83" stroke-miterlimit="10" stroke-linecap="round" stroke-linejoin="round"/>
<path d="M354.927 424.254C354.927 424.254 350.735 420.684 347.94 419.908" stroke="#412D83" stroke-miterlimit="10" stroke-linecap="round" stroke-linejoin="round"/>
<path d="M341.885 428.755C341.885 428.755 348.561 432.325 350.269 433.722" stroke="#412D83" stroke-miterlimit="10" stroke-linecap="round" stroke-linejoin="round"/>
<path d="M398.404 369.927C392.348 374.118 364.865 402.368 364.865 402.368C364.865 402.368 377.752 416.959 388.932 419.132L419.365 404.386L398.404 369.927Z" fill="#C6368B" stroke="#412D83" stroke-miterlimit="10" stroke-linecap="round" stroke-linejoin="round"/>
<path opacity="0.4" d="M398.404 369.927C392.348 374.118 364.865 402.368 364.865 402.368C364.865 402.368 377.752 416.959 388.932 419.132L419.365 404.386L398.404 369.927Z" fill="white" stroke="#412D83" stroke-miterlimit="10" stroke-linecap="round" stroke-linejoin="round"/>
<path d="M383.653 636.129L396.54 670.122C396.54 670.122 398.714 678.815 359.741 676.176L338.313 674.313L383.653 636.129Z" fill="#783285"/>
<path d="M378.684 652.427C378.684 652.427 381.479 665.621 378.684 675.4C378.684 675.4 337.537 681.919 328.376 679.436C319.215 676.952 313.625 672.451 313.315 670.122C313.315 670.122 313.625 663.758 322.786 662.051C331.947 660.188 350.425 658.947 357.567 648.547C364.865 637.992 378.684 652.427 378.684 652.427Z" fill="#C6368B"/>
<path d="M433.029 461.663C446.227 442.881 506.628 465.543 506.628 465.543C506.628 465.543 512.373 510.712 488.306 522.664C464.239 534.771 429.458 533.995 420.142 543.774L381.945 656.463C381.945 656.463 368.281 662.207 348.251 653.204C348.251 653.204 372.473 568.143 379.616 537.876C386.603 507.918 432.253 487.74 432.253 487.74C432.253 487.74 428.371 483.393 426.974 478.271" fill="#412D83"/>
<path d="M433.029 461.663C446.227 442.881 506.628 465.543 506.628 465.543C506.628 465.543 512.373 510.712 488.306 522.664C464.239 534.771 429.458 533.995 420.142 543.774L381.945 656.463C381.945 656.463 368.281 662.207 348.251 653.204C348.251 653.204 372.473 568.143 379.616 537.876C386.603 507.918 432.253 487.74 432.253 487.74C432.253 487.74 428.371 483.393 426.974 478.271" stroke="#412D83" stroke-miterlimit="10" stroke-linecap="round" stroke-linejoin="round"/>
<path d="M494.207 504.813C492.343 506.521 490.169 508.073 488.151 509.625" stroke="white" stroke-miterlimit="10" stroke-linecap="round" stroke-linejoin="round"/>
<path d="M499.175 466.629C504.144 477.339 504.455 490.998 497.623 500.777" stroke="white" stroke-miterlimit="10" stroke-linecap="round" stroke-linejoin="round"/>
<path d="M485.356 468.336C485.356 468.336 484.114 476.563 487.84 479.823C491.567 483.082 502.746 484.79 502.746 484.79" stroke="white" stroke-miterlimit="10" stroke-linecap="round" stroke-linejoin="round"/>
<path d="M435.824 468.647C435.824 468.647 436.29 476.874 433.029 476.564C429.769 476.098 429.458 479.823 429.458 479.823" stroke="white" stroke-miterlimit="10" stroke-linecap="round" stroke-linejoin="round"/>
<path d="M399.18 376.135C398.714 373.962 398.404 371.789 398.404 369.771C398.404 369.771 417.036 354.094 440.948 354.094C469.518 354.249 486.909 363.252 494.051 375.67C505.076 395.383 506.628 465.387 506.628 465.387C506.628 465.387 434.893 476.407 424.645 462.903C422.937 460.575 424.179 443.811 424.179 443.811C424.179 443.811 416.105 422.701 414.397 406.403C414.397 406.403 411.291 402.212 407.875 396.314C405.546 392.434 403.062 387.777 401.199 382.965" fill="#C6368B"/>
<path d="M399.18 376.135C398.714 373.962 398.404 371.789 398.404 369.771C398.404 369.771 417.036 354.094 440.948 354.094C469.518 354.249 486.909 363.252 494.051 375.67C505.076 395.383 506.628 465.387 506.628 465.387C506.628 465.387 434.893 476.407 424.645 462.903C422.937 460.575 424.179 443.811 424.179 443.811C424.179 443.811 416.105 422.701 414.397 406.403C414.397 406.403 411.291 402.212 407.875 396.314C405.546 392.434 403.062 387.777 401.199 382.965" stroke="#412D83" stroke-miterlimit="10" stroke-linecap="round" stroke-linejoin="round"/>
<g opacity="0.6">
<path d="M399.18 376.135C398.714 373.962 398.404 371.789 398.404 369.771C398.404 369.771 417.036 354.094 440.948 354.094C469.518 354.249 486.909 363.252 494.051 375.67C505.076 395.383 506.628 465.387 506.628 465.387C506.628 465.387 434.893 476.407 424.645 462.903C422.937 460.575 424.179 443.811 424.179 443.811C424.179 443.811 416.105 422.701 414.397 406.403C414.397 406.403 411.291 402.212 407.875 396.314C405.546 392.434 403.062 387.777 401.199 382.965" fill="white"/>
<path d="M399.18 376.135C398.714 373.962 398.404 371.789 398.404 369.771C398.404 369.771 417.036 354.094 440.948 354.094C469.518 354.249 486.909 363.252 494.051 375.67C505.076 395.383 506.628 465.387 506.628 465.387C506.628 465.387 434.893 476.407 424.645 462.903C422.937 460.575 424.179 443.811 424.179 443.811C424.179 443.811 416.105 422.701 414.397 406.403C414.397 406.403 411.291 402.212 407.875 396.314C405.546 392.434 403.062 387.777 401.199 382.965" stroke="#412D83" stroke-miterlimit="10" stroke-linecap="round" stroke-linejoin="round"/>
</g>
<path d="M426.508 393.055C426.508 393.055 437.377 435.585 435.825 444.899C435.048 449.555 437.377 454.367 437.377 454.367C437.377 454.367 432.409 459.334 435.825 465.853" stroke="#412D83" stroke-miterlimit="10" stroke-linecap="round" stroke-linejoin="round"/>
<path d="M455.699 428.135C453.525 427.979 451.662 427.514 450.265 426.427L447.004 412.147C447.004 412.147 456.941 413.234 466.258 410.75L469.674 426.272C469.674 426.272 467.034 427.048 463.773 427.514" stroke="#412D83" stroke-miterlimit="10" stroke-linecap="round" stroke-linejoin="round"/>
<path d="M418.745 398.488C418.745 398.488 409.428 358.752 432.874 354.25C456.32 349.594 461.289 360.614 459.892 368.065C458.028 377.999 438.619 402.368 438.619 402.368L426.508 393.055L418.745 398.488Z" fill="#C6368B" stroke="#412D83" stroke-miterlimit="10" stroke-linecap="round" stroke-linejoin="round"/>
<path opacity="0.4" d="M418.745 398.488C418.745 398.488 409.428 358.752 432.874 354.25C456.32 349.594 461.289 360.614 459.892 368.065C458.028 377.999 438.619 402.368 438.619 402.368L426.508 393.055L418.745 398.488Z" fill="white" stroke="#412D83" stroke-miterlimit="10" stroke-linecap="round" stroke-linejoin="round"/>
<path d="M388 520.956C388 520.956 403.217 503.417 437.532 490.223C437.532 490.223 428.682 487.429 426.663 483.859" stroke="white" stroke-miterlimit="10" stroke-linecap="round" stroke-linejoin="round"/>
<path d="M370.144 574.662L356.17 625.109" stroke="white" stroke-miterlimit="10" stroke-linecap="round" stroke-linejoin="round"/>
<path d="M477.437 429.532C477.437 429.532 483.648 440.087 509.268 439C509.268 439 502.281 431.084 491.877 428.135C481.474 425.186 477.437 429.532 477.437 429.532Z" fill="#C6368B" stroke="#412D83" stroke-miterlimit="10" stroke-linecap="round" stroke-linejoin="round"/>
<path d="M378.218 433.723C378.218 433.723 384.119 424.565 389.553 422.702C394.988 420.84 410.981 420.684 413.465 420.684C415.949 420.684 459.736 431.705 480.387 438.69L478.524 404.386L506.162 406.559C506.162 406.559 505.076 448.469 500.728 459.644C496.38 470.665 490.325 468.026 479.766 463.525C438.464 445.675 414.241 433.257 411.912 434.033C409.739 434.344 378.218 433.723 378.218 433.723Z" fill="white" stroke="#412D83" stroke-miterlimit="10" stroke-linecap="round" stroke-linejoin="round"/>
<path d="M471.537 384.208C470.76 387.157 470.605 390.262 470.916 392.901C472.158 403.611 477.437 429.377 477.437 429.377C477.437 429.377 503.212 433.102 509.268 438.846C509.268 438.846 513.46 404.697 504.92 387.313C496.225 370.083 487.219 368.065 487.219 368.065C481.629 366.668 476.35 371.946 473.4 378.776" fill="#C6368B"/>
<path d="M471.537 384.208C470.76 387.157 470.605 390.262 470.916 392.901C472.158 403.611 477.437 429.377 477.437 429.377C477.437 429.377 503.212 433.102 509.268 438.846C509.268 438.846 513.46 404.697 504.92 387.313C496.225 370.083 487.219 368.065 487.219 368.065C481.629 366.668 476.35 371.946 473.4 378.776" stroke="#412D83" stroke-miterlimit="10" stroke-linecap="round" stroke-linejoin="round"/>
<g opacity="0.4">
<g opacity="0.4">
<path d="M471.537 384.208C470.76 387.157 470.605 390.262 470.916 392.901C472.158 403.611 477.437 429.377 477.437 429.377C477.437 429.377 503.212 433.102 509.268 438.846C509.268 438.846 513.46 404.697 504.92 387.313C496.225 370.083 487.219 368.065 487.219 368.065C481.629 366.668 476.35 371.946 473.4 378.776" fill="white"/>
<path d="M471.537 384.208C470.76 387.157 470.605 390.262 470.916 392.901C472.158 403.611 477.437 429.377 477.437 429.377C477.437 429.377 503.212 433.102 509.268 438.846C509.268 438.846 513.46 404.697 504.92 387.313C496.225 370.083 487.219 368.065 487.219 368.065C481.629 366.668 476.35 371.946 473.4 378.776" stroke="#412D83" stroke-miterlimit="10" stroke-linecap="round" stroke-linejoin="round"/>
</g>
</g>
<path d="M395.764 397.556C395.764 397.556 400.888 402.058 408.962 404.231" stroke="#412D83" stroke-miterlimit="10" stroke-linecap="round" stroke-linejoin="round"/>
<path d="M477.437 397.556C477.437 397.556 486.753 415.096 498.554 418.977" stroke="#412D83" stroke-miterlimit="10" stroke-linecap="round" stroke-linejoin="round"/>
<path d="M417.036 533.064C417.036 533.064 418.744 534.306 419.521 539.118" stroke="white" stroke-miterlimit="10" stroke-linecap="round" stroke-linejoin="round"/>
<path d="M410.67 539.117C410.67 539.117 415.484 539.428 418.278 543.463" stroke="white" stroke-miterlimit="10" stroke-linecap="round" stroke-linejoin="round"/>
<path d="M359.275 520.956C359.275 520.956 364.244 523.44 363.157 530.58" stroke="white" stroke-miterlimit="10" stroke-linecap="round" stroke-linejoin="round"/>
<path d="M353.996 527.166C353.996 527.166 360.828 531.201 361.294 534.771" stroke="white" stroke-miterlimit="10" stroke-linecap="round" stroke-linejoin="round"/>
<path d="M432.719 483.703C432.719 483.703 447.78 485.876 451.196 483.703" stroke="white" stroke-miterlimit="10" stroke-linecap="round" stroke-linejoin="round"/>
<path d="M426.508 391.347C426.508 391.347 424.645 386.691 424.955 379.861C424.955 378.619 425.11 377.222 425.421 375.825L422.781 371.634L419.365 366.357L423.247 350.68C423.247 350.68 448.091 355.492 449.954 362.321C451.973 369.306 426.508 391.347 426.508 391.347Z" fill="white"/>
<path opacity="0.2" d="M424.955 379.707C424.955 378.465 425.11 377.068 425.421 375.671L422.781 371.48C427.129 370.549 431.787 368.686 434.893 364.65C434.893 364.806 435.669 375.671 424.955 379.707Z" fill="black" fill-opacity="0.7"/>
<path d="M426.508 391.347C426.508 391.347 424.645 386.691 424.955 379.861C424.955 378.619 425.11 377.222 425.421 375.825L422.781 371.634L419.365 366.357L423.247 350.68C423.247 350.68 448.091 355.492 449.954 362.321C451.973 369.306 426.508 391.347 426.508 391.347Z" stroke="#412D83" stroke-miterlimit="10" stroke-linecap="round" stroke-linejoin="round"/>
<path d="M442.19 352.077C449.799 331.899 444.83 297.595 407.565 304.115C385.671 307.995 383.032 334.382 390.329 346.179C397.627 357.976 389.864 358.286 400.888 366.979C405.391 370.549 408.962 376.447 414.241 376.913C420.608 377.378 428.682 371.325 434.737 364.961" fill="white"/>
<path d="M442.19 352.077C449.799 331.899 444.83 297.595 407.565 304.115C385.671 307.995 383.032 334.382 390.329 346.179C397.627 357.976 389.864 358.286 400.888 366.979C405.391 370.549 408.962 376.447 414.241 376.913C420.608 377.378 428.682 371.325 434.737 364.961" stroke="#412D83" stroke-miterlimit="10" stroke-linecap="round" stroke-linejoin="round"/>
<path d="M405.391 346.179C405.391 346.179 410.825 341.212 417.347 343.23" stroke="#412D83" stroke-miterlimit="10" stroke-linecap="round" stroke-linejoin="round"/>
<path d="M395.143 346.179C395.143 346.179 393.28 342.299 388 341.367" stroke="#412D83" stroke-miterlimit="10" stroke-linecap="round" stroke-linejoin="round"/>
<path d="M398.714 353.319C398.714 353.319 397.938 357.355 396.851 361.391C395.919 365.271 403.373 363.253 403.062 362.633" fill="white"/>
<path d="M398.714 353.319C398.714 353.319 397.938 357.355 396.851 361.391C395.919 365.271 403.373 363.253 403.062 362.633" stroke="#412D83" stroke-miterlimit="10" stroke-linecap="round" stroke-linejoin="round"/>
<path d="M407.099 367.91C407.099 367.91 411.912 366.824 415.328 362.478" stroke="#412D83" stroke-miterlimit="10" stroke-linecap="round" stroke-linejoin="round"/>
<path d="M413.154 351.301C413.465 352.388 412.999 353.474 412.067 353.785C411.136 354.095 410.204 353.319 409.894 352.233C409.583 351.146 410.049 350.06 410.981 349.749C411.757 349.439 412.844 350.215 413.154 351.301Z" fill="#412D83"/>
<path d="M396.54 350.991C396.851 352.078 396.696 353.164 396.075 353.32C395.453 353.475 394.832 352.699 394.522 351.612C394.211 350.526 394.367 349.439 394.988 349.284C395.453 348.973 396.23 349.749 396.54 350.991Z" fill="#412D83"/>
<path d="M419.21 325.38C419.21 325.38 413.465 340.436 399.18 340.126C399.18 340.126 404.149 336.4 405.546 332.675C405.546 332.675 394.522 343.54 383.497 337.953C372.473 332.365 377.908 306.753 394.832 296.509C411.757 286.264 428.837 289.058 434.737 298.837C434.737 298.837 446.538 297.751 451.662 315.135C456.32 330.657 448.867 354.251 441.569 354.406C430.234 354.872 428.061 342.609 428.061 342.609C428.061 342.609 421.229 336.711 419.21 325.38Z" fill="#412D83" stroke="#412D83" stroke-miterlimit="10" stroke-linecap="round" stroke-linejoin="round"/>
<path d="M431.632 352.233C431.632 352.233 431.321 337.952 439.396 339.66C447.47 341.367 441.569 357.821 435.514 357.665" fill="white"/>
<path d="M431.632 352.233C431.632 352.233 431.321 337.952 439.396 339.66C447.47 341.367 441.569 357.821 435.514 357.665" stroke="#412D83" stroke-miterlimit="10" stroke-linecap="round" stroke-linejoin="round"/>
<path d="M406.478 441.639H281.328C279.931 441.639 278.844 440.553 278.844 439.156V434.81C278.844 433.413 279.931 432.326 281.328 432.326H406.478C407.875 432.326 408.962 433.413 408.962 434.81V439.156C408.962 440.398 407.875 441.639 406.478 441.639Z" fill="#C6368B" stroke="#412D83" stroke-miterlimit="10" stroke-linecap="round" stroke-linejoin="round"/>
<path d="M96.5545 621.694H43.762L49.1965 669.968H90.9647L96.5545 621.694Z" fill="#412D83" stroke="#412D83" stroke-miterlimit="10" stroke-linecap="round" stroke-linejoin="round"/>
<path d="M102.765 588.167C102.765 588.167 79.6298 590.03 78.6981 606.949C78.6981 606.949 102.144 617.814 102.765 588.167Z" fill="#50A436" stroke="#412D83" stroke-miterlimit="10" stroke-linecap="round" stroke-linejoin="round"/>
<path d="M57.1153 592.358C57.1153 592.358 44.2277 574.973 23.4213 583.821C23.4213 583.976 36.1536 604.931 57.1153 592.358Z" fill="#50A436" stroke="#412D83" stroke-miterlimit="10" stroke-linecap="round" stroke-linejoin="round"/>
<path d="M25.2846 537.41C25.2846 537.41 21.558 570.938 52.1467 561.624C51.9914 561.624 42.3645 537.1 25.2846 537.41Z" fill="#50A436" stroke="#412D83" stroke-miterlimit="10" stroke-linecap="round" stroke-linejoin="round"/>
<path d="M62.7051 518.784C62.7051 518.784 38.6379 531.822 56.339 551.535C56.339 551.535 73.2636 537.41 62.7051 518.784Z" fill="#50A436" stroke="#412D83" stroke-miterlimit="10" stroke-linecap="round" stroke-linejoin="round"/>
<path d="M92.3621 548.741C92.3621 548.741 66.1211 546.102 66.1211 570.316C66.1211 570.316 92.3621 571.403 92.3621 548.741Z" fill="#50A436" stroke="#412D83" stroke-miterlimit="10" stroke-linecap="round" stroke-linejoin="round"/>
<path d="M67.6738 641.718C67.6738 641.718 79.6298 616.572 68.1396 591.116C56.6495 565.505 52.7677 544.085 58.8233 528.873" stroke="#412D83" stroke-miterlimit="10" stroke-linecap="round" stroke-linejoin="round"/>
<path d="M83.6669 555.26C83.6669 555.26 67.9844 561.469 62.5499 577.767" stroke="#412D83" stroke-miterlimit="10" stroke-linecap="round" stroke-linejoin="round"/>
<path d="M33.5139 550.758C33.5139 550.758 42.6749 563.176 58.0469 561.779" stroke="#412D83" stroke-miterlimit="10" stroke-linecap="round" stroke-linejoin="round"/>
<path d="M33.5139 587.391C33.5139 587.391 58.6679 594.686 68.6054 592.202" stroke="#412D83" stroke-miterlimit="10" stroke-linecap="round" stroke-linejoin="round"/>
<path d="M95.3123 595.773C95.3123 595.773 84.1327 608.19 72.7978 607.88" stroke="#412D83" stroke-miterlimit="10" stroke-linecap="round" stroke-linejoin="round"/>
<path d="M41.5032 627.438H98.7986V620.608H41.5032V627.438Z" fill="#412D83" stroke="#412D83" stroke-miterlimit="10" stroke-linecap="round" stroke-linejoin="round"/>
<path d="M514.858 576.992C514.858 576.992 495.604 588.323 481.94 611.14C468.276 633.957 457.407 666.088 474.332 670.124L490.325 669.503L521.069 658.948L517.808 652.739C517.808 652.739 490.79 667.019 486.288 667.019C481.785 667.019 475.729 668.106 473.089 666.398C470.605 664.536 481.94 623.092 506.318 609.277C530.851 595.152 514.858 576.992 514.858 576.992Z" fill="#C6368B"/>
<path opacity="0.5" d="M514.858 576.992C514.858 576.992 495.604 588.323 481.94 611.14C468.276 633.957 457.407 666.088 474.332 670.124L490.325 669.503L521.069 658.948L517.808 652.739C517.808 652.739 490.79 667.019 486.288 667.019C481.785 667.019 475.729 668.106 473.089 666.398C470.605 664.536 481.94 623.092 506.318 609.277C530.851 595.152 514.858 576.992 514.858 576.992Z" fill="black" fill-opacity="0.7"/>
<path d="M514.858 576.992C514.858 576.992 495.604 588.323 481.94 611.14C468.276 633.957 457.407 666.088 474.332 670.124L490.325 669.503L521.069 658.948L517.808 652.739C517.808 652.739 490.79 667.019 486.288 667.019C481.785 667.019 475.729 668.106 473.089 666.398C470.605 664.536 481.94 623.092 506.318 609.277C530.851 595.152 514.858 576.992 514.858 576.992Z" stroke="#412D83" stroke-miterlimit="10" stroke-linecap="round" stroke-linejoin="round"/>
<path d="M532.403 561.935C532.403 561.935 532.403 555.26 542.496 554.329C552.589 553.398 554.141 563.177 554.141 563.177H550.725C550.725 563.177 550.881 557.278 543.428 556.813C535.975 556.347 536.285 563.177 536.285 563.177L532.403 561.935Z" fill="#C6368B" stroke="#412D83" stroke-miterlimit="10" stroke-linecap="round" stroke-linejoin="round"/>
<path d="M517.497 669.968C496.07 669.968 500.107 573.887 502.591 569.075C505.076 564.263 567.34 561.935 573.395 563.953C579.451 565.971 604.139 661.742 590.631 669.347L517.497 669.968Z" fill="#C6368B"/>
<path opacity="0.2" d="M517.497 669.968C496.07 669.968 500.107 573.887 502.591 569.075C505.076 564.263 567.34 561.935 573.395 563.953C579.451 565.971 604.139 661.742 590.631 669.347L517.497 669.968Z" fill="black" fill-opacity="0.7"/>
<path d="M517.497 669.968C496.07 669.968 500.107 573.887 502.591 569.075C505.076 564.263 567.34 561.935 573.395 563.953C579.451 565.971 604.139 661.742 590.631 669.347L517.497 669.968Z" stroke="#412D83" stroke-miterlimit="10" stroke-linecap="round" stroke-linejoin="round"/>
<path d="M502.591 569.076C510.355 570.783 514.858 602.137 525.261 610.209C535.664 618.28 585.041 616.418 590.63 610.209C596.22 604 585.351 568.61 577.432 563.177C569.513 557.745 563.924 563.022 541.565 560.538C508.336 556.968 502.591 569.076 502.591 569.076Z" fill="#C6368B" stroke="#412D83" stroke-miterlimit="10" stroke-linecap="round" stroke-linejoin="round"/>
<path d="M559.11 587.236L568.271 594.686C568.737 595.152 568.892 595.928 568.427 596.394L561.284 604C560.818 604.465 560.042 604.465 559.576 604L550.57 595.463C550.104 594.997 550.104 594.221 550.57 593.755L557.558 587.236C557.868 586.77 558.644 586.77 559.11 587.236Z" fill="#C6368B"/>
<path opacity="0.2" d="M559.11 587.236L568.271 594.686C568.737 595.152 568.892 595.928 568.427 596.394L561.284 604C560.818 604.465 560.042 604.465 559.576 604L550.57 595.463C550.104 594.997 550.104 594.221 550.57 593.755L557.558 587.236C557.868 586.77 558.644 586.77 559.11 587.236Z" fill="black" fill-opacity="0.7"/>
<path d="M559.11 587.236L568.271 594.686C568.737 595.152 568.892 595.928 568.427 596.394L561.284 604C560.818 604.465 560.042 604.465 559.576 604L550.57 595.463C550.104 594.997 550.104 594.221 550.57 593.755L557.558 587.236C557.868 586.77 558.644 586.77 559.11 587.236Z" stroke="#412D83" stroke-miterlimit="10" stroke-linecap="round" stroke-linejoin="round"/>
<path d="M528.987 626.351C528.987 626.351 570.29 629.766 590.475 624.489C590.475 624.489 594.357 627.283 596.22 632.715C598.083 638.303 601.965 657.085 590.475 662.052C578.985 666.864 537.683 665.932 532.248 660.5C526.658 654.912 528.987 626.351 528.987 626.351Z" fill="#C6368B"/>
<path opacity="0.4" d="M528.987 626.351C528.987 626.351 570.29 629.766 590.475 624.489C590.475 624.489 594.357 627.283 596.22 632.715C598.083 638.303 601.965 657.085 590.475 662.052C578.985 666.864 537.683 665.932 532.248 660.5C526.658 654.912 528.987 626.351 528.987 626.351Z" fill="black" fill-opacity="0.7"/>
<path d="M528.987 626.351C528.987 626.351 570.29 629.766 590.475 624.489C590.475 624.489 594.357 627.283 596.22 632.715C598.083 638.303 601.965 657.085 590.475 662.052C578.985 666.864 537.683 665.932 532.248 660.5C526.658 654.912 528.987 626.351 528.987 626.351Z" stroke="#412D83" stroke-miterlimit="10" stroke-linecap="round" stroke-linejoin="round"/>
<path d="M528.987 626.351C528.987 626.351 533.801 639.39 536.44 641.408C538.925 643.426 592.649 643.426 598.549 638.614C604.45 633.802 596.375 624.954 590.63 624.489C590.475 624.489 552.899 628.835 528.987 626.351Z" fill="#C6368B" stroke="#412D83" stroke-miterlimit="10" stroke-linecap="round" stroke-linejoin="round"/>
<path d="M511.597 623.557C511.597 623.557 512.994 651.031 515.789 657.24C515.789 657.24 509.423 660.965 502.436 657.24C495.449 653.515 496.536 629.921 497.933 629.921C499.486 629.921 511.597 623.557 511.597 623.557Z" fill="#C6368B"/>
<path opacity="0.4" d="M511.597 623.557C511.597 623.557 512.994 651.031 515.789 657.24C515.789 657.24 509.423 660.965 502.436 657.24C495.449 653.515 496.536 629.921 497.933 629.921C499.486 629.921 511.597 623.557 511.597 623.557Z" fill="black" fill-opacity="0.7"/>
<path d="M511.597 623.557C511.597 623.557 512.994 651.031 515.789 657.24C515.789 657.24 509.423 660.965 502.436 657.24C495.449 653.515 496.536 629.921 497.933 629.921C499.486 629.921 511.597 623.557 511.597 623.557Z" stroke="#412D83" stroke-miterlimit="10" stroke-linecap="round" stroke-linejoin="round"/>
<path d="M511.597 623.557L501.194 625.575C501.194 625.575 491.256 633.181 495.604 635.664C500.107 638.303 511.442 632.094 511.597 623.557Z" fill="#C6368B" stroke="#412D83" stroke-miterlimit="10" stroke-linecap="round" stroke-linejoin="round"/>
</svg>
