<svg width="558" height="523" viewBox="0 0 558 523" fill="none" xmlns="http://www.w3.org/2000/svg">
<g clip-path="url(#clip0_39_146)">
<path d="M251.861 119.503L220.597 140.427C226.757 149.611 236.636 156.586 247.793 159.608C260.927 163.096 275.804 161.119 288.472 150.657C289.867 149.495 291.262 148.216 292.54 146.937L292.657 146.821L259.183 114.62L251.861 119.503Z" fill="#E0E0E0"/>
<path d="M216.529 86.9536C208.974 99.5084 206.998 115.783 215.366 131.593C215.599 132.058 215.831 132.407 216.064 132.872C216.18 133.104 216.296 133.453 216.529 133.685C216.994 134.499 217.458 135.197 217.923 136.01C217.923 136.01 217.923 136.127 218.04 136.127C218.04 136.127 218.04 136.243 218.156 136.243L249.421 115.318L256.743 110.436L240.006 67.1914C236.984 68.3539 234.079 69.8651 231.289 71.7251C225.246 75.445 220.248 80.6762 216.529 86.9536Z" fill="#EBEBEB"/>
<path d="M261.857 109.971L295.33 142.172C310.09 126.827 312.764 102.88 300.56 84.3963C288.356 65.7966 264.995 58.9379 245.12 66.7266L261.857 109.971Z" fill="#F5F5F5"/>
<path d="M68.3408 298.176C84.4962 288.644 89.3777 269.114 89.9588 251.328C90.075 248.305 90.6561 245.283 89.3777 242.609C88.0992 239.936 84.9611 237.959 82.1716 239.006C79.8471 239.936 78.6849 242.377 77.2902 244.353C75.4305 247.027 72.7574 249.235 69.8517 250.514C67.8759 251.328 65.4351 251.793 63.6917 250.63C61.251 249.003 61.1348 245.515 61.3672 242.609C61.8321 237.146 62.1808 231.682 62.6457 226.102C62.8782 223.196 63.1106 220.173 62.297 217.267C61.5997 214.361 59.7401 211.687 56.9507 210.641C54.1612 209.711 50.5582 210.99 49.7447 213.896C49.396 215.059 49.6284 216.337 49.396 217.5C49.2798 218.662 48.5824 220.057 47.3039 220.29C46.1417 220.522 44.9794 219.592 44.1658 218.662C41.2602 215.524 39.5168 211.455 37.7734 207.619C36.03 203.666 34.4029 199.598 31.8459 196.226C29.2889 192.739 25.5697 189.949 21.3856 189.368C17.0852 188.786 12.4362 191.111 11.0415 195.18C9.64676 199.249 11.8551 203.666 14.2958 207.154C17.8988 212.385 22.3154 217.151 27.1969 221.103C28.1267 221.801 29.0565 222.615 29.2889 223.777C29.7538 225.753 27.778 227.613 25.8021 228.078C23.4776 228.66 21.1531 228.311 18.8286 228.427C16.5041 228.543 13.9471 229.357 12.9011 231.449C11.5064 234.356 13.8309 237.727 16.1554 239.936C20.9207 244.469 26.3833 248.073 32.3108 250.747C34.4029 251.677 36.7274 252.49 38.3545 254.234C39.9817 255.862 40.9115 258.652 39.633 260.628C38.4708 262.604 35.6813 263.069 33.3568 262.488C31.0323 261.906 29.1727 260.512 26.9644 259.582C23.0127 257.722 17.6663 257.722 14.7607 260.976C12.9011 263.185 12.5524 266.324 13.1335 269.114C13.8309 271.904 15.4581 274.345 17.2014 276.67C23.2452 284.691 31.2648 291.433 40.5628 295.386C49.9771 299.455 58.694 300.85 68.3408 298.176Z" fill="#EBEBEB"/>
<path d="M64.5053 286.667C62.5295 277.484 59.3914 267.719 55.9046 257.489C54.9748 254.931 54.1612 252.49 53.2314 249.933C52.3016 247.492 51.488 245.05 50.442 242.725C48.4662 238.075 46.1416 233.658 43.9334 229.589C41.6088 225.521 39.2843 221.684 37.1923 218.197C34.984 214.71 32.8919 211.455 30.7998 208.548C26.7319 202.736 22.8965 198.551 20.1071 195.645C18.7124 194.25 17.6663 193.204 16.8527 192.506C16.5041 192.157 16.1554 191.925 16.0392 191.692C15.8067 191.46 15.6905 191.46 15.6905 191.46C15.6905 191.46 15.8067 191.576 15.9229 191.809C16.1554 192.041 16.3878 192.274 16.7365 192.622C17.4339 193.32 18.5961 194.482 19.8746 195.877C22.5478 198.784 26.3833 202.969 30.4512 208.781C32.427 211.687 34.6353 214.942 36.7274 218.43C38.9356 221.917 41.2602 225.753 43.4685 229.822C45.793 233.891 48.0013 238.192 49.9771 242.958C51.0231 245.283 51.8367 247.724 52.7665 250.165C53.6963 252.606 54.5099 255.164 55.4397 257.721C59.0427 267.835 62.0646 277.716 64.1566 286.783" fill="#E0E0E0"/>
<path d="M50.3258 242.725C50.3258 242.725 50.442 242.26 50.6745 241.446C50.9069 240.633 51.1394 239.47 51.4881 238.075C52.0692 235.169 52.7665 231.1 53.5801 226.683C54.3937 222.265 55.0911 218.197 55.7884 215.291C56.1371 213.896 56.3695 212.733 56.602 211.919C56.8345 211.106 56.9507 210.641 56.8345 210.641C56.8345 210.641 56.602 211.106 56.3695 211.803C56.1371 212.617 55.7884 213.779 55.4397 215.174C54.6262 218.081 53.8126 222.033 53.1152 226.567C52.3016 230.984 51.6043 234.936 51.1394 237.959C50.9069 239.354 50.6745 240.516 50.5583 241.446C50.3258 242.26 50.3258 242.725 50.3258 242.725Z" fill="#E0E0E0"/>
<path d="M12.4362 233.077C12.4362 233.077 12.5524 233.077 12.7848 233.193C13.1335 233.193 13.4822 233.31 13.9471 233.426C14.8769 233.542 16.3878 233.775 18.1312 234.123C21.618 234.705 26.3833 235.751 31.6134 237.146C36.8436 238.541 41.4926 239.936 44.8632 241.098C46.4903 241.68 47.885 242.145 48.8148 242.493C49.2797 242.609 49.6284 242.726 49.8609 242.842C50.0933 242.958 50.2095 242.958 50.2095 242.958C50.2095 242.958 50.0933 242.842 49.8609 242.726C49.6284 242.609 49.2797 242.493 48.8148 242.261C47.885 241.912 46.6065 241.331 44.8632 240.75C41.4926 239.587 36.8436 238.076 31.6134 236.681C26.3833 235.286 21.5018 234.356 18.015 233.891C16.2716 233.658 14.8769 233.426 13.8309 233.31C13.366 233.31 13.0173 233.193 12.6686 233.193C12.5524 233.077 12.4362 233.077 12.4362 233.077Z" fill="#E0E0E0"/>
<path d="M64.1567 285.97C64.1567 285.97 64.2729 285.854 64.3891 285.505C64.6216 285.156 64.854 284.691 65.0865 284.226C65.7838 283.064 66.5974 281.32 67.6435 279.228C69.7355 275.043 72.5249 269.114 75.5468 262.604C78.5687 256.094 81.2419 250.166 83.3339 245.864C84.38 243.772 85.1936 242.028 85.7747 240.866C86.0071 240.285 86.2396 239.82 86.472 239.471C86.5883 239.122 86.7045 239.006 86.7045 239.006C86.7045 239.006 86.5883 239.122 86.472 239.471C86.2396 239.82 86.0071 240.285 85.7747 240.75C85.0773 241.912 84.2637 243.656 83.2177 245.748C81.1256 249.933 78.3362 255.862 75.3144 262.488C72.2925 268.998 69.6193 274.926 67.5272 279.228C66.4812 281.32 65.6676 283.064 65.0865 284.226C64.854 284.808 64.6216 285.273 64.3891 285.621C64.1567 285.854 64.0405 285.97 64.1567 285.97Z" fill="#E0E0E0"/>
<path d="M14.2958 266.208C14.2958 266.208 14.412 266.324 14.7607 266.441C15.1094 266.557 15.5743 266.789 16.1554 267.022C17.4339 267.487 19.2935 268.3 21.5018 269.114C26.0346 270.858 32.1945 273.415 39.0519 276.205C45.9092 278.995 52.0692 281.553 56.602 283.18C58.9265 283.994 60.6699 284.691 61.9483 285.156C62.5295 285.389 62.9944 285.505 63.4593 285.621C63.808 285.738 63.9242 285.738 64.0404 285.738C64.0404 285.738 63.9242 285.621 63.5755 285.505C63.2268 285.389 62.7619 285.156 62.1808 284.924C60.9023 284.459 59.0427 283.645 56.8344 282.831C52.3016 281.088 46.1416 278.53 39.2843 275.74C32.427 272.95 26.267 270.393 21.7342 268.765C19.4097 267.952 17.6663 267.254 16.3878 266.789C15.8067 266.557 15.3418 266.441 14.8769 266.324C14.412 266.324 14.2958 266.208 14.2958 266.208Z" fill="#E0E0E0"/>
<path d="M51.2556 340.49C33.8217 403.497 64.6216 443.021 103.673 474.292C142.842 505.563 192.237 521.837 242.215 522.884C296.957 524.162 376.804 514.165 420.389 489.404C444.215 475.919 468.971 455.925 485.591 434.303C502.212 412.564 498.26 364.67 494.308 337.584C488.497 298.525 442.355 273.88 404.698 262.023C367.041 250.166 326.362 253.653 287.426 259.582" fill="#EBEBEB"/>
<path fill-rule="evenodd" clip-rule="evenodd" d="M531.384 165.305C531.965 167.281 532.198 169.257 532.198 171.117L537.079 173.674L534.755 182.509L529.292 182.393C528.362 184.137 527.084 185.648 525.689 187.159L527.316 192.39L519.529 197.04L515.81 193.088C513.834 193.669 511.858 193.902 509.999 193.902L507.442 198.784L498.609 196.459L498.725 190.995C496.981 190.065 495.471 188.787 493.96 187.392L488.729 189.019L484.08 181.231L488.032 177.511C487.451 175.534 487.219 173.558 487.219 171.698L482.337 169.141L484.662 160.306L490.124 160.422C491.054 158.679 492.332 157.167 493.727 155.656L492.1 150.425L499.887 145.775L503.606 149.727C505.582 149.146 507.558 148.914 509.418 148.914L511.975 144.031L520.808 146.356L520.692 151.82C522.435 152.75 523.946 154.029 525.457 155.424L530.687 153.796L535.336 161.585L531.384 165.305ZM518.483 166.7C515.81 162.05 509.766 160.538 505.117 163.212C500.468 165.886 498.957 171.931 501.631 176.581C504.304 181.231 510.347 182.742 514.996 180.068C519.646 177.278 521.273 171.35 518.483 166.7Z" fill="#F5F5F5"/>
<path fill-rule="evenodd" clip-rule="evenodd" d="M467.46 184.137C468.506 188.089 469.087 192.042 469.087 195.994L478.966 201.109L474.317 218.779L463.276 218.43C461.3 221.917 458.976 225.056 456.07 227.962L459.441 238.541L443.634 247.841L436.079 239.82C432.127 240.866 428.176 241.447 424.224 241.447L419.11 251.328L401.444 246.678L401.793 235.635C398.306 233.658 395.168 231.333 392.262 228.427L381.685 231.798L372.387 215.989L380.407 208.433C379.361 204.48 378.78 200.528 378.78 196.575L368.901 191.46L373.55 173.791L384.591 174.139C386.567 170.652 388.891 167.513 391.797 164.607L388.427 154.028L404.233 144.729L411.788 152.75C415.74 151.704 419.691 151.122 423.643 151.122L428.757 141.241L446.423 145.891L446.075 156.935C449.561 158.911 452.699 161.236 455.605 164.142L466.182 160.771L475.48 176.581L467.46 184.137ZM441.426 186.927C435.963 177.627 423.875 174.488 414.577 179.952C405.279 185.415 402.141 197.505 407.604 206.805C413.066 216.105 425.154 219.244 434.452 213.78C443.75 208.316 446.888 196.343 441.426 186.927Z" fill="#EBEBEB"/>
<path d="M488.032 114.388C488.497 115.899 488.613 117.411 488.613 118.922L492.449 120.898L490.705 127.757L486.405 127.64C485.708 128.919 484.778 130.198 483.615 131.36L484.894 135.429L478.85 139.033L475.945 135.894C474.434 136.359 472.923 136.475 471.412 136.475L469.436 140.311L462.579 138.568L462.695 134.267C461.416 133.569 460.138 132.639 458.976 131.477L454.908 132.755L451.305 126.71L454.443 123.804C453.978 122.293 453.862 120.782 453.862 119.271L450.026 117.294L451.77 110.436L456.07 110.552C456.767 109.273 457.697 107.994 458.859 106.832L457.581 102.763L463.625 99.1596L466.53 102.298C468.041 101.833 469.552 101.717 471.063 101.717L473.039 97.8809L479.896 99.6246L479.78 103.926C481.059 104.623 482.337 105.553 483.499 106.716L487.567 105.437L491.17 111.482L488.032 114.388ZM477.92 115.551C475.828 111.947 471.179 110.784 467.576 112.877C463.973 114.969 462.811 119.619 464.903 123.223C466.995 126.827 471.644 127.989 475.247 125.897C478.85 123.688 480.129 119.154 477.92 115.551Z" fill="#E0E0E0"/>
<path d="M477.921 115.55C477.921 115.55 478.385 116.131 478.734 117.294C479.083 118.456 479.315 120.316 478.502 122.409C478.037 123.455 477.456 124.501 476.41 125.315C475.48 126.129 474.201 126.826 472.69 127.059C471.993 127.175 471.179 127.175 470.482 127.175C469.668 127.059 468.971 126.942 468.274 126.594C466.763 126.012 465.484 124.85 464.671 123.455C463.857 121.944 463.508 120.316 463.625 118.689C463.741 117.875 463.857 117.178 464.206 116.48C464.555 115.783 464.903 115.085 465.368 114.62C466.298 113.458 467.46 112.76 468.739 112.295C469.901 111.83 471.179 111.83 472.225 111.946C474.434 112.295 475.945 113.341 476.758 114.271C477.688 114.853 477.921 115.55 477.921 115.55C477.921 115.55 477.572 114.969 476.758 114.155C475.945 113.341 474.434 112.295 472.342 112.063C471.296 111.946 470.133 112.063 468.971 112.411C467.809 112.876 466.647 113.574 465.833 114.62C465.368 115.201 465.019 115.783 464.787 116.48C464.555 117.178 464.322 117.875 464.206 118.573C464.09 120.084 464.438 121.711 465.136 122.99C465.949 124.385 467.228 125.431 468.622 126.012C469.32 126.361 470.017 126.477 470.714 126.594C471.412 126.71 472.109 126.71 472.807 126.477C474.201 126.245 475.364 125.547 476.293 124.85C477.223 124.036 477.921 123.106 478.269 122.06C479.083 120.084 478.85 118.224 478.618 117.178C478.269 116.131 477.921 115.55 477.921 115.55Z" fill="#E0E0E0"/>
<path d="M488.032 114.388C488.032 114.388 488.032 114.272 488.265 114.156C488.381 114.039 488.613 113.807 488.846 113.574C489.427 113.109 490.124 112.296 491.17 111.366V111.482C490.24 109.971 489.078 107.878 487.567 105.437H487.683C486.405 105.786 485.126 106.251 483.616 106.716H483.499C482.453 105.67 481.291 104.74 479.896 103.926H479.78V103.81C479.78 102.531 479.896 101.02 479.896 99.5084L480.013 99.6247C477.804 99.0434 475.596 98.4622 473.155 97.8809L473.388 97.7647C472.807 98.9272 472.109 100.206 471.412 101.601V101.717H471.296C469.901 101.717 468.274 101.95 466.763 102.298H466.647L466.53 102.182C465.601 101.252 464.671 100.206 463.625 99.0434H463.857C461.998 100.206 459.905 101.368 457.813 102.647L457.93 102.415C458.278 103.693 458.743 105.088 459.208 106.483V106.6L459.092 106.948C458.046 107.995 457.116 109.157 456.302 110.552L456.186 110.668H456.07C454.792 110.668 453.281 110.552 451.77 110.552L452.118 110.436C451.537 112.644 450.956 114.969 450.375 117.294L450.259 117.062C451.421 117.643 452.699 118.341 454.094 119.038L454.21 119.154V119.271C454.21 120.666 454.443 122.293 454.792 123.804V123.921L454.675 124.037C453.629 124.967 452.583 126.013 451.537 126.943V126.71C452.699 128.803 453.978 130.779 455.14 132.755L454.908 132.639C456.302 132.174 457.581 131.825 458.976 131.36H459.092L459.208 131.477C460.254 132.523 461.533 133.453 462.811 134.267L462.927 134.383V134.499C462.927 135.894 462.811 137.405 462.811 138.8L462.695 138.568C465.019 139.149 467.344 139.73 469.552 140.311L469.32 140.428C470.017 139.149 470.598 137.87 471.296 136.592V136.475H471.412C472.923 136.475 474.434 136.243 475.945 135.894H476.061L476.177 136.01C477.223 137.057 478.153 138.103 479.083 139.149H478.85C480.942 137.87 483.034 136.708 484.894 135.545L484.778 135.778C484.313 134.383 483.848 132.988 483.499 131.709V131.593L483.616 131.477C484.778 130.314 485.708 129.152 486.405 127.873V127.757H486.521C488.032 127.757 489.427 127.873 490.821 127.873L490.705 127.989C491.403 125.315 491.984 123.107 492.565 121.131V121.247C491.054 120.433 489.775 119.852 488.846 119.271C488.846 117.759 488.613 116.597 488.497 115.783C488.381 115.434 488.381 115.202 488.265 114.969C488.032 114.504 488.032 114.388 488.032 114.388C488.032 114.388 488.032 114.504 488.148 114.621C488.148 114.853 488.265 115.086 488.381 115.434C488.497 116.132 488.729 117.294 488.729 118.922V118.806C489.775 119.387 491.054 119.968 492.565 120.782H492.681V120.898C492.216 122.874 491.635 125.083 490.938 127.757V127.873H490.821C489.543 127.873 488.148 127.757 486.521 127.757L486.637 127.64C485.94 128.919 485.01 130.198 483.848 131.36V131.244C484.313 132.523 484.662 133.918 485.126 135.313V135.429L485.01 135.545C483.034 136.708 481.059 137.87 478.966 139.149L478.85 139.265L478.734 139.149C477.804 138.103 476.758 137.057 475.828 136.01H476.061C474.55 136.475 473.039 136.592 471.412 136.708L471.528 136.592C470.831 137.87 470.25 139.149 469.552 140.428L469.436 140.544H469.32C467.111 139.963 464.787 139.382 462.462 138.8H462.346V138.684C462.346 137.289 462.462 135.894 462.462 134.383L462.579 134.615C461.184 133.918 460.022 132.872 458.859 131.825H459.092C457.697 132.29 456.419 132.639 455.024 133.104H454.908L454.792 132.988C453.629 131.012 452.467 128.919 451.189 126.943L451.072 126.827L451.189 126.71C452.235 125.78 453.281 124.734 454.327 123.804L454.21 124.037C453.745 122.526 453.629 120.898 453.629 119.387L453.745 119.619C452.467 118.922 451.189 118.224 449.91 117.643L449.794 117.527V117.411C450.375 115.086 450.956 112.761 451.537 110.552V110.436H451.653C453.164 110.436 454.559 110.552 455.954 110.552L455.721 110.668C456.535 109.273 457.465 107.995 458.511 106.948V107.181C458.046 105.786 457.581 104.391 457.232 103.112V102.996L457.348 102.88C459.441 101.601 461.533 100.438 463.392 99.2759L463.508 99.1597L463.625 99.2759C464.671 100.322 465.601 101.368 466.53 102.415H466.298C467.809 101.95 469.436 101.833 470.947 101.833L470.831 101.95C471.528 100.671 472.225 99.3922 472.807 98.1134L473.039 97.6484H473.155C475.596 98.2297 477.804 98.9272 480.013 99.3922H480.129V99.5084C480.129 101.02 480.013 102.415 480.013 103.81L479.896 103.693C481.291 104.507 482.569 105.437 483.616 106.483H483.499C485.01 106.018 486.289 105.553 487.567 105.205H487.683V105.321C489.078 107.762 490.357 109.854 491.17 111.482C490.124 112.412 489.427 113.109 488.846 113.574C488.613 113.807 488.381 114.039 488.265 114.156C488.148 114.388 488.032 114.388 488.032 114.388Z" fill="#E0E0E0"/>
<path d="M463.508 0H393.424V73.12H463.508V0Z" fill="#E0E0E0"/>
<path d="M458.742 0H388.658V73.12H458.742V0Z" fill="#FAFAFA"/>
<path d="M458.859 73.12H388.658V0H458.859V73.12ZM388.658 73.12H458.743V0H388.658V73.12Z" fill="#E0E0E0"/>
<path d="M449.329 9.88086H398.073V63.355H449.329V9.88086Z" fill="#FAFAFA"/>
<path d="M398.073 63.7041C398.073 63.7041 397.608 64.2853 396.795 65.2153C395.981 66.029 394.819 67.1915 393.54 68.4703C392.262 69.749 391.1 70.9115 390.17 71.7252C389.24 72.5389 388.775 73.0039 388.659 73.0039C388.543 73.0039 389.124 72.4227 389.937 71.4927C390.751 70.679 391.913 69.4002 393.192 68.2378C394.47 66.959 395.633 65.7965 396.562 64.9828C397.492 64.0528 398.073 63.5878 398.073 63.7041Z" fill="#E0E0E0"/>
<path d="M449.329 63.5879C449.329 63.5879 449.91 64.0529 450.84 64.8666C451.653 65.6804 452.816 66.8428 454.094 68.1216C455.373 69.4003 456.535 70.5628 457.348 71.4928C458.162 72.4227 458.627 72.8877 458.627 73.004C458.627 73.004 458.046 72.539 457.116 71.7253C456.302 70.9115 455.024 69.749 453.862 68.4703C452.583 67.1916 451.421 66.0291 450.607 65.0991C449.794 64.1691 449.329 63.5879 449.329 63.5879Z" fill="#E0E0E0"/>
<path d="M449.213 9.99711C449.213 9.99711 449.678 9.41587 450.491 8.48589C451.305 7.67215 452.467 6.50967 453.745 5.23094C455.024 3.95221 456.186 2.78973 457.116 1.97599C458.046 1.16226 458.511 0.697266 458.627 0.697266C458.627 0.697266 458.162 1.27851 457.348 2.20849C456.535 3.02223 455.373 4.30096 454.094 5.46344C452.816 6.74216 451.653 7.90465 450.724 8.71838C449.794 9.53212 449.329 9.99711 449.213 9.99711Z" fill="#E0E0E0"/>
<path d="M397.957 10.1134C397.957 10.1134 397.376 9.64837 396.446 8.83463C395.632 8.02089 394.47 6.85841 393.192 5.57968C391.913 4.30096 390.751 3.13848 389.937 2.20849C389.124 1.27851 388.659 0.813514 388.659 0.697266C388.659 0.697266 389.24 1.16226 390.17 1.97599C390.983 2.78973 392.262 3.95221 393.424 5.23094C394.703 6.50967 395.865 7.67215 396.679 8.60213C397.492 9.53212 397.957 10.1134 397.957 10.1134Z" fill="#E0E0E0"/>
<path d="M449.213 63.3551C449.213 63.3551 449.213 63.2388 449.213 63.1226C449.213 62.8901 449.213 62.6576 449.213 62.4251C449.213 61.7276 449.213 60.7976 449.213 59.5189C449.213 56.9614 449.213 53.3577 449.213 48.5916C449.213 39.1755 449.096 25.9232 449.096 9.88097L449.329 10.1135C434.452 10.1135 416.902 10.1135 398.19 10.1135L398.422 9.88097C398.422 29.5269 398.422 47.8941 398.422 63.3551L398.19 63.1226C413.531 63.1226 426.316 63.2388 435.266 63.2388C439.682 63.2388 443.285 63.2388 445.61 63.2388C446.772 63.2388 447.702 63.2388 448.399 63.2388C448.748 63.2388 448.98 63.2388 449.096 63.2388C449.213 63.3551 449.213 63.3551 449.213 63.3551C449.213 63.3551 449.096 63.3551 448.98 63.3551C448.864 63.3551 448.632 63.3551 448.283 63.3551C447.702 63.3551 446.772 63.3551 445.61 63.3551C443.169 63.3551 439.682 63.3551 435.266 63.3551C426.316 63.3551 413.531 63.4713 398.073 63.4713H397.841V63.2388C397.841 47.7778 397.841 29.4106 397.841 9.76472V9.53223H398.073C416.786 9.53223 434.22 9.53223 449.213 9.53223H449.445V9.76472C449.445 25.807 449.329 39.1755 449.329 48.5916C449.329 53.2415 449.329 56.9614 449.329 59.4026C449.329 60.6814 449.329 61.6114 449.329 62.1926C449.329 62.5413 449.329 62.7738 449.329 62.8901C449.213 63.2388 449.213 63.3551 449.213 63.3551Z" fill="#E0E0E0"/>
<path d="M432.244 28.0156H415.158V45.1041H432.244V28.0156Z" fill="#EBEBEB"/>
<path d="M549.516 297.943C549.516 298.06 426.549 298.292 274.758 298.292C122.967 298.292 0 298.06 0 297.943C0 297.827 122.967 297.595 274.758 297.595C426.432 297.595 549.516 297.827 549.516 297.943Z" fill="#263238"/>
<path d="M88.5641 428.606C88.5641 428.606 49.6284 399.892 50.442 367.808V248.654L269.411 241.33L271.62 328.284L88.5641 428.606Z" fill="#19094D"/>
<path d="M88.5641 428.606C88.4479 428.606 87.8667 401.636 87.5181 368.389C87.0532 335.142 86.8207 308.173 87.0532 308.173C87.1694 308.173 87.7505 335.142 88.0992 368.389C88.5641 401.636 88.7965 428.606 88.5641 428.606Z" fill="#261363"/>
<path d="M99.4893 425.234C99.4893 425.234 99.4893 425.118 99.4893 424.886C99.4893 424.653 99.6055 424.304 99.6055 423.839C99.7218 422.91 100.07 421.631 100.303 420.003C101 416.632 101.814 411.866 102.976 405.937C105.184 394.08 108.206 377.689 111.228 359.554C114.25 341.42 116.691 324.912 118.434 312.939C119.248 307.01 119.945 302.128 120.41 298.757C120.642 297.129 120.875 295.85 120.991 294.92C121.107 294.455 121.107 294.223 121.107 293.874C121.107 293.642 121.224 293.525 121.224 293.525C121.224 293.525 121.224 293.642 121.224 293.874C121.224 294.107 121.107 294.455 121.107 294.92C120.991 295.85 120.875 297.129 120.642 298.757C120.294 302.128 119.596 307.01 118.899 312.939C117.272 324.912 114.947 341.42 111.925 359.554C108.904 377.689 105.882 394.08 103.441 405.937C102.279 411.866 101.233 416.632 100.535 419.887C100.187 421.515 99.9542 422.793 99.7218 423.723C99.6055 424.072 99.6055 424.421 99.4893 424.653C99.6055 425.118 99.4893 425.234 99.4893 425.234Z" fill="#261363"/>
<path d="M136.914 412.912C136.914 412.912 136.914 412.796 136.914 412.563C136.914 412.331 137.03 411.982 137.03 411.517C137.146 410.587 137.495 409.309 137.728 407.681C138.425 404.31 139.239 399.544 140.401 393.615C142.609 381.758 145.631 365.367 148.653 347.232C151.675 329.097 154.115 312.59 155.859 300.617C156.672 294.688 157.37 289.805 157.835 286.434C158.067 284.807 158.3 283.528 158.416 282.598C158.532 282.133 158.532 281.901 158.532 281.552C158.532 281.319 158.648 281.203 158.648 281.203C158.648 281.203 158.648 281.319 158.648 281.552C158.648 281.784 158.532 282.133 158.532 282.598C158.416 283.528 158.3 284.807 158.067 286.434C157.718 289.805 157.021 294.688 156.324 300.617C154.697 312.59 152.372 329.097 149.35 347.232C146.328 365.367 143.306 381.758 140.866 393.615C139.703 399.544 138.657 404.31 137.96 407.565C137.611 409.192 137.379 410.471 137.146 411.401C137.03 411.75 137.03 412.098 136.914 412.331C136.914 412.796 136.914 412.912 136.914 412.912Z" fill="#261363"/>
<path d="M174.339 400.706C174.339 400.706 174.339 400.59 174.339 400.357C174.339 400.125 174.455 399.776 174.455 399.311C174.571 398.381 174.92 397.102 175.152 395.475C175.85 392.104 176.663 387.338 177.826 381.409C180.034 369.552 183.056 353.161 186.078 335.026C189.099 316.891 191.54 300.384 193.284 288.411C194.097 282.482 194.794 277.599 195.259 274.228C195.492 272.601 195.724 271.322 195.841 270.392C195.957 269.927 195.957 269.695 195.957 269.346C195.957 269.113 196.073 268.997 196.073 268.997C196.073 268.997 196.073 269.113 196.073 269.346C196.073 269.578 195.957 269.927 195.957 270.392C195.841 271.322 195.724 272.601 195.492 274.228C195.143 277.599 194.446 282.482 193.748 288.411C192.121 300.384 189.797 316.891 186.775 335.026C183.753 353.161 180.731 369.552 178.29 381.409C177.128 387.338 176.082 392.104 175.385 395.359C175.036 396.986 174.804 398.265 174.571 399.195C174.455 399.544 174.455 399.892 174.339 400.125C174.339 400.59 174.339 400.706 174.339 400.706Z" fill="#261363"/>
<path d="M211.647 388.384C211.647 388.384 211.647 388.268 211.647 388.035C211.647 387.803 211.763 387.454 211.763 386.989C211.88 386.059 212.228 384.78 212.461 383.153C213.158 379.782 213.972 375.015 215.134 369.087C217.342 357.229 220.364 340.838 223.386 322.704C226.408 304.569 228.849 288.062 230.592 276.088C231.406 270.16 232.103 265.277 232.568 261.906C232.8 260.278 233.033 259 233.149 258.07C233.265 257.605 233.265 257.372 233.265 257.024C233.265 256.791 233.381 256.675 233.381 256.675C233.381 256.675 233.381 256.791 233.381 257.024C233.381 257.256 233.265 257.605 233.265 258.07C233.149 259 233.033 260.278 232.8 261.906C232.452 265.277 231.754 270.16 231.057 276.088C229.43 288.062 227.105 304.569 224.083 322.704C221.062 340.838 218.04 357.229 215.599 369.087C214.437 375.015 213.391 379.782 212.693 383.036C212.345 384.664 212.112 385.943 211.88 386.873C211.763 387.221 211.763 387.57 211.647 387.803C211.763 388.268 211.647 388.384 211.647 388.384Z" fill="#261363"/>
<path d="M249.072 376.062C249.072 376.062 249.072 375.945 249.072 375.713C249.072 375.48 249.188 375.132 249.188 374.667C249.304 373.737 249.653 372.458 249.885 370.83C250.583 367.459 251.396 362.693 252.559 356.764C254.767 344.907 257.789 328.516 260.811 310.381C263.833 292.247 266.273 275.74 268.017 263.766C268.83 257.837 269.528 252.955 269.993 249.584C270.225 247.956 270.457 246.677 270.574 245.748C270.69 245.283 270.69 245.05 270.69 244.701C270.69 244.469 270.806 244.353 270.806 244.353C270.806 244.353 270.806 244.469 270.806 244.701C270.806 244.934 270.69 245.283 270.69 245.748C270.574 246.677 270.457 247.956 270.225 249.584C269.876 252.955 269.179 257.837 268.482 263.766C266.854 275.74 264.53 292.247 261.508 310.381C258.486 328.516 255.464 344.907 253.024 356.764C251.861 362.693 250.815 367.459 250.118 370.714C249.769 372.342 249.537 373.62 249.304 374.55C249.188 374.899 249.188 375.248 249.072 375.48C249.072 375.945 249.072 376.062 249.072 376.062Z" fill="#261363"/>
<path d="M87.0531 308.173C87.0531 308.173 -24.4074 220.638 141.563 161.119C141.563 161.119 225.711 129.732 312.299 139.032L269.411 241.33L87.0531 308.173Z" fill="#261363"/>
<path d="M288.937 70.5625L269.411 170.885L393.308 90.6734C393.308 90.6734 356.697 71.26 288.937 70.5625Z" fill="#C6368B"/>
<path d="M269.411 356.533V170.885L393.308 90.6738V265.976L269.411 356.533Z" fill="#C6368B"/>
<path opacity="0.3" d="M288.937 70.5625L269.411 170.885L393.308 90.6734C393.308 90.6734 356.697 71.26 288.937 70.5625Z" fill="black"/>
<path d="M281.15 357.927V295.153C281.15 295.153 483.732 315.148 485.359 318.519C486.87 321.89 485.359 388.733 485.359 388.733L281.15 357.927Z" fill="#C6368B"/>
<path d="M281.15 295.037L408.999 209.479C408.999 209.479 464.322 222.15 482.221 258.303C500.12 294.34 485.359 318.403 485.359 318.403L281.15 295.037Z" fill="#C6368B"/>
<path opacity="0.2" d="M281.15 295.037L408.999 209.479C408.999 209.479 464.322 222.15 482.221 258.303C500.12 294.34 485.359 318.403 485.359 318.403C425.27 309.684 355.767 302.128 281.15 295.037Z" fill="white"/>
<path d="M491.054 288.295C491.054 288.295 493.378 363.391 491.054 370.715C488.729 377.922 485.359 388.733 485.359 388.733V318.519L491.054 288.295Z" fill="#C6368B"/>
<path opacity="0.3" d="M281.15 357.927V295.153C281.15 295.153 483.732 315.148 485.359 318.519C486.87 321.89 485.359 388.733 485.359 388.733L281.15 357.927Z" fill="black"/>
<path d="M439.334 314.334C439.45 314.45 430.152 324.68 418.413 337.119C406.79 349.557 397.144 359.554 397.027 359.554C396.911 359.438 406.209 349.208 417.948 336.77C429.687 324.215 439.217 314.218 439.334 314.334Z" fill="#263238"/>
<path d="M480.012 318.055C480.012 318.055 479.896 318.287 479.664 318.52C479.431 318.868 478.966 319.333 478.618 319.915C477.688 321.077 476.293 322.821 474.55 325.03C471.063 329.331 466.182 335.143 460.603 341.421C455.024 347.698 449.794 353.278 445.958 357.23C444.099 359.206 442.472 360.834 441.426 361.88C440.961 362.345 440.496 362.81 440.147 363.159C439.798 363.391 439.682 363.624 439.682 363.508C439.682 363.508 439.798 363.275 440.031 363.043C440.38 362.694 440.728 362.229 441.193 361.764C442.355 360.601 443.75 358.974 445.61 356.998C449.329 352.929 454.443 347.349 460.022 341.072C465.6 334.794 470.482 329.098 474.085 324.797C475.828 322.705 477.223 321.077 478.269 319.798C478.734 319.217 479.083 318.868 479.431 318.52C479.896 318.171 480.012 318.055 480.012 318.055Z" fill="#263238"/>
<path d="M398.538 309.685C398.538 309.685 398.422 309.917 398.19 310.15C397.841 310.498 397.492 310.963 397.027 311.545C395.981 312.707 394.47 314.451 392.611 316.659C388.775 320.844 383.429 326.657 377.385 332.934C371.341 339.212 365.763 344.792 361.695 348.744C359.603 350.72 357.975 352.348 356.813 353.394C356.232 353.859 355.767 354.324 355.419 354.673C355.07 354.905 354.954 355.138 354.954 355.021C354.954 355.021 355.07 354.789 355.419 354.556C355.767 354.208 356.232 353.743 356.697 353.278C357.859 352.115 359.486 350.488 361.462 348.511C365.53 344.443 370.993 338.863 377.037 332.585C383.08 326.308 388.427 320.612 392.378 316.427C394.238 314.451 395.865 312.707 397.027 311.545C397.492 310.963 397.957 310.615 398.306 310.266C398.306 309.801 398.538 309.685 398.538 309.685Z" fill="#263238"/>
<path d="M363.206 303.174C363.322 303.29 355.883 313.287 346.585 325.494C337.287 337.7 329.616 347.581 329.5 347.464C329.384 347.348 336.822 337.351 346.12 325.145C355.418 312.939 363.089 303.058 363.206 303.174Z" fill="#263238"/>
<path d="M334.498 300.268C334.614 300.384 328.105 308.638 319.97 318.751C311.834 328.865 305.093 337.002 304.977 336.886C304.86 336.77 311.369 328.516 319.505 318.403C327.641 308.289 334.382 300.152 334.498 300.268Z" fill="#263238"/>
<path d="M304.86 297.943C304.86 297.943 304.628 298.408 304.047 298.99C303.466 299.803 302.652 300.733 301.722 301.78C299.746 304.221 297.189 307.476 294.4 311.312C291.611 315.032 289.17 318.519 287.426 321.077C286.613 322.239 285.915 323.285 285.334 324.099C284.869 324.797 284.521 325.145 284.521 325.145C284.521 325.145 284.753 324.68 285.102 323.983C285.567 323.285 286.148 322.123 286.961 320.844C288.589 318.287 290.913 314.683 293.819 310.963C296.608 307.243 299.281 303.872 301.373 301.547C302.419 300.385 303.233 299.455 303.814 298.873C304.512 298.292 304.86 297.943 304.86 297.943Z" fill="#263238"/>
<path d="M429.919 445.463C429.919 445.463 474.317 420.818 485.591 392.454L485.243 369.204L429.106 418.028L420.505 411.867L422.829 439.302L429.919 445.463Z" fill="#261363"/>
<path d="M429.222 418.028C429.222 418.028 459.673 406.636 485.359 369.204L339.96 353.976L429.222 418.028Z" fill="#19094D"/>
<path d="M429.222 418.028C429.338 418.028 429.687 424.189 429.803 431.862C429.919 439.534 429.919 445.695 429.803 445.695C429.687 445.695 429.338 439.534 429.222 431.862C428.989 424.306 428.989 418.028 429.222 418.028Z" fill="#263238"/>
<path d="M101.116 383.037V440.813C101.116 440.813 147.142 480.221 255.464 483.592C363.787 486.963 423.759 448.834 423.759 448.834L419.11 394.081L263.484 358.044L101.116 383.037Z" fill="#FFF567"/>
<path opacity="0.3" d="M101.116 383.037V440.813C101.116 440.813 147.142 480.221 255.464 483.592C363.787 486.963 423.759 448.834 423.759 448.834L419.11 394.081L263.484 358.044L101.116 383.037Z" fill="black"/>
<path d="M101.116 383.037L269.411 318.52L418.994 394.081C418.994 394.081 334.846 436.86 242.912 426.863C151.907 416.982 101.116 383.037 101.116 383.037Z" fill="#FFF567"/>
<path d="M297.073 427.328C297.073 427.328 296.957 427.561 296.724 427.909C296.376 428.374 296.027 428.956 295.562 429.653C294.516 431.164 293.005 433.373 291.146 435.93C287.426 441.162 282.08 448.369 275.804 456.158C269.644 463.946 263.833 470.689 259.532 475.571C257.324 478.012 255.581 479.988 254.418 481.267C253.837 481.848 253.372 482.43 253.024 482.778C252.675 483.127 252.559 483.243 252.442 483.243C252.442 483.243 252.559 483.011 252.907 482.662C253.256 482.197 253.721 481.732 254.302 481.035C255.581 479.64 257.208 477.663 259.3 475.222C263.484 470.34 269.295 463.481 275.455 455.693C281.615 447.904 286.962 440.813 290.913 435.582C292.773 433.024 294.4 430.932 295.446 429.421C295.911 428.723 296.376 428.142 296.724 427.793C296.957 427.444 297.073 427.212 297.073 427.328Z" fill="#263238"/>
<path d="M327.757 423.724C327.873 423.841 318.807 437.209 307.533 453.6C296.143 469.991 286.845 483.243 286.729 483.127C286.613 483.011 295.678 469.642 306.952 453.251C318.342 436.86 327.641 423.608 327.757 423.724Z" fill="#263238"/>
<path d="M360.881 416.749C360.997 416.865 351.234 431.164 339.147 448.717C326.943 466.27 317.064 480.453 316.832 480.453C316.715 480.336 326.478 466.038 338.566 448.368C350.769 430.815 360.765 416.633 360.881 416.749Z" fill="#263238"/>
<path d="M394.47 403.962C394.47 403.962 394.354 404.194 394.122 404.776C393.773 405.357 393.424 406.054 392.959 406.984C391.913 408.844 390.402 411.634 388.427 414.889C384.591 421.515 379.129 430.699 372.852 440.696C366.576 450.694 360.649 459.528 356.232 465.806C354.024 468.945 352.28 471.502 351.002 473.246C350.421 474.059 349.956 474.757 349.491 475.222C349.142 475.687 348.91 475.919 348.91 475.919C348.91 475.919 349.026 475.687 349.375 475.222C349.723 474.757 350.188 474.059 350.769 473.129C352.048 471.27 353.791 468.712 355.883 465.573C360.184 459.18 365.995 450.229 372.271 440.348C378.547 430.35 384.01 421.283 387.962 414.657C389.938 411.402 391.448 408.728 392.611 406.752C393.192 405.822 393.541 405.124 393.889 404.659C394.238 404.194 394.47 403.962 394.47 403.962Z" fill="#263238"/>
<path d="M419.459 399.428C419.575 399.545 412.485 414.308 403.536 432.559C394.587 450.81 387.264 465.457 387.032 465.341C386.916 465.225 394.005 450.461 402.955 432.21C411.904 414.076 419.343 399.312 419.459 399.428Z" fill="#263238"/>
<path d="M421.202 431.978C421.319 432.094 418.994 437.209 415.856 443.486C412.718 449.764 410.045 454.762 409.928 454.646C409.812 454.53 412.137 449.415 415.275 443.137C418.413 436.86 421.086 431.861 421.202 431.978Z" fill="#263238"/>
<path d="M268.947 429.304C269.063 429.42 258.602 441.277 245.469 455.808C232.335 470.339 221.643 482.08 221.526 481.964C221.41 481.848 231.871 469.99 245.004 455.459C258.138 440.928 268.83 429.187 268.947 429.304Z" fill="#263238"/>
<path d="M242.331 427.56C242.447 427.677 231.987 438.953 218.853 452.786C205.836 466.62 195.143 477.663 195.027 477.547C194.911 477.431 205.371 466.155 218.505 452.321C231.522 438.488 242.215 427.444 242.331 427.56Z" fill="#263238"/>
<path d="M206.533 421.632C206.649 421.748 197.235 433.024 185.496 446.741C173.758 460.459 164.227 471.618 163.995 471.502C163.878 471.386 173.293 460.11 185.032 446.393C196.77 432.559 206.417 421.516 206.533 421.632Z" fill="#263238"/>
<path d="M178.988 416.865C178.988 416.865 178.872 417.098 178.639 417.33C178.29 417.679 177.942 418.144 177.477 418.725C176.431 419.888 175.036 421.515 173.176 423.608C169.457 427.676 164.343 433.256 158.532 439.185C152.721 445.23 147.258 450.461 143.306 454.297C141.331 456.157 139.703 457.668 138.541 458.715C137.96 459.18 137.611 459.528 137.263 459.877C136.914 460.11 136.798 460.226 136.798 460.226C136.798 460.226 136.914 459.993 137.146 459.761C137.495 459.412 137.844 459.063 138.425 458.482C139.587 457.32 141.098 455.808 143.074 453.948C147.026 450.112 152.372 444.765 158.183 438.72C163.995 432.675 169.225 427.211 172.944 423.259C174.804 421.283 176.315 419.655 177.361 418.493C177.826 418.028 178.29 417.563 178.639 417.214C178.872 416.981 178.988 416.865 178.988 416.865Z" fill="#263238"/>
<path d="M154.232 407.914C154.232 407.914 154.115 408.03 153.883 408.379C153.534 408.727 153.186 409.076 152.605 409.541C151.442 410.587 149.931 411.982 147.955 413.726C144.12 417.33 138.774 422.329 133.079 428.025C127.384 433.721 122.386 438.952 118.783 442.904C117.039 444.764 115.645 446.392 114.482 447.438C114.018 447.903 113.669 448.368 113.32 448.717C113.088 448.949 112.855 449.182 112.855 449.066C112.855 449.066 112.972 448.833 113.204 448.601C113.553 448.252 113.901 447.787 114.25 447.322C115.18 446.159 116.575 444.532 118.318 442.556C121.805 438.603 126.802 433.256 132.497 427.56C138.193 421.863 143.539 416.865 147.491 413.377C149.466 411.634 151.094 410.239 152.256 409.309C152.837 408.844 153.186 408.495 153.534 408.262C153.999 408.03 154.232 407.797 154.232 407.914Z" fill="#263238"/>
<path d="M129.011 399.196C129.127 399.312 122.851 405.009 114.947 411.983C107.044 418.958 100.652 424.422 100.535 424.306C100.419 424.189 106.695 418.493 114.599 411.518C122.386 404.66 128.894 399.08 129.011 399.196Z" fill="#263238"/>
<path d="M186.194 100.671C184.799 104.042 186.426 108.227 189.797 109.738C191.424 110.552 193.4 110.552 195.027 111.482C196.77 112.412 198.049 114.388 198.165 116.364C198.281 118.224 197.584 120.201 198.281 121.828C199.211 123.921 201.884 124.502 203.86 125.664C206.417 127.175 208.044 129.965 208.393 132.988C208.625 135.894 207.579 138.917 205.603 141.241C202 145.31 195.608 146.705 190.727 144.264C187.356 142.52 184.799 139.382 183.288 135.894C181.777 132.407 181.196 128.57 180.847 124.734C180.15 117.992 180.15 111.133 180.731 104.391" fill="#263238"/>
<path d="M163.646 79.3976C159.694 78.7001 155.51 80.6763 152.837 83.9312C150.28 87.1862 149.118 91.7199 149.234 96.021C149.35 100.322 150.512 104.507 152.14 108.46C152.837 109.971 153.534 111.598 154.929 112.528C157.137 113.923 160.043 112.993 162.251 111.482C168.179 107.53 172.13 100.206 172.247 92.6498C172.247 89.5111 171.665 86.2562 170.038 83.5825C168.411 80.9088 165.622 79.0488 162.6 79.0488" fill="#263238"/>
<path d="M236.055 209.595L177.709 206.224C177.361 205.41 177.128 204.945 177.128 204.945L161.321 205.294L156.207 204.945C156.207 204.945 156.091 205.062 155.975 205.41L102.976 206.573C92.3995 206.573 81.2418 213.083 81.358 221.336C81.2418 229.241 85.0773 237.727 94.4915 237.495L166.784 237.03H239.076C248.607 237.146 251.048 231.45 251.048 224.707C252.094 212.036 244.19 209.711 236.055 209.595Z" fill="#263238"/>
<path d="M101.116 237.378C101.116 237.378 101.233 237.378 101.465 237.378C101.698 237.378 102.046 237.378 102.511 237.378C103.441 237.378 104.719 237.378 106.463 237.378C109.95 237.378 114.831 237.262 120.991 237.262C133.311 237.262 150.396 237.146 169.573 237.029L169.341 237.262C169.225 235.634 169.108 234.007 168.992 232.263C168.76 228.776 168.527 225.288 168.295 222.033L168.527 222.266C150.745 220.29 135.054 218.662 123.78 217.383C118.202 216.802 113.669 216.221 110.531 215.872C109.02 215.64 107.741 215.524 106.928 215.407C106.579 215.407 106.23 215.291 105.998 215.291C105.765 215.291 105.649 215.291 105.649 215.291C105.649 215.291 105.765 215.291 105.998 215.291C106.23 215.291 106.579 215.291 106.928 215.407C107.741 215.524 109.02 215.64 110.531 215.756C113.669 216.105 118.202 216.57 123.78 217.151C135.054 218.313 150.745 219.941 168.527 221.917H168.644V222.033C168.876 225.288 169.108 228.776 169.341 232.263C169.457 234.007 169.573 235.634 169.69 237.262V237.494H169.457C150.396 237.494 133.311 237.494 120.875 237.611C114.715 237.611 109.717 237.611 106.347 237.611C104.603 237.611 103.325 237.611 102.395 237.611C101.93 237.611 101.581 237.611 101.349 237.611C101.233 237.494 101.116 237.378 101.116 237.378Z" fill="#261363"/>
<path d="M115.993 216.687C115.993 216.687 115.18 216.106 113.901 215.408C112.623 214.594 110.763 213.664 108.555 213.083C106.347 212.502 104.255 212.269 102.86 212.269C101.349 212.269 100.419 212.386 100.419 212.269C100.419 212.269 100.652 212.153 101.116 212.153C101.581 212.037 102.162 212.037 102.86 212.037C104.371 211.921 106.463 212.153 108.671 212.734C110.879 213.316 112.739 214.362 114.017 215.176C114.599 215.641 115.18 215.989 115.412 216.222C115.761 216.454 115.993 216.571 115.993 216.687Z" fill="#261363"/>
<path d="M231.522 213.199C231.522 213.315 220.015 216.105 205.836 219.476C191.656 222.848 180.15 225.521 180.034 225.405C180.034 225.289 191.54 222.499 205.72 219.128C220.015 215.756 231.522 213.083 231.522 213.199Z" fill="#261363"/>
<path d="M221.875 212.153C221.875 212.269 219.667 212.734 217.342 214.362C215.018 215.873 213.739 217.849 213.739 217.733C213.739 217.733 213.972 217.152 214.553 216.454C215.134 215.757 216.064 214.827 217.226 214.013C218.388 213.199 219.55 212.734 220.48 212.502C221.294 212.153 221.875 212.037 221.875 212.153Z" fill="#261363"/>
<path d="M168.76 223.661L179.685 225.172V237.03L169.69 236.797L168.76 223.661Z" fill="#B78876"/>
<path d="M179.685 225.172H184.567C185.496 225.172 186.426 225.404 187.24 225.869L189.797 227.381C190.61 227.846 193.4 229.241 194.329 229.473C197.351 230.403 202.349 231.682 203.395 232.496C206.417 234.82 205.487 237.61 203.86 237.843C202.465 238.075 179.685 236.913 179.685 236.913V225.172Z" fill="#C6368B"/>
<path d="M187.705 235.983C187.588 235.983 187.24 234.588 187.123 232.961C187.007 231.217 187.356 229.822 187.472 229.822C187.588 229.822 187.472 231.217 187.588 232.961C187.705 234.588 187.821 235.983 187.705 235.983Z" fill="#263238"/>
<path d="M190.029 235.983C189.913 235.983 189.797 234.705 189.797 233.193C189.797 231.682 189.913 230.403 190.029 230.403C190.145 230.403 190.262 231.682 190.262 233.193C190.262 234.705 190.145 235.983 190.029 235.983Z" fill="#263238"/>
<path d="M192.819 236.448C192.702 236.448 192.47 235.169 192.354 233.542C192.237 231.914 192.237 230.636 192.354 230.636C192.47 230.636 192.702 231.914 192.819 233.542C192.935 235.053 192.935 236.448 192.819 236.448Z" fill="#263238"/>
<path d="M185.613 232.844C185.613 232.844 185.264 232.844 184.567 232.496C183.985 232.263 183.056 231.798 182.126 230.984C181.893 230.752 181.661 230.519 181.428 230.287C181.196 230.054 180.964 229.822 180.847 229.357C180.731 229.008 180.731 228.543 180.964 228.194C181.08 227.962 181.312 227.846 181.545 227.846C181.777 227.846 182.01 227.846 182.242 227.962C183.869 228.543 185.148 230.054 185.496 232.031C185.729 234.007 184.683 235.751 183.288 236.681C182.939 236.913 182.591 237.146 182.126 237.146C181.893 237.146 181.661 237.146 181.545 237.146C181.312 237.029 181.196 236.913 181.08 236.681C180.847 236.216 181.08 235.867 181.196 235.518C181.428 235.169 181.661 234.937 181.777 234.704C182.707 233.891 183.521 233.426 184.218 233.077C184.799 232.844 185.264 232.728 185.264 232.844C185.264 232.844 184.915 232.961 184.334 233.309C183.753 233.658 182.939 234.123 182.126 234.937C181.893 235.169 181.661 235.402 181.545 235.634C181.428 235.867 181.312 236.216 181.428 236.448C181.545 236.681 181.893 236.797 182.242 236.681C182.591 236.564 182.939 236.448 183.172 236.216C184.45 235.402 185.38 233.658 185.148 231.914C184.915 230.171 183.637 228.659 182.242 228.194C181.893 228.078 181.545 228.078 181.312 228.311C181.08 228.543 181.08 228.892 181.196 229.124C181.428 229.706 182.01 230.171 182.358 230.519C184.102 232.379 185.613 232.728 185.613 232.844Z" fill="#263238"/>
<path d="M203.86 237.843C203.86 237.843 204.209 237.61 204.441 237.145C204.674 236.564 204.674 235.634 204.092 234.704C203.511 233.774 202.465 232.96 201.071 232.379C199.676 231.914 198.049 231.682 196.422 231.101C193.051 230.054 190.262 228.659 188.286 227.381C187.356 226.799 186.542 226.218 186.077 225.869C185.613 225.521 185.264 225.288 185.38 225.172C185.38 225.172 185.729 225.288 186.194 225.753C186.775 226.102 187.472 226.567 188.402 227.148C190.378 228.311 193.167 229.706 196.422 230.636C198.049 231.101 199.676 231.333 201.187 231.914C202.582 232.379 203.744 233.309 204.325 234.355C204.906 235.402 204.906 236.448 204.557 237.029C204.441 237.378 204.209 237.494 204.092 237.61C203.976 237.843 203.86 237.843 203.86 237.843Z" fill="#263238"/>
<path d="M199.908 145.426L218.504 177.51C220.829 181.463 220.945 186.345 218.969 190.414C216.645 195.18 211.647 198.086 206.417 197.97L178.058 197.272L177.244 186.926L202.233 182.044L185.264 152.982L199.908 145.426Z" fill="#B78876"/>
<path d="M131.219 200.644L157.37 207.502L157.951 199.714L133.892 185.764L151.326 153.098L136.565 145.542L118.202 177.859C113.785 186.229 117.969 196.459 126.919 199.365L131.219 200.644Z" fill="#B78876"/>
<path d="M192.121 166.118L209.904 156.702C209.904 156.702 206.882 150.425 202.233 144.031C196.654 136.359 188.17 131.128 178.407 129.035L157.951 129.384C155.045 129.733 152.604 130.314 150.629 131.128V131.011C139.471 133.453 127.267 157.748 127.267 157.748L143.539 166.235L143.888 168.792C144.352 172.163 145.863 175.302 148.188 177.859L143.539 208.898L196.189 209.828L189.448 187.624L192.121 166.118Z" fill="#FFF567"/>
<path d="M170.852 141.358C176.198 141.241 180.615 136.824 180.615 131.477L181.08 91.6036C181.08 89.9761 179.918 88.5811 178.29 88.3486L161.438 84.0474C156.091 83.4662 152.488 90.0923 152.14 95.556C151.791 101.601 151.558 108.925 152.256 113.342C153.65 122.409 160.624 123.456 160.624 123.456C160.624 123.456 160.624 126.943 160.624 131.244C160.624 136.94 165.273 141.474 170.852 141.358Z" fill="#B78876"/>
<path d="M154.929 100.438C154.929 101.019 155.394 101.6 156.091 101.6C156.672 101.6 157.253 101.135 157.253 100.554C157.253 99.9728 156.789 99.3916 156.091 99.3916C155.394 99.3916 154.929 99.8566 154.929 100.438Z" fill="#263238"/>
<path d="M153.767 99.392C153.883 99.5082 154.813 98.927 155.975 98.927C157.253 98.927 158.183 99.5082 158.3 99.392C158.416 99.2757 158.183 99.0432 157.835 98.8107C157.486 98.5782 156.789 98.2295 155.975 98.2295C155.161 98.2295 154.58 98.462 154.232 98.8107C153.767 99.0432 153.65 99.392 153.767 99.392Z" fill="#263238"/>
<path d="M167.133 100.67C167.133 101.251 167.598 101.833 168.295 101.833C168.876 101.833 169.457 101.368 169.457 100.787C169.457 100.205 168.992 99.624 168.295 99.624C167.714 99.624 167.133 100.089 167.133 100.67Z" fill="#263238"/>
<path d="M165.97 99.6244C166.087 99.7406 167.016 99.1594 168.179 99.1594C169.457 99.1594 170.387 99.7406 170.503 99.6244C170.619 99.5082 170.387 99.2757 170.038 99.0432C169.69 98.8107 168.992 98.4619 168.179 98.4619C167.365 98.4619 166.784 98.6944 166.435 99.0432C166.087 99.2757 165.854 99.6244 165.97 99.6244Z" fill="#263238"/>
<path d="M161.438 108.924C161.438 108.808 160.624 108.692 159.462 108.575C159.113 108.575 158.881 108.459 158.764 108.227C158.648 107.994 158.881 107.645 158.997 107.297C159.346 106.483 159.578 105.669 159.927 104.856C161.205 101.368 162.135 98.5781 162.019 98.5781C161.903 98.5781 160.74 101.252 159.462 104.739C159.113 105.553 158.881 106.367 158.532 107.18C158.416 107.529 158.183 107.994 158.416 108.459C158.532 108.692 158.764 108.924 158.881 108.924C159.113 109.04 159.229 109.04 159.462 109.04C160.624 108.924 161.438 108.924 161.438 108.924Z" fill="#263238"/>
<path d="M160.624 123.571C160.624 123.571 166.668 123.92 172.712 120.316C172.712 120.316 169.806 126.478 160.74 125.664L160.624 123.571Z" fill="#AA6550"/>
<path d="M162.019 111.831C162.484 111.25 163.297 110.901 163.995 111.017C164.576 111.017 165.041 111.366 165.389 111.831C165.738 112.296 165.738 112.877 165.506 113.342C165.157 113.807 164.459 113.924 163.878 113.807C163.297 113.691 162.832 113.226 162.251 112.877C162.135 112.761 162.019 112.645 161.903 112.529C161.903 112.18 161.786 112.064 162.019 111.831Z" fill="#AA6550"/>
<path d="M165.157 109.738C164.924 109.738 164.924 111.133 163.762 112.063C162.6 112.993 161.205 112.877 161.205 113.109C161.205 113.226 161.554 113.342 162.135 113.342C162.716 113.342 163.646 113.226 164.343 112.528C165.041 111.947 165.389 111.133 165.389 110.552C165.389 110.087 165.273 109.738 165.157 109.738Z" fill="#263238"/>
<path d="M165.389 97.5322C165.506 97.881 166.784 97.7647 168.179 97.881C169.69 97.9972 170.852 98.4622 170.968 98.1135C171.084 97.9972 170.852 97.6485 170.387 97.2997C169.922 96.951 169.109 96.7185 168.295 96.6022C167.365 96.486 166.668 96.6022 166.087 96.8347C165.622 97.0672 165.389 97.2997 165.389 97.5322Z" fill="#263238"/>
<path d="M153.883 97.183C154.115 97.4155 154.929 97.183 155.975 97.183C157.021 97.183 157.835 97.4155 158.067 97.0668C158.183 96.9505 158.067 96.6018 157.602 96.3693C157.254 96.1368 156.556 95.9043 155.859 95.9043C155.161 95.9043 154.58 96.1368 154.232 96.4855C153.999 96.718 153.883 96.9505 153.883 97.183Z" fill="#263238"/>
<path d="M158.3 81.2576C158.532 85.2101 161.321 88.8137 165.041 90.2087C166.668 90.79 168.527 91.0225 170.155 91.6037C171.782 92.1849 173.409 93.3474 173.874 95.0911C174.222 96.6024 173.641 97.9973 173.293 99.5086C172.944 100.904 172.712 102.647 173.758 103.81C174.687 104.74 176.198 105.088 176.779 106.251C177.361 107.413 176.663 108.808 176.198 110.087C175.385 111.947 175.152 114.04 175.617 116.016C176.082 117.992 177.477 119.736 179.336 120.433C180.034 120.666 180.964 120.782 181.428 120.201C181.777 119.736 181.545 119.038 181.777 118.573C185.729 110.087 187.472 106.948 187.472 98.2298C187.472 91.1387 185.031 88.465 184.102 86.605C183.288 84.9776 181.661 83.8151 179.918 82.8851C176.547 81.1414 172.712 80.3276 168.876 79.6301C167.016 79.2814 165.041 78.8164 163.181 79.0489C161.205 79.1652 159.346 79.9789 158.067 81.3739" fill="#263238"/>
<path d="M160.624 83.3498C159.229 83.8148 158.416 85.326 157.951 86.721C157.486 88.116 157.253 89.7435 156.44 90.9059C155.743 91.9522 154.58 92.6497 153.767 93.5797C151.907 95.5559 151.21 98.6946 152.023 101.368C150.047 97.8808 149.815 93.4634 151.442 89.8597C153.069 86.256 156.556 83.4661 160.508 82.6523" fill="#263238"/>
<path d="M177.244 98.5791C177.128 98.5791 177.244 96.9516 175.85 94.9754C175.152 94.0454 174.106 92.9992 172.595 92.5342C171.084 91.953 169.341 92.0692 167.481 91.953C166.552 91.953 165.622 91.8367 164.692 91.488C163.878 91.2555 163.065 90.7905 162.367 90.3255C160.973 89.3955 160.043 88.233 159.462 87.0706C158.881 86.0243 158.648 84.9781 158.532 84.2806C158.416 83.5831 158.532 83.2344 158.532 83.2344C158.648 83.2344 158.648 84.7456 159.81 86.8381C160.392 87.8843 161.321 88.9305 162.6 89.8605C163.297 90.3255 163.995 90.6742 164.808 90.9067C165.622 91.1392 166.552 91.2555 167.365 91.2555C169.225 91.3717 171.084 91.2555 172.595 91.8367C174.222 92.418 175.268 93.5805 175.966 94.6267C176.663 95.6729 176.896 96.7191 177.012 97.3004C177.361 98.2304 177.361 98.5791 177.244 98.5791Z" fill="#263238"/>
<path d="M186.891 105.437C187.007 107.297 188.286 108.924 190.029 109.505C191.773 110.087 193.748 109.389 194.911 107.994C195.724 106.832 196.073 105.321 195.957 103.926C195.957 102.763 195.724 101.601 195.143 100.554C194.097 98.8106 192.005 97.8807 190.029 98.3457C188.053 98.6944 186.542 100.438 186.31 102.414" fill="#263238"/>
<path d="M186.775 99.2757C186.891 99.1594 187.705 101.019 187.588 103.344C187.588 105.669 186.659 107.413 186.542 107.297C186.426 107.181 186.891 105.553 187.007 103.344C187.007 101.019 186.542 99.2757 186.775 99.2757Z" fill="#C6368B"/>
<path d="M187.588 98.462C187.588 98.462 187.472 98.5783 187.356 98.6945C187.123 98.8108 186.891 99.0433 186.426 99.1595C185.496 99.392 184.102 99.5083 182.591 98.8108C181.08 98.1133 179.685 96.6021 178.523 94.7421C177.361 92.9984 176.314 90.7897 174.339 89.3947C172.363 88.116 169.922 87.8835 167.83 87.3022C165.738 86.6047 163.995 85.6747 162.716 84.6285C161.438 83.5823 160.624 82.536 160.043 81.8386C159.462 81.1411 159.346 80.6761 159.346 80.6761C159.462 80.5598 160.392 82.4198 162.949 84.396C164.227 85.326 165.854 86.256 167.946 86.9535C169.922 87.651 172.363 87.651 174.571 89.1622C176.663 90.6734 177.825 92.8821 178.988 94.6258C180.034 96.4858 181.312 97.8808 182.707 98.5783C184.102 99.2758 185.496 99.392 186.31 99.1595C187.123 98.6945 187.472 98.3458 187.588 98.462Z" fill="#261363"/>
<path d="M186.891 95.7888C186.891 95.7888 186.775 95.905 186.659 96.0213C186.426 96.1375 186.194 96.2538 185.729 96.2538C184.915 96.37 183.637 96.0213 182.474 94.9751C181.312 93.9288 180.615 92.3014 179.453 90.7901C178.29 89.2789 176.779 87.7677 174.804 86.7214C172.828 85.6752 170.852 84.9777 168.992 84.3965C167.133 83.8152 165.505 83.234 164.111 82.6528C162.716 82.0715 161.786 81.374 161.089 80.909C160.508 80.3278 160.159 80.0953 160.159 79.9791C160.275 79.8628 161.554 81.1415 164.227 82.304C165.622 82.8853 167.249 83.3502 169.108 83.9315C170.968 84.5127 173.06 85.094 175.036 86.2564C177.012 87.3027 178.639 88.9302 179.801 90.4414C180.964 92.0689 181.661 93.5801 182.707 94.6263C183.637 95.6726 184.915 96.0213 185.613 96.0213C186.426 96.0213 186.891 95.7888 186.891 95.7888Z" fill="#261363"/>
<path d="M205.255 140.195C205.255 140.195 205.255 139.614 205.255 138.568C205.255 137.521 205.255 135.894 204.674 134.15C204.325 133.336 203.744 132.407 202.93 131.709C202.117 131.012 201.071 130.43 199.908 129.733C198.862 129.035 197.7 128.222 196.886 126.943C196.073 125.78 195.608 124.385 195.492 122.874C195.376 122.177 195.492 121.363 195.608 120.665C195.724 119.968 195.957 119.27 196.189 118.573C196.538 117.294 196.654 116.016 196.073 114.969C195.492 113.923 194.446 113.226 193.516 112.761C192.586 112.296 191.54 111.947 190.61 111.598C188.751 110.901 187.472 109.854 187.007 108.808C186.775 108.343 186.659 107.878 186.542 107.646C186.542 107.413 186.542 107.181 186.542 107.181C186.659 107.181 186.659 107.762 187.24 108.692C187.821 109.622 189.099 110.552 190.843 111.133C191.773 111.482 192.702 111.831 193.748 112.296C194.794 112.761 195.84 113.574 196.538 114.737C196.886 115.318 197.119 116.016 197.119 116.713C197.119 117.411 197.003 118.108 196.77 118.805C196.422 120.2 195.957 121.479 196.073 122.874C196.189 124.269 196.654 125.664 197.351 126.71C198.049 127.873 199.095 128.687 200.141 129.268C201.187 129.965 202.233 130.547 203.163 131.244C204.092 132.058 204.674 132.988 204.906 133.918C205.487 135.778 205.371 137.405 205.371 138.451C205.371 139.614 205.371 140.195 205.255 140.195Z" fill="#261363"/>
<path d="M195.957 104.507C195.84 104.507 195.724 104.042 195.027 103.577C194.329 103.229 193.283 102.764 192.005 102.647C189.564 102.299 187.588 102.996 187.472 102.88C187.472 102.764 187.937 102.531 188.751 102.299C189.564 102.066 190.726 101.834 192.121 102.066C193.4 102.299 194.562 102.647 195.259 103.229C196.073 103.926 196.073 104.623 195.957 104.507Z" fill="#261363"/>
<path d="M195.376 107.065C195.376 107.181 195.027 107.414 194.213 107.762C193.4 108.111 192.237 108.344 190.959 108.111C189.68 107.879 188.634 107.414 187.937 106.832C187.24 106.367 187.007 105.902 187.007 105.786C187.123 105.67 188.634 107.065 190.959 107.414C193.516 107.879 195.259 106.949 195.376 107.065Z" fill="#261363"/>
<path d="M153.767 207.503C153.186 206.573 150.977 161.701 151.791 161.701C152.604 161.701 186.194 161.701 186.194 161.701L184.102 205.992L153.767 207.503Z" fill="#263238"/>
<path d="M140.749 216.454L137.728 181.813L201.884 181.58L197.7 216.687L140.749 216.454Z" fill="#E0E0E0"/>
<path d="M173.874 200.18C173.874 202.389 172.014 204.249 169.806 204.249C167.598 204.249 165.738 202.389 165.738 200.18C165.738 197.971 167.598 196.111 169.806 196.111C172.13 196.111 173.874 197.971 173.874 200.18Z" fill="#FAFAFA"/>
<path d="M154.58 129.849C154.58 129.849 156.556 150.425 157.718 161.585C157.835 162.282 157.835 163.096 157.37 163.561C156.789 164.259 155.51 164.026 154.929 163.329C154.348 162.631 153.999 161.701 153.883 160.771C153.186 153.564 151.558 139.963 150.977 130.779C150.977 130.895 153.418 129.5 154.58 129.849Z" fill="#263238"/>
<path d="M183.404 129.849C183.404 129.849 181.428 150.425 180.266 161.585C180.15 162.282 180.15 163.096 180.615 163.561C181.196 164.259 182.474 164.026 183.056 163.329C183.637 162.631 183.985 161.701 184.102 160.771C184.799 153.564 186.426 139.963 187.007 130.779C187.007 130.895 184.567 129.5 183.404 129.849Z" fill="#263238"/>
<path d="M157.718 162.166C157.718 162.05 158.183 162.515 158.067 163.213C157.951 163.561 157.718 164.026 157.37 164.259C156.905 164.608 156.324 164.608 155.743 164.491C155.161 164.375 154.696 164.026 154.464 163.561C154.232 163.213 154.115 162.748 153.999 162.399C153.883 161.701 154.115 161.237 154.232 161.353C154.348 161.353 154.348 161.818 154.464 162.399C154.58 162.98 155.045 163.794 155.975 164.026C156.44 164.143 156.789 164.143 157.137 163.91C157.486 163.678 157.602 163.445 157.718 163.213C157.718 162.631 157.602 162.283 157.718 162.166Z" fill="#261363"/>
<path d="M155.859 161.585C155.859 161.701 155.743 161.817 155.859 162.05C155.859 162.282 156.091 162.515 156.324 162.399C156.556 162.282 156.556 161.934 156.44 161.817C156.324 161.585 156.091 161.585 156.091 161.585C156.091 161.469 156.324 161.236 156.672 161.469C156.905 161.585 157.137 161.701 157.137 162.05C157.253 162.399 157.021 162.747 156.672 162.98C156.324 163.096 155.975 163.096 155.626 162.864C155.394 162.631 155.394 162.282 155.394 162.05C155.394 161.585 155.743 161.469 155.859 161.585Z" fill="#261363"/>
<path d="M183.869 161.585C183.985 161.585 184.102 162.05 184.102 162.864C184.102 163.329 183.869 163.794 183.52 164.259C183.172 164.724 182.591 165.072 181.893 165.189C181.196 165.305 180.499 164.84 180.266 164.259C179.917 163.677 179.917 163.212 179.917 162.747C180.034 161.934 180.15 161.469 180.266 161.469C180.382 161.469 180.266 161.934 180.382 162.747C180.382 163.096 180.499 163.561 180.731 163.91C180.964 164.259 181.428 164.607 181.893 164.491C182.358 164.491 182.823 164.142 183.172 163.794C183.52 163.445 183.637 162.98 183.753 162.631C183.753 162.05 183.753 161.585 183.869 161.585Z" fill="#261363"/>
<path d="M181.777 162.283C181.777 162.399 181.661 162.515 181.777 162.631C181.777 162.864 181.893 162.864 182.126 162.864C182.358 162.748 182.358 162.631 182.242 162.515C182.01 162.399 181.893 162.399 181.777 162.283C181.777 162.166 182.01 162.05 182.358 162.166C182.474 162.283 182.707 162.399 182.707 162.748C182.707 163.096 182.474 163.329 182.242 163.445C182.01 163.561 181.545 163.445 181.428 163.213C181.312 162.98 181.312 162.748 181.312 162.515C181.545 162.166 181.777 162.166 181.777 162.283Z" fill="#261363"/>
<path d="M181.661 175.418C181.661 175.418 181.312 175.651 180.847 175.883C180.266 176.116 179.453 176.465 178.29 176.813C176.082 177.511 173.06 178.092 169.573 177.976C166.087 177.976 163.065 177.278 160.856 176.581C159.81 176.232 158.997 175.883 158.416 175.651C157.835 175.418 157.486 175.186 157.602 175.186C157.602 175.07 158.881 175.651 161.089 176.232C163.181 176.813 166.203 177.395 169.69 177.511C173.06 177.511 176.082 177.046 178.29 176.465C180.266 175.767 181.545 175.302 181.661 175.418Z" fill="#261363"/>
<path d="M146.444 157.283C146.561 157.4 145.166 159.376 144.352 162.166C143.539 164.956 143.655 167.397 143.539 167.397C143.423 167.397 142.958 164.956 143.771 162.05C144.701 159.027 146.328 157.167 146.444 157.283Z" fill="#263238"/>
<path d="M133.311 168.095C133.311 168.095 133.311 168.443 133.079 168.908C132.846 169.373 132.497 170.187 131.916 171.001C130.87 172.628 128.778 174.721 125.989 176.116C124.594 176.813 123.199 177.162 121.921 177.395C120.642 177.743 119.596 177.976 118.783 178.557C117.039 179.487 116.691 180.766 116.574 180.766C116.574 180.766 116.574 180.417 116.807 179.952C117.039 179.487 117.62 178.79 118.55 178.208C119.364 177.627 120.526 177.278 121.805 176.93C123.083 176.581 124.478 176.232 125.756 175.651C128.429 174.372 130.405 172.396 131.568 170.885C132.73 169.257 133.195 168.095 133.311 168.095Z" fill="#263238"/>
<path d="M124.478 176.814C124.362 176.698 125.059 176.233 125.64 175.186C126.221 174.14 126.57 172.28 125.756 170.653C125.756 170.536 125.64 170.536 125.64 170.42L126.105 170.536C124.826 171.815 124.245 173.443 124.245 174.605C124.129 175.768 124.478 176.581 124.362 176.581C124.362 176.581 123.897 175.884 123.897 174.605C123.897 173.326 124.245 171.466 125.756 170.071L126.105 169.839L126.337 170.188C126.337 170.304 126.454 170.304 126.454 170.42C127.383 172.28 126.919 174.373 126.221 175.535C125.291 176.465 124.478 176.814 124.478 176.814Z" fill="#263238"/>
<path d="M128.197 174.488C128.197 174.488 128.894 173.907 130.173 173.907C131.451 173.791 133.311 174.372 134.589 175.999L134.706 176.116L134.938 176.464L134.473 176.581C132.614 177.046 130.754 176.581 129.708 175.883C128.662 175.186 128.197 174.604 128.313 174.488C128.429 174.372 128.894 174.953 129.94 175.534C130.986 175.999 132.614 176.464 134.241 175.999L134.125 176.464L134.008 176.348C132.962 174.953 131.219 174.372 130.057 174.256C128.894 174.256 128.197 174.604 128.197 174.488Z" fill="#263238"/>
<path d="M131.335 171.349C131.335 171.349 131.684 170.536 132.73 169.954C133.776 169.257 135.752 168.792 137.611 169.722C137.728 169.722 137.728 169.838 137.844 169.838L138.192 170.071L137.844 170.419C136.449 171.814 134.589 172.163 133.427 172.163C132.149 172.163 131.451 171.698 131.568 171.698C131.568 171.582 132.265 171.814 133.427 171.814C134.589 171.814 136.217 171.349 137.495 170.071L137.611 170.536C137.611 170.536 137.495 170.536 137.495 170.419C135.868 169.722 134.125 170.071 133.078 170.536C131.8 170.768 131.335 171.466 131.335 171.349Z" fill="#263238"/>
<path d="M120.642 177.395C120.642 177.395 121.34 176.93 122.618 177.046C123.897 177.046 125.756 177.86 126.802 179.603C126.802 179.72 126.919 179.72 126.919 179.836L127.151 180.185H126.686C124.71 180.533 122.967 179.836 122.037 179.022C120.991 178.325 120.759 177.511 120.759 177.511C120.875 177.395 121.34 178.092 122.269 178.673C123.199 179.255 124.826 179.836 126.57 179.487L126.337 179.952L126.221 179.836C125.291 178.325 123.664 177.627 122.502 177.395C121.456 177.279 120.642 177.511 120.642 177.395Z" fill="#263238"/>
<path d="M21.8505 270.276C20.572 272.136 18.1313 271.439 16.969 270.393C15.8067 269.346 15.3418 267.719 14.8769 266.208C13.8309 262.72 12.9011 259.117 13.5984 255.513C13.8309 254.467 14.1796 253.42 14.9932 252.607C15.6905 251.793 16.8528 251.328 17.8988 251.677C19.1773 252.025 19.8746 253.188 20.4558 254.35C22.0829 257.722 23.0127 261.558 23.0127 265.278C23.0127 267.021 22.8965 268.881 21.8505 270.276Z" fill="#50A436"/>
<g opacity="0.2">
<g opacity="0.2">
<g opacity="0.2">
<path opacity="0.2" d="M21.8505 270.276C20.572 272.136 18.1313 271.439 16.969 270.393C15.8067 269.346 15.3418 267.719 14.8769 266.208C13.8309 262.72 12.9011 259.117 13.5984 255.513C13.8309 254.467 14.1796 253.42 14.9932 252.607C15.6905 251.793 16.8528 251.328 17.8988 251.677C19.1773 252.025 19.8746 253.188 20.4558 254.35C22.0829 257.722 23.0127 261.558 23.0127 265.278C23.0127 267.021 22.8965 268.881 21.8505 270.276Z" fill="black"/>
</g>
</g>
</g>
<path d="M17.0852 279.46C14.9931 278.414 12.5524 278.298 10.3441 278.646C9.06562 278.879 7.78714 279.228 6.97356 280.158C6.15998 281.088 5.92752 282.715 6.97356 283.529C7.55469 283.994 8.36827 284.11 9.06562 284.11C10.809 284.11 12.9011 283.761 14.2958 284.808C15.1094 285.389 15.6905 286.435 16.6203 286.784C17.5501 287.133 18.7124 286.551 19.1773 285.621C19.6422 284.808 19.7584 283.645 19.4097 282.715C19.4097 282.599 19.1773 280.506 17.0852 279.46Z" fill="#50A436"/>
<path d="M25.3373 272.834C23.9425 271.207 23.7101 268.882 24.2912 266.789C24.8724 264.697 26.2671 263.069 27.8942 261.558C29.7538 259.931 31.9621 258.652 34.2866 257.722C35.2164 257.373 36.1463 257.141 37.1923 257.257C38.1221 257.373 39.1681 257.838 39.633 258.768C40.3304 260.047 39.633 261.558 38.9357 262.837C37.6572 265.045 36.2625 267.254 34.7515 269.23C33.4731 270.858 32.0784 272.485 30.1025 273.183C28.1267 273.88 26.1508 273.88 25.1048 272.485" fill="#50A436"/>
<path d="M21.9667 297.479C21.9667 297.479 21.8504 297.13 21.8504 296.665C21.8504 296.084 21.7342 295.27 21.618 294.456C21.5018 293.526 21.3855 292.364 21.1531 291.202C20.9206 290.039 20.4557 288.644 19.9908 287.365C19.4097 286.087 18.8286 284.808 18.015 283.878C17.2014 282.948 16.3878 282.25 15.458 281.785C14.6444 281.32 13.8309 281.204 13.3659 281.088C12.7848 281.088 12.5524 280.972 12.5524 280.972C12.5524 280.972 12.901 280.972 13.3659 280.972C13.9471 280.972 14.6444 281.088 15.5742 281.553C16.504 281.902 17.4339 282.715 18.2474 283.645C19.061 284.575 19.7584 285.854 20.3395 287.249C20.9206 288.644 21.2693 289.923 21.5018 291.202C21.7342 292.48 21.8504 293.526 21.9667 294.573C22.0829 295.503 22.0829 296.316 22.0829 296.781C21.9667 297.246 21.9667 297.479 21.9667 297.479Z" fill="#263238"/>
<path d="M21.8504 295.851C21.8504 295.851 21.8504 295.734 21.8504 295.502C21.8504 295.269 21.8504 294.804 21.8504 294.456C21.8504 293.526 21.8504 292.131 21.8504 290.503C21.7342 287.132 21.5018 282.482 20.9206 277.367C20.3395 272.252 19.6421 267.602 18.9448 264.347C18.8286 263.534 18.5961 262.72 18.4799 262.139C18.3637 261.441 18.2474 260.976 18.1312 260.511C18.015 260.046 17.8988 259.697 17.8988 259.465C17.8988 259.232 17.7825 259.116 17.7825 259.116C17.7825 259.116 17.7825 259.232 17.8988 259.465C18.015 259.697 18.1312 260.046 18.2474 260.511C18.3637 260.976 18.4799 261.557 18.7123 262.139C18.8286 262.836 19.061 263.534 19.2935 264.347C19.9908 267.602 20.8044 272.252 21.3855 277.367C21.9667 282.482 22.1991 287.132 22.1991 290.503C22.1991 292.247 22.1991 293.526 22.0829 294.456C22.0829 294.921 22.0829 295.269 21.9667 295.502C21.8504 295.734 21.8504 295.851 21.8504 295.851Z" fill="#263238"/>
<path d="M21.7343 286.784C21.7343 286.784 21.7343 286.435 21.7343 285.621C21.7343 284.924 21.8505 283.877 22.0829 282.482C22.3154 281.204 22.5478 279.692 23.129 277.949C23.5939 276.321 24.175 274.461 24.9886 272.601C26.4995 268.881 28.7078 265.859 30.4512 263.999C30.9161 263.534 31.381 263.185 31.7297 262.836C31.9621 262.72 32.0783 262.488 32.3108 262.371C32.5432 262.255 32.6595 262.139 32.7757 262.023C33.3568 261.558 33.7055 261.441 33.7055 261.441C33.7055 261.558 32.3108 262.371 30.5674 264.231C28.824 266.091 26.732 269.114 25.221 272.834C24.4074 274.694 23.8263 276.437 23.3614 278.065C22.8965 279.692 22.5478 281.204 22.3154 282.482C22.0829 283.761 21.9667 284.807 21.8505 285.505C21.8505 286.435 21.8505 286.784 21.7343 286.784Z" fill="#263238"/>
<path d="M522.667 280.158C523.365 277.484 521.621 274.81 519.645 272.834C517.67 270.858 515.345 269.23 514.299 266.557C512.672 262.372 514.764 257.024 511.975 253.537C510.347 251.561 507.326 250.863 505.815 248.655C505.001 247.492 504.769 246.097 504.42 244.818C502.793 237.96 499.306 231.566 494.424 226.451C494.076 232.612 495.471 238.773 498.376 244.237C499.538 246.446 500.933 248.538 501.398 250.979C501.979 254.932 499.887 259.001 500.817 262.953C501.979 267.37 506.977 270.277 507.209 274.927C507.442 278.763 504.071 282.25 504.304 286.086C504.42 287.714 505.233 289.225 506.047 290.62C509.069 295.619 513.485 298.99 520.11 298.874L528.246 299.106L522.667 280.158Z" fill="#50A436"/>
<g opacity="0.3">
<g opacity="0.3">
<g opacity="0.3">
<g opacity="0.3">
<path opacity="0.3" d="M522.667 280.158C523.365 277.484 521.621 274.81 519.645 272.834C517.67 270.858 515.345 269.23 514.299 266.557C512.672 262.372 514.764 257.024 511.975 253.537C510.347 251.561 507.326 250.863 505.815 248.655C505.001 247.492 504.769 246.097 504.42 244.818C502.793 237.96 499.306 231.566 494.424 226.451C494.076 232.612 495.471 238.773 498.376 244.237C499.538 246.446 500.933 248.538 501.398 250.979C501.979 254.932 499.887 259.001 500.817 262.953C501.979 267.37 506.977 270.277 507.209 274.927C507.442 278.763 504.071 282.25 504.304 286.086C504.42 287.714 505.233 289.225 506.047 290.62C509.069 295.619 513.485 298.99 520.11 298.874L528.246 299.106L522.667 280.158Z" fill="black"/>
</g>
</g>
</g>
</g>
<path d="M529.99 299.222C529.99 299.222 530.803 299.454 532.198 299.105C532.895 298.989 533.825 298.757 534.871 298.408C535.917 298.059 537.079 297.478 538.125 296.548C538.706 296.083 539.171 295.502 539.404 294.804C539.636 293.991 539.753 293.177 539.753 292.363C539.753 291.549 539.753 290.619 539.985 289.689C540.101 288.759 540.45 287.946 540.915 287.016C541.845 285.272 543.472 283.761 543.937 281.436C544.518 279.227 544.053 276.786 543.704 274.345C543.356 271.903 542.891 269.23 543.82 266.672C544.634 264.115 546.494 261.79 547.307 258.884C548.237 255.977 547.772 252.839 547.888 249.816C548.005 248.305 548.237 246.678 548.934 245.283C549.632 243.888 550.445 242.493 551.143 240.981C552.537 237.959 552.77 234.472 553.235 230.984C553.467 229.24 553.583 227.497 553.816 225.753C554.048 224.009 554.164 222.266 554.746 220.522C555.211 218.778 555.908 217.151 556.721 215.523C557.07 214.709 557.419 213.779 557.651 212.849C557.767 211.919 557.884 210.989 557.884 210.059C558 208.2 557.884 206.34 557.651 204.363C557.419 202.503 557.07 200.643 556.838 198.783C556.838 198.667 556.838 198.551 556.838 198.435V198.086L556.489 198.202C554.746 199.132 553.235 200.411 552.072 201.922C550.91 203.433 550.097 205.177 549.399 206.921C548.005 210.408 547.54 214.128 546.959 217.616C546.261 221.103 545.448 224.59 543.704 227.497C542.774 229.008 541.728 230.287 540.799 231.682C539.869 233.077 539.055 234.588 538.823 236.332C538.358 239.819 540.334 242.841 539.869 245.864C539.753 247.375 539.171 248.77 538.358 250.049C537.66 251.328 536.731 252.606 535.917 253.769C535.104 254.931 534.29 256.21 533.709 257.489C533.128 258.767 532.779 260.162 532.779 261.557C532.547 264.347 533.011 266.905 532.779 269.346C532.663 271.787 531.733 273.996 530.803 276.088C529.873 278.065 528.711 279.925 527.781 281.668C527.316 282.598 526.851 283.412 526.503 284.226C526.154 285.039 525.922 285.969 525.805 286.783C525.573 288.527 525.573 290.038 525.805 291.433C526.154 294.223 527.2 296.199 528.13 297.362C528.362 297.711 528.595 297.827 528.827 298.059C529.06 298.292 529.176 298.408 529.408 298.524C529.873 299.105 529.99 299.222 529.99 299.222C529.99 299.222 529.292 298.757 528.362 297.711C527.433 296.548 526.503 294.572 526.154 291.782C526.038 290.387 525.922 288.876 526.27 287.248C526.387 286.434 526.619 285.621 526.968 284.691C527.316 283.877 527.781 282.947 528.246 282.133C529.176 280.39 530.222 278.53 531.268 276.553C532.314 274.577 533.128 272.252 533.36 269.695C533.593 267.137 533.128 264.58 533.36 261.906C533.476 260.511 533.709 259.232 534.29 257.954C534.871 256.675 535.568 255.512 536.382 254.234C537.196 253.071 538.125 251.793 538.823 250.514C539.52 249.235 540.217 247.724 540.334 246.096C540.682 242.841 538.823 239.819 539.288 236.564C539.52 234.937 540.334 233.542 541.263 232.147C542.193 230.752 543.239 229.473 544.169 227.962C546.029 224.939 546.842 221.452 547.54 217.964C548.237 214.477 548.702 210.757 549.98 207.386C550.678 205.642 551.491 204.015 552.537 202.503C553.583 200.992 555.094 199.83 556.721 198.9L556.373 198.667C556.373 198.783 556.373 198.9 556.373 199.016C556.605 200.876 556.954 202.736 557.186 204.596C557.419 206.456 557.535 208.316 557.419 210.176C557.419 211.106 557.303 212.036 557.186 212.849C556.954 213.663 556.605 214.593 556.257 215.407C555.559 217.034 554.862 218.778 554.281 220.522C553.7 222.266 553.583 224.126 553.351 225.869C553.118 227.613 553.002 229.357 552.77 231.1C552.421 234.472 552.189 237.959 550.794 240.981C550.097 242.493 549.167 243.888 548.586 245.283C547.888 246.794 547.54 248.421 547.54 249.933C547.423 253.071 547.772 256.21 546.959 259C546.145 261.79 544.402 264.115 543.472 266.789C542.542 269.462 542.891 272.252 543.356 274.693C543.82 277.135 544.169 279.576 543.704 281.668C543.239 283.877 541.728 285.504 540.682 287.248C540.217 288.062 539.869 288.992 539.636 289.922C539.52 290.852 539.52 291.782 539.52 292.596C539.52 293.409 539.404 294.223 539.171 294.921C538.939 295.618 538.474 296.199 537.893 296.664C536.847 297.594 535.685 298.059 534.755 298.524C533.709 298.873 532.895 299.105 532.198 299.222C531.5 299.338 530.919 299.338 530.571 299.338C530.222 299.222 529.99 299.222 529.99 299.222Z" fill="#263238"/>
<path d="M555.211 202.969C555.211 202.969 555.211 203.085 555.094 203.201C555.094 203.434 554.978 203.666 554.862 203.899C554.746 204.596 554.513 205.526 554.165 206.689C553.816 207.851 553.118 209.246 552.537 210.99C551.84 212.617 551.259 214.594 550.678 216.802C550.097 219.011 549.515 221.452 548.934 224.01C548.353 226.567 547.772 229.357 546.377 232.031C545.68 233.309 544.983 234.704 544.402 236.216C543.82 237.727 543.472 239.238 543.239 240.866C542.891 244.121 542.309 247.376 541.496 250.747C539.869 257.489 538.358 263.766 536.963 269.579C535.568 275.391 534.29 280.622 533.244 284.924C532.198 289.225 531.384 292.829 530.687 295.27C530.454 296.432 530.222 297.362 529.99 298.06C529.873 298.408 529.873 298.641 529.873 298.757C529.873 298.873 529.873 298.99 529.873 298.99C529.873 298.99 529.873 298.873 529.99 298.757C529.99 298.525 530.106 298.292 530.222 298.06C530.454 297.362 530.687 296.432 530.919 295.27C531.617 292.829 532.43 289.225 533.593 284.924C534.755 280.506 536.033 275.391 537.428 269.579C538.823 263.766 540.334 257.373 541.961 250.747C542.658 247.376 543.239 244.004 543.704 240.866C543.937 239.238 544.285 237.727 544.75 236.332C545.331 234.937 546.029 233.542 546.726 232.263C548.121 229.59 548.702 226.683 549.283 224.126C549.864 221.568 550.329 219.127 550.91 216.919C551.491 214.71 552.072 212.85 552.77 211.106C553.351 209.479 554.048 208.084 554.397 206.805C554.629 205.526 554.862 204.596 554.978 203.899C554.978 203.55 555.094 203.317 555.094 203.201C555.211 203.085 555.211 202.969 555.211 202.969Z" fill="#263238"/>
<path d="M531.501 299.222C536.847 296.083 538.242 286.435 536.033 280.622C533.825 274.81 529.873 269.579 529.176 263.418C528.711 258.651 530.222 253.769 529.06 249.235C527.549 242.958 521.389 238.192 521.389 231.798C521.389 228.194 523.481 224.823 523.249 221.22C523.016 216.802 519.646 213.315 517.437 209.479C514.183 203.55 513.95 196.459 512.788 189.833C511.626 183.206 509.069 175.999 503.141 172.744C502.328 178.44 500.817 182.276 501.398 189.949C501.63 192.739 504.769 197.97 505.233 204.015C505.466 207.619 505.698 211.222 505.931 214.826C506.163 218.313 506.396 221.917 507.674 225.172C508.604 227.729 510.231 229.938 510.929 232.612C512.323 237.494 510.58 242.842 511.626 247.724C512.556 251.909 515.461 255.513 516.159 259.814C516.972 265.859 513.137 272.02 515.229 277.716C516.275 280.506 518.599 282.831 519.297 285.737C519.878 288.062 519.297 290.387 519.762 292.712C520.575 296.432 527.549 299.222 531.268 298.99" fill="#50A436"/>
<path d="M504.769 178.208C504.769 178.208 504.769 178.324 504.769 178.557C504.769 178.789 504.885 179.138 504.885 179.487C505.001 180.3 505.117 181.463 505.466 183.09C505.815 184.602 506.628 186.462 507.209 188.554C507.907 190.647 508.604 193.088 509.185 195.878C509.766 198.551 510.347 201.574 510.929 204.829C511.51 208.084 512.091 211.571 513.718 214.942C514.532 216.686 515.345 218.314 515.926 220.174C516.624 222.034 516.856 223.893 517.088 225.87C517.437 229.938 517.902 234.007 518.716 238.308C520.343 246.678 521.97 254.699 523.481 262.023C524.992 269.23 526.387 275.856 527.549 281.32C528.711 286.784 529.641 291.201 530.338 294.34C530.687 295.851 530.919 297.014 531.152 297.827C531.268 298.176 531.268 298.525 531.384 298.757C531.384 298.99 531.5 299.106 531.5 299.106C531.5 299.106 531.5 298.99 531.5 298.757C531.5 298.525 531.384 298.176 531.384 297.827C531.268 297.014 531.036 295.851 530.687 294.34C530.106 291.201 529.176 286.784 528.014 281.32C526.851 275.856 525.573 269.23 524.062 262.023C522.667 254.699 521.04 246.794 519.413 238.424C518.599 234.24 518.135 230.055 517.786 226.102C517.553 224.126 517.321 222.034 516.624 220.29C515.926 218.43 515.113 216.686 514.299 215.059C512.672 211.687 512.091 208.2 511.51 205.061C510.929 201.806 510.347 198.784 509.766 196.11C509.185 193.32 508.372 190.879 507.674 188.787C506.977 186.694 506.163 184.95 505.815 183.439C505.466 181.928 505.35 180.649 505.117 179.835C505.001 179.487 505.001 179.138 504.885 178.905C504.769 178.324 504.769 178.208 504.769 178.208Z" fill="#263238"/>
<path d="M47.3039 82.6521C47.3039 82.6521 47.3039 82.4196 47.4201 81.9546C47.4201 81.4896 47.5364 80.7921 47.6526 79.9784C47.6526 79.0484 47.885 78.0022 48.1175 76.7234C48.2337 76.1422 48.3499 75.3284 48.5824 74.631C48.8148 73.9335 49.0473 73.1197 49.2798 72.306C50.3258 69.1673 51.9529 65.3311 54.6261 61.4949C57.4156 57.6587 61.251 53.8226 66.2487 50.9164C68.6895 49.4051 71.5951 48.2426 74.5007 47.3127C77.5226 46.4989 80.7769 45.8014 84.1475 45.9177C85.7747 45.8014 87.518 46.0339 89.2614 46.1502C90.075 46.2664 91.0048 46.3827 91.8184 46.6152C92.7482 46.7314 93.5618 46.9639 94.3754 47.1964C97.8621 48.0101 101.349 49.6376 104.603 51.6138C111.112 55.5663 116.691 62.0762 119.829 70.0973C121.456 74.0497 122.153 78.4671 122.27 82.8846C122.502 87.302 121.688 91.8357 120.177 96.1368L119.713 97.4156L119.596 97.5318L119.713 97.6481C122.618 104.158 125.524 110.435 128.43 116.597L128.894 116.015C122.967 113.923 117.388 111.83 111.925 109.854L111.693 109.738L111.577 109.854C106.928 114.504 101.465 117.643 95.7701 119.386C90.075 121.13 84.3799 121.246 79.1498 120.433C73.9196 119.619 69.1544 117.759 65.2027 115.202C61.251 112.76 57.9967 109.622 55.5559 106.483C53.1152 103.344 51.3718 100.089 50.2096 97.1831C49.0473 94.1606 48.3499 91.6032 48.0013 89.3945C47.885 88.3482 47.6526 87.302 47.5364 86.4883C47.5364 85.6745 47.4201 84.977 47.4201 84.2795C47.4201 83.6983 47.4201 83.2333 47.3039 83.0008C47.3039 82.7683 47.3039 82.6521 47.3039 82.6521C47.3039 82.6521 47.3039 82.7683 47.3039 83.1171C47.3039 83.4658 47.3039 83.9308 47.3039 84.3958C47.3039 84.977 47.3039 85.6745 47.3039 86.6045C47.4201 87.4182 47.5364 88.4645 47.6526 89.5107C48.0013 91.7194 48.6986 94.3931 49.7447 97.4156C51.0231 100.322 52.6503 103.693 55.091 106.948C57.5318 110.087 60.7861 113.225 64.854 115.783C68.9219 118.34 73.6872 120.316 79.0336 121.13C84.3799 121.944 90.1912 121.828 95.8863 120.084C101.581 118.34 107.276 115.085 111.925 110.435L111.577 110.552C117.039 112.528 122.734 114.62 128.546 116.713L129.359 117.061L129.011 116.248C126.221 110.087 123.316 103.809 120.41 97.2993V97.6481L120.875 96.3693C122.386 91.9519 123.199 87.302 122.967 82.7683C122.851 78.2346 122.037 73.701 120.41 69.6323C117.156 61.4949 111.461 54.8688 104.836 50.8001C101.465 48.8239 97.9784 47.1964 94.4916 46.3827C93.5618 46.1502 92.7482 45.9177 91.8184 45.8014C90.8886 45.6852 90.075 45.4527 89.1452 45.3364C87.4018 45.2202 85.6584 44.9877 83.915 45.1039C80.5445 45.1039 77.1739 45.8014 74.1521 46.6152C71.1302 47.6614 68.2246 48.7076 65.7838 50.3351C60.6699 53.3576 56.8344 57.1937 54.045 61.1462C51.2556 65.0986 49.7447 68.9348 48.6986 72.1897C48.4662 73.0035 48.2337 73.8172 48.1175 74.5147C47.885 75.2122 47.885 75.9097 47.7688 76.6072C47.5364 77.8859 47.4201 79.0484 47.3039 79.8621C47.3039 80.6758 47.1877 81.3733 47.1877 81.8383C47.3039 82.4196 47.3039 82.6521 47.3039 82.6521Z" fill="#263238"/>
<path d="M84.7286 83.3491L98.327 83.1166C98.4433 90.5564 92.3995 96.8338 84.9611 96.9501C77.5226 97.0663 71.2464 91.0214 71.1302 83.5816C70.8978 76.2579 76.709 70.0968 84.1475 69.748L84.7286 83.3491Z" fill="#C6368B"/>
<path d="M88.3316 79.9779L87.7505 66.3769C91.3535 66.2606 95.0727 67.6556 97.6297 70.0968C100.187 72.538 101.814 76.0254 101.93 79.5129L88.3316 79.9779Z" fill="#C6368B"/>
</g>
<defs>
<clipPath id="clip0_39_146">
<rect width="558" height="523" fill="white"/>
</clipPath>
</defs>
</svg>
