<svg width="524" height="554" viewBox="0 0 524 554" fill="none" xmlns="http://www.w3.org/2000/svg">
<path d="M311.501 317.518C311.501 317.518 311.638 317.654 311.775 317.791C311.911 317.928 312.185 318.201 312.595 318.612C313.279 319.295 314.236 320.389 315.603 321.757C318.201 324.628 322.03 328.731 326.953 333.927C336.662 344.456 350.61 359.361 367.156 377.274H366.745C380.146 361.822 395.735 344.046 412.418 324.902L412.691 324.491L412.964 324.902C414.058 326.543 415.152 328.184 416.246 329.961C428.553 348.422 440.176 366.061 450.706 381.924L450.295 381.787C462.602 371.941 473.815 363.053 483.524 355.259L483.661 355.122L483.797 355.259C494.463 367.292 503.078 377.138 509.095 383.975C512.103 387.393 514.428 389.991 515.932 391.769C516.753 392.59 517.3 393.273 517.71 393.82C518.12 394.231 518.257 394.504 518.257 394.504C518.257 394.504 517.983 394.231 517.573 393.82C517.163 393.41 516.479 392.726 515.795 391.769C514.154 389.991 511.83 387.393 508.822 383.975C502.805 377.274 494.053 367.429 483.387 355.395H483.797C474.089 363.19 463.013 372.078 450.706 382.06L450.432 382.334L450.295 382.06C439.766 366.198 428.006 348.695 415.699 330.235C414.605 328.457 413.375 326.816 412.418 325.175H412.964C396.419 344.182 380.693 361.959 367.292 377.411L367.019 377.685L366.745 377.411C350.199 359.771 336.388 344.729 326.68 334.2C321.894 328.867 318.065 324.765 315.467 321.893C314.236 320.526 313.279 319.432 312.595 318.612C312.322 318.201 312.048 317.928 311.911 317.791C311.501 317.654 311.501 317.518 311.501 317.518Z" fill="#E7E7E7"/>
<path d="M362.37 377.684C362.37 380.283 364.557 382.47 367.156 382.47C369.754 382.47 371.942 380.283 371.942 377.684C371.942 375.086 369.754 372.898 367.156 372.898C364.557 372.898 362.37 374.95 362.37 377.684Z" fill="#E1E1E1"/>
<path d="M446.193 383.291C446.193 385.889 448.381 388.077 450.979 388.077C453.577 388.077 455.765 385.889 455.765 383.291C455.765 380.693 453.577 378.505 450.979 378.505C448.244 378.505 446.193 380.693 446.193 383.291Z" fill="#E1E1E1"/>
<path d="M478.738 357.037C478.738 359.635 480.926 361.823 483.524 361.823C486.122 361.823 488.31 359.635 488.31 357.037C488.31 354.439 486.122 352.251 483.524 352.251C480.926 352.251 478.738 354.302 478.738 357.037Z" fill="#E1E1E1"/>
<path d="M407.768 325.723C407.768 328.321 409.956 330.509 412.554 330.509C415.152 330.509 417.34 328.321 417.34 325.723C417.34 323.124 415.152 320.937 412.554 320.937C409.819 320.937 407.768 322.988 407.768 325.723Z" fill="#E1E1E1"/>
<path d="M514.428 394.914C514.428 397.512 516.616 399.7 519.214 399.7C521.812 399.7 524 397.512 524 394.914C524 392.316 521.812 390.128 519.214 390.128C516.616 390.128 514.428 392.316 514.428 394.914Z" fill="#E1E1E1"/>
<path d="M95.31 32.8184H64.5428V155.067H95.31V32.8184Z" fill="#E7E7E7"/>
<path d="M140.572 59.4824H109.805V155.066H140.572V59.4824Z" fill="#E7E7E7"/>
<path d="M186.381 81.3613H155.614V155.066H186.381V81.3613Z" fill="#E7E7E7"/>
<path d="M228.908 111.31H198.141V155.067H228.908V111.31Z" fill="#E7E7E7"/>
<path d="M204.294 2.3252C204.294 2.3252 204.021 2.73543 203.474 3.41914C202.927 4.10286 201.97 5.06006 200.876 6.29075C198.551 8.88887 195.269 12.5809 191.167 17.3669C182.689 26.939 170.656 40.6133 156.161 57.0225L156.024 57.296L155.751 57.1592C148.777 51.8262 140.982 45.9463 132.914 39.6561H133.325C123.342 51.963 112.54 65.7741 101.327 79.9953L100.916 80.5423L100.643 80.8158L100.37 80.5423C85.0543 67.1415 70.5595 54.2876 57.2954 42.5277H57.8424C40.8862 64.8168 26.3914 83.6874 16.2724 97.225C11.2129 103.925 7.11065 109.122 4.37578 112.814C3.00835 114.591 1.9144 115.959 1.23069 116.916C0.820459 117.326 0.546973 117.736 0.41023 118.01C0.136743 118.147 0 118.283 0 118.283C0 118.283 0.136743 118.147 0.273486 117.873C0.41023 117.6 0.683716 117.189 1.09395 116.779C1.77766 115.822 2.87161 114.455 4.23904 112.54C6.9739 108.848 10.9395 103.515 15.999 96.8148C26.118 83.4139 40.476 64.4066 57.2954 41.9807L57.5689 41.7072L57.8424 41.9807C71.1065 53.6039 85.738 66.4578 100.916 79.9953H100.37L100.78 79.4484C112.129 65.0903 122.932 51.416 132.778 38.9724L132.914 38.6989L133.188 38.8356C141.256 45.1258 149.05 51.0058 156.024 56.3388H155.614C170.245 39.9296 182.415 26.392 190.894 16.82C195.133 12.034 198.414 8.3419 200.739 5.88052C201.833 4.64983 202.79 3.69263 203.337 3.00891C204.021 2.59868 204.294 2.3252 204.294 2.3252Z" fill="#E7E7E7"/>
<path d="M199.235 30.6305C199.235 30.6305 199.235 30.357 199.372 29.9468C199.508 29.3998 199.645 28.8528 199.782 28.1691C200.192 26.5282 200.602 24.3403 201.149 21.7422C202.38 16.2724 204.158 8.75156 206.072 0.41023L206.482 0.820459C205.935 0.957202 205.525 1.09395 204.978 1.23069C196.363 3.82881 188.569 6.15344 182.962 7.93111C180.228 8.75156 177.903 9.43528 176.262 9.84551C175.578 9.98225 174.895 10.2557 174.484 10.3925C174.074 10.5292 173.801 10.5292 173.801 10.5292C173.801 10.5292 173.937 10.3925 174.348 10.2557C174.895 10.119 175.442 9.84551 176.125 9.57203C177.766 9.02505 180.091 8.34134 182.689 7.38413C188.295 5.60647 196.09 3.14509 204.568 0.546973C205.115 0.41023 205.662 0.273486 206.072 0.136743L206.619 0L206.482 0.546973C204.568 8.88831 202.653 16.4092 201.286 21.8789C200.602 24.477 200.055 26.6649 199.645 28.3058C199.508 28.9896 199.235 29.5365 199.235 30.0835C199.235 30.4937 199.235 30.6305 199.235 30.6305Z" fill="#E7E7E7"/>
<path d="M441.544 208.943C458.637 208.669 472.584 222.343 472.858 239.299C473.131 256.392 459.457 270.34 442.501 270.614C425.408 270.887 411.46 257.213 411.187 240.257C410.913 223.301 424.588 209.216 441.544 208.943ZM442.364 254.615C450.569 254.478 456.996 247.778 456.859 239.573C456.722 231.368 450.022 224.941 441.817 225.078C433.613 225.215 427.186 231.915 427.323 240.12C427.459 248.188 434.16 254.751 442.364 254.615Z" fill="#E1E1E1"/>
<path d="M441.544 205.114C460.688 204.84 476.55 220.156 476.824 239.3L455.765 239.847C455.628 230.685 449.475 226.993 442.091 226.446C436.074 226.036 428.006 230.685 428.28 239.847L407.495 240.394C407.085 221.25 422.4 205.387 441.544 205.114Z" fill="#F0F0F0"/>
<path d="M191.577 345.003C213.455 321.757 250.513 320.526 273.896 342.268C297.416 364.011 298.646 400.521 276.768 423.767C254.889 447.014 217.831 448.244 194.448 426.502C170.928 404.76 169.698 368.25 191.577 345.003ZM254.478 403.256C265.008 392.18 264.324 374.677 253.111 364.284C241.898 353.892 224.258 354.439 213.729 365.652C203.2 376.728 203.883 394.231 215.096 404.623C226.309 414.879 244.086 414.332 254.478 403.256Z" fill="#F5F5F5"/>
<path d="M191.577 345.003C213.456 321.757 250.514 320.526 273.897 342.268L253.112 364.284C241.899 353.892 224.259 354.439 213.73 365.652C203.2 376.728 203.884 394.231 215.097 404.623L194.312 426.639C170.929 404.76 169.698 368.25 191.577 345.003Z" fill="#E1E1E1"/>
<path d="M271.572 332.834C300.288 359.362 303.707 402.573 276.905 431.016L247.779 405.855C260.633 392.181 263.367 374.13 249.693 361.413L271.572 332.834Z" fill="#ECECEC"/>
<path d="M244.634 407.768L262 442.091C269.658 439.082 276.085 434.98 280.871 429.647L249.693 404.486L244.634 407.768Z" fill="#E1E1E1"/>
<path d="M309.997 91.4802C309.313 48.6796 343.636 13.2631 386.436 12.5794C429.237 11.8957 464.653 46.2182 465.337 89.0188C466.021 131.819 431.698 167.236 388.898 167.92C346.097 168.467 310.681 134.281 309.997 91.4802ZM424.861 89.5658C424.588 69.0543 407.632 52.6451 387.12 53.0554C366.609 53.3289 350.199 70.285 350.61 90.7965C350.883 111.308 367.839 127.717 388.351 127.307C408.725 127.033 425.135 110.077 424.861 89.5658Z" fill="#FAFAFA"/>
<path d="M309.997 91.4809C309.313 48.6803 343.636 13.2638 386.436 12.5801L387.12 53.0561C366.609 53.3296 350.199 70.2857 350.61 90.7972C350.883 111.309 367.839 127.718 388.351 127.308L389.034 167.784C346.097 168.467 310.681 134.282 309.997 91.4809Z" fill="#E1E1E1"/>
<path d="M379.462 6.29015C429.51 5.46969 469.576 44.168 470.26 94.216L422.81 95.0365C422.4 71.1064 404.076 56.0647 380.146 56.3382L379.462 6.29015Z" fill="#F0F0F0"/>
<path d="M154.383 363.737L407.768 361.822V365.378L154.383 367.702V363.737Z" fill="#1A2E35"/>
<path d="M148.777 106.112L154.52 365.787L407.768 363.873V101.736L148.777 106.112Z" fill="white"/>
<path d="M148.777 106.113C151.375 106.113 252.565 104.199 407.632 101.464H407.905V101.737C407.905 176.809 407.905 265.282 407.905 359.772C407.905 361.139 407.905 362.507 407.905 363.874V364.284H407.495C314.92 364.968 228.088 365.652 154.383 366.199H154.11V365.925C150.964 210.175 148.913 108.711 148.777 106.113C148.777 108.711 151.238 210.175 154.793 365.788L154.52 365.515C228.224 364.968 315.056 364.284 407.632 363.464L407.221 363.874C407.221 362.507 407.221 361.139 407.221 359.772C407.221 265.282 407.221 176.809 407.221 101.737L407.495 102.011C252.565 104.472 151.375 106.113 148.777 106.113Z" fill="#1A2E35"/>
<path d="M147.819 107.891L408.862 106.387L409.136 95.4473L147.819 96.9514V107.891Z" fill="#1A2E35"/>
<path d="M272.803 372.899C272.392 372.899 271.846 370.848 271.709 368.387C271.572 365.788 271.846 363.737 272.256 363.737C272.666 363.737 273.213 365.788 273.35 368.25C273.486 370.711 273.213 372.899 272.803 372.899Z" fill="#1A2E35"/>
<path d="M272.666 370.985C272.666 370.849 273.076 370.849 273.76 371.122C274.033 371.259 274.444 371.532 274.854 371.806C275.264 372.079 275.674 372.626 276.085 373.173C276.768 374.404 277.042 376.318 275.948 377.959C275.674 378.369 275.401 378.78 274.991 379.053C274.58 379.327 274.17 379.6 273.623 379.737C272.529 380.01 271.435 380.01 270.478 379.463C269.931 379.19 269.521 378.916 269.111 378.506C268.7 378.096 268.427 377.686 268.153 377.139C267.743 376.182 267.743 375.088 267.88 374.267C268.153 373.31 268.564 372.49 269.111 371.943C269.658 371.396 270.478 370.985 271.162 370.849C272.529 370.575 273.623 370.849 274.307 371.122C274.991 371.396 275.264 371.806 275.127 371.943C275.127 372.079 274.717 371.943 274.033 371.806C273.35 371.669 272.529 371.669 271.435 372.079C270.888 372.216 270.478 372.626 270.068 373.037C269.658 373.447 269.384 374.13 269.247 374.677C269.111 375.361 269.247 376.045 269.521 376.729C269.794 377.412 270.341 377.823 271.025 378.096C271.709 378.369 272.529 378.506 273.076 378.233C273.76 378.096 274.307 377.686 274.58 377.139C274.991 376.592 275.127 375.908 275.264 375.361C275.264 375.088 275.264 374.814 275.264 374.541C275.264 374.267 275.127 373.994 274.991 373.72C274.58 372.763 273.897 372.079 273.35 371.669C272.939 371.396 272.666 371.122 272.666 370.985Z" fill="#1A2E35"/>
<path d="M310.27 248.188C310.27 248.188 310.27 248.188 310.134 248.188C309.997 248.188 309.86 248.188 309.723 248.188C309.313 248.188 308.766 248.188 307.946 248.325C306.305 248.325 303.98 248.462 300.972 248.599C294.955 248.872 286.204 249.146 275.401 249.556C253.795 250.376 223.849 251.334 190.894 252.564C187.065 252.701 183.099 252.838 179.544 252.974H179.27V252.701C176.946 222.344 174.895 195.406 173.527 175.988C172.843 166.279 172.296 158.485 171.886 153.152C171.749 150.417 171.613 148.366 171.476 146.998C171.476 146.315 171.339 145.768 171.339 145.358C171.339 145.221 171.339 145.084 171.339 144.947C171.339 144.811 171.339 144.811 171.339 144.811C171.339 144.811 171.339 144.811 171.339 144.947C171.339 145.084 171.339 145.221 171.339 145.358C171.339 145.768 171.476 146.315 171.476 146.998C171.613 148.366 171.749 150.554 172.023 153.152C172.433 158.485 173.117 166.279 173.801 175.988C175.305 195.406 177.493 222.344 179.817 252.701L179.544 252.427C183.099 252.291 187.065 252.154 190.894 252.017C223.849 250.923 253.795 249.829 275.401 249.146C286.204 248.872 294.955 248.599 300.972 248.325C303.98 248.188 306.305 248.188 307.946 248.188C308.766 248.188 309.313 248.188 309.723 248.188C309.86 248.188 310.134 248.188 310.134 248.188C310.27 248.188 310.27 248.188 310.27 248.188Z" fill="#375A64"/>
<path d="M218.652 136.333V139.889L254.753 138.111V135.239L218.652 136.333Z" fill="#1A2E35"/>
<path d="M191.304 245.18H203.884L201.97 211.268H189.663L191.304 245.18Z" fill="#C6368B"/>
<path d="M214.003 245.318H226.584L224.669 197.731H212.362L214.003 245.318Z" fill="#C6368B"/>
<path d="M235.335 243.676H247.915L245.864 181.458H233.694L235.335 243.676Z" fill="#C6368B"/>
<path d="M284.152 241.352H296.733L294.682 156.435H282.375L284.152 241.352Z" fill="#C6368B"/>
<path d="M260.359 241.626H272.939L271.025 168.605H258.718L260.359 241.626Z" fill="#C6368B"/>
<path d="M183.509 202.38C183.236 201.833 205.525 186.928 233.557 169.014C261.453 151.101 284.426 137.016 284.699 137.563C284.973 138.11 262.684 153.015 234.651 170.929C206.756 188.842 183.783 202.926 183.509 202.38Z" fill="#C6368B"/>
<path d="M272.256 137.563C272.119 137.016 280.324 134.965 290.443 133.051L293.041 132.504L291.537 134.692C291.537 134.692 291.537 134.829 291.4 134.829C285.657 143.443 280.46 150.144 279.913 149.87C279.366 149.597 283.742 142.213 289.485 133.598C289.485 133.598 289.485 133.461 289.622 133.461L290.716 135.102C280.734 137.016 272.392 138.11 272.256 137.563Z" fill="#C6368B"/>
<path d="M189.663 256.804H202.653L203.2 259.128H189.663V256.804Z" fill="#1A2E35"/>
<path d="M212.772 255.847H225.9L226.31 258.171H212.772V255.847Z" fill="#1A2E35"/>
<path d="M236.703 255.163H249.83L250.24 257.488H236.703V255.163Z" fill="#1A2E35"/>
<path d="M258.992 254.479H272.119L272.529 256.941H258.992V254.479Z" fill="#1A2E35"/>
<path d="M286.75 253.659H299.878L300.288 256.121H286.75V253.659Z" fill="#1A2E35"/>
<path d="M345.55 346.37C368.66 346.37 387.393 327.637 387.393 304.527C387.393 281.418 368.66 262.684 345.55 262.684C322.441 262.684 303.707 281.418 303.707 304.527C303.707 327.637 322.441 346.37 345.55 346.37Z" fill="#C6368B"/>
<path opacity="0.3" d="M345.55 346.37C368.66 346.37 387.393 327.637 387.393 304.527C387.393 281.418 368.66 262.684 345.55 262.684C322.441 262.684 303.707 281.418 303.707 304.527C303.707 327.637 322.441 346.37 345.55 346.37Z" fill="black"/>
<path d="M345.55 304.527L304.801 313.689C298.237 283.605 322.44 262.684 345.55 262.684" fill="#C6368B"/>
<path d="M345.55 304.527L345.277 262.684C376.044 262.684 391.359 290.853 386.436 313.415L345.55 304.527Z" fill="#C6368B"/>
<path d="M345.55 304.527L345.277 262.684C376.044 262.684 391.359 290.853 386.436 313.415L345.55 304.527Z" fill="#C6368B"/>
<path opacity="0.1" d="M345.55 304.527L345.277 262.684C376.044 262.684 391.359 290.853 386.436 313.415L345.55 304.527Z" fill="black"/>
<path d="M388.487 205.526C388.487 205.663 387.667 204.842 385.889 204.159C384.112 203.475 381.377 203.338 378.232 204.432C375.087 205.389 371.805 207.987 368.796 211.133C365.651 214.278 362.37 218.243 357.584 220.431C355.259 221.525 352.524 222.072 350.063 221.662C347.601 221.252 345.413 220.158 343.362 219.337C341.311 218.38 339.397 217.56 337.482 217.286C335.568 217.013 333.79 217.286 332.286 217.97C329.278 219.337 327.5 221.525 326.68 223.166C325.859 224.807 325.859 225.901 325.722 225.901C325.722 225.901 325.722 224.807 326.406 223.029C327.227 221.252 328.867 218.927 332.013 217.423C333.517 216.739 335.568 216.329 337.619 216.602C339.67 216.876 341.721 217.696 343.636 218.653C345.687 219.611 347.738 220.568 350.063 220.978C352.387 221.388 354.849 220.841 357.173 219.747C361.823 217.56 365.104 213.731 368.249 210.586C371.395 207.441 374.676 204.842 377.958 203.885C381.24 202.928 384.112 203.201 385.889 203.885C386.847 204.295 387.394 204.706 387.804 204.979C388.214 205.389 388.487 205.526 388.487 205.526Z" fill="#1A2E35"/>
<path d="M391.906 232.602C391.906 232.738 377.001 233.012 358.814 233.012C340.491 233.012 325.722 232.875 325.722 232.602C325.722 232.465 340.627 232.191 358.814 232.191C377.138 232.191 391.906 232.465 391.906 232.602Z" fill="#1A2E35"/>
<path d="M388.214 232.601C388.077 232.601 387.804 224.123 387.804 213.731C387.804 203.338 387.941 194.86 388.214 194.86C388.351 194.86 388.624 203.338 388.624 213.731C388.624 224.123 388.488 232.601 388.214 232.601Z" fill="#1A2E35"/>
<path d="M332.286 216.739C332.286 216.739 332.149 216.602 332.286 216.328C332.423 216.055 332.56 215.782 333.107 215.645C333.517 215.508 334.2 215.371 334.747 215.918C335.294 216.328 335.294 217.286 334.884 217.969C334.474 218.516 333.653 218.927 332.97 218.516C332.423 218.106 332.149 217.559 332.149 217.149C332.149 216.739 332.423 216.328 332.56 216.192C332.696 216.055 332.97 216.055 332.97 216.055C332.97 216.192 332.56 216.465 332.696 217.149C332.696 217.422 332.97 217.833 333.243 217.969C333.517 218.106 334.064 217.969 334.337 217.559C334.611 217.149 334.611 216.739 334.337 216.465C334.064 216.192 333.653 216.192 333.38 216.192C332.56 216.192 332.423 216.739 332.286 216.739Z" fill="#1A2E35"/>
<path d="M377.001 202.928C377.001 202.928 377.001 202.791 377.275 202.654C377.548 202.518 377.822 202.381 378.368 202.518C378.779 202.654 379.326 202.928 379.462 203.612C379.599 204.295 379.052 205.116 378.368 205.252C377.685 205.526 376.864 205.252 376.591 204.569C376.317 203.885 376.591 203.338 376.864 203.065C377.138 202.654 377.548 202.518 377.821 202.518C378.095 202.518 378.232 202.654 378.232 202.654C378.232 202.791 377.685 202.791 377.411 203.338C377.275 203.612 377.138 204.022 377.275 204.295C377.411 204.569 377.821 204.705 378.232 204.569C378.642 204.432 378.915 204.022 378.915 203.748C378.915 203.338 378.642 203.065 378.232 202.928C377.548 202.791 377.138 203.065 377.001 202.928Z" fill="#1A2E35"/>
<path d="M387.12 158.212C387.12 158.349 372.762 158.622 354.985 158.622C337.209 158.622 322.851 158.485 322.851 158.212C322.851 158.075 337.209 157.802 354.985 157.802C372.762 157.939 387.12 158.075 387.12 158.212Z" fill="#1A2E35"/>
<path d="M387.12 167.237C387.12 167.374 372.762 167.648 354.985 167.648C337.209 167.648 322.851 167.511 322.851 167.237C322.851 167.101 337.209 166.827 354.985 166.827C372.762 166.827 387.12 166.964 387.12 167.237Z" fill="#1A2E35"/>
<path d="M387.12 176.126C387.12 176.263 372.762 176.536 354.985 176.536C337.209 176.536 322.851 176.4 322.851 176.126C322.851 175.989 337.209 175.716 354.985 175.716C372.762 175.716 387.12 175.853 387.12 176.126Z" fill="#1A2E35"/>
<path d="M387.12 185.014C387.12 185.15 372.762 185.424 354.985 185.424C337.209 185.424 322.851 185.287 322.851 185.014C322.851 184.877 337.209 184.604 354.985 184.604C372.762 184.604 387.12 184.877 387.12 185.014Z" fill="#1A2E35"/>
<path d="M357.037 141.939H322.851V144.811H357.037V141.939Z" fill="#1A2E35"/>
<path d="M215.918 285.246H181.732V288.118H215.918V285.246Z" fill="#1A2E35"/>
<path d="M275.264 301.93C275.264 302.067 254.479 302.34 228.908 302.34C203.337 302.34 182.552 302.203 182.552 301.93C182.552 301.793 203.337 301.52 228.908 301.52C254.479 301.52 275.264 301.656 275.264 301.93Z" fill="#1A2E35"/>
<path d="M275.811 309.996C275.811 310.133 254.753 310.406 228.635 310.406C202.653 310.406 181.458 310.27 181.458 309.996C181.458 309.859 202.517 309.586 228.635 309.586C254.753 309.723 275.811 309.859 275.811 309.996Z" fill="#1A2E35"/>
<path d="M276.905 317.655C276.905 317.792 255.71 318.066 229.455 318.066C203.2 318.066 182.005 317.929 182.005 317.655C182.005 317.519 203.2 317.245 229.455 317.245C255.71 317.245 276.905 317.382 276.905 317.655Z" fill="#1A2E35"/>
<path d="M231.369 325.722C231.369 325.859 220.43 326.132 207.029 326.132C193.492 326.132 182.689 325.995 182.689 325.722C182.689 325.585 193.628 325.312 207.029 325.312C220.43 325.448 231.369 325.585 231.369 325.722Z" fill="#1A2E35"/>
<path d="M82.4562 547.111V534.804L59.3466 534.667L59.2098 552.717L60.5772 552.854C67.0042 553.264 93.1221 554.358 97.3612 553.127C102.147 551.623 82.4562 547.111 82.4562 547.111Z" fill="#C6368B"/>
<path d="M97.9081 551.897C97.9081 552.17 89.2933 552.307 78.6273 552.307C67.9614 552.307 59.3466 552.17 59.3466 551.897C59.3466 551.623 67.9614 551.486 78.6273 551.486C89.2933 551.623 97.9081 551.76 97.9081 551.897Z" fill="#1A2E35"/>
<path d="M82.8664 549.709C82.7296 549.573 82.8664 548.889 83.2766 548.342C83.8236 547.658 84.3706 547.385 84.5073 547.521C84.6441 547.658 84.3706 548.205 83.8236 548.889C83.5501 549.299 83.1399 549.709 82.8664 549.709Z" fill="#1A2E35"/>
<path d="M84.3706 550.394C84.2338 550.257 84.2338 549.573 84.7808 548.753C85.191 547.932 85.8747 547.522 86.0115 547.659C86.1482 547.795 85.8747 548.479 85.4645 549.163C84.9175 549.983 84.5073 550.53 84.3706 550.394Z" fill="#1A2E35"/>
<path d="M66.1837 551.897C66.047 551.897 65.7735 551.624 65.2265 551.077C64.6795 550.53 63.9958 549.709 63.1754 549.162C62.3549 548.479 61.3977 548.205 60.714 548.068C60.0303 547.932 59.62 548.068 59.4833 547.932C59.4833 547.795 59.8935 547.521 60.714 547.521C61.5344 547.521 62.6284 547.795 63.7223 548.479C64.6795 549.162 65.3633 550.12 65.7735 550.667C66.047 551.35 66.3205 551.761 66.1837 551.897Z" fill="#1A2E35"/>
<path d="M83.0031 547.384C83.1399 547.521 82.7296 548.068 82.0459 548.205C81.3622 548.478 80.8152 548.342 80.8152 548.068C80.8152 547.795 81.2255 547.658 81.7724 547.384C82.3194 547.248 82.8664 547.111 83.0031 547.384Z" fill="#1A2E35"/>
<path d="M82.5929 546.153C82.5929 546.427 82.0459 546.564 81.2255 546.564C80.405 546.564 79.858 546.427 79.858 546.153C79.858 545.88 80.5418 545.743 81.2255 545.743C81.9092 545.743 82.5929 545.88 82.5929 546.153Z" fill="#C6368B"/>
<path d="M97.9081 551.897C97.9081 552.17 89.2933 552.307 78.6273 552.307C67.9614 552.307 59.3466 552.17 59.3466 551.897C59.3466 551.623 67.9614 551.486 78.6273 551.486C89.2933 551.623 97.9081 551.76 97.9081 551.897Z" fill="#1A2E35"/>
<path d="M82.8664 549.709C82.7296 549.573 82.8664 548.889 83.2766 548.342C83.8236 547.658 84.3706 547.385 84.5073 547.521C84.6441 547.658 84.3706 548.205 83.8236 548.889C83.5501 549.299 83.1399 549.709 82.8664 549.709Z" fill="#1A2E35"/>
<path d="M84.3706 550.393C84.2338 550.256 84.2338 549.572 84.7808 548.752C85.191 547.931 85.8747 547.521 86.0115 547.658C86.1482 547.794 85.8747 548.478 85.4645 549.162C84.9175 549.982 84.5073 550.529 84.3706 550.393Z" fill="#1A2E35"/>
<path d="M66.1837 551.896C66.047 551.896 65.7735 551.623 65.2265 551.076C64.6795 550.529 63.9958 549.708 63.1754 549.161C62.3549 548.478 61.3977 548.204 60.714 548.068C60.0303 547.931 59.62 548.068 59.4833 547.931C59.4833 547.794 59.8935 547.521 60.714 547.521C61.5344 547.521 62.6284 547.794 63.7223 548.478C64.6795 549.161 65.3633 550.119 65.7735 550.666C66.047 551.349 66.3205 551.76 66.1837 551.896Z" fill="#1A2E35"/>
<path d="M83.0031 547.384C83.1399 547.521 82.7296 548.068 82.0459 548.205C81.3622 548.478 80.8152 548.342 80.8152 548.068C80.8152 547.795 81.2255 547.658 81.7724 547.384C82.3194 547.248 82.8664 547.111 83.0031 547.384Z" fill="#1A2E35"/>
<path d="M82.5929 546.153C82.5929 546.427 82.0459 546.564 81.2255 546.564C80.405 546.564 79.858 546.427 79.858 546.153C79.858 545.88 80.5418 545.743 81.2255 545.743C81.9092 545.743 82.5929 545.88 82.5929 546.153Z" fill="#1A2E35"/>
<path d="M106.933 542.735L110.625 530.975L88.6096 524.001L83.1399 541.231L84.5073 541.778C90.524 544.102 115.138 552.854 119.514 552.991C124.3 552.854 106.933 542.735 106.933 542.735Z" fill="#C6368B"/>
<path d="M120.197 551.896C120.197 552.169 111.856 549.708 101.6 546.563C91.3445 543.418 83.1399 540.683 83.2766 540.409C83.2766 540.136 91.618 542.597 101.874 545.742C111.993 549.024 120.197 551.759 120.197 551.896Z" fill="#1A2E35"/>
<path d="M106.523 545.333C106.386 545.196 106.796 544.649 107.343 544.102C108.027 543.692 108.711 543.555 108.711 543.692C108.848 543.829 108.301 544.376 107.754 544.786C107.207 545.196 106.66 545.47 106.523 545.333Z" fill="#1A2E35"/>
<path d="M107.754 546.426C107.617 546.289 107.89 545.605 108.574 545.058C109.258 544.511 109.942 544.238 110.078 544.375C110.215 544.511 109.805 545.058 109.121 545.605C108.437 546.152 107.89 546.563 107.754 546.426Z" fill="#1A2E35"/>
<path d="M89.977 542.461C89.8403 542.461 89.7036 542.051 89.2933 541.367C89.0198 540.683 88.6096 539.726 87.9259 538.906C87.2422 538.085 86.4217 537.402 85.8747 537.128C85.191 536.855 84.7808 536.855 84.7808 536.718C84.7808 536.581 85.3278 536.444 86.0115 536.581C86.8319 536.718 87.7891 537.402 88.6096 538.359C89.2933 539.316 89.7035 540.41 89.8403 541.094C89.977 541.914 89.977 542.461 89.977 542.461Z" fill="#375A64"/>
<path d="M107.343 543.009C107.343 543.282 106.933 543.556 106.113 543.556C105.429 543.556 104.882 543.282 104.882 543.146C104.882 542.872 105.429 542.872 106.113 542.735C106.66 542.735 107.207 542.872 107.343 543.009Z" fill="#1A2E35"/>
<path d="M107.343 541.778C107.343 542.051 106.66 542.051 105.839 541.778C105.156 541.504 104.609 541.231 104.609 540.957C104.745 540.82 105.292 540.82 106.113 540.957C106.796 541.231 107.343 541.641 107.343 541.778Z" fill="#1A2E35"/>
<path d="M122.659 302.613L92.3017 300.289L46.2192 296.597L51.4154 543.828L91.3445 543.281C91.3445 543.281 91.3445 540.547 91.2077 535.761L114.591 542.187C114.591 542.187 137.427 465.064 145.221 433.34C151.785 406.948 122.659 302.613 122.659 302.613ZM90.7975 497.336C90.2505 440.314 89.4301 343.226 90.3873 331.329C90.3873 331.329 112.676 416.794 112.813 423.494C112.95 427.597 100.506 466.979 90.7975 497.336Z" fill="#375A64"/>
<path d="M91.4812 533.983C91.4812 534.257 82.5929 534.394 71.5167 534.394C60.4405 534.394 51.5522 534.257 51.5522 533.983C51.5522 533.71 60.4405 533.573 71.5167 533.573C82.5929 533.573 91.4812 533.71 91.4812 533.983Z" fill="#375A64"/>
<path d="M91.2077 525.095C91.2077 524.958 92.5752 525.505 94.8998 526.326C97.4979 527.283 100.643 528.377 104.062 529.471C107.48 530.702 110.625 531.796 113.223 532.616C115.548 533.436 117.052 533.983 116.915 534.12C116.915 534.257 115.411 533.847 112.95 533.163C110.625 532.479 107.343 531.385 103.651 530.155C100.096 528.924 96.8142 527.693 94.6263 526.736C92.3017 525.779 91.2077 525.232 91.2077 525.095Z" fill="#375A64"/>
<path d="M127.855 422.812C127.855 423.086 124.436 423.496 120.334 423.769C116.095 424.043 112.813 424.18 112.813 423.906C112.813 423.633 116.232 423.222 120.334 422.949C124.436 422.675 127.718 422.539 127.855 422.812Z" fill="#375A64"/>
<path d="M125.12 427.188C125.12 427.461 122.522 426.778 119.377 425.957C116.232 425 113.77 424.179 113.77 423.906C113.77 423.632 116.368 424.316 119.514 425.137C122.795 426.094 125.257 427.051 125.12 427.188Z" fill="#375A64"/>
<path d="M93.9426 300.699C94.0793 300.699 94.0793 302.477 94.2161 305.348C94.2161 308.22 94.2161 312.322 94.2161 316.698C94.2161 318.886 94.2161 321.074 94.0793 322.988C94.0793 324.903 93.8058 326.68 93.1221 328.048C92.4384 329.415 91.618 330.236 90.9342 330.783C90.2505 331.193 89.8403 331.33 89.8403 331.33C89.8403 331.33 90.2505 331.056 90.7975 330.509C91.3445 329.962 92.1649 329.142 92.7119 327.774C93.2589 326.544 93.5324 324.766 93.3956 322.852C93.3956 320.937 93.3956 318.749 93.3956 316.561C93.3956 312.186 93.5324 308.083 93.5324 305.212C93.8058 302.477 93.9426 300.699 93.9426 300.699Z" fill="#375A64"/>
<path d="M71.1065 299.195C71.1065 299.195 71.1065 299.469 71.1065 299.742C71.1065 300.153 71.1065 300.699 71.1065 301.52C71.1065 303.161 70.9697 305.349 70.833 308.357C70.6962 314.237 70.4228 322.852 70.0125 333.381C69.3288 354.576 68.7818 383.703 68.5083 415.974C68.3716 448.245 68.6451 477.508 69.1921 498.567C69.4655 509.096 69.6023 517.711 69.739 523.591C69.739 526.463 69.8758 528.787 69.8758 530.428C69.8758 531.249 69.8758 531.796 69.8758 532.206C69.8758 532.616 69.8758 532.753 69.8758 532.753C69.8758 532.753 69.8758 532.616 69.8758 532.206C69.8758 531.796 69.8758 531.249 69.739 530.428C69.739 528.787 69.6023 526.599 69.4655 523.591C69.1921 517.711 68.9186 509.096 68.6451 498.567C68.0981 477.372 67.6879 448.245 67.8246 415.837C67.9614 383.566 68.7818 354.303 69.4655 333.244C69.8758 322.715 70.1493 314.1 70.5595 308.22C70.6962 305.349 70.833 303.024 70.9697 301.383C70.9697 300.699 71.1065 300.016 71.1065 299.606C71.1065 299.469 71.1065 299.195 71.1065 299.195Z" fill="#375A64"/>
<path d="M112.676 305.485C112.676 305.485 112.813 305.622 112.813 306.032C112.95 306.443 113.087 306.99 113.36 307.673C113.77 309.177 114.454 311.365 115.275 314.1C116.779 319.707 118.967 327.911 121.291 338.03C123.616 348.149 126.351 360.319 129.086 373.857C131.82 387.395 134.692 402.3 137.29 417.888C137.564 419.803 137.974 421.854 138.111 423.768C138.111 424.315 138.247 424.862 138.247 425.272L138.111 426.777C137.974 427.734 137.837 428.691 137.564 429.648C136.743 433.477 135.923 437.169 134.966 440.861C133.051 448.109 131.137 455.082 129.222 461.783C125.394 475.047 121.701 486.807 118.42 496.789C115.275 506.771 112.676 514.702 110.762 520.309C109.805 523.044 109.121 525.232 108.574 526.599C108.301 527.283 108.164 527.83 108.027 528.24C107.89 528.65 107.754 528.787 107.754 528.787C107.754 528.787 107.754 528.65 107.89 528.24C108.027 527.83 108.164 527.283 108.437 526.599C108.848 525.095 109.531 522.907 110.489 520.172C112.266 514.566 114.728 506.498 117.873 496.652C121.018 486.67 124.573 474.91 128.402 461.646C130.316 455.082 132.231 448.109 134.145 440.861C135.102 437.169 135.923 433.477 136.743 429.785C137.017 428.828 137.017 427.871 137.29 426.913L137.564 425.409C137.564 424.999 137.564 424.452 137.427 424.042C137.153 422.127 136.88 420.213 136.606 418.162C134.008 402.436 131.137 387.668 128.402 374.13C125.667 360.593 123.069 348.423 120.744 338.304C118.42 328.185 116.368 319.98 114.864 314.374C114.181 311.502 113.497 309.451 113.087 307.947C112.95 307.263 112.676 306.716 112.676 306.306C112.676 305.622 112.676 305.485 112.676 305.485Z" fill="#375A64"/>
<path d="M90.6608 492.276C90.6608 492.276 90.7975 492.96 90.7975 494.191C90.7975 495.558 90.7975 497.336 90.9342 499.524C90.9342 504.173 91.071 510.19 91.2077 516.89C91.3445 523.591 91.618 529.744 91.618 534.257C91.618 536.444 91.7547 538.085 91.7547 539.59C91.7547 540.82 91.7547 541.504 91.7547 541.504C91.7547 541.504 91.618 540.82 91.4812 539.59C91.3445 538.359 91.2077 536.581 91.071 534.393C90.7975 529.881 90.524 523.864 90.3873 517.027C90.2505 510.19 90.2505 504.036 90.3873 499.66C90.3873 497.473 90.524 495.695 90.524 494.328C90.524 492.96 90.6608 492.276 90.6608 492.276Z" fill="#375A64"/>
<path d="M122.659 302.613L92.3017 300.289L46.2192 296.597L51.4154 543.828L91.3445 543.281C91.3445 543.281 91.3445 540.547 91.2077 535.761L114.591 542.187C114.591 542.187 137.427 465.064 145.221 433.34C151.785 406.948 122.659 302.613 122.659 302.613ZM90.7975 497.336C90.2505 440.314 89.4301 343.226 90.3873 331.329C90.3873 331.329 112.676 416.794 112.813 423.494C112.95 427.597 100.506 466.979 90.7975 497.336Z" fill="#261363"/>
<path d="M91.4812 533.983C91.4812 534.257 82.5929 534.394 71.5167 534.394C60.4405 534.394 51.5522 534.257 51.5522 533.983C51.5522 533.71 60.4405 533.573 71.5167 533.573C82.5929 533.573 91.4812 533.71 91.4812 533.983Z" fill="#375A64"/>
<path d="M91.2077 525.095C91.2077 524.958 92.5752 525.505 94.8998 526.326C97.4979 527.283 100.643 528.377 104.062 529.471C107.48 530.702 110.625 531.796 113.223 532.616C115.548 533.436 117.052 533.983 116.915 534.12C116.915 534.257 115.411 533.847 112.95 533.163C110.625 532.479 107.343 531.385 103.651 530.155C100.096 528.924 96.8142 527.693 94.6263 526.736C92.3017 525.779 91.2077 525.232 91.2077 525.095Z" fill="#375A64"/>
<path d="M127.855 422.812C127.855 423.086 124.436 423.496 120.334 423.769C116.095 424.043 112.813 424.18 112.813 423.906C112.813 423.633 116.232 423.222 120.334 422.949C124.436 422.675 127.718 422.539 127.855 422.812Z" fill="#375A64"/>
<path d="M125.12 427.188C125.12 427.461 122.522 426.778 119.377 425.957C116.232 425 113.77 424.179 113.77 423.906C113.77 423.632 116.368 424.316 119.514 425.137C122.795 426.094 125.257 427.051 125.12 427.188Z" fill="#375A64"/>
<path d="M93.9426 300.699C94.0793 300.699 94.0793 302.477 94.2161 305.348C94.2161 308.22 94.2161 312.322 94.2161 316.698C94.2161 318.886 94.2161 321.074 94.0793 322.988C94.0793 324.903 93.8058 326.68 93.1221 328.048C92.4384 329.415 91.618 330.236 90.9342 330.783C90.2505 331.193 89.8403 331.33 89.8403 331.33C89.8403 331.33 90.2505 331.056 90.7975 330.509C91.3445 329.962 92.1649 329.142 92.7119 327.774C93.2589 326.544 93.5324 324.766 93.3956 322.852C93.3956 320.937 93.3956 318.749 93.3956 316.561C93.3956 312.186 93.5324 308.083 93.5324 305.212C93.8058 302.477 93.9426 300.699 93.9426 300.699Z" fill="#375A64"/>
<path d="M71.1065 299.195C71.1065 299.195 71.1065 299.469 71.1065 299.742C71.1065 300.153 71.1065 300.699 71.1065 301.52C71.1065 303.161 70.9697 305.349 70.833 308.357C70.6962 314.237 70.4228 322.852 70.0125 333.381C69.3288 354.576 68.7818 383.703 68.5083 415.974C68.3716 448.245 68.6451 477.508 69.1921 498.567C69.4655 509.096 69.6023 517.711 69.739 523.591C69.739 526.463 69.8758 528.787 69.8758 530.428C69.8758 531.249 69.8758 531.796 69.8758 532.206C69.8758 532.616 69.8758 532.753 69.8758 532.753C69.8758 532.753 69.8758 532.616 69.8758 532.206C69.8758 531.796 69.8758 531.249 69.739 530.428C69.739 528.787 69.6023 526.599 69.4655 523.591C69.1921 517.711 68.9186 509.096 68.6451 498.567C68.0981 477.372 67.6879 448.245 67.8246 415.837C67.9614 383.566 68.7818 354.303 69.4655 333.244C69.8758 322.715 70.1493 314.1 70.5595 308.22C70.6962 305.349 70.833 303.024 70.9697 301.383C70.9697 300.699 71.1065 300.016 71.1065 299.606C71.1065 299.469 71.1065 299.195 71.1065 299.195Z" fill="#375A64"/>
<path d="M112.676 305.485C112.676 305.485 112.813 305.622 112.813 306.032C112.95 306.443 113.087 306.99 113.36 307.673C113.77 309.177 114.454 311.365 115.275 314.1C116.779 319.707 118.967 327.911 121.291 338.03C123.616 348.149 126.351 360.319 129.086 373.857C131.82 387.395 134.692 402.3 137.29 417.888C137.564 419.803 137.974 421.854 138.111 423.768C138.111 424.315 138.247 424.862 138.247 425.272L138.111 426.777C137.974 427.734 137.837 428.691 137.564 429.648C136.743 433.477 135.923 437.169 134.966 440.861C133.051 448.109 131.137 455.082 129.222 461.783C125.394 475.047 121.701 486.807 118.42 496.789C115.275 506.771 112.676 514.702 110.762 520.309C109.805 523.044 109.121 525.232 108.574 526.599C108.301 527.283 108.164 527.83 108.027 528.24C107.89 528.65 107.754 528.787 107.754 528.787C107.754 528.787 107.754 528.65 107.89 528.24C108.027 527.83 108.164 527.283 108.437 526.599C108.848 525.095 109.531 522.907 110.489 520.172C112.266 514.566 114.728 506.498 117.873 496.652C121.018 486.67 124.573 474.91 128.402 461.646C130.316 455.082 132.231 448.109 134.145 440.861C135.102 437.169 135.923 433.477 136.743 429.785C137.017 428.828 137.017 427.871 137.29 426.913L137.564 425.409C137.564 424.999 137.564 424.452 137.427 424.042C137.153 422.127 136.88 420.213 136.606 418.162C134.008 402.436 131.137 387.668 128.402 374.13C125.667 360.593 123.069 348.423 120.744 338.304C118.42 328.185 116.368 319.98 114.864 314.374C114.181 311.502 113.497 309.451 113.087 307.947C112.95 307.263 112.676 306.716 112.676 306.306C112.676 305.622 112.676 305.485 112.676 305.485Z" fill="#375A64"/>
<path d="M90.6608 492.276C90.6608 492.276 90.7975 492.96 90.7975 494.191C90.7975 495.558 90.7975 497.336 90.9342 499.524C90.9342 504.173 91.071 510.19 91.2077 516.89C91.3445 523.591 91.618 529.744 91.618 534.257C91.618 536.444 91.7547 538.085 91.7547 539.59C91.7547 540.82 91.7547 541.504 91.7547 541.504C91.7547 541.504 91.618 540.82 91.4812 539.59C91.3445 538.359 91.2077 536.581 91.071 534.393C90.7975 529.881 90.524 523.864 90.3873 517.027C90.2505 510.19 90.2505 504.036 90.3873 499.66C90.3873 497.473 90.524 495.695 90.524 494.328C90.524 492.96 90.6608 492.276 90.6608 492.276Z" fill="#375A64"/>
<path d="M70.1493 184.057L93.3956 185.834C93.6691 183.099 94.2161 172.707 94.2161 172.707C94.2161 172.707 103.925 171.75 104.609 162.178C105.292 152.606 105.019 130.453 105.019 130.453C94.2161 124.984 81.2255 125.804 71.2432 132.641L69.739 133.462L70.1493 184.057Z" fill="#F4BBAC"/>
<path d="M101.737 146.727C101.19 146.18 101.19 145.223 101.737 144.813C102.284 144.266 103.241 144.266 103.651 144.813C104.198 145.36 104.198 146.317 103.651 146.727C103.241 147.274 102.284 147.274 101.737 146.727Z" fill="#1A2E35"/>
<path d="M104.198 144.675C104.062 144.812 103.104 143.991 101.874 143.991C100.506 143.855 99.5491 144.538 99.4123 144.402C99.4123 144.265 99.5491 143.991 99.9593 143.718C100.37 143.444 101.053 143.171 101.874 143.171C102.694 143.171 103.378 143.581 103.788 143.991C104.198 144.265 104.335 144.538 104.198 144.675Z" fill="#1A2E35"/>
<path d="M88.8831 144.811C89.5668 145.221 89.7035 146.178 89.1566 146.725C88.7463 147.409 87.7891 147.546 87.2422 146.999C86.5584 146.588 86.4217 145.631 86.9687 145.084C87.3789 144.537 88.3361 144.401 88.8831 144.811Z" fill="#1A2E35"/>
<path d="M89.8403 144.948C89.7035 145.084 88.7463 144.264 87.5157 144.264C86.1482 144.127 85.191 144.811 85.0543 144.674C85.0543 144.537 85.191 144.264 85.6012 143.99C86.0115 143.717 86.6952 143.443 87.5157 143.443C88.3361 143.443 89.0198 143.854 89.4301 144.264C89.7035 144.537 89.8403 144.811 89.8403 144.948Z" fill="#1A2E35"/>
<path d="M94.4896 156.161C94.4896 156.024 95.31 155.888 96.6774 155.888C97.0877 155.888 97.3612 155.751 97.3612 155.614C97.4979 155.341 97.3612 155.067 97.2244 154.657C96.9509 153.7 96.6775 152.879 96.404 151.922C95.1733 147.957 94.3528 144.812 94.4896 144.675C94.6263 144.675 95.857 147.683 96.9509 151.649C97.2244 152.606 97.4979 153.563 97.7714 154.384C97.9081 154.794 98.0449 155.204 97.9081 155.888C97.7714 156.161 97.4979 156.298 97.2244 156.435C96.9509 156.435 96.8142 156.435 96.6774 156.435C95.31 156.298 94.4896 156.298 94.4896 156.161Z" fill="#1A2E35"/>
<path d="M90.1138 157.392C88.7463 156.435 93.8058 159.58 96.5407 159.717C96.5407 159.717 94.8998 162.041 92.1649 160.947C89.1566 159.58 90.1138 157.392 90.1138 157.392Z" fill="white"/>
<path d="M94.2161 172.433C94.2161 172.433 88.0626 172.57 81.9092 168.058C81.9092 168.058 84.5073 175.168 94.0793 174.895L94.2161 172.433Z" fill="#EF8876"/>
<path d="M71.5167 141.94C71.2432 141.803 64.406 140.983 65.0898 149.188C65.7735 157.392 73.8413 153.974 73.8413 153.7C73.7046 153.563 71.5167 141.94 71.5167 141.94Z" fill="#F4BBAC"/>
<path d="M71.1065 151.103C71.1065 151.103 70.9697 151.239 70.6962 151.376C70.4228 151.513 70.0125 151.65 69.6023 151.513C68.7818 151.239 67.8246 150.009 67.6879 148.505C67.5511 147.821 67.6879 147 67.9614 146.453C68.0981 145.77 68.5083 145.359 68.9186 145.223C69.3288 145.086 69.739 145.36 69.739 145.496C69.8758 145.77 69.8758 145.906 69.8758 145.906C69.8758 145.906 70.0125 145.77 70.0125 145.359C70.0125 145.223 69.8758 144.949 69.6023 144.813C69.3288 144.676 69.0553 144.676 68.7818 144.676C68.0981 144.813 67.6879 145.359 67.4144 146.043C67.1409 146.727 67.0042 147.547 67.1409 148.368C67.2777 150.009 68.2349 151.513 69.4655 151.786C70.0125 151.923 70.5595 151.65 70.6962 151.513C71.1065 151.239 71.1065 151.103 71.1065 151.103Z" fill="#EF8876"/>
<path d="M105.703 126.899C107.89 126.899 109.668 124.437 109.121 122.25C108.437 120.198 105.703 119.105 103.788 120.198C104.882 119.241 105.976 118.147 106.523 116.78C107.07 115.412 106.933 113.635 105.839 112.678C104.745 111.72 102.968 111.857 101.737 112.404C99.6858 113.225 98.0449 115.002 95.9937 115.686C93.9426 116.37 91.618 116.096 89.2933 116.096C86.8319 116.233 84.3706 116.917 82.3194 118.421C80.6785 119.788 79.4478 121.839 79.3111 123.891C79.0376 123.48 78.7641 123.207 78.3539 122.797C76.4395 120.882 74.3883 120.062 74.2516 120.198C74.1148 120.335 76.0292 121.429 77.8069 123.344C78.3539 123.891 78.7641 124.301 79.1743 124.848C76.0292 124.437 72.6106 124.437 70.1493 126.352C68.0981 127.993 67.1409 130.728 67.1409 133.463C67.1409 136.061 68.2349 138.659 69.0553 141.257C69.4656 142.761 70.0125 143.308 70.0125 143.308L71.2432 150.145L75.4823 150.008L75.2088 135.65C75.2088 135.65 74.7985 129.634 79.9948 130.181C85.191 130.728 92.3017 136.608 102.421 135.103C104.062 134.83 105.703 134.693 107.207 133.736C108.574 132.779 109.531 131.138 109.395 129.497C108.984 127.993 107.343 126.625 105.703 126.899Z" fill="#1A2E35"/>
<path d="M192.671 197.594L193.355 193.219C193.355 193.219 194.175 190.621 194.586 185.971C194.722 184.741 194.586 183.51 194.312 182.279C193.902 180.775 193.355 178.997 192.671 178.04C191.851 176.946 192.945 175.305 194.175 175.852C195.406 176.262 197.594 179.408 198.414 183.92C199.098 188.433 202.653 182.142 204.021 179.955C205.388 177.767 209.764 171.066 210.721 170.93C212.225 170.793 212.636 172.297 211.268 174.485C209.901 176.673 206.209 183.51 207.439 184.194C207.439 184.194 209.217 183.92 210.174 184.33C210.448 184.467 210.721 184.741 210.721 185.014C210.721 186.245 210.995 187.065 210.995 187.065C210.995 187.065 212.772 186.655 213.183 187.475C213.593 188.296 213.593 189.937 213.593 189.937C213.593 189.937 214.96 189.527 215.644 189.937C217.011 191.031 215.234 192.945 215.234 192.945C210.995 198.415 202.243 206.483 202.243 206.483L192.808 197.458" fill="#F4BBAC"/>
<path d="M210.174 187.202C210.311 187.202 209.627 188.159 208.533 189.526C207.986 190.21 207.303 190.894 206.482 191.714C206.072 192.124 205.662 192.535 205.115 192.945C204.568 193.355 203.747 193.629 202.927 193.218C202.517 192.945 202.243 192.535 202.243 192.124C202.243 191.714 202.38 191.304 202.517 191.03C202.927 190.347 203.337 190.073 203.611 189.526C204.294 188.706 204.841 187.885 205.388 187.065C206.346 185.697 206.892 184.74 206.892 184.74C207.029 184.74 206.619 185.834 205.799 187.338C205.388 188.022 204.841 188.979 204.158 189.936C203.884 190.347 203.337 190.894 203.2 191.304C202.927 191.714 202.927 192.261 203.337 192.535C203.747 192.808 204.294 192.671 204.705 192.398C205.115 192.124 205.525 191.714 205.935 191.304C206.756 190.483 207.439 189.8 208.123 189.253C209.491 188.022 210.174 187.202 210.174 187.202Z" fill="#EF8876"/>
<path d="M212.636 190.073C212.636 190.073 212.089 190.893 211.132 191.987C210.585 192.534 209.901 193.218 209.08 193.765C208.67 194.038 208.26 194.312 207.713 194.585C207.439 194.722 207.166 194.859 206.756 194.859C206.482 194.859 205.935 194.859 205.662 194.585C204.978 194.038 205.115 193.081 205.388 192.534C205.662 191.987 206.072 191.577 206.346 191.167C206.892 190.483 207.576 189.799 208.123 189.116C209.08 188.022 209.764 187.338 209.901 187.338C210.038 187.338 209.491 188.158 208.533 189.389C207.986 190.073 207.439 190.756 206.893 191.577C206.619 191.987 206.209 192.397 206.072 192.808C205.799 193.218 205.935 193.765 206.209 193.902C206.482 194.175 207.029 194.038 207.439 193.765C207.85 193.491 208.397 193.218 208.807 192.944C209.627 192.397 210.311 191.85 210.858 191.303C211.815 190.62 212.499 189.936 212.636 190.073Z" fill="#EF8876"/>
<path d="M213.183 194.039C213.183 194.039 213.183 194.586 212.499 195.406C212.225 195.816 211.679 196.226 210.995 196.226C210.585 196.226 210.174 196.09 209.901 195.816C209.627 195.543 209.354 195.132 209.354 194.722C209.354 193.902 209.901 193.355 210.174 192.808C210.448 192.261 210.858 191.851 211.132 191.577C211.678 190.893 212.089 190.483 212.225 190.62C212.362 190.62 211.952 191.167 211.542 191.987C211.268 192.398 210.995 192.945 210.721 193.355C210.448 193.902 210.038 194.449 210.038 194.996C210.038 195.543 210.448 195.816 210.995 195.816C211.405 195.816 211.952 195.543 212.225 195.269C212.772 194.449 213.046 193.902 213.183 194.039Z" fill="#EF8876"/>
<path d="M191.714 191.988C191.714 191.988 155.887 227.268 150.828 227.541C145.085 227.815 127.445 202.791 127.445 202.791C116.095 185.287 101.053 182.553 95.7203 182.006V179.818L69.0553 177.63C69.0553 177.63 69.0553 179.955 69.0553 181.869H57.2954C57.2954 181.869 36.1002 180.912 32.9551 209.354L48.1336 221.388L54.4238 244.634C56.6117 252.702 48.8173 265.556 45.1253 286.477C44.5783 289.896 44.9885 292.768 46.7662 296.596L123.889 305.485L119.787 246.412L118.556 232.737C124.847 241.489 136.333 253.659 150.281 253.386C174.074 252.975 207.303 202.791 207.303 202.791L191.714 191.988Z" fill="#FFF567"/>
<path d="M86.6952 179.545C86.8319 179.545 86.8319 180.912 86.6952 183.237C86.5585 185.562 86.285 188.707 85.4645 192.262L85.3278 192.672L84.9175 192.399C83.9603 191.852 83.0031 191.442 82.0459 190.758C78.2171 188.57 74.9353 186.245 72.6106 184.604C70.1493 182.963 68.6451 182.006 68.7818 181.87C68.7818 181.87 69.1921 182.006 69.8758 182.417C70.5595 182.827 71.6534 183.374 72.8841 184.194C75.3455 185.698 78.6273 188.023 82.4562 190.211C83.4134 190.758 84.3706 191.305 85.3278 191.852L84.7808 192.125C85.6013 188.57 86.0115 185.425 86.285 183.237C86.4217 180.912 86.5585 179.545 86.6952 179.545Z" fill="#FAF27B"/>
<path d="M95.7202 182.279C95.857 182.279 95.4468 183.646 94.8998 185.697C94.6263 186.791 94.3528 188.022 93.9426 189.389C93.6691 190.073 93.3956 190.757 93.1221 191.577C92.9854 191.851 92.8486 191.988 92.5751 192.124C92.3017 192.398 91.7547 192.261 91.6179 191.988C91.2077 191.441 91.2077 191.167 90.9342 190.757C89.5668 187.612 88.4728 184.877 87.6524 182.826C86.8319 180.775 86.4217 179.544 86.5584 179.407C86.6952 179.407 87.2422 180.638 88.1994 182.552C89.1566 184.603 90.3873 187.338 91.6179 190.483C91.7547 190.894 91.8914 191.304 92.0282 191.441C92.1649 191.441 92.0282 191.441 92.1649 191.441C92.3017 191.441 92.3017 191.304 92.4384 191.167C92.7119 190.483 93.1221 189.8 93.2589 189.116C93.8058 187.749 94.0793 186.518 94.3528 185.424C95.1733 183.51 95.7202 182.142 95.7202 182.279Z" fill="#FAF27B"/>
<path d="M90.7975 277.726C90.7975 277.726 90.7975 277.453 90.6608 276.769C90.6608 276.085 90.524 275.128 90.524 274.034C90.3873 271.573 90.2505 268.017 90.1138 263.778C89.8403 255.027 89.2933 243.13 88.8831 229.866C88.4729 216.602 88.0626 204.705 87.7891 195.954C87.6524 191.715 87.6524 188.159 87.5157 185.698C87.5157 184.604 87.5157 183.647 87.5157 182.963C87.5157 182.279 87.5157 182.006 87.5157 182.006C87.5157 182.006 87.5157 182.279 87.6524 182.963C87.6524 183.647 87.7891 184.604 87.7891 185.698C87.9259 188.159 88.0626 191.715 88.1994 195.954C88.4729 204.705 89.0198 216.602 89.4301 229.866C89.8403 243.13 90.2505 255.027 90.524 263.778C90.6607 268.017 90.6608 271.573 90.7975 274.034C90.7975 275.128 90.7975 276.085 90.7975 276.769C90.7975 277.453 90.7975 277.726 90.7975 277.726Z" fill="#F5F5F5"/>
<path d="M85.8747 188.159L88.1994 194.313L90.1138 187.749L87.1054 181.049L85.8747 188.159Z" fill="#C6368B"/>
<path d="M88.6096 192.535L87.1054 262.137L97.6347 284.016L101.737 259.403L88.6096 192.535Z" fill="#C6368B"/>
<path d="M151.101 236.157C151.101 236.157 151.101 236.43 151.101 236.704L150.965 237.251L150.691 236.704C150.418 236.02 149.871 234.379 149.734 232.328C149.597 229.593 150.144 227.405 150.281 227.405C150.554 227.405 150.281 229.593 150.418 232.191C150.554 234.106 150.828 235.747 150.965 236.43H150.691C150.964 236.294 151.101 236.157 151.101 236.157Z" fill="#FAF27B"/>
<path d="M154.246 235.883C154.11 236.02 152.879 234.379 152.058 232.054C151.101 229.73 150.828 227.815 150.965 227.815C151.101 227.815 151.785 229.593 152.605 231.781C153.563 234.106 154.383 235.883 154.246 235.883Z" fill="#FAF27B"/>
<path d="M204.978 206.482C204.841 206.619 201.013 204.294 196.5 201.149C191.851 198.004 188.295 195.406 188.432 195.269C188.569 195.133 192.398 197.457 196.91 200.602C201.423 203.611 205.115 206.346 204.978 206.482Z" fill="#FAF27B"/>
<path d="M55.928 217.696C55.928 217.696 50.1848 257.352 52.9196 259.54C67.8246 271.983 88.4729 278.547 95.857 280.735C96.9509 280.462 98.1816 280.188 99.6858 279.641C100.916 279.231 102.147 278.684 103.104 277.863C104.335 276.906 105.976 275.539 106.66 274.582C107.48 273.351 109.395 273.761 109.531 275.129C109.668 276.496 107.343 280.051 103.241 282.649C103.241 282.649 112.676 297.965 115.685 299.332C118.693 300.7 127.308 304.665 125.94 305.349C124.436 306.033 113.907 303.024 113.907 303.024L92.5751 297.281C92.5751 297.281 22.0157 286.205 26.6649 253.797C29.5365 233.969 32.6816 216.055 33.7756 211.543L55.928 217.696Z" fill="#F4BBAC"/>
<path d="M32.8184 209.491L26.5282 252.702C25.024 265.966 33.9123 276.632 45.9457 282.512C64.2693 291.537 91.3445 297.964 91.071 297.964C90.6607 297.964 92.8486 278.683 92.8486 278.683C92.8486 278.683 54.834 262.274 53.6033 255.163C52.3727 248.053 58.3894 218.516 58.3894 218.516L32.8184 209.491Z" fill="#FFF567"/>
<path d="M91.071 297.964C91.071 297.964 91.071 297.827 91.071 297.69C91.071 297.417 91.071 297.143 91.071 296.733C91.2077 295.776 91.2077 294.545 91.3445 292.904C91.618 289.486 92.0282 284.7 92.5751 278.82L92.7119 279.093C87.2422 276.495 80.8152 273.35 73.5678 269.795C71.7902 268.974 69.8758 268.017 68.0981 267.06C66.1837 266.103 64.4061 265.009 62.4916 263.778C60.714 262.547 58.7996 261.316 57.1587 259.812C56.3382 259.129 55.381 258.308 54.5605 257.488C54.1503 257.077 53.7401 256.667 53.4666 255.984C53.3298 255.71 53.1931 255.437 53.1931 255.163C53.0564 254.89 53.0564 254.616 53.0564 254.343C52.3726 249.557 53.7401 245.181 54.4238 240.942C55.1075 236.703 55.928 232.6 56.6117 228.635C57.9791 220.841 59.2098 213.73 60.3038 207.713C60.8507 204.705 61.261 202.107 61.261 199.645C61.261 197.321 60.714 195.27 60.0303 193.765C59.3466 192.261 58.3893 191.304 57.8424 190.62C57.1587 190.073 56.7484 189.8 56.7484 189.8C56.7484 189.8 57.1587 189.937 57.8424 190.484C58.5261 191.03 59.4833 191.988 60.167 193.629C60.9875 195.133 61.5344 197.184 61.5344 199.645C61.6712 202.107 61.1242 204.842 60.714 207.713C59.7568 213.73 58.5261 220.704 57.1587 228.635C56.4749 232.6 55.7912 236.703 55.1075 240.942C54.9708 242.036 54.6973 243.13 54.5605 244.224C54.2871 245.318 54.1503 246.411 54.0136 247.505C53.7401 249.693 53.4666 252.018 53.8768 254.206C53.8768 254.479 54.0136 254.753 54.0136 255.026C54.0136 255.3 54.1503 255.573 54.2871 255.847C54.4238 256.394 54.834 256.667 55.2443 257.077C56.0647 257.898 56.8852 258.582 57.7056 259.402C59.4833 260.77 61.261 262.137 63.0386 263.368C64.8163 264.598 66.7307 265.556 68.5083 266.649C70.4228 267.607 72.2004 268.427 73.9781 269.384C81.0887 272.94 87.5157 276.085 92.9854 278.82L93.1221 278.956V279.093C92.5751 284.973 92.0282 289.759 91.618 293.178C91.4812 294.819 91.3445 296.049 91.2077 297.006C91.2077 297.417 91.071 297.69 91.071 297.964Z" fill="#FAFAFA"/>
<path d="M87.5157 276.084C87.6524 276.084 87.5157 277.178 87.2422 279.092C86.9687 280.87 86.6952 283.331 86.1482 286.066C85.6013 288.801 85.0543 291.262 84.6441 293.04C84.2338 294.818 83.8236 295.912 83.6868 295.912C83.5501 295.912 83.8236 294.818 84.0971 293.04C84.5073 290.989 84.9175 288.664 85.4645 286.066C86.4217 280.46 87.2422 276.084 87.5157 276.084Z" fill="#FAFAFA"/>
<path d="M91.071 297.964C91.071 297.964 90.7975 297.964 90.3873 297.827C89.8403 297.69 89.2933 297.554 88.4729 297.417C86.6952 297.007 84.3706 296.323 81.6357 295.639C75.8925 294.135 67.8246 292.084 59.2098 288.802C54.9708 287.161 50.8685 285.383 47.4499 283.606C43.8946 281.691 40.8862 279.777 38.5616 277.863C36.237 276.085 34.4593 274.307 33.2286 273.077C32.6816 272.53 32.2714 271.983 31.8612 271.709C31.5877 271.436 31.4509 271.162 31.4509 271.162C31.4509 271.162 32.1347 271.846 33.3653 272.94C34.596 274.034 36.3737 275.675 38.8351 277.452C41.2964 279.23 44.1681 281.144 47.7234 283.059C51.2787 284.973 55.2443 286.614 59.4833 288.255C68.0981 291.4 76.0292 293.588 81.7724 295.229C84.5073 296.049 86.8319 296.733 88.6096 297.28C89.2933 297.554 89.977 297.69 90.3873 297.827C90.7975 297.964 91.071 297.964 91.071 297.964Z" fill="#FAFAFA"/>
<path d="M91.4812 280.734C91.4812 281.417 90.9342 281.964 90.2505 281.964C89.5668 281.964 89.0198 281.417 89.0198 280.734C89.0198 280.05 89.5668 279.503 90.2505 279.503C90.9342 279.503 91.4812 280.05 91.4812 280.734Z" fill="#FAFAFA"/>
</svg>
