<svg width="354" height="363" viewBox="0 0 354 363" fill="none" xmlns="http://www.w3.org/2000/svg">
<g opacity="0.25">
<path d="M212.899 0H18.4896V67.9196H212.899V0Z" fill="#F0F0F0"/>
<path d="M209.156 64.2525V3.73438L22.1194 3.73437V64.2525L209.156 64.2525Z" fill="#E7E7E7"/>
<path d="M85.6059 0.761719H81.9194V67.1575H85.6059V0.761719Z" fill="#F0F0F0"/>
<path d="M61.4352 64.3047H81.9279L81.9279 3.78654H61.4352L61.4352 64.3047Z" fill="#E1E1E1"/>
<path d="M125.03 64.3047H145.523V3.78654H125.03V64.3047Z" fill="#E1E1E1"/>
<path d="M188.614 64.3047H209.107V3.78654H188.614V64.3047Z" fill="#E1E1E1"/>
<path d="M149.144 0.761719H145.458V67.1575H149.144V0.761719Z" fill="#F0F0F0"/>
<path d="M0 68.0049H18.4326L18.4326 0.0852509H0L0 68.0049Z" fill="#E7E7E7"/>
<path d="M69.2335 64.3276H35.1874L43.211 12.626H77.2571L69.2335 64.3276Z" fill="#ECECEC"/>
<path d="M135.916 64.3276H101.762L107.725 12.626H141.771L135.916 64.3276Z" fill="#F5F5F5"/>
<path d="M119.652 64.3289H88.6419L101.653 17.3076H132.663L119.652 64.3289Z" fill="#E1E1E1"/>
<path d="M56.2222 8.49023H22.1762V64.328H56.2222V8.49023Z" fill="#F5F5F5"/>
<path d="M201.623 8.49023H167.577V64.328H201.623V8.49023Z" fill="#F5F5F5"/>
<path d="M177.552 64.3289H151.096L160.312 17.3076H186.768L177.552 64.3289Z" fill="#E1E1E1"/>
<path d="M164.432 64.3287H149.144V20.6816H178.962L164.432 64.3287Z" fill="#F5F5F5"/>
<path d="M201.731 8.49023H193.924V64.328H201.731V8.49023Z" fill="#FAFAFA"/>
<path d="M46.4638 60.0822C45.9217 60.0822 45.4879 59.6468 45.4879 59.1026V13.714C45.4879 13.1698 45.9217 12.7344 46.4638 12.7344C47.0059 12.7344 47.4396 13.1698 47.4396 13.714V59.1026C47.4396 59.6468 47.0059 60.0822 46.4638 60.0822Z" fill="#F0F0F0"/>
<path d="M276.546 68.0283H82.1363V135.948H276.546V68.0283Z" fill="#F0F0F0"/>
<path d="M272.865 132.211V71.6924L85.8289 71.6924V132.211L272.865 132.211Z" fill="#E7E7E7"/>
<path d="M149.361 68.79H145.674V135.186H149.361V68.79Z" fill="#F0F0F0"/>
<path d="M125.106 132.217H145.599V71.6986H125.106V132.217Z" fill="#E1E1E1"/>
<path d="M188.701 132.217H209.194V71.6986H188.701V132.217Z" fill="#E1E1E1"/>
<path d="M252.285 132.217H272.777V71.6986H252.285V132.217Z" fill="#E1E1E1"/>
<path d="M212.791 68.79H209.104V135.186H212.791V68.79Z" fill="#F0F0F0"/>
<path d="M63.6708 135.918H82.1034L82.1034 67.9983H63.6708L63.6708 135.918Z" fill="#E7E7E7"/>
<path d="M196.31 132.246H162.264L170.287 80.6533H204.334L196.31 132.246Z" fill="#ECECEC"/>
<path d="M263.209 132.246H229.163L235.018 80.6533H269.173L263.209 132.246Z" fill="#F5F5F5"/>
<path d="M246.945 132.248H215.935L228.946 85.2266H259.957L246.945 132.248Z" fill="#E1E1E1"/>
<path d="M183.19 76.4092H149.144V132.247H183.19V76.4092Z" fill="#F5F5F5"/>
<path d="M138.193 76.4092H104.147V132.247H138.193V76.4092Z" fill="#F5F5F5"/>
<path d="M114.122 132.248H87.7745L96.8824 85.2266H123.339L114.122 132.248Z" fill="#E1E1E1"/>
<path d="M101.003 132.247H85.8228V88.709H115.532L101.003 132.247Z" fill="#F5F5F5"/>
<path d="M138.301 76.4092H130.495V132.247H138.301V76.4092Z" fill="#FAFAFA"/>
<path d="M173.432 128.111C172.89 128.111 172.456 127.675 172.456 127.131V81.7423C172.456 81.1981 172.89 80.7627 173.432 80.7627C173.974 80.7627 174.408 81.1981 174.408 81.7423V127.131C174.516 127.566 173.974 128.111 173.432 128.111Z" fill="#F0F0F0"/>
<path d="M226.778 38.6406V52.464C226.778 60.954 233.717 68.0289 242.283 68.0289C250.74 68.0289 257.788 61.0628 257.788 52.464V38.6406H226.778Z" fill="#ECECEC"/>
<path d="M129.736 222.698H33.0188V234.018H129.736V222.698Z" fill="#E7E7E7"/>
<path d="M129.627 234.018H39.416V308.033H129.627V234.018Z" fill="#ECECEC"/>
<path d="M129.659 308.124H347.272V234.109L129.659 234.109V308.124Z" fill="#F5F5F5"/>
<path d="M39.5244 238.241L347.349 238.241V234.105L39.5244 234.105V238.241Z" fill="#E1E1E1"/>
<path d="M129.683 234.069L353.693 234.069V222.749L129.683 222.749V234.069Z" fill="#F0F0F0"/>
<path d="M39.416 308.142V326.101L57.4149 308.142H39.416Z" fill="#ECECEC"/>
<path d="M129.736 308.142V326.101L147.735 308.142H129.736Z" fill="#F5F5F5"/>
<path d="M347.349 308.142V326.101L329.35 308.142H347.349Z" fill="#F5F5F5"/>
<path d="M129.736 308.142V326.101L111.737 308.142H129.736Z" fill="#ECECEC"/>
<path d="M257.029 308.142V326.101L239.03 308.142H257.029Z" fill="#E1E1E1"/>
<path d="M257.029 308.142V326.101L275.028 308.142H257.029Z" fill="#E1E1E1"/>
<path d="M188.069 182.643L181.455 219.977H153.156L152.072 222.698H181.022H198.695H246.728L253.776 182.643H188.069Z" fill="#E1E1E1"/>
</g>
<path d="M83.4374 352.768H91.461L91.7863 334.047H83.7627L83.4374 352.768Z" fill="#FF8B7B"/>
<path d="M35.079 352.768H43.1026L46.6806 334.047H38.6571L35.079 352.768Z" fill="#FF8B7B"/>
<path d="M43.6447 351.897H34.6452C34.32 351.897 33.9947 352.115 33.9947 352.442L32.5851 359.626C32.4767 360.387 33.0188 361.04 33.7778 361.04C36.9222 360.932 38.4402 360.823 42.452 360.823C44.9458 360.823 49.9335 361.04 53.2947 361.04C56.5475 361.04 56.9812 357.666 55.6801 357.34C49.3913 355.925 47.0059 354.074 45.0542 352.333C44.6205 352.006 44.1868 351.897 43.6447 351.897Z" fill="#1A2E35"/>
<path d="M91.3526 351.897H82.57C82.2447 351.897 81.9194 352.115 81.9194 352.442L80.5099 359.626C80.4014 360.387 80.9436 361.04 81.7026 361.04C84.847 361.04 89.5093 360.823 93.4127 360.823C98.0751 360.823 98.6172 361.04 104.039 361.04C107.291 361.04 108.159 357.666 106.749 357.34C100.46 355.925 98.8341 355.816 93.3043 352.442C92.7621 352.115 92.1116 351.897 91.3526 351.897Z" fill="#1A2E35"/>
<path d="M89.2925 97.089L100.244 93.4971C100.244 93.4971 111.628 119.947 115.423 121.579C120.628 123.756 127.784 130.831 132.989 135.185C133.205 136.6 132.555 140.083 131.687 141.063C122.363 138.886 110.869 133.552 107.074 130.069C98.5087 122.015 89.2925 97.089 89.2925 97.089Z" fill="#FF8B7B"/>
<path d="M86.6902 90.9937C83.5458 98.0686 96.0149 120.491 96.0149 120.491L112.496 112.872C112.496 112.872 109.351 101.878 104.364 93.1706C99.1593 84.1364 90.1599 83.1568 86.6902 90.9937Z" fill="#FFF567"/>
<path opacity="0.2" d="M102.195 107.866C98.6172 102.859 92.7621 101.444 87.5576 101.227C90.2683 110.152 96.0149 120.492 96.0149 120.492L105.448 116.138C105.123 113.091 104.039 110.37 102.195 107.866Z" fill="black"/>
<path d="M131.904 134.315L141.446 135.839L138.952 145.962C138.952 145.962 134.073 144.003 129.736 140.193L131.904 134.315Z" fill="#CD5B51"/>
<path d="M149.795 140.192L146.325 145.743L138.952 146.07L141.446 135.947L149.795 140.192Z" fill="#CD5B51"/>
<path opacity="0.2" d="M91.7863 334.047L91.6778 343.734H83.5458L83.7627 334.047H91.7863Z" fill="black"/>
<path opacity="0.2" d="M38.6571 334.047H46.6806L44.8374 343.734H36.8138L38.6571 334.047Z" fill="black"/>
<path d="M97.2076 86.4229C97.2076 86.4229 106.099 111.784 99.3762 159.676C86.3649 159.676 62.6194 159.676 56.3307 159.676C55.8969 153.036 59.2582 117.335 52.102 85.9875C52.102 85.9875 59.475 84.4636 66.5228 84.1371C72.0526 83.9194 79.9677 83.7017 84.847 84.1371C91.2441 84.6813 97.2076 86.4229 97.2076 86.4229Z" fill="#FFF567"/>
<path opacity="0.2" d="M77.9076 116.247H65.4385L65.1132 108.301H77.5823L77.9076 116.247Z" fill="black"/>
<path d="M78.1245 115.92H65.6554L65.1132 108.301H77.5823L78.1245 115.92Z" fill="white"/>
<path d="M69.9924 112.982H66.5228L66.3059 109.607H69.6672L69.9924 112.982Z" fill="#FFF567"/>
<path d="M76.8234 111.24H70.7514V110.587H76.8234V111.24Z" fill="#E1E1E1"/>
<path d="M75.6307 112.546H70.8599L70.7514 111.893H75.6307V112.546Z" fill="#E1E1E1"/>
<path d="M70.1009 114.505H66.6312V113.852H69.9924L70.1009 114.505Z" fill="#E1E1E1"/>
<path d="M70.9683 114.505H77.1486L77.0402 113.852H70.9683V114.505Z" fill="#E1E1E1"/>
<path d="M71.5104 109.716C71.0767 109.716 70.7514 109.389 70.7514 109.063L70.643 107.539C70.643 107.212 70.8599 106.886 71.2936 106.886C71.6188 106.886 71.9441 107.212 72.0526 107.539L72.161 109.063C72.0526 109.498 71.8357 109.716 71.5104 109.716Z" fill="#1A2E35"/>
<path opacity="0.2" d="M61.6436 93.7156C62.511 98.8313 61.2099 111.131 56.6559 125.39C56.3307 114.396 55.3548 101.77 52.7526 89.0352V88.9264C55.5717 88.7087 60.8846 88.8175 61.6436 93.7156Z" fill="black"/>
<path d="M68.4745 66.9395C69.7756 72.8171 70.5346 80.2186 66.5228 84.1371C66.5228 84.1371 69.0166 90.1236 79.9677 90.1236C89.943 90.1236 84.8469 84.1371 84.8469 84.1371C78.2329 82.6132 78.3413 74.4498 79.4256 69.7694L68.4745 66.9395Z" fill="#FF8B7B"/>
<path d="M79.9677 89.0352L83.1121 92.5182L82.3531 95.0217C82.2447 95.457 81.811 95.6747 81.3773 95.6747L79.2088 95.7836C78.8835 95.7836 78.4498 95.6747 78.3413 95.3482L76.6065 92.8447L79.9677 89.0352Z" fill="#1A2E35"/>
<path d="M79.9677 89.0348C78.016 91.9737 76.2812 95.8921 76.2812 95.8921C76.2812 95.8921 63.1616 91.2117 63.5953 84.1368C63.5953 84.1368 66.5228 82.7218 67.7155 81.7422C67.7155 81.7422 68.366 86.2049 79.9677 89.0348Z" fill="white"/>
<path d="M79.9677 89.0353C82.4616 91.8653 84.088 95.3484 84.088 95.3484C84.088 95.3484 88.9672 91.1034 86.9071 84.1373C86.9071 84.1373 85.1722 83.3754 83.329 83.0488C83.329 83.0488 84.1964 87.5115 79.9677 89.0353Z" fill="white"/>
<path d="M81.1604 94.5863C81.4857 94.4774 86.9071 122.015 87.6661 128.764C89.184 137.798 85.0638 147.703 84.9554 147.703C84.9554 147.703 81.9194 139.975 81.052 128.328C80.4014 116.791 80.1846 101.226 79.1003 94.5863C79.534 94.5863 80.7267 94.5863 81.1604 94.5863Z" fill="#1A2E35"/>
<path opacity="0.2" d="M79.4256 69.7694C78.775 72.4906 78.5582 76.409 79.7509 79.4567C78.775 79.3479 77.7992 79.0213 76.8233 78.5859C73.0284 76.8444 71.1852 74.1233 69.2335 69.9871C69.0166 68.8987 68.9082 67.9191 68.6913 66.9395L79.4256 69.7694Z" fill="black"/>
<path d="M81.7026 48.9795L84.7385 58.5579C87.9913 54.7483 85.2807 49.5237 81.7026 48.9795Z" fill="#1A2E35"/>
<path d="M63.4868 59.7554C65.7638 67.4834 66.7396 72.1638 71.6189 75.3203C78.8835 80.1095 87.6661 74.4495 87.6661 66.1772C87.6661 58.7757 83.8711 47.347 75.5222 45.8231C67.3902 44.4081 61.2099 52.0273 63.4868 59.7554Z" fill="#FF8B7B"/>
<path d="M66.6312 65.6334C68.7998 64.2184 69.6672 56.9257 67.7155 54.4223C74.6548 54.0957 78.1245 51.7011 78.3413 50.5038C80.7267 51.5923 86.9071 52.0277 86.1481 48.8711C85.3891 45.8235 82.1363 43.9731 80.7267 43.9731C78.3413 41.4696 72.2694 39.2927 68.0408 42.7758C60.6677 42.7758 56.6559 48.7623 58.8245 51.1569C54.4874 53.878 55.5717 59.6469 58.8245 61.2795C56.7644 64.1095 65.3301 70.858 66.6312 65.6334Z" fill="#1A2E35"/>
<path d="M62.0773 69.117C63.5953 70.6408 65.6554 71.4027 67.4986 71.4027C70.1009 71.4027 70.7515 68.7904 69.3419 66.7224C68.1492 64.7631 65.2217 62.4774 62.8363 63.457C60.4509 64.4366 60.3425 67.3755 62.0773 69.117Z" fill="#FF8B7B"/>
<path d="M71.0767 159.676C71.0767 159.676 71.9441 169.798 73.0284 183.622C74.2211 199.187 75.8475 219.541 76.7149 234.997C76.7149 235.106 76.7149 235.106 76.7149 235.215C76.9318 238.153 77.0402 240.875 77.1486 243.378C78.3413 268.521 80.8352 341.883 80.8352 341.883H94.497C94.497 341.883 101.328 267.106 101.653 241.419C101.978 216.711 99.3762 159.676 99.3762 159.676H71.0767Z" fill="#1A2E35"/>
<path d="M79.9677 337.639C79.8593 337.639 80.0762 342.102 80.0762 342.102H95.7981L96.3402 337.095L79.9677 337.639Z" fill="#FFF567"/>
<path opacity="0.2" d="M73.0284 183.622C74.2211 199.187 75.8475 219.541 76.7149 234.997C76.7149 235.106 76.7149 235.106 76.7149 235.215C80.0762 220.52 81.3773 202.343 80.9436 172.302L73.0284 183.622Z" fill="black"/>
<path d="M84.1964 159.676C84.1964 159.676 76.6065 218.126 72.161 241.31C67.2818 266.671 48.6323 341.992 48.6323 341.992H33.8863C33.8863 341.992 45.4879 268.739 48.0902 243.596C50.8009 216.384 56.4391 159.676 56.4391 159.676H84.1964Z" fill="#1A2E35"/>
<path d="M33.6694 337.965C33.561 337.965 33.0188 342.101 33.0188 342.101H49.2829L50.584 337.312L33.6694 337.965Z" fill="#FFF567"/>
<path d="M75.7391 59.3199C75.8475 59.973 76.3896 60.4083 76.7149 60.2995C77.0402 60.1906 77.3655 59.6464 77.1487 58.9933C77.0402 58.3403 76.4981 57.9049 76.1728 58.0137C75.8475 58.1226 75.6306 58.7757 75.7391 59.3199Z" fill="#1A2E35"/>
<path d="M82.8953 57.7965C83.0037 58.4495 83.5458 58.8849 83.8711 58.7761C84.3048 58.6672 84.5217 58.123 84.3048 57.4699C84.1964 56.8168 83.6543 56.3815 83.329 56.4903C82.8953 56.5991 82.7868 57.1434 82.8953 57.7965Z" fill="#1A2E35"/>
<path d="M80.7267 58.667C80.7267 58.667 83.0037 62.0412 85.0638 63.4562C84.1964 64.7624 82.2447 64.6535 82.2447 64.6535L80.7267 58.667Z" fill="#E16453"/>
<path d="M80.9436 67.1573C81.052 67.1573 81.052 67.0485 81.052 66.9396C81.052 66.8308 80.9436 66.7219 80.8352 66.8308C78.1245 67.4838 76.2812 65.8512 76.2812 65.8512C76.1728 65.7423 76.0644 65.7423 76.0644 65.8512C75.9559 65.96 75.9559 66.0689 76.0644 66.0689C76.0644 66.1777 78.0161 67.9192 80.9436 67.1573Z" fill="#1A2E35"/>
<path d="M73.0284 57.4692C73.1368 57.4692 73.2453 57.3603 73.2453 57.2515C73.8958 55.7277 75.3054 55.51 75.3054 55.51C75.5222 55.51 75.6307 55.2923 75.6307 55.0746C75.6307 54.8569 75.4138 54.748 75.197 54.748C75.0885 54.748 73.3537 55.0746 72.5947 56.925C72.4863 57.1427 72.5947 57.3603 72.8116 57.4692C72.92 57.4692 73.0284 57.4692 73.0284 57.4692Z" fill="#1A2E35"/>
<path d="M85.4975 54.5308C85.4975 54.5308 85.6059 54.5308 85.6059 54.422C85.7144 54.3131 85.7144 53.9866 85.6059 53.8777C84.1964 52.245 82.4616 52.5716 82.3531 52.5716C82.1363 52.5716 82.0278 52.7893 82.0278 53.007C82.0278 53.2247 82.2447 53.3335 82.4615 53.3335C82.57 53.3335 83.8711 53.1158 85.0638 54.422C85.1722 54.5308 85.3891 54.6396 85.4975 54.5308Z" fill="#1A2E35"/>
<path d="M47.2228 95.1309L58.0655 99.5935C58.0655 99.5935 50.0419 122.778 49.4998 126.478C53.9453 128.111 58.716 134.642 64.5711 138.996C64.4627 140.302 61.8604 143.567 60.8846 144.329C52.102 140.084 38.7655 134.206 38.1149 129.091C36.5969 117.662 47.2228 95.1309 47.2228 95.1309Z" fill="#FF8B7B"/>
<path d="M61.9689 138.56H71.0767L68.4745 147.485C68.4745 147.485 62.8363 147.158 59.5835 143.022L61.9689 138.56Z" fill="#FF8B7B"/>
<path d="M76.4981 140.301L73.7874 148.247L68.4745 147.485L71.0767 138.56L76.4981 140.301Z" fill="#FF8B7B"/>
<path d="M52.102 85.9874C44.5121 87.0758 36.3801 113.634 36.3801 113.634L53.8368 120.274C53.8368 120.274 59.3666 110.042 62.511 100.682C66.0891 90.8854 60.234 84.7901 52.102 85.9874Z" fill="#FFF567"/>
<path d="M46.3554 353.312C47.0059 353.312 47.5481 353.203 47.8733 352.877C48.1986 352.659 48.307 352.333 48.1986 351.897C48.1986 351.571 47.9818 351.462 47.8733 351.353C47.0059 350.918 44.4037 352.55 44.0784 352.659C43.97 352.659 43.97 352.768 43.97 352.877C43.97 352.986 44.0784 352.986 44.0784 352.986C44.8374 353.094 45.5964 353.312 46.3554 353.312ZM47.5481 351.571C47.6565 351.571 47.7649 351.571 47.7649 351.571C47.7649 351.571 47.8733 351.679 47.8733 351.788C47.8733 352.115 47.8733 352.333 47.6565 352.441C47.2228 352.768 46.1385 352.877 44.8374 352.55C45.7048 352.224 46.8975 351.571 47.5481 351.571Z" fill="#FFF567"/>
<path d="M44.2953 352.986C45.1627 352.551 46.7891 350.7 46.5722 349.829C46.5722 349.721 46.4638 349.394 45.9217 349.285C45.5964 349.285 45.3795 349.285 45.1627 349.503C44.2953 350.265 44.0784 352.551 44.0784 352.659C44.0784 352.877 44.0784 352.877 44.2953 352.986C44.2953 352.986 44.1868 352.986 44.2953 352.986ZM45.8132 349.721C45.8132 349.721 45.9217 349.721 45.8132 349.721C46.1385 349.721 46.1385 349.829 46.1385 349.938C46.2469 350.482 45.2711 351.789 44.4037 352.442C44.5121 351.789 44.729 350.374 45.2711 349.938C45.488 349.721 45.7048 349.721 45.8132 349.721Z" fill="#FFF567"/>
<path d="M94.8222 353.312C95.5812 353.312 96.3402 353.203 96.7739 352.768C96.9908 352.55 97.0992 352.224 97.0992 351.788C97.0992 351.571 96.9908 351.353 96.7739 351.244C95.7981 350.7 92.5453 352.333 92.22 352.55C92.1116 352.55 92.1116 352.659 92.1116 352.768C92.1116 352.877 92.22 352.877 92.22 352.877C92.979 353.095 93.8464 353.312 94.8222 353.312ZM96.2318 351.571C96.3402 351.571 96.4486 351.571 96.5571 351.68C96.6655 351.68 96.6655 351.788 96.6655 351.897C96.6655 352.115 96.6655 352.333 96.4486 352.55C96.0149 352.986 94.6054 353.095 92.8706 352.768C93.9548 352.224 95.4728 351.571 96.2318 351.571Z" fill="#FFF567"/>
<path d="M92.3284 352.986C93.4127 352.551 95.2559 350.809 95.0391 349.829C95.0391 349.612 94.8222 349.394 94.2801 349.285C93.8464 349.285 93.5211 349.394 93.1958 349.612C92.22 350.482 92.0031 352.659 92.0031 352.768C92.0031 352.877 92.0031 352.877 92.1116 352.986C92.22 352.986 92.22 352.986 92.3284 352.986ZM94.1717 349.721H94.2801C94.6054 349.721 94.6054 349.938 94.6054 349.938C94.7138 350.482 93.4127 351.897 92.4368 352.442C92.5453 351.789 92.7621 350.482 93.4127 349.938C93.738 349.829 93.9548 349.721 94.1717 349.721Z" fill="#FFF567"/>
<path d="M233.717 62.042H228.621V63.1304H233.717V62.042Z" fill="#FFF567"/>
<path d="M224.067 62.042H203.249V63.1304H224.067V62.042Z" fill="#FFF567"/>
<path d="M268.631 256.767H137.542C131.687 256.767 126.483 251.978 126.158 245.991L114.448 76.5189C114.014 70.6412 118.568 65.7432 124.423 65.7432H255.511C261.366 65.7432 266.571 70.5324 266.896 76.5189L278.498 245.991C278.931 251.869 274.486 256.767 268.631 256.767Z" fill="#FFF567"/>
<path d="M137.217 253.175C133.314 253.175 129.844 250.019 129.627 245.991L118.026 76.5188C117.809 72.6003 120.736 69.335 124.64 69.335H255.728C259.631 69.335 263.101 72.4915 263.318 76.5188L274.92 245.991C275.136 249.91 272.209 253.175 268.305 253.175H137.217Z" fill="white"/>
<g opacity="0.2">
<g opacity="0.2">
<path opacity="0.2" d="M261.149 153.255H141.988L137.542 87.7295H256.704L261.149 153.255ZM142.747 152.384H260.173L255.836 88.7091H138.41L142.747 152.384Z" fill="#FFF567"/>
<path opacity="0.2" d="M256.921 97.8522H138.627L138.518 96.9814H256.812L256.921 97.8522Z" fill="#FFF567"/>
<path opacity="0.2" d="M257.571 107.104H139.277L139.169 106.233H257.463L257.571 107.104Z" fill="#FFF567"/>
<path opacity="0.2" d="M258.222 116.355H139.928L139.819 115.484H258.113L258.222 116.355Z" fill="#FFF567"/>
<path opacity="0.2" d="M258.872 125.607H140.47V124.736H258.764L258.872 125.607Z" fill="#FFF567"/>
<path opacity="0.2" d="M259.414 134.859H141.121V133.88H259.414V134.859Z" fill="#FFF567"/>
<path opacity="0.2" d="M260.065 144.003H141.771V143.132H260.065V144.003Z" fill="#FFF567"/>
</g>
<g opacity="0.2">
<path opacity="0.2" d="M135.808 93.2809H126.591V92.4102H135.699L135.808 93.2809Z" fill="#FFF567"/>
<path opacity="0.2" d="M136.458 102.532H127.242V101.661H136.35L136.458 102.532Z" fill="#FFF567"/>
<path opacity="0.2" d="M137 111.784H127.892L127.784 110.805H137V111.784Z" fill="#FFF567"/>
<path opacity="0.2" d="M137.651 120.926H128.543L128.435 120.056H137.651V120.926Z" fill="#FFF567"/>
<path opacity="0.2" d="M138.301 130.179H129.194L129.085 129.309H138.301V130.179Z" fill="#FFF567"/>
<path opacity="0.2" d="M138.952 139.431H129.844L129.736 138.561H138.844L138.952 139.431Z" fill="#FFF567"/>
<path opacity="0.2" d="M139.603 148.683H130.386V147.812H139.494L139.603 148.683Z" fill="#FFF567"/>
</g>
</g>
<path d="M142.639 153.255L142.096 152.493L156.3 143.894L160.637 139.54L170.287 130.942L180.154 134.751L190.346 117.771L204.225 121.472L222.116 109.608L231.007 113.417L254.535 101.662L254.969 102.424L231.115 114.397L222.224 110.587L204.442 122.452L190.78 118.86L180.588 135.84L170.504 132.03L161.288 140.193L156.842 144.656L142.639 153.255Z" fill="#E1E1E1"/>
<path d="M142.747 153.146L141.988 152.493L155.65 136.928L159.553 128.112L172.673 135.731L178.528 121.255L190.021 110.697L204.442 118.969L221.573 102.533L233.826 109.826L253.668 90.6689L254.318 91.4309L234.042 111.023L221.79 103.622L204.659 120.057L190.13 111.894L179.287 121.908L173.107 137.037L159.987 129.418L156.409 137.581L142.747 153.146Z" fill="#FFF567"/>
<path d="M178.203 200.276L187.961 167.187C202.165 172.193 212.249 185.473 213.333 200.276C214.526 217.256 203.249 231.95 186.768 234.997L178.203 200.276Z" fill="#E1E1E1"/>
<path d="M178.203 200.276L186.66 234.997C184.708 235.324 182.648 235.542 180.588 235.542C161.396 235.542 144.373 219.65 143.072 200.276C141.771 181.01 156.517 165.01 175.709 165.01C179.829 165.01 183.949 165.772 187.853 167.187L178.203 200.276Z" fill="#FFF567"/>
<path d="M237.295 197.336H226.886L229.489 235.432H240.006L237.295 197.336Z" fill="#E1E1E1"/>
<path d="M237.295 197.337H226.886L225.368 174.044H235.777L237.295 197.337Z" fill="#FFF567"/>
<path d="M255.511 204.303H245.102L247.271 235.433H257.68L255.511 204.303Z" fill="#E1E1E1"/>
<path d="M255.511 204.302H245.102L244.126 189.935H254.535L255.511 204.302Z" fill="#FFF567"/>
<path d="M315.254 81.9609C314.17 87.2944 313.194 97.0905 316.881 100.682C316.881 100.682 313.086 107.757 304.086 111.567C296.93 107.104 300.4 100.682 300.4 100.682C306.363 99.2674 306.146 94.8047 305.171 90.6686L315.254 81.9609Z" fill="#FF8B7B"/>
<path d="M318.724 103.839C322.627 101.118 322.844 96.1106 322.844 96.1106C322.844 96.1106 308.749 92.5187 301.05 94.6956C298.665 96.546 294.979 99.9202 294.979 99.9202C294.979 99.9202 295.954 102.097 300.291 103.512C304.629 104.709 318.724 103.839 318.724 103.839Z" fill="#1A2E35"/>
<path d="M335.096 107.975C337.699 111.784 340.084 115.594 342.361 119.621C344.638 123.648 346.698 127.676 348.65 131.921C349.084 133.009 349.517 134.098 349.951 135.186L350.276 136.057L350.385 136.492L350.493 136.71L350.602 137.145C350.927 138.234 351.035 139.322 351.035 140.193C350.927 142.152 350.385 143.567 349.734 144.873C349.084 146.179 348.433 147.268 347.674 148.247C344.638 152.275 341.06 155.214 337.157 157.935L334.229 154.452C336.94 151.186 339.65 147.703 341.602 144.22C342.036 143.349 342.47 142.479 342.686 141.717C342.903 140.955 343.012 140.302 343.012 139.975C343.012 139.866 342.903 139.758 342.903 139.758L342.795 139.54L342.578 139.213L342.253 138.451C341.819 137.472 341.277 136.492 340.843 135.621C339.867 133.662 338.891 131.812 337.807 129.961C336.723 128.111 335.639 126.152 334.554 124.301C332.277 120.601 329.892 116.791 327.615 113.308L335.096 107.975Z" fill="#FF8B7B"/>
<path d="M335.855 153.473L326.205 152.711L331.518 160.112C331.518 160.112 337.265 159.459 338.566 155.867L335.855 153.473Z" fill="#FF8B7B"/>
<path d="M319.917 156.956L324.688 162.834L332.928 159.895L326.205 152.711L319.917 156.956Z" fill="#FF8B7B"/>
<path d="M331.627 102.533L325.446 110.914L325.88 121.255L336.289 130.724C336.289 130.724 341.602 126.915 346.264 122.996C340.518 109.717 335.205 103.622 331.627 102.533Z" fill="#FFF567"/>
<path opacity="0.2" d="M329.35 110.588L326.097 121.581L329.567 124.738C329.133 117.01 329.35 110.588 329.35 110.588Z" fill="black"/>
<path d="M284.136 108.955C284.027 115.486 284.895 129.091 289.449 157.173H325.88C325.23 142.262 324.579 133.01 331.627 102.424C331.627 102.424 324.687 100.9 316.881 100.574C310.809 100.247 305.713 100.029 300.4 100.574C296.822 100.9 293.027 101.444 290.099 101.989C286.738 102.642 284.244 105.581 284.136 108.955Z" fill="#FFF567"/>
<path opacity="0.2" d="M291.292 111.567L284.786 122.125C285.112 125.935 285.654 130.398 286.304 135.84L291.617 132.683C293.786 116.574 291.292 111.567 291.292 111.567Z" fill="black"/>
<path d="M292.268 114.397C290.858 119.404 289.232 124.52 287.605 129.527C285.979 134.534 284.353 139.541 282.618 144.548L282.293 145.527L281.75 146.725C281.425 147.487 280.991 148.248 280.558 148.901C279.69 150.316 278.714 151.514 277.63 152.602C275.462 154.888 272.968 156.521 270.366 157.827C265.161 160.439 259.957 161.854 254.318 162.507L253.559 158.045C255.836 157.391 258.222 156.412 260.499 155.432C262.776 154.453 264.944 153.255 266.787 151.949C268.739 150.643 270.474 149.119 271.884 147.487C272.534 146.616 273.185 145.854 273.618 144.874C273.835 144.439 274.052 144.003 274.269 143.568L274.486 142.915L274.703 141.935C276.004 136.928 277.413 131.813 278.931 126.806C280.341 121.799 281.859 116.792 283.485 111.785L292.268 114.397Z" fill="#FF8B7B"/>
<path d="M293.46 109.39C291.943 105.69 287.063 103.295 287.063 103.295C281.859 106.669 279.799 110.261 276.329 127.459C281.859 129.962 289.991 129.962 289.991 129.962L294.436 118.424C294.545 118.316 294.978 113.091 293.46 109.39Z" fill="#FFF567"/>
<path d="M255.619 157.391L246.62 157.282L252.367 164.357C252.367 164.357 258.005 163.269 259.198 159.786L255.619 157.391Z" fill="#FF8B7B"/>
<path d="M240.548 161.854L245.644 167.514L252.367 164.357L246.512 157.282L240.548 161.854Z" fill="#FF8B7B"/>
<path d="M296.28 70.8584C296.171 71.6203 295.629 72.0557 295.195 72.0557C294.762 71.9468 294.436 71.2937 294.545 70.6407C294.653 69.8787 295.195 69.4434 295.629 69.4434C296.171 69.4434 296.388 70.0964 296.28 70.8584Z" fill="#1A2E35"/>
<path d="M295.846 69.4445L294.22 68.6826C294.22 68.6826 294.87 70.2065 295.846 69.4445Z" fill="#1A2E35"/>
<path d="M295.954 66.3961C295.846 66.3961 295.737 66.2872 295.737 66.1784C295.629 65.9607 295.737 65.743 295.954 65.6341C298.014 64.5457 299.749 65.6341 299.858 65.6341C300.075 65.743 300.075 66.0695 299.966 66.1784C299.858 66.3961 299.641 66.3961 299.424 66.2872C299.316 66.2872 298.014 65.5253 296.388 66.2872C296.171 66.3961 296.063 66.3961 295.954 66.3961Z" fill="#1A2E35"/>
<path d="M296.28 73.1445C296.28 73.1445 294.545 75.9745 292.918 77.2807C293.677 78.3691 295.412 78.2603 295.412 78.2603L296.28 73.1445Z" fill="#FF5551"/>
<path d="M320.784 72.1655C318.724 80.8732 317.965 84.5739 312.76 88.2747C304.954 93.8258 294.762 89.3631 294.219 80.2201C293.786 72.0567 297.255 59.2129 306.363 57.2537C315.471 55.4033 322.953 63.4579 320.784 72.1655Z" fill="#FF8B7B"/>
<path d="M329.098 76.2842C329.939 68.9383 324.689 62.2987 317.371 61.4543C310.053 60.6099 303.439 65.8804 302.598 73.2264C301.757 80.5723 307.007 87.2119 314.325 88.0563C321.642 88.9006 328.256 83.6301 329.098 76.2842Z" fill="#1A2E35"/>
<path d="M306.689 72.5999C316.447 66.178 331.41 62.6949 328.157 52.6811C325.555 44.6266 313.519 44.1912 304.303 48.0008C291.726 53.1165 297.039 79.0218 306.689 72.5999Z" fill="#1A2E35"/>
<path d="M319.158 58.2325C318.941 58.2325 318.832 58.1236 318.724 58.0148L308.423 43.6472C308.207 43.4295 308.315 43.103 308.532 42.8853C308.749 42.6676 309.074 42.7764 309.291 42.9941L319.591 57.3617C319.808 57.5794 319.7 57.906 319.483 58.1236C319.374 58.2325 319.266 58.2325 319.158 58.2325Z" fill="#FFF567"/>
<path d="M325.446 61.9337C325.338 61.9337 325.23 61.9337 325.121 61.8248C324.904 61.6071 324.796 61.2806 325.013 61.0629L335.313 46.6953C335.53 46.4776 335.855 46.3687 336.072 46.5864C336.289 46.8041 336.398 47.1307 336.181 47.3484L325.88 61.716C325.772 61.8248 325.555 61.9337 325.446 61.9337Z" fill="#FFF567"/>
<path d="M330.723 77.0071C337.996 72.47 340.946 64.0318 337.311 58.1598C333.677 52.2879 324.834 51.2057 317.56 55.7428C310.287 60.2799 307.337 68.7182 310.971 74.5902C314.606 80.4621 323.449 81.5442 330.723 77.0071Z" fill="#1A2E35"/>
<path d="M289.449 157.282C289.449 157.282 292.485 224.984 293.135 252.413C293.786 280.931 294.003 347.544 294.003 347.544H301.159C301.159 347.544 312.652 292.142 309.182 252.413C314.278 221.828 317.748 157.282 317.748 157.282H289.449Z" fill="#FF8B7B"/>
<path d="M298.99 157.282C298.99 157.282 316.122 228.25 323.061 254.699C330.434 282.563 340.301 345.476 340.409 347.544H346.59C346.59 347.544 348.541 274.835 338.675 250.128C338.675 219.107 325.88 157.282 325.88 157.282H298.99Z" fill="#FF8B7B"/>
<path d="M342.47 345.803C347.782 344.933 347.782 347.545 348.216 350.266C348.433 351.899 348.325 353.64 347.457 355.164C345.722 358.321 347.457 362.892 341.494 362.892C335.53 362.892 334.988 361.586 336.398 358.756C337.916 355.926 338.675 352.987 339.217 349.831C339.65 348.307 340.084 346.239 342.47 345.803Z" fill="#1A2E35"/>
<path d="M347.891 351.137C347.999 354.729 348.325 363.001 348.325 363.001H347.349C347.349 363.001 346.264 354.184 345.614 351.79L347.891 351.137Z" fill="#1A2E35"/>
<path d="M305.604 75.212C304.954 76.9535 303.436 78.1508 302.135 78.6951C299.966 79.5658 298.665 77.7154 299.099 75.5385C299.424 73.5793 300.942 70.8582 303.219 70.967C305.387 71.0759 306.472 73.2528 305.604 75.212Z" fill="#FF8B7B"/>
<g opacity="0.2">
<path opacity="0.2" d="M293.027 249.038C293.027 250.236 293.135 251.324 293.135 252.413C293.244 256.875 293.352 262.1 293.352 267.978L309.833 264.059C309.725 260.032 309.616 256.222 309.291 252.413C309.616 250.453 309.941 248.277 310.267 246.1L293.027 249.038Z" fill="black"/>
<path opacity="0.2" d="M338.675 250.127C338.675 247.406 338.566 244.467 338.349 241.311L320.35 244.358C321.326 248.277 322.302 251.76 323.061 254.699C323.495 256.549 324.037 258.399 324.471 260.576L340.735 256.658C340.193 254.263 339.434 252.086 338.675 250.127Z" fill="black"/>
</g>
<path d="M289.449 157.282L290.533 265.148L341.494 254.264C342.253 192.657 337.482 171.432 325.88 157.282H289.449Z" fill="#1A2E35"/>
<path opacity="0.2" d="M323.82 183.84C323.82 183.84 313.953 192.112 301.809 194.833C314.387 193.962 320.784 190.371 323.82 183.84Z" fill="black"/>
<path d="M288.039 150.425C287.931 151.513 288.69 156.738 288.69 157.391C288.798 158.044 288.907 163.051 289.123 164.139C289.34 165.228 330.976 164.575 330.109 162.833C329.241 161.092 326.639 157.608 326.639 156.847C326.639 156.085 326.314 150.425 325.989 149.989C325.772 149.554 288.256 148.683 288.039 150.425Z" fill="#FFF567"/>
<path opacity="0.2" d="M288.039 150.425C287.931 151.513 288.69 156.738 288.69 157.391C288.798 158.044 288.907 163.051 289.123 164.139C289.34 165.228 330.976 164.575 330.109 162.833C329.241 161.092 326.639 157.608 326.639 156.847C326.639 156.085 326.314 150.425 325.989 149.989C325.772 149.554 288.256 148.683 288.039 150.425Z" fill="white"/>
<path d="M294.003 344.932C292.159 350.374 286.738 359.952 286.738 359.952L297.039 357.122L302.026 349.177L300.942 347.109L294.003 344.932Z" fill="#FF8B7B"/>
<path d="M302.46 346.457C302.894 347.327 303.111 348.416 303.111 349.395C303.002 353.096 302.677 362.892 302.677 362.892H301.809C301.809 362.892 301.809 356.253 301.376 353.858C300.942 351.464 299.858 355.708 298.231 358.103C296.605 360.498 293.461 362.675 287.822 362.892C281.208 363.001 278.606 362.783 280.449 361.151C282.401 359.518 286.738 358.538 286.738 358.538C286.738 358.538 292.376 358.647 295.412 353.205C297.364 349.722 299.749 346.13 301.376 345.368C301.809 345.477 302.135 345.912 302.46 346.457Z" fill="#1A2E35"/>
</svg>
