<svg width="552" height="651" viewBox="0 0 552 651" fill="none" xmlns="http://www.w3.org/2000/svg">
<path d="M482.081 318.847C482.081 318.847 470.742 317.985 471.747 343.55C472.751 369.116 475.335 382.617 475.335 382.617C475.335 382.617 475.048 388.218 470.598 387.213C466.148 386.064 457.967 380.606 453.948 384.771C449.785 389.08 451.22 395.543 456.818 403.299C462.416 411.055 474.043 428.29 475.048 429.87C476.053 431.45 476.483 434.322 473.325 434.035C470.168 433.748 449.211 426.71 446.484 436.764C443.756 446.961 462.847 465.777 464.857 467.931C466.866 470.085 467.01 471.378 466.148 472.671C465.287 473.963 458.541 470.947 452.512 469.08C446.484 467.356 439.163 466.351 438.015 472.24C436.867 478.272 445.335 495.794 476.914 514.179L492.129 521.791L506.483 512.599C536.052 491.055 542.655 472.814 540.932 466.926C539.21 461.037 532.033 462.76 526.148 465.202C520.263 467.644 513.803 471.234 512.942 470.085C511.937 468.936 511.937 467.5 513.803 465.202C515.669 462.904 532.751 442.222 529.019 432.312C525.286 422.545 505.048 431.593 502.033 432.312C499.019 432.886 499.162 430.014 500.024 428.29C500.885 426.567 510.789 408.182 515.526 399.996C520.263 391.809 521.124 385.058 516.531 381.324C512.081 377.59 504.473 383.909 500.167 385.489C495.861 387.069 495 381.468 495 381.468C495 381.468 496.292 367.68 494.713 342.258C493.134 316.836 481.651 318.847 481.651 318.847" fill="#ECECEC"/>
<path d="M482.943 341.683C482.943 341.683 482.943 341.827 482.943 342.258C482.943 342.688 482.943 343.119 483.086 343.838C483.23 345.274 483.373 347.285 483.517 349.87C483.804 355.04 484.378 362.653 484.809 371.988C485.813 390.66 487.105 416.656 488.254 445.238C489.545 473.82 490.694 499.672 491.555 518.487C491.986 527.823 492.416 535.435 492.703 540.606C492.847 543.191 492.99 545.202 492.99 546.638C492.99 547.356 492.99 547.787 492.99 548.218C492.99 548.505 492.99 548.793 492.99 548.793C492.99 548.793 492.99 548.649 492.99 548.218C492.99 547.787 492.99 547.356 492.847 546.638C492.703 545.202 492.56 543.191 492.416 540.606C492.129 535.435 491.555 527.823 491.124 518.487C490.12 499.816 488.828 473.82 487.679 445.238C486.387 416.656 485.239 390.803 484.378 371.988C483.947 362.653 483.517 355.04 483.23 349.87C483.086 347.285 482.943 345.274 482.943 343.838C482.943 343.119 482.943 342.688 482.943 342.258C482.943 341.97 482.943 341.683 482.943 341.683Z" fill="#E1E1E1"/>
<path d="M465.144 392.814C465.144 392.814 465.574 393.102 466.149 393.533C466.723 394.107 467.584 394.825 468.589 395.831C470.598 397.841 473.325 400.57 476.196 403.73C479.067 406.89 481.651 409.619 483.66 411.917C484.521 412.922 485.239 413.64 485.957 414.358C486.531 414.933 486.818 415.22 486.818 415.364C486.818 415.364 486.387 415.077 485.813 414.646C485.239 414.071 484.378 413.353 483.373 412.348C481.364 410.337 478.78 407.464 475.766 404.305C472.895 401.145 470.311 398.416 468.302 396.261C467.44 395.256 466.723 394.538 466.005 393.82C465.431 393.245 465.144 392.958 465.144 392.814Z" fill="#E1E1E1"/>
<path d="M488.11 414.932C487.966 414.789 493.564 409.044 500.454 402.006C507.344 394.968 513.086 389.367 513.229 389.367C513.373 389.51 507.775 395.255 500.885 402.293C493.995 409.474 488.253 415.076 488.11 414.932Z" fill="#E1E1E1"/>
<path d="M488.11 458.882C488.11 458.882 488.541 458.595 489.115 458.164C489.976 457.733 490.981 457.159 492.129 456.44C494.569 455.004 498.014 453.137 501.746 450.839C505.478 448.541 508.78 446.387 511.22 444.807C512.368 444.089 513.229 443.37 514.09 442.939C514.808 442.509 515.095 442.221 515.239 442.365C515.239 442.365 514.952 442.652 514.234 443.227C513.66 443.658 512.655 444.376 511.507 445.238C509.21 446.961 505.909 449.115 502.177 451.413C498.445 453.711 495 455.579 492.416 456.871C491.124 457.589 490.119 458.02 489.402 458.308C488.541 458.882 488.11 459.026 488.11 458.882Z" fill="#E1E1E1"/>
<path d="M462.991 443.515C462.991 443.515 463.421 443.658 463.995 443.946C464.713 444.233 465.574 444.807 466.723 445.525C469.019 446.818 472.177 448.685 475.622 450.696C479.067 452.707 482.225 454.718 484.521 456.01C485.67 456.728 486.531 457.303 487.249 457.734C487.823 458.165 488.253 458.452 488.253 458.452C488.253 458.452 487.823 458.308 487.249 458.021C486.531 457.734 485.67 457.159 484.521 456.441C482.225 455.148 479.067 453.281 475.622 451.27C472.177 449.26 469.019 447.249 466.723 445.956C465.574 445.238 464.713 444.664 463.995 444.233C463.278 443.802 462.847 443.515 462.991 443.515Z" fill="#E1E1E1"/>
<path d="M457.967 482.438C457.967 482.438 458.397 482.581 459.259 483.012C460.263 483.587 461.412 484.161 462.847 485.023C465.861 486.746 469.881 489.044 474.33 491.63C478.78 494.215 482.799 496.657 485.813 498.38C487.249 499.242 488.397 499.96 489.258 500.534C490.12 501.109 490.55 501.396 490.55 501.396C490.55 501.396 490.12 501.253 489.258 500.822C488.254 500.247 487.105 499.673 485.67 498.811C482.655 497.087 478.636 494.789 474.187 492.204C469.737 489.619 465.718 487.177 462.704 485.454C461.268 484.592 460.12 483.874 459.259 483.299C458.397 482.725 457.967 482.438 457.967 482.438Z" fill="#E1E1E1"/>
<path d="M489.832 500.678C489.832 500.678 490.263 500.39 491.124 499.816C492.129 499.241 493.277 498.523 494.856 497.518C498.014 495.651 502.32 492.922 506.914 489.906C511.507 486.889 515.669 484.017 518.684 481.862C520.119 480.857 521.267 479.995 522.272 479.421C523.133 478.846 523.564 478.559 523.564 478.559C523.564 478.559 523.133 478.99 522.416 479.564C521.554 480.139 520.406 481.144 518.971 482.15C516.1 484.304 511.937 487.177 507.201 490.336C502.607 493.353 498.158 495.938 495 497.805C493.421 498.667 492.129 499.385 491.268 499.959C490.407 500.39 489.832 500.678 489.832 500.678Z" fill="#E1E1E1"/>
<path d="M512.655 526.817H470.598L484.378 630.659H498.875L512.655 526.817Z" fill="#E1E1E1"/>
<path d="M472.895 539.6C472.895 539.6 472.895 539.744 473.182 540.031C473.325 540.318 473.756 540.606 474.187 540.749C475.191 541.18 476.914 541.18 478.636 540.175C480.359 539.169 481.794 537.446 484.091 536.584C486.387 535.722 489.115 535.866 491.842 536.728C494.569 537.59 496.866 538.882 499.019 540.175C501.172 541.467 503.038 542.616 504.904 543.335C506.626 544.053 508.205 544.484 509.21 544.627C509.784 544.627 510.215 544.771 510.358 544.771C510.645 544.771 510.789 544.771 510.789 544.771C510.789 544.627 508.349 544.627 505.047 543.047C503.325 542.329 501.459 541.18 499.306 539.744C497.153 538.451 494.856 537.015 491.985 536.153C489.258 535.292 486.244 535.148 483.804 536.01C482.655 536.441 481.651 537.159 480.789 537.877C479.928 538.595 479.211 539.313 478.349 539.744C476.77 540.749 475.191 540.749 474.33 540.462C473.182 540.031 472.895 539.6 472.895 539.6Z" fill="#F5F5F5"/>
<path d="M474.33 558.702C474.33 558.702 474.617 558.271 475.335 557.553C476.053 556.835 477.057 555.973 478.636 555.399C480.215 554.824 482.225 554.394 484.521 554.537C486.818 554.681 489.258 555.112 491.842 555.543C494.426 555.973 497.009 556.117 499.306 555.83C501.603 555.543 503.612 554.824 505.191 554.106C506.77 553.388 507.918 552.526 508.779 551.952C509.497 551.377 509.928 550.946 509.928 550.946C509.784 550.803 508.205 552.239 505.047 553.675C503.469 554.394 501.459 554.968 499.306 555.112C497.009 555.399 494.569 555.255 491.985 554.681C489.402 554.25 486.962 553.819 484.521 553.675C482.225 553.675 480.072 554.106 478.493 554.681C476.914 555.399 475.766 556.404 475.191 557.122C474.904 557.553 474.617 557.841 474.617 557.984C474.33 558.559 474.33 558.702 474.33 558.702Z" fill="#F5F5F5"/>
<path d="M507.918 568.9C507.918 568.9 507.488 568.613 506.77 568.326C506.052 568.039 504.76 567.751 503.325 567.608C501.89 567.464 500.024 567.608 498.014 567.895C496.005 568.182 493.995 568.757 491.698 569.188C489.545 569.619 487.392 569.906 485.383 569.906C483.517 569.906 481.794 569.475 480.359 568.9C477.632 567.751 476.627 566.028 476.627 566.028C476.627 566.028 476.77 566.459 477.345 567.177C477.919 567.895 478.78 568.613 480.215 569.331C481.507 570.049 483.373 570.48 485.383 570.624C487.392 570.768 489.545 570.48 491.842 569.906C494.139 569.475 496.148 568.9 498.014 568.469C499.88 568.182 501.746 568.039 503.181 568.039C506.196 568.182 507.775 569.044 507.918 568.9Z" fill="#F5F5F5"/>
<path d="M478.062 583.263C478.062 583.407 479.498 582.258 482.081 582.832C483.373 583.119 484.809 583.694 486.387 584.412C487.966 585.13 489.832 585.848 491.985 585.992C496.148 586.423 499.737 584.987 502.033 583.694C503.181 582.976 504.043 582.258 504.473 581.827C505.048 581.252 505.191 580.965 505.191 580.965C505.048 580.821 504.043 582.114 501.746 583.407C499.45 584.699 496.005 585.848 491.985 585.417C487.966 585.13 484.952 582.832 482.225 582.545C480.933 582.401 479.785 582.545 479.067 582.832C478.349 582.976 478.062 583.263 478.062 583.263Z" fill="#F5F5F5"/>
<path d="M480.359 603.227C480.359 603.371 481.794 603.227 483.804 602.509C485.957 601.791 488.541 600.211 491.555 598.918C493.134 598.344 494.569 597.913 496.005 597.913C497.44 597.913 498.588 598.2 499.593 598.775C501.459 599.78 502.033 601.073 502.177 601.073C502.177 601.073 502.177 600.785 501.746 600.211C501.459 599.636 500.741 599.062 499.737 598.487C498.732 597.913 497.44 597.482 495.861 597.482C494.426 597.482 492.703 597.769 491.124 598.344C487.966 599.636 485.383 601.216 483.373 602.078C481.794 602.94 480.359 603.083 480.359 603.227Z" fill="#F5F5F5"/>
<path d="M482.512 612.563C482.512 612.706 483.517 612.994 485.239 613.425C486.962 613.855 489.258 614.286 491.842 614.574C494.426 614.861 496.866 614.861 498.588 614.717C500.311 614.574 501.315 614.43 501.315 614.43C501.315 614.286 497.009 614.43 491.842 613.855C486.674 613.281 482.512 612.275 482.512 612.563Z" fill="#F5F5F5"/>
<path d="M144.256 148.87L21.0859 178.158L64.0288 358.974L187.199 329.686L144.256 148.87Z" fill="#E1E1E1"/>
<path d="M134.642 143.561L11.472 172.849L54.4149 353.665L177.585 324.377L134.642 143.561Z" fill="#ECECEC"/>
<path d="M124.855 141.912L1.6844 171.2L43.7976 348.523L166.968 319.234L124.855 141.912Z" fill="#F5F5F5"/>
<path d="M123.234 329.762C123.234 329.762 151.942 310.229 158.976 287.392C158.976 287.392 150.507 298.164 135.005 298.595C134.861 298.595 131.847 323.011 123.234 329.762Z" fill="#ECECEC"/>
<path d="M123.809 189.151C123.809 189.295 101.991 194.753 75.0053 201.072C48.0201 207.536 26.0586 212.563 26.0586 212.275C26.0586 212.132 47.8765 206.674 74.8618 200.354C101.847 194.035 123.809 189.008 123.809 189.151Z" fill="#E1E1E1"/>
<path d="M126.966 202.078C126.966 202.221 105.149 207.679 78.1632 213.999C51.1779 220.462 29.2165 225.489 29.2165 225.202C29.2165 225.058 51.0344 219.6 78.0197 213.28C105.005 206.817 126.823 201.79 126.966 202.078Z" fill="#E1E1E1"/>
<path d="M129.981 214.86C129.981 215.004 108.163 220.462 81.1775 226.781C54.1922 233.245 32.2308 238.272 32.2308 237.984C32.2308 237.841 54.0487 232.383 81.034 226.063C108.019 219.744 129.981 214.717 129.981 214.86Z" fill="#E1E1E1"/>
<path d="M132.995 227.787C132.995 227.931 111.177 233.389 84.1918 239.708C57.2065 246.171 35.2451 251.198 35.2451 250.911C35.2451 250.767 57.063 245.31 84.0483 238.99C111.034 232.527 132.995 227.5 132.995 227.787Z" fill="#E1E1E1"/>
<path d="M136.153 240.569C136.153 240.713 114.335 246.171 87.3497 252.49C60.3644 258.954 38.4029 263.981 38.4029 263.693C38.4029 263.55 60.2208 258.092 87.2061 251.772C114.048 245.453 136.009 240.426 136.153 240.569Z" fill="#E1E1E1"/>
<path d="M139.167 253.496C139.167 253.64 117.349 259.098 90.364 265.417C63.3787 271.88 41.4173 276.907 41.4173 276.62C41.4173 276.476 63.2352 271.019 90.2204 264.699C117.206 258.379 139.024 253.353 139.167 253.496Z" fill="#E1E1E1"/>
<path d="M142.181 266.422C142.181 266.566 120.364 272.024 93.3783 278.343C66.393 284.807 44.4316 289.833 44.4316 289.546C44.4316 289.403 66.2495 283.945 93.2348 277.625C120.22 271.162 142.181 266.135 142.181 266.422Z" fill="#E1E1E1"/>
<path d="M145.196 279.205C145.196 279.349 123.378 284.807 96.3926 291.126C69.4073 297.589 47.4459 302.616 47.4459 302.329C47.4459 302.185 69.2638 296.728 96.2491 290.408C123.234 284.088 145.196 279.062 145.196 279.205Z" fill="#E1E1E1"/>
<path d="M227.013 580.247L223.711 617.159L212.659 645.597C211.798 647.607 212.946 649.905 215.099 650.624C216.247 651.054 217.539 650.767 218.544 650.049C224.716 645.309 247.539 627.787 247.682 625.058C247.826 621.898 253.855 586.423 253.855 586.423L227.013 580.247Z" fill="#261363"/>
<g opacity="0.6">
<g opacity="0.6">
<path opacity="0.6" d="M214.956 650.623L247.826 622.473L247.682 624.053C247.539 625.345 246.965 626.638 245.96 627.643C243.376 630.085 235.912 636.835 218.544 650.049C217.539 650.767 216.104 651.054 214.956 650.623Z" fill="white"/>
</g>
</g>
<g opacity="0.6">
<g opacity="0.6">
<g opacity="0.6">
<path opacity="0.6" d="M241.654 609.69C240.649 610.265 240.218 611.557 240.649 612.563C241.08 613.568 242.515 613.999 243.52 613.568C244.525 612.993 245.099 611.414 244.525 610.552C243.95 609.546 242.228 609.116 241.367 609.834" fill="white"/>
</g>
</g>
</g>
<path d="M225.147 635.543C224.86 635.687 224.286 633.532 222.276 632.24C220.267 630.947 218.113 631.234 218.113 630.947C218.113 630.803 218.544 630.66 219.405 630.66C220.267 630.66 221.558 630.947 222.707 631.665C223.855 632.383 224.573 633.389 224.86 634.25C225.29 634.968 225.29 635.399 225.147 635.543Z" fill="#1A2E35"/>
<path d="M221.989 640.139C221.846 640.282 220.697 638.99 218.975 638.128C217.109 637.266 215.53 637.553 215.386 637.266C215.243 637.122 217.109 636.548 219.262 637.41C221.415 638.271 222.276 639.995 221.989 640.139Z" fill="#1A2E35"/>
<path d="M230.745 629.654C230.601 629.798 229.022 627.787 226.152 626.351C223.424 624.914 220.841 624.771 220.841 624.484C220.841 624.34 223.568 624.053 226.582 625.633C229.597 627.212 231.032 629.654 230.745 629.654Z" fill="#1A2E35"/>
<path d="M232.754 618.595C232.611 618.738 230.745 617.733 228.018 617.302C225.434 616.871 223.281 617.302 223.137 617.015C222.994 616.871 225.29 616.009 228.161 616.44C231.032 616.871 232.898 618.451 232.754 618.595Z" fill="#1A2E35"/>
<path d="M234.046 607.823C233.903 607.966 232.037 606.53 229.166 606.386C226.295 606.099 224.286 607.248 224.142 607.104C224.142 606.961 224.573 606.674 225.434 606.243C226.295 605.812 227.731 605.525 229.166 605.668C230.745 605.812 232.037 606.243 232.754 606.817C233.759 607.248 234.046 607.679 234.046 607.823Z" fill="#1A2E35"/>
<path d="M229.453 604.233C229.453 604.233 229.31 603.658 229.597 602.796C229.74 601.934 230.171 600.642 231.176 599.206C231.606 598.631 232.18 597.769 233.185 597.338C233.759 597.195 234.477 597.338 234.908 597.913C235.338 598.487 235.338 599.062 235.338 599.636C235.051 601.934 232.754 603.945 230.171 604.089C227.443 604.089 225.29 602.365 224.429 600.211C224.286 599.636 224.142 599.062 224.573 598.344C224.86 597.769 225.721 597.626 226.152 597.769C227.156 598.057 227.874 598.775 228.448 599.349C229.597 600.498 230.314 601.647 230.601 602.509C231.032 603.371 231.032 603.802 231.032 603.802C230.888 603.945 230.314 601.934 228.018 599.78C227.443 599.349 226.726 598.631 226.008 598.487C225.577 598.344 225.29 598.487 225.147 598.775C225.003 599.062 225.003 599.493 225.147 599.924C225.865 601.647 227.874 603.227 230.171 603.227C232.467 603.227 234.333 601.36 234.62 599.493C234.62 599.062 234.62 598.631 234.333 598.344C234.19 598.057 233.759 597.913 233.472 598.057C232.754 598.2 232.18 598.918 231.75 599.636C229.74 602.222 229.597 604.376 229.453 604.233Z" fill="#1A2E35"/>
<path d="M370.982 221.755C370.982 221.755 370.982 221.899 370.839 222.186C370.265 224.484 366.389 233.82 365.097 233.82C363.662 233.82 360.648 231.809 360.935 230.373C361.222 229.08 366.102 218.595 366.102 218.595C366.102 218.595 366.963 217.015 369.977 217.734C370.552 218.021 370.982 222.186 370.982 221.755Z" fill="#FF9A6C"/>
<path d="M366.102 216.153C366.102 216.153 366.102 216.297 365.958 216.584C365.384 218.882 361.509 228.218 360.217 228.218C358.781 228.218 355.767 226.207 356.054 224.771C356.341 223.478 361.222 212.993 361.222 212.993C361.222 212.993 362.083 211.413 365.097 212.132C367.107 212.706 366.102 216.153 366.102 216.153Z" fill="#FF9A6C"/>
<path d="M361.796 212.276C361.796 212.276 361.796 212.419 361.652 212.707C361.078 215.005 357.203 224.34 355.911 224.34C354.475 224.34 351.461 222.33 351.748 220.893C352.035 219.601 356.915 209.116 356.915 209.116C356.772 209.403 356.485 207.249 360.791 208.254C362.657 208.829 361.796 212.276 361.796 212.276Z" fill="#FF9A6C"/>
<path d="M356.341 208.541C356.341 208.541 356.341 208.685 356.198 208.972C355.624 211.27 351.748 220.606 350.456 220.606C349.021 220.606 346.006 218.595 346.294 217.159C346.581 215.866 351.461 205.381 351.461 205.381C351.461 205.381 352.322 203.802 355.337 204.52C357.203 205.094 356.341 208.541 356.341 208.541Z" fill="#FF9A6C"/>
<path d="M362.083 227.787C362.226 227.787 363.231 225.776 364.379 223.335C365.528 220.893 366.245 218.739 365.958 218.739C365.815 218.739 364.81 220.606 363.662 223.191C362.657 225.633 361.939 227.644 362.083 227.787Z" fill="#EB7446"/>
<path d="M356.485 225.633C356.628 225.633 358.064 222.904 359.643 219.313C361.222 215.723 362.37 212.707 362.226 212.707C362.083 212.707 360.647 215.435 359.069 219.026C357.49 222.473 356.341 225.489 356.485 225.633Z" fill="#EB7446"/>
<g opacity="0.78">
<g opacity="0.78">
<path opacity="0.78" d="M350.887 222.904C351.03 222.904 352.466 220.175 354.045 216.584C355.624 212.994 356.772 209.978 356.628 209.978C356.485 209.978 355.049 212.706 353.47 216.297C351.892 219.888 350.743 222.76 350.887 222.904Z" fill="#EB7446"/>
</g>
</g>
<path d="M363.949 240.857C364.236 240.282 367.968 229.08 367.968 229.08L346.437 218.451C345.289 219.887 341.987 235.543 341.987 235.543L342.705 240.857C342.705 240.857 359.069 250.193 359.499 250.336C360.073 250.48 363.949 240.857 363.949 240.857Z" fill="#FF9A6C"/>
<path d="M347.155 235.974L345.002 227.787C343.997 224.196 344.428 220.462 346.294 217.158L347.585 214.717L365.815 223.047C365.815 223.047 361.652 229.079 356.915 225.776L360.504 232.67L347.155 235.974Z" fill="#FF9A6C"/>
<path d="M358.925 233.532C358.782 233.532 358.925 232.527 358.638 230.947C358.351 229.367 357.346 227.069 355.193 225.489L353.471 224.196L355.48 224.771C356.916 225.202 358.494 225.633 360.217 226.064H360.073C362.083 226.207 364.38 225.489 365.384 223.622C365.528 223.478 365.528 223.335 365.528 223.191L365.815 223.766C360.504 221.611 355.767 219.6 352.466 218.02C350.743 217.159 349.451 216.441 348.59 216.01C347.729 215.435 347.155 215.148 347.298 215.148C347.298 215.004 349.451 216.01 352.753 217.446C356.198 218.882 360.935 220.893 366.102 222.904L366.533 223.047L366.389 223.478C366.246 223.766 366.246 223.909 366.102 224.053C365.528 225.202 364.38 226.064 363.375 226.494C362.226 226.925 361.078 227.069 359.93 226.925C358.207 226.351 356.772 225.92 355.193 225.489L355.48 224.771C357.92 226.638 358.638 229.223 358.925 230.803C359.356 232.67 359.069 233.532 358.925 233.532Z" fill="#EB7446"/>
<path d="M363.375 225.489C363.518 225.489 363.231 226.494 363.518 227.787C363.662 228.361 364.236 229.079 364.954 229.223C365.671 229.223 366.533 228.649 367.107 227.787C368.255 225.776 369.403 224.053 369.978 222.76C370.695 221.467 370.982 220.605 371.126 220.605C371.269 220.605 371.126 221.611 370.552 223.047C369.978 224.483 368.973 226.207 367.824 228.218C367.25 229.223 366.102 230.228 364.81 230.085C363.518 229.941 362.944 228.792 362.801 227.93C362.657 227.069 362.801 226.494 362.944 226.063C363.231 225.632 363.375 225.489 363.375 225.489Z" fill="#EB7446"/>
<path d="M288.878 129.977L282.562 194.609C282.132 199.779 277.538 203.514 272.371 203.083L257.587 201.934C252.419 201.503 248.544 197.05 248.831 191.88C249.261 184.124 249.979 174.645 249.979 174.645C249.979 174.645 236.199 172.49 236.056 158.702C235.912 152.095 236.917 138.594 237.922 126.242C239.07 112.598 250.41 102.257 264.046 102.257H264.907C279.261 103.119 290.026 115.614 288.878 129.977Z" fill="#FF9A6C"/>
<path d="M249.979 174.501C249.979 174.501 258.735 175.219 267.921 169.331C267.921 169.331 263.615 179.241 249.836 178.092L249.979 174.501Z" fill="#EB7446"/>
<path d="M240.936 136.441C241.223 136.728 242.659 135.579 244.812 135.579C246.965 135.579 248.544 136.585 248.687 136.441C248.831 136.297 248.544 135.866 247.826 135.436C247.108 135.005 245.96 134.43 244.668 134.43C243.376 134.43 242.228 134.861 241.654 135.436C240.936 135.866 240.793 136.441 240.936 136.441Z" fill="#1A2E35"/>
<path d="M261.606 136.441C261.893 136.728 263.328 135.579 265.481 135.579C267.634 135.579 269.213 136.585 269.357 136.441C269.5 136.297 269.213 135.866 268.496 135.436C267.778 135.005 266.63 134.43 265.338 134.43C264.046 134.43 262.898 134.861 262.323 135.436C261.749 135.866 261.462 136.441 261.606 136.441Z" fill="#1A2E35"/>
<path d="M253.998 148.793C253.998 148.649 252.706 148.506 250.553 148.218C249.979 148.218 249.548 148.075 249.405 147.644C249.261 147.213 249.548 146.638 249.836 146.064C250.41 144.771 250.84 143.335 251.414 141.899C253.568 136.01 255.29 131.127 255.003 131.127C254.716 130.983 252.706 135.723 250.553 141.611C249.979 143.048 249.548 144.484 248.974 145.777C248.831 146.351 248.4 147.069 248.687 147.931C248.831 148.362 249.261 148.649 249.548 148.793C249.836 148.936 250.266 148.936 250.41 148.936C252.706 148.936 253.998 148.936 253.998 148.793Z" fill="#1A2E35"/>
<path d="M260.314 150.229C260.027 150.229 260.027 152.527 258.017 154.107C256.008 155.687 253.568 155.543 253.568 155.83C253.568 155.974 254.142 156.261 255.146 156.261C256.151 156.261 257.587 155.974 258.878 154.969C260.027 153.963 260.601 152.671 260.744 151.665C260.601 150.804 260.457 150.229 260.314 150.229Z" fill="#1A2E35"/>
<path d="M261.175 124.807C261.319 125.381 263.472 125.094 266.055 125.381C268.496 125.668 270.505 126.386 270.936 125.812C271.079 125.525 270.792 124.95 269.931 124.519C269.07 123.945 267.778 123.37 266.342 123.227C264.907 123.083 263.472 123.37 262.61 123.658C261.606 123.945 261.032 124.519 261.175 124.807Z" fill="#1A2E35"/>
<path d="M241.654 126.53C242.084 126.961 243.52 126.53 245.242 126.53C246.965 126.387 248.544 126.817 248.831 126.387C248.974 126.099 248.687 125.668 248.113 125.238C247.539 124.807 246.391 124.376 245.242 124.519C244.094 124.519 242.946 124.95 242.372 125.525C241.654 125.812 241.51 126.243 241.654 126.53Z" fill="#1A2E35"/>
<path d="M273.807 114.752C273.807 114.896 273.95 114.896 273.807 114.752C276.103 116.476 277.539 119.061 277.969 121.79C277.969 121.934 277.969 121.934 277.969 122.077C278.543 125.955 278.4 129.977 278.974 133.998C279.548 137.876 280.983 141.898 283.854 144.627C285.003 145.776 287.156 146.494 288.16 145.201C288.591 144.627 288.591 144.052 288.591 143.334C289.309 133.855 291.892 125.381 291.892 115.471C291.892 112.742 290.601 110.156 288.448 108.72C286.438 107.284 283.854 105.704 281.558 106.709C279.261 107.858 276.247 112.167 274.524 114.034" fill="#1A2E35"/>
<path d="M284.141 136.153C284.428 136.009 293.615 133.28 293.328 142.76C293.041 152.239 283.567 149.941 283.567 149.654C283.567 149.51 284.141 136.153 284.141 136.153Z" fill="#FF9A6C"/>
<path d="M286.582 146.207C286.582 146.207 286.725 146.35 287.012 146.494C287.299 146.638 287.73 146.781 288.304 146.494C289.309 146.207 290.17 144.627 290.314 142.903C290.314 142.042 290.17 141.18 289.883 140.605C289.596 139.887 289.165 139.456 288.735 139.313C288.304 139.169 287.873 139.456 287.73 139.744C287.586 140.031 287.586 140.174 287.586 140.174C287.586 140.174 287.443 140.031 287.443 139.6C287.443 139.456 287.586 139.169 287.873 139.025C288.16 138.882 288.448 138.738 288.735 138.882C289.452 139.025 290.026 139.6 290.457 140.462C290.744 141.18 291.031 142.185 290.888 143.047C290.744 144.914 289.739 146.638 288.304 147.068C287.586 147.212 287.156 147.068 286.869 146.781C286.582 146.494 286.582 146.207 286.582 146.207Z" fill="#EB7446"/>
<path d="M281.845 108.29C284.141 104.555 277.826 99.0975 273.089 97.6613C268.496 96.225 262.323 98.523 257.73 99.9593C254.859 100.965 251.845 102.257 248.831 102.114C246.821 101.97 244.812 101.252 242.802 100.534C240.793 99.8157 238.783 99.2412 236.774 99.3848C234.764 99.5284 232.611 100.677 231.75 102.545C231.032 104.412 232.037 107.141 234.19 107.428C231.606 105.992 227.874 107.859 227.444 110.875C227.013 113.891 230.171 116.764 233.042 116.045C231.75 115.04 229.597 116.764 229.74 118.343C229.884 120.067 231.463 121.216 232.898 121.934C236.774 123.658 241.367 123.083 245.529 121.791C249.549 120.354 253.424 118.343 257.443 116.764C261.462 115.327 268.209 112.598 272.228 114.035C275.242 115.04 277.251 118.631 278.974 117.913C280.553 117.194 281.701 115.471 281.988 113.604C282.419 111.88 282.132 110.013 281.845 108.29Z" fill="#1A2E35"/>
<path d="M233.042 107.141C233.185 107.141 233.472 107.859 234.477 109.008C235.482 110.157 237.204 111.449 239.788 112.311C242.228 113.173 245.673 113.46 248.831 111.88C251.989 110.444 254.716 107.571 257.874 104.843C261.032 102.114 264.764 100.103 268.496 99.8156C272.228 99.5284 275.673 100.821 277.539 102.975C279.405 105.13 279.835 107.571 279.692 109.008C279.692 109.726 279.405 110.3 279.261 110.731C279.117 111.162 278.974 111.306 278.974 111.306C278.83 111.306 279.261 110.444 279.261 109.008C279.261 107.571 278.83 105.273 276.964 103.406C275.242 101.539 271.941 100.246 268.496 100.677C265.051 101.108 261.462 102.975 258.448 105.561C255.29 108.146 252.563 111.162 249.118 112.598C245.673 114.178 242.084 113.747 239.501 112.742C236.917 111.737 235.195 110.157 234.19 109.008C233.759 108.433 233.329 107.859 233.185 107.571C233.185 107.284 233.042 107.141 233.042 107.141Z" fill="#375A64"/>
<path d="M286.581 135.722C286.581 135.722 286.151 135.435 285.864 134.717C285.433 133.999 285.29 132.706 285.433 131.27C285.577 128.254 288.304 124.95 288.735 120.785C288.878 118.774 288.591 116.62 287.73 115.184C286.869 113.604 285.433 112.598 284.285 112.167C282.993 111.593 281.845 111.593 281.127 111.736C280.409 111.88 279.979 112.024 279.979 112.024C279.979 112.024 280.266 111.736 281.127 111.449C281.845 111.162 283.137 111.162 284.572 111.593C286.007 112.024 287.586 113.029 288.591 114.753C289.596 116.476 290.026 118.631 289.883 120.929C289.739 123.227 288.878 125.237 288.017 126.817C287.156 128.541 286.581 129.977 286.294 131.413C285.433 134.142 286.725 135.722 286.581 135.722Z" fill="#375A64"/>
<path d="M205.339 68.2183C204.764 67.7874 203.042 52.4193 203.042 52.4193L215.96 44.8071L236.056 49.4032L232.037 60.606L211.367 71.378L205.339 68.2183Z" fill="#FF9A6C"/>
<path d="M165.291 80.2825C165.291 80.2825 197.731 63.3346 218.544 61.1802C241.654 58.7385 265.051 72.5267 265.051 72.5267L260.457 11.4854C260.457 11.4854 238.783 -4.74443 211.08 2.14964C187.683 8.03833 164.143 19.3848 164.143 19.3848L165.291 80.2825Z" fill="#FAFAFA"/>
<path d="M165.291 80.2823C165.291 80.2823 165.291 79.9951 165.291 79.2769C165.291 78.5588 165.291 77.5534 165.148 76.1172C165.004 73.2446 165.004 69.2231 164.861 63.9089C164.574 53.2805 164.286 38.0561 163.856 19.241V19.0974L163.999 18.9538C170.172 15.9376 177.061 13.0651 184.238 10.3362C191.559 7.46366 199.31 4.87838 207.635 2.58036C208.64 2.29311 209.788 2.00585 210.793 1.7186C211.798 1.43135 212.946 1.28772 213.951 1.00047C216.104 0.42596 218.257 0.282333 220.554 0.138707C225.003 -0.148546 229.597 -0.00491985 234.19 0.713213C238.783 1.43135 243.376 2.72398 247.826 4.4475C252.276 6.17102 256.582 8.32542 260.601 11.198L260.745 11.3416V11.4852C260.745 12.0597 260.888 12.7778 260.888 13.3524C262.467 34.3218 263.902 54.2859 265.338 72.5265V73.101L264.764 72.8137C258.017 69.0795 251.127 66.3505 244.381 64.3398C237.635 62.329 230.888 61.3236 224.573 61.18C218.257 61.0364 212.228 62.329 206.917 63.7653C201.607 65.2015 196.726 66.925 192.277 68.5049C183.521 71.8084 176.774 74.8245 172.325 76.9789C170.028 77.9843 168.306 78.8461 167.157 79.4206C166.583 79.7078 166.152 79.8514 165.865 79.9951C165.435 80.2823 165.291 80.2823 165.291 80.2823C165.291 80.2823 165.435 80.1387 165.722 79.9951C166.009 79.8514 166.44 79.5642 167.014 79.2769C168.162 78.7024 169.884 77.8407 172.181 76.6917C176.774 74.5373 183.521 71.3775 192.133 68.0741C196.439 66.4942 201.319 64.7707 206.774 63.1908C212.085 61.7545 218.113 60.4619 224.573 60.6055C231.032 60.6055 237.778 61.6109 244.668 63.6216C251.558 65.6324 258.448 68.3613 265.194 72.0956L264.62 72.3829C263.185 54.1423 261.749 34.1782 260.17 13.2087C260.17 12.6342 260.027 11.9161 260.027 11.3416L260.17 11.6288C256.295 8.89993 251.845 6.74553 247.539 5.02201C243.089 3.29849 238.64 2.14948 234.046 1.43135C229.453 0.713213 225.003 0.569586 220.554 0.856839C218.401 1.14409 216.104 1.28772 214.094 1.7186C213.09 2.00585 211.941 2.14948 210.937 2.43673C209.932 2.72398 208.783 3.01124 207.779 3.29849C199.453 5.59652 191.702 8.18179 184.382 11.0543C177.061 13.7832 170.315 16.6558 164.143 19.6719L164.286 19.3847C164.574 38.0561 164.861 53.1369 165.004 63.7653C165.148 69.0795 165.148 73.101 165.148 75.9735C165.148 77.4098 165.148 78.4152 165.148 79.1333C165.291 79.9951 165.291 80.2823 165.291 80.2823Z" fill="#1A2E35"/>
<path d="M247.97 55.7223C247.826 55.7223 246.965 45.3812 246.104 32.742C245.242 19.9593 244.668 9.61816 244.955 9.61816C245.099 9.61816 245.96 19.9593 246.821 32.5984C247.682 45.3812 248.257 55.7223 247.97 55.7223Z" fill="#E1E1E1"/>
<path d="M239.788 52.5621C239.644 52.5621 238.783 42.221 237.922 29.5819C237.061 16.7991 236.486 6.45801 236.774 6.45801C236.917 6.45801 237.778 16.7991 238.64 29.4383C239.501 42.221 240.075 52.5621 239.788 52.5621Z" fill="#E1E1E1"/>
<path d="M232.037 51.4137C231.893 51.4137 231.032 41.0726 230.171 28.4334C229.309 15.6507 228.735 5.30957 229.022 5.30957C229.166 5.30957 230.027 15.6507 230.888 28.2898C231.75 41.0726 232.18 51.4137 232.037 51.4137Z" fill="#E1E1E1"/>
<path d="M215.817 53.7116C215.673 53.7116 214.812 43.3704 213.951 30.7313C213.09 17.9485 212.516 7.60742 212.803 7.60742C212.946 7.60742 213.807 17.9485 214.669 30.5877C215.53 43.3704 216.104 53.5679 215.817 53.7116Z" fill="#E1E1E1"/>
<path d="M208.353 55.7223C208.209 55.7223 207.348 45.3812 206.487 32.742C205.626 19.9593 205.051 9.61816 205.339 9.61816C205.482 9.61816 206.343 19.9593 207.205 32.5984C208.066 45.3812 208.64 55.7223 208.353 55.7223Z" fill="#E1E1E1"/>
<path d="M200.458 57.733C200.315 57.733 199.453 47.3919 198.592 34.7528C197.731 21.97 197.157 11.6289 197.444 11.6289C197.587 11.6289 198.449 21.97 199.31 34.6092C200.028 47.3919 200.602 57.733 200.458 57.733Z" fill="#E1E1E1"/>
<path d="M185.243 64.0524C185.1 64.0524 184.238 53.7113 183.377 41.0721C182.516 28.2894 181.942 17.9482 182.229 17.9482C182.372 17.9482 183.234 28.2894 184.095 40.9285C184.813 53.7113 185.387 64.0524 185.243 64.0524Z" fill="#E1E1E1"/>
<path d="M192.42 60.6056C192.276 60.6056 191.415 50.2645 190.554 37.6253C189.693 24.8426 189.119 14.5015 189.406 14.5015C189.549 14.5015 190.411 24.8426 191.272 37.4817C192.133 50.2645 192.707 60.6056 192.42 60.6056Z" fill="#E1E1E1"/>
<path d="M176.774 66.7814C176.631 66.7814 175.77 56.4403 174.908 43.8011C174.047 31.0184 173.473 20.6772 173.76 20.6772C173.904 20.6772 174.765 31.0184 175.626 43.6575C176.344 56.4403 176.918 66.7814 176.774 66.7814Z" fill="#E1E1E1"/>
<path d="M223.711 51.5573C223.568 51.5573 222.707 41.2161 221.846 28.577C220.984 15.7942 220.41 5.45312 220.697 5.45312C220.841 5.45312 221.702 15.7942 222.563 28.4334C223.424 41.2161 223.855 51.5573 223.711 51.5573Z" fill="#E1E1E1"/>
<path d="M234.477 52.1315C234.477 51.9879 236.486 51.2698 239.788 50.1207C243.089 49.1154 247.826 47.6791 253.137 46.2428L252.993 47.5355C252.276 47.1046 251.558 46.6737 250.84 46.2428C240.506 39.9233 230.888 37.1944 231.032 36.7635C231.032 36.6198 233.472 37.0507 237.348 38.1997C241.223 39.4924 246.391 41.6468 251.558 44.8066C252.276 45.2374 252.993 45.6683 253.711 46.0992C253.998 46.3865 254.142 46.8173 253.998 47.1046C253.855 47.2482 253.711 47.3918 253.568 47.3918C248.257 48.8281 243.52 49.9771 240.075 50.8389C236.63 51.8443 234.62 52.2751 234.477 52.1315Z" fill="#C6368B"/>
<path d="M242.515 50.4081C242.084 50.4081 241.367 47.1047 241.08 42.7959C240.649 38.6307 240.649 35.04 241.08 35.04C241.51 35.04 242.228 38.3435 242.515 42.6522C242.802 46.961 242.802 50.4081 242.515 50.4081Z" fill="#C6368B"/>
<path d="M253.855 47.8227C253.855 47.8227 253.998 48.11 254.142 48.6845C254.285 49.259 254.429 50.1207 253.998 51.2698C253.711 52.4188 252.706 53.5678 251.414 54.5732C250.84 55.004 249.979 55.5786 249.261 55.8658C248.4 56.2967 247.539 56.4403 246.534 56.7276C244.525 57.1584 242.228 57.0148 239.931 56.5839C238.783 56.2967 237.635 56.0094 236.486 55.4349C235.338 55.004 234.19 54.4295 233.042 53.7114C230.745 52.1315 229.022 49.9771 227.587 47.3918C226.295 44.8066 225.29 41.6468 226.152 38.487C226.582 36.9071 227.444 35.4708 228.735 34.4654C230.027 33.4601 231.606 33.0292 233.042 32.8856C235.912 32.4547 238.783 32.7419 241.367 33.4601C246.534 34.7527 250.553 37.9125 252.85 41.0723C255.29 44.2321 256.008 47.6791 256.151 49.8335C256.295 51.9879 256.151 53.2805 256.008 53.2805C255.864 53.2805 255.864 52.1315 255.577 49.9771C255.29 47.8227 254.429 44.8066 251.989 41.7904C249.692 38.9179 245.816 36.0453 240.936 34.8963C238.496 34.3218 235.912 34.0346 233.185 34.4654C231.893 34.6091 230.601 35.04 229.597 35.9017C228.592 36.6198 227.874 37.7689 227.587 39.0615C226.869 41.7904 227.731 44.5193 228.879 46.961C230.027 49.4026 231.75 51.4134 233.759 52.8496C237.922 55.4349 242.659 56.7276 246.247 56.0094C248.113 55.7222 249.692 55.004 250.84 54.1423C251.989 53.2805 252.85 52.2751 253.28 51.4134C253.711 50.408 253.711 49.6899 253.711 49.1154C253.711 48.11 253.711 47.8227 253.855 47.8227Z" fill="#C6368B"/>
<path d="M221.271 73.9626L227.731 68.7921C230.601 66.4941 232.467 63.1907 232.898 59.6L233.185 56.8711L213.664 52.9932C213.664 52.9932 211.798 58.8819 219.118 60.3181C212.659 63.1907 210.219 69.0793 208.496 75.3989L221.271 73.9626Z" fill="#FF9A6C"/>
<path d="M213.233 65.2012C213.377 65.2012 213.807 64.3395 214.956 63.3341C216.104 62.3287 218.113 61.036 220.841 60.8924H222.994L220.984 60.1743C219.549 59.5998 218.113 59.0253 216.391 58.4508H216.535C214.956 57.4454 213.377 55.5782 213.664 53.4238C213.664 53.2802 213.664 53.1366 213.807 52.993L213.233 53.2802C218.688 54.5729 223.568 55.7219 227.3 56.44C229.166 56.7273 230.601 57.0145 231.606 57.0145C232.611 57.1581 233.185 57.1581 233.185 57.1581C233.185 57.0145 231.032 56.5836 227.444 55.8655C223.855 55.1474 218.975 53.8547 213.52 52.5621L213.09 52.4185L212.946 52.8493C212.946 53.1366 212.803 53.2802 212.803 53.4238C212.659 54.7165 212.946 56.0091 213.664 57.0145C214.238 58.0199 215.243 58.738 216.104 59.3125C217.683 59.887 219.262 60.4615 220.697 60.8924L220.841 60.1743C217.826 60.3179 215.673 61.8978 214.525 63.0468C213.377 64.1958 213.09 65.2012 213.233 65.2012Z" fill="#EB7446"/>
<path d="M259.022 593.891L286.869 372.706L281.558 339.241H225.434L218.688 589.869C218.688 591.88 219.98 593.603 221.989 593.891L252.706 598.63C255.864 599.061 258.735 596.907 259.022 593.891Z" fill="#261363"/>
<path d="M286.151 380.175L336.964 430.444L263.902 448.254L269.07 485.166L367.968 471.665C376.437 470.516 384.044 465.92 389.068 459.026C396.676 448.397 396.963 434.178 389.499 423.263L312.418 310.085L277.969 321.288L286.151 380.175Z" fill="#261363"/>
<path d="M283.424 367.392C283.567 367.392 284.428 370.121 285.146 373.711C285.864 377.302 286.438 380.174 286.151 380.174C286.007 380.174 285.146 377.446 284.428 373.855C283.711 370.264 283.137 367.392 283.424 367.392Z" fill="#375A64"/>
<path d="M275.96 452.85C275.96 452.85 276.39 452.707 277.108 452.419C277.969 452.132 279.117 451.845 280.696 451.27C283.854 450.265 288.448 448.972 294.333 447.105C306.103 443.514 323.184 438.488 343.853 432.168L343.71 432.599C326.485 414.215 305.672 392.096 282.706 367.68L283.28 367.536C282.132 377.733 280.84 388.362 279.548 399.277C273.232 451.988 267.347 499.672 262.754 534.143C260.457 551.378 258.448 565.31 257.013 574.933C256.151 579.672 255.721 583.407 255.147 585.992C254.859 587.285 254.716 588.146 254.572 588.865C254.429 589.439 254.285 589.87 254.285 589.87C254.285 589.87 254.285 589.583 254.429 588.865C254.572 588.146 254.716 587.285 255.003 585.992C255.577 583.55 256.008 579.672 256.725 574.933C258.161 565.31 260.027 551.378 262.18 534.143C266.63 499.672 272.371 451.988 278.687 399.277C279.979 388.362 281.271 377.733 282.419 367.536L282.562 366.818L283.137 367.392C305.959 391.809 326.772 414.071 343.997 432.455L344.284 432.742L343.853 432.886C323.04 439.062 306.103 444.089 294.189 447.536C288.304 449.26 283.711 450.552 280.553 451.558C278.974 451.988 277.826 452.276 276.964 452.563C276.39 452.707 275.96 452.85 275.96 452.85Z" fill="#375A64"/>
<path d="M259.596 589.726C259.453 589.726 265.194 542.76 272.515 484.878C279.835 426.997 286.007 380.031 286.151 380.175C286.294 380.175 280.553 427.141 273.232 485.022C265.912 542.904 259.74 589.726 259.596 589.726Z" fill="#375A64"/>
<path d="M277.969 343.981C278.113 343.981 278.543 345.274 279.117 347.428C279.692 349.582 280.553 352.599 281.271 355.902C281.988 359.205 282.562 362.222 282.85 364.52C283.137 366.674 283.28 368.11 283.137 368.11C282.993 368.11 282.706 366.818 282.275 364.663C281.701 362.222 281.127 359.349 280.409 356.189C279.692 353.029 279.117 350.157 278.543 347.715C278.113 345.274 277.826 343.981 277.969 343.981Z" fill="#375A64"/>
<path d="M281.271 339.528C281.127 339.528 281.988 338.81 283.28 339.241C283.854 339.528 284.716 340.103 284.859 341.108C285.003 341.97 284.715 343.119 283.711 343.837C282.706 344.412 281.558 344.125 280.84 343.55C280.122 342.976 279.979 341.826 280.122 341.252C280.266 340.534 280.696 340.103 281.127 339.959C281.414 339.816 281.701 339.816 281.701 339.816C281.701 339.959 280.984 340.247 280.696 341.396C280.553 341.97 280.696 342.688 281.271 342.975C281.845 343.406 282.706 343.55 283.424 343.119C284.141 342.688 284.428 341.826 284.285 341.108C284.141 340.39 283.711 339.959 283.28 339.672C281.988 339.385 281.271 339.672 281.271 339.528Z" fill="#375A64"/>
<path d="M351.892 439.062C351.748 439.206 348.877 436.62 344.715 434.179C340.552 431.737 336.964 430.588 336.964 430.444C336.964 430.301 340.839 431.162 345.002 433.604C349.451 435.902 352.035 438.918 351.892 439.062Z" fill="#375A64"/>
<path d="M224.716 338.523L219.836 250.624C219.836 250.624 212.515 218.882 206.056 206.243L239.644 181.683L248.4 185.848L265.625 201.504L282.993 191.306C282.993 191.306 303.806 200.067 309.404 203.371C314.859 206.674 316.007 215.435 316.007 215.435C316.007 215.435 297.921 247.32 297.347 259.816C296.773 272.311 315.433 304.34 315.433 304.34C315.433 304.34 325.624 307.356 326.198 315.543C326.629 322.724 323.471 325.166 323.471 325.166C323.471 325.166 322.036 317.41 311.701 320.714C301.222 324.017 279.692 343.263 264.046 343.837C248.4 344.556 224.716 338.523 224.716 338.523Z" fill="#FFF567"/>
<path d="M315.002 211.701L328.208 265.992L343.279 230.085L364.667 243.011C364.667 243.011 344.571 314.537 324.619 307.5C324.619 307.5 312.275 301.18 310.696 296.728C309.117 292.275 286.151 259.816 286.151 259.816L315.002 211.701Z" fill="#FFF567"/>
<path d="M315.433 304.339C315.433 304.339 315.289 304.196 315.002 303.765C314.715 303.334 314.284 302.76 313.854 302.041C313.28 301.323 312.706 300.318 311.988 299.169C311.414 298.02 310.552 296.727 309.835 295.291C309.117 293.855 308.256 292.131 307.395 290.408C306.533 288.684 305.816 286.673 305.098 284.519C303.663 280.354 302.371 275.614 301.366 270.587C300.505 265.56 300.218 260.677 300.074 256.225C300.074 254.07 300.074 251.916 300.218 249.905C300.218 247.894 300.505 246.171 300.648 244.447C301.079 241.144 301.51 238.415 301.797 236.691C301.94 235.83 302.084 235.111 302.227 234.537C302.371 234.106 302.371 233.819 302.371 233.819C302.371 233.819 302.371 234.106 302.371 234.537C302.227 235.111 302.227 235.83 302.084 236.691C301.797 238.559 301.51 241.144 301.079 244.447C300.935 246.171 300.792 247.894 300.648 249.905C300.505 251.916 300.505 253.927 300.505 256.081C300.648 260.533 300.935 265.273 301.797 270.3C302.658 275.327 303.95 279.923 305.385 284.088C306.103 286.099 306.82 288.11 307.682 289.833C308.399 291.7 309.261 293.28 309.978 294.716C310.696 296.296 311.414 297.445 312.131 298.738C312.706 299.887 313.28 300.892 313.854 301.611C314.284 302.329 314.715 302.903 315.002 303.478C315.289 304.196 315.433 304.339 315.433 304.339Z" fill="#1A2E35"/>
<path d="M200.315 63.7656C200.315 63.7656 166.727 120.211 164.43 128.541C161.99 137.159 208.64 210.983 208.64 210.983L209.501 213.281L242.802 186.566L203.473 130.983L224.573 75.3994L200.315 63.7656Z" fill="#FFF567"/>
<path d="M205.051 133.424C204.908 133.568 204.19 132.563 202.755 131.27C201.319 129.977 199.023 128.541 196.152 127.823C193.281 127.105 190.554 127.248 188.688 127.679C186.822 128.11 185.674 128.685 185.674 128.541C185.674 128.541 186.678 127.679 188.544 127.105C189.549 126.818 190.698 126.674 191.989 126.53C193.281 126.53 194.86 126.674 196.296 126.961C197.731 127.392 199.166 127.967 200.315 128.541C201.463 129.259 202.468 129.977 203.185 130.695C204.477 132.132 205.051 133.281 205.051 133.424Z" fill="#1A2E35"/>
<path d="M220.267 215.579C220.123 215.579 220.123 213.568 219.692 210.552C219.405 208.972 218.975 207.248 218.257 205.237C217.539 203.227 216.678 201.216 215.386 199.205C214.094 197.194 212.659 195.327 211.367 193.891C209.932 192.455 208.496 191.162 207.348 190.157C204.908 188.29 203.042 187.428 203.185 187.284C203.185 187.284 203.616 187.428 204.477 187.859C204.908 188.002 205.339 188.29 205.913 188.577C206.487 188.864 207.061 189.295 207.779 189.726C209.071 190.588 210.506 191.88 212.085 193.316C213.52 194.896 214.956 196.62 216.248 198.774C217.539 200.929 218.401 202.939 219.118 204.95C219.836 206.961 220.123 208.828 220.41 210.408C220.554 211.126 220.554 211.988 220.554 212.562C220.554 213.137 220.554 213.711 220.554 214.142C220.41 215.148 220.267 215.579 220.267 215.579Z" fill="#1A2E35"/>
<path d="M311.414 306.063C311.414 306.207 310.409 306.063 308.543 306.207C306.677 306.351 304.093 306.925 300.935 308.218C297.921 309.511 294.476 311.521 291.031 314.25C287.586 316.835 283.854 320.139 279.692 323.011C275.529 325.884 270.936 328.038 266.486 328.9C262.036 329.762 258.017 329.475 254.716 329.044C251.414 328.613 248.831 327.751 246.965 327.177C246.104 326.889 245.386 326.602 244.955 326.458C244.525 326.315 244.238 326.171 244.238 326.171C244.238 326.171 245.242 326.458 246.965 326.889C248.687 327.32 251.414 328.038 254.716 328.469C258.017 328.9 262.036 329.044 266.199 328.182C270.505 327.32 274.955 325.309 279.117 322.437C283.28 319.564 286.869 316.405 290.457 313.676C294.046 311.09 297.49 308.936 300.648 307.787C303.806 306.494 306.533 306.063 308.399 306.063C309.404 306.063 310.122 306.063 310.552 306.063C311.27 306.063 311.414 306.063 311.414 306.063Z" fill="#1A2E35"/>
<path d="M326.916 290.982C326.772 290.982 326.342 289.69 326.055 287.392C325.624 285.094 325.48 281.934 325.624 278.487C325.768 275.04 326.485 271.88 327.059 269.582C327.634 267.428 328.208 265.991 328.351 266.135C328.495 266.135 328.064 267.571 327.634 269.726C327.203 271.88 326.629 275.04 326.485 278.487C326.342 281.934 326.485 285.094 326.772 287.392C326.772 289.546 327.059 290.839 326.916 290.982Z" fill="#1A2E35"/>
<g opacity="0.3">
<path opacity="0.3" d="M245.816 325.597C245.96 322.006 250.266 319.995 253.855 320.139C257.443 320.426 260.888 322.006 264.477 322.15C270.505 322.437 275.96 318.415 280.553 314.537C285.29 310.659 290.314 306.494 296.486 306.207C297.203 306.207 298.208 306.351 298.495 307.069C298.639 307.787 298.065 308.361 297.634 308.792C290.17 315.543 282.419 322.293 273.232 326.171C264.046 330.049 252.706 330.767 244.381 325.166" fill="black"/>
</g>
<g opacity="0.3">
<path opacity="0.3" d="M301.797 238.559C300.648 255.938 306.533 273.604 317.729 286.961C319.595 289.259 321.748 291.414 322.61 294.143C323.471 296.872 322.897 300.462 320.313 301.898C318.16 303.048 315.433 302.329 313.567 300.749C311.701 299.17 310.552 296.872 309.548 294.717C301.079 276.62 296.916 255.651 302.371 236.405" fill="black"/>
</g>
<path d="M136.296 528.684C137.732 523.801 140.603 519.205 145.339 517.194C150.076 515.183 155.674 516.333 160.554 518.056C165.435 519.78 170.315 522.221 175.482 522.508C180.65 522.796 186.535 520.354 188.114 515.327C189.549 510.587 186.822 505.704 183.234 502.257C175.77 495.076 164.717 492.06 154.669 494.501C144.622 496.943 136.153 504.699 132.708 514.465" fill="#428F2A"/>
<path d="M94.9572 549.654C87.3497 542.329 87.6368 529.69 91.5123 519.923C95.3879 510.156 103.713 502.544 112.9 497.517C130.842 487.894 153.378 487.176 172.038 495.65C162.851 495.937 154.095 501.108 149.358 509.007C145.196 515.901 144.191 524.375 140.746 531.7C136.871 539.887 129.837 546.494 121.368 549.797C113.043 553.101 103.426 553.101 94.9572 549.654Z" fill="#50A436"/>
<path d="M91.3687 505.992C82.9 495.938 81.7517 479.995 83.0435 466.925C84.3354 453.855 87.3497 440.785 85.1966 427.859C84.0483 420.246 81.034 412.922 80.0292 405.166C79.0244 397.41 80.4598 388.792 86.3449 383.765C93.2348 378.02 104 379.457 111.034 384.771C118.21 390.085 122.23 398.559 125.244 406.889C131.847 425.273 134.287 445.812 128.832 464.627C123.378 483.442 110.603 500.247 91.9429 505.992" fill="#50A436"/>
<path d="M87.2061 588.002C87.2061 588.002 87.2061 587.571 87.2061 586.853C87.2061 586.135 87.2061 584.986 87.2061 583.55C87.3497 580.677 87.6367 576.512 88.2109 571.485C88.7851 566.458 89.9334 560.426 91.5123 553.819C93.0912 547.212 95.8185 540.175 99.5505 533.281C103.426 526.387 108.019 520.498 112.756 515.615C117.493 510.731 122.373 506.997 126.536 504.124C128.689 502.688 130.698 501.539 132.421 500.534C134.287 499.528 135.866 498.81 137.158 498.236C138.449 497.661 139.454 497.23 140.172 496.943C140.89 496.656 141.177 496.512 141.32 496.512C141.32 496.512 141.033 496.656 140.315 497.087C139.598 497.374 138.593 497.948 137.301 498.523C136.009 499.241 134.43 499.959 132.708 500.965C130.985 501.97 128.976 503.119 126.823 504.699C122.66 507.571 117.78 511.449 113.187 516.189C108.593 521.072 103.857 526.961 100.125 533.711C92.3735 547.356 90.2204 561.575 88.6415 571.629C87.9238 576.656 87.6367 580.821 87.3497 583.693C87.2061 585.13 87.2061 586.135 87.2061 586.997C87.3497 587.571 87.3497 588.002 87.2061 588.002Z" fill="#1A2E35"/>
<path d="M14.2884 466.638C-1.35729 476.118 -1.35729 484.735 1.36995 492.778C3.95364 500.965 13.5707 506.566 21.6089 503.55C26.0586 501.827 29.36 497.949 32.0872 493.927C34.8145 490.049 37.5417 485.741 41.4173 483.012C45.2928 480.139 51.0344 479.134 54.9099 481.863" fill="#50A436"/>
<g opacity="0.5">
<g opacity="0.5">
<g opacity="0.5">
<g opacity="0.5">
<g opacity="0.5">
<path opacity="0.5" d="M14.2884 466.638C-1.35729 476.118 -1.35729 484.735 1.36995 492.778C3.95364 500.965 13.5707 506.566 21.6089 503.55C26.0586 501.827 29.36 497.949 32.0872 493.927C34.8145 490.049 37.5417 485.741 41.4173 483.012C45.2928 480.139 51.0344 479.134 54.9099 481.863" fill="black"/>
</g>
</g>
</g>
</g>
</g>
<path d="M2.51826 476.979C6.68089 471.378 16.7286 469.654 23.0443 472.527C29.36 475.399 34.0968 481.001 38.2594 486.602C42.422 492.204 46.5847 498.092 52.3262 501.97C58.0678 505.848 66.2495 507.284 71.991 503.407C75.723 500.821 78.0196 496.369 78.7373 491.773C79.455 487.177 78.7373 482.581 77.8761 478.128C76.4407 471.521 74.2876 464.771 68.9767 460.462C63.0916 455.866 55.0534 455.579 47.5894 455.866C38.9771 456.153 30.3648 456.728 22.3266 459.744C14.1449 462.617 5.96319 469.08 2.51826 476.979Z" fill="#50A436"/>
<path d="M74.2876 575.507C74.2876 575.507 74.2876 575.364 74.2876 575.22C74.2876 574.933 74.2876 574.646 74.2876 574.215C74.2876 573.209 74.1441 571.917 74.1441 570.337C74.0006 566.89 73.857 562.006 73.7135 555.974C73.5699 549.942 73.2829 542.761 72.8523 534.717C72.4216 526.818 71.8475 518.057 70.5556 508.865C69.9815 504.269 69.2638 499.816 67.9719 495.795C66.6801 491.629 64.9576 487.895 63.2351 484.305C61.3691 480.858 59.3596 477.554 57.2065 474.825C55.0534 472.096 52.7568 469.655 50.6037 467.5C46.154 463.479 41.8479 460.893 38.8336 459.457C38.1159 459.17 37.3982 458.739 36.824 458.452C36.2499 458.165 35.6757 458.021 35.2451 457.877C34.8145 457.734 34.5274 457.59 34.2403 457.446C34.0968 457.303 33.9533 457.303 33.9533 457.303C33.9533 457.303 34.0968 457.303 34.2403 457.446C34.5274 457.59 34.8145 457.59 35.2451 457.734C35.6757 457.877 36.2499 458.021 36.824 458.308C37.3982 458.595 38.1159 458.883 38.8336 459.17C41.8479 460.606 46.2976 463.048 50.7473 467.069C53.0439 469.08 55.3405 471.522 57.4936 474.394C59.6467 477.267 61.7998 480.427 63.6658 484.017C65.5318 487.608 67.2542 491.486 68.5461 495.651C69.8379 499.816 70.5556 504.269 71.1298 508.865C72.2781 518.057 72.8522 526.818 73.2829 534.717C73.7135 542.761 73.857 549.942 74.0006 555.974C74.1441 562.006 74.1441 566.89 74.1441 570.337C74.1441 571.917 74.1441 573.353 74.1441 574.215C74.1441 574.646 74.1441 574.933 74.1441 575.22C74.2876 575.364 74.2876 575.507 74.2876 575.507Z" fill="#1A2E35"/>
<path d="M79.8857 582.544C79.8857 582.544 79.0244 580.246 78.1632 575.794C77.302 571.342 76.7278 564.878 77.4455 556.835C78.1632 548.792 80.1727 539.456 83.4741 529.403C86.632 519.349 91.0817 508.577 94.8137 496.943C96.6797 491.198 98.2586 485.453 99.2634 479.851C100.412 474.25 100.986 468.792 101.416 463.478C102.278 452.993 102.134 443.514 101.847 435.471C101.56 427.428 101.129 421.108 100.842 416.656C100.699 414.501 100.555 412.778 100.555 411.485C100.555 410.911 100.555 410.48 100.555 410.193C100.555 409.905 100.555 409.762 100.555 409.762C100.555 409.762 100.555 409.905 100.555 410.193C100.555 410.48 100.699 410.911 100.699 411.485C100.842 412.634 100.986 414.358 101.129 416.656C101.416 421.108 101.991 427.571 102.278 435.471C102.565 443.514 102.708 452.993 101.991 463.478C101.56 468.792 100.842 474.25 99.8375 479.995C98.8328 485.597 97.2538 491.485 95.3878 497.23C91.6558 508.864 87.2061 519.636 84.0483 529.69C80.7469 539.744 78.7374 549.079 78.0197 556.979C77.302 564.878 77.7326 571.342 78.4503 575.794C78.8809 577.948 79.168 579.672 79.4551 580.821C79.5986 581.395 79.7421 581.826 79.7421 582.114C79.8857 582.401 79.8857 582.544 79.8857 582.544Z" fill="#1A2E35"/>
<path d="M118.641 589.582H45.1493L43.5703 575.507H118.641V589.582Z" fill="#412D83"/>
<path d="M53.0439 588.002L62.2304 630.516H102.134L110.746 588.002H53.0439Z" fill="#412D83"/>
<path d="M118.641 589.582C118.641 589.726 102.421 589.87 82.6129 589.87C62.661 589.87 46.5847 589.582 46.5847 589.439C46.5847 589.295 62.8045 589.151 82.6129 589.151C102.565 589.151 118.641 589.439 118.641 589.582Z" fill="#412D83"/>
<path d="M106.01 610.552C105.866 610.695 103.857 608.541 99.5505 606.817C97.3974 605.955 94.6701 605.237 91.6558 605.237C88.6415 605.094 85.3401 605.812 82.0387 606.961C78.7373 608.11 75.5795 609.403 72.5652 610.121C69.5509 610.839 66.6801 610.695 64.3835 610.408C62.0869 609.977 60.2208 609.403 59.0725 608.684C58.4984 608.397 58.0678 608.11 57.7807 607.823C57.4936 607.679 57.3501 607.535 57.3501 607.535C57.3501 607.535 57.9242 607.966 59.2161 608.397C60.3644 608.972 62.2304 609.546 64.527 609.833C66.8236 610.121 69.5509 610.121 72.5652 609.403C75.4359 608.684 78.5938 607.392 82.0387 606.243C85.3401 605.094 88.7851 604.376 91.9429 604.519C95.1008 604.663 97.828 605.381 99.9811 606.243C102.134 607.105 103.713 608.254 104.718 608.972C105.292 609.403 105.579 609.69 105.866 609.977C106.01 610.408 106.153 610.552 106.01 610.552Z" fill="#1A2E35"/>
<path d="M105.579 613.424C105.436 613.568 103.426 611.557 99.4069 609.69C97.3974 608.828 94.8137 608.254 91.7994 608.11C88.9286 607.967 85.6272 608.685 82.4694 609.834C79.168 610.983 76.1536 612.132 73.2829 612.993C70.4121 613.855 67.6849 613.999 65.3882 613.855C63.0916 613.712 61.3692 612.993 60.2208 612.419C59.6467 612.132 59.2161 611.844 58.929 611.701C58.6419 611.557 58.4984 611.414 58.4984 611.414C58.4984 611.414 59.0725 611.701 60.2208 612.275C61.3692 612.706 63.0916 613.281 65.3882 613.424C67.5413 613.568 70.2686 613.281 73.1393 612.419C76.0101 611.557 79.0244 610.408 82.3258 609.259C85.6272 608.11 88.9286 607.536 91.9429 607.536C94.9572 607.679 97.6845 608.397 99.694 609.259C101.847 610.121 103.282 611.27 104.287 611.988C104.718 612.419 105.148 612.706 105.436 612.993C105.436 613.281 105.579 613.424 105.579 613.424Z" fill="white"/>
<path d="M106.727 607.679C106.584 607.823 104.431 605.668 100.125 603.801C97.9715 602.939 95.2443 602.078 92.0864 601.79C88.9286 601.503 85.4837 602.365 82.0387 603.514C78.5938 604.663 75.2924 606.099 72.1346 606.674C68.9767 607.248 65.9624 607.105 63.6658 606.674C61.2256 606.243 59.3596 605.525 58.2113 604.95C57.6371 604.663 57.2065 604.376 56.9194 604.089C56.6324 603.945 56.4888 603.801 56.4888 603.801C56.4888 603.801 57.2065 604.232 58.3548 604.663C59.5031 605.238 61.3692 605.812 63.8093 606.099C66.1059 606.387 68.9767 606.53 72.1346 605.956C75.1489 605.238 78.4503 603.945 81.8952 602.652C85.3401 601.503 88.9286 600.641 92.0864 600.929C95.2443 601.216 98.1151 602.078 100.268 603.083C102.421 604.089 104.144 605.238 105.148 606.099C105.723 606.53 106.01 606.817 106.297 607.105C106.727 607.536 106.871 607.679 106.727 607.679Z" fill="white"/>
<path d="M119.359 589.726C119.359 589.87 102.852 590.013 82.4694 590.013C62.0869 590.013 45.5799 589.87 45.5799 589.726C45.5799 589.582 62.0869 589.439 82.4694 589.439C102.852 589.295 119.359 589.439 119.359 589.726Z" fill="#1A2E35"/>
<path d="M503.181 244.878C503.038 244.878 502.464 244.017 501.459 242.149C500.454 240.282 499.019 237.553 497.296 233.963C493.708 226.781 488.684 216.44 482.512 203.37C470.168 177.374 453.23 141.036 434.283 100.103H437.728C435.144 106.135 432.417 112.455 429.833 118.918C425.24 130.408 420.934 141.898 417.202 152.957C415.192 158.559 413.47 164.017 411.747 169.331C410.168 174.789 408.446 179.959 407.011 185.13C401.125 205.812 396.676 224.771 393.518 240.857C390.36 256.799 388.207 269.869 386.915 278.918C386.197 283.37 385.767 286.961 385.336 289.259C384.906 291.701 384.618 292.85 384.475 292.85C384.331 292.85 384.331 291.557 384.475 289.115C384.618 286.674 384.906 283.227 385.336 278.631C386.341 269.582 387.92 256.368 390.791 240.282C393.661 224.196 397.824 205.094 403.566 184.124C405.001 178.954 406.58 173.64 408.159 168.182C409.881 162.724 411.604 157.266 413.47 151.665C417.202 140.462 421.508 128.972 426.101 117.338C428.685 110.731 431.556 104.412 434.139 98.3793C434.57 97.3739 435.575 96.943 436.579 97.3739C437.01 97.5175 437.297 97.9484 437.584 98.2357C456.388 139.313 473.038 175.794 484.808 202.078C490.694 215.148 495.287 225.776 498.445 233.101C500.024 236.692 501.172 239.564 502.033 241.575C502.894 243.586 503.325 244.735 503.181 244.878Z" fill="#C6368B"/>
<path d="M479.211 182.975C479.498 183.98 452.512 192.167 418.924 201.359C385.336 210.551 357.92 217.158 357.633 216.153C357.346 215.147 384.331 206.961 417.919 197.769C451.364 188.577 478.923 181.97 479.211 182.975Z" fill="#C6368B"/>
<path d="M460.407 68.6484C460.407 68.6484 460.981 68.2176 462.129 67.6431C462.704 67.3558 463.421 66.9249 464.282 66.494C465.144 66.0632 466.292 65.7759 467.44 65.2014C469.881 64.3396 472.895 63.4779 476.627 62.7597C480.359 62.1852 484.809 61.898 489.689 62.6161C494.569 63.1906 500.024 64.7705 505.335 67.4994C510.646 70.2283 516.1 73.9626 521.267 78.7023C526.435 83.442 531.315 89.187 535.765 95.7939C536.913 97.3738 537.918 99.2409 538.779 101.108C539.64 102.975 540.645 104.842 541.506 106.709C542.368 108.577 543.085 110.587 543.946 112.598C544.808 114.609 545.382 116.62 546.1 118.774C548.827 127.104 550.693 136.297 551.411 145.92C552.128 155.543 551.698 165.596 550.406 175.794C548.97 185.991 546.674 196.476 543.659 207.104C542.942 209.69 542.081 212.419 541.219 215.004C540.358 217.589 539.353 220.318 538.348 223.047C537.2 225.632 536.052 228.361 534.904 230.946C534.186 232.239 533.612 233.532 532.894 234.824L531.889 236.835L530.741 238.702C524.856 248.756 517.679 258.379 509.21 267.284C500.885 276.189 491.268 284.232 480.933 291.413C470.455 298.595 459.259 305.058 446.914 309.797C434.713 314.394 421.364 317.41 407.728 316.979C400.982 316.692 394.092 315.543 387.776 313.101C381.461 310.659 375.576 307.069 370.695 302.329C368.255 300.031 366.102 297.446 364.092 294.86C362.083 292.275 360.36 289.402 358.925 286.53C355.911 280.785 353.614 274.609 351.748 268.577C344.858 244.016 344.284 219.025 348.016 196.045C349.882 184.555 352.753 173.496 356.341 163.155C356.772 161.862 357.203 160.569 357.777 159.277C358.207 157.984 358.638 156.692 359.212 155.399C360.217 152.957 361.222 150.372 362.37 147.93C363.518 145.489 364.667 143.191 365.815 140.749C366.963 138.307 368.255 136.153 369.403 133.855C374.427 124.806 379.738 116.332 385.623 108.864C386.341 107.858 387.059 106.997 387.776 105.991C388.494 105.13 389.355 104.124 390.073 103.262C391.652 101.539 393.087 99.6718 394.523 97.9483C396.102 96.2247 397.681 94.6449 399.116 92.9213C400.551 91.1978 402.274 89.7615 403.853 88.1817C406.867 85.0219 410.312 82.293 413.326 79.5641C414.905 78.2714 416.628 76.9788 418.207 75.6861C419.068 75.1116 419.785 74.3935 420.647 73.819C421.508 73.2445 422.226 72.67 423.087 72.0955C424.666 70.9465 426.245 69.7975 427.824 68.7921C429.403 67.7867 431.125 66.7813 432.704 65.7759C433.422 65.345 434.283 64.7705 435.001 64.3396C435.862 63.9088 436.579 63.4779 437.441 63.047C439.02 62.1852 440.599 61.3235 442.034 60.4617C445.192 58.8818 448.206 57.4456 451.077 56.0093C454.091 54.7167 456.962 53.424 459.689 52.4186C462.416 51.4133 465.144 50.4079 467.727 49.4025C470.311 48.5407 472.751 47.8226 475.048 47.1045C484.378 44.3755 491.842 42.652 496.866 41.6466C499.45 41.2158 501.316 40.7849 502.607 40.6413C503.899 40.4976 504.617 40.354 504.617 40.354C504.617 40.354 504.043 40.6413 502.751 40.9285C501.459 41.2158 499.593 41.6466 497.009 42.3648C491.985 43.5138 484.665 45.3809 475.478 48.3971C473.182 49.1152 470.742 49.977 468.158 50.8387C465.718 51.8441 462.991 52.8495 460.263 53.9985C457.536 55.1475 454.809 56.4402 451.795 57.7328C448.924 59.1691 445.91 60.6054 442.895 62.3289C441.46 63.1906 439.881 64.0524 438.302 64.9141C437.584 65.345 436.723 65.7759 436.005 66.2068C435.288 66.6377 434.426 67.2122 433.709 67.6431C432.13 68.6484 430.551 69.6538 428.972 70.6592C427.393 71.8082 425.814 72.9572 424.235 73.9626C423.374 74.5371 422.656 75.1116 421.795 75.6861C421.077 76.2606 420.216 76.9788 419.498 77.5533C417.919 78.8459 416.341 80.1386 414.762 81.4312C411.747 84.1601 408.446 86.889 405.432 90.0488C403.996 91.6287 402.274 93.065 400.838 94.7885C399.403 96.3684 397.824 98.0919 396.389 99.8154C394.953 101.539 393.518 103.262 392.082 105.13C391.365 105.991 390.647 106.997 389.929 107.858C389.212 108.864 388.494 109.726 387.776 110.731C382.035 118.2 376.724 126.53 371.844 135.578C370.695 137.876 369.403 140.031 368.255 142.473C367.107 144.771 366.102 147.212 364.954 149.51C363.949 151.952 362.944 154.394 361.939 156.835C361.365 158.128 360.935 159.277 360.504 160.569C360.073 161.862 359.643 163.155 359.212 164.447C355.767 174.645 353.04 185.56 351.174 196.907C349.451 208.253 348.734 219.887 349.308 231.952C349.882 243.873 351.748 256.081 355.049 268.002C356.772 273.891 359.069 279.78 361.939 285.237C363.375 287.966 365.097 290.695 366.963 293.137C368.829 295.722 370.839 298.02 373.135 300.174C377.585 304.483 383.04 307.93 388.925 310.085C394.81 312.383 401.269 313.532 407.728 313.819C420.647 314.25 433.565 311.521 445.479 306.925C457.393 302.329 468.445 296.009 478.636 288.972C488.828 281.934 498.301 274.034 506.483 265.417C514.665 256.799 521.842 247.464 527.583 237.553L528.731 235.686L529.736 233.819C530.454 232.526 531.028 231.377 531.746 230.085C533.038 227.643 534.042 225.058 535.191 222.473C536.195 219.887 537.2 217.302 538.061 214.717C538.923 212.131 539.784 209.546 540.502 206.817C543.516 196.332 545.956 186.135 547.391 176.081C548.827 166.027 549.257 156.117 548.683 146.781C548.109 137.446 546.387 128.397 543.803 120.21C543.085 118.2 542.511 116.045 541.793 114.178C540.932 112.167 540.214 110.3 539.497 108.433C538.636 106.566 537.774 104.842 536.77 102.975C535.908 101.108 534.904 99.5282 533.899 97.9483C529.736 91.4851 524.856 85.8836 519.976 81.144C514.952 76.4043 509.784 72.67 504.617 69.9411C499.449 67.2122 494.282 65.6323 489.545 64.9141C484.809 64.196 480.502 64.3396 476.77 64.7705C473.038 65.345 470.024 66.0632 467.584 66.7813C466.436 67.2122 465.287 67.4994 464.426 67.7867C463.565 68.2176 462.704 68.5048 462.129 68.6484C460.981 68.5048 460.407 68.7921 460.407 68.6484Z" fill="#C6368B"/>
<path d="M492.56 163.442C491.555 163.442 489.832 146.207 488.684 124.663C487.536 103.263 487.536 85.7402 488.541 85.7402C489.545 85.7402 491.268 102.975 492.416 124.519C493.564 145.92 493.564 163.442 492.56 163.442Z" fill="#C6368B"/>
<path d="M515.813 115.184C516.244 116.189 504.904 121.647 490.407 126.818C475.909 131.988 463.565 134.861 463.278 133.855C462.991 132.85 474.617 128.397 489.115 123.227C503.612 118.2 515.382 114.322 515.813 115.184Z" fill="#C6368B"/>
</svg>
