<svg width="58" height="57" viewBox="0 0 58 57" fill="none" xmlns="http://www.w3.org/2000/svg">
<path d="M32.3249 37.7116C31.8336 37.7116 31.3409 37.539 30.9414 37.1893L24.1785 31.27L12.1486 36.3991C11.2944 36.7731 10.2451 36.5082 9.66327 35.7657C9.04701 34.9795 9.07084 33.8719 9.71403 33.113L13.001 28.8094C13.3798 28.3136 14.0892 28.2187 14.585 28.5975C15.0811 28.9762 15.176 29.6856 14.7973 30.1814L11.8166 34.0838L23.9449 28.9122C24.344 28.7418 24.8058 28.8155 25.1324 29.1016L32.3086 35.3821L45.9868 19.6719L32.9279 24.8588C32.5342 25.0151 32.0857 24.9379 31.7669 24.6589L24.5784 18.3674L21.1656 22.264C20.7542 22.7333 20.0399 22.7805 19.5706 22.3695C19.1014 21.9585 19.0542 21.2443 19.4651 20.775L22.9883 16.7526C23.7573 15.8878 25.0821 15.8043 25.9465 16.5614L32.7355 22.5033L45.7497 17.3344C46.6578 16.9645 47.7173 17.2819 48.2726 18.0901C48.8244 18.8923 48.7454 19.9866 48.0868 20.7022L33.8819 37.0167C33.8722 37.0282 33.862 37.0397 33.8514 37.0507C33.4374 37.4891 32.8825 37.7116 32.3249 37.7116ZM11.2564 34.3226C11.2551 34.323 11.2538 34.3239 11.2525 34.3243L11.2564 34.3226Z" fill="white"/>
<path d="M17.1087 26.6365C16.6297 26.6365 16.1936 26.3217 16.0395 25.8693C15.8859 25.4172 16.0413 24.9007 16.4209 24.6098C16.7811 24.3335 17.2817 24.3034 17.6742 24.529C18.0772 24.7603 18.2997 25.2323 18.2238 25.6905C18.135 26.2282 17.6543 26.6365 17.1087 26.6365Z" fill="white"/>
<path d="M12.1076 57C11.9111 57 11.7155 56.9492 11.5407 56.8477C11.2216 56.6627 11.0123 56.3334 10.9814 55.9657L10.2861 47.78C3.74214 42.6172 0 35.099 0 27.0748C0 19.828 3.01949 13.0196 8.50182 7.90321C13.9625 2.80672 21.2177 0 28.9311 0C36.6445 0 43.8996 2.80672 49.3599 7.90321C54.8422 13.0196 57.8613 19.8284 57.8613 27.0757C57.8613 34.322 54.8422 41.1309 49.3599 46.2472C43.8992 51.3438 36.644 54.1505 28.9311 54.1505C26.1659 54.1505 23.4324 53.7863 20.7983 53.0672L12.5848 56.8945C12.4329 56.9651 12.27 57 12.1076 57ZM28.9311 2.26021C14.2247 2.26021 2.26021 13.3922 2.26021 27.0748C2.26021 34.5494 5.83018 41.5533 12.055 46.2914C12.3089 46.4847 12.4695 46.7765 12.4965 47.0948L13.0964 54.1624L20.2231 50.8418C20.4708 50.7262 20.7511 50.7045 21.0137 50.78C23.5701 51.5168 26.2338 51.8903 28.9311 51.8903C43.637 51.8903 55.6011 40.7583 55.6011 27.0757C55.6011 13.3922 43.637 2.26021 28.9311 2.26021Z" fill="white"/>
</svg>
