<svg width="63" height="63" viewBox="0 0 63 63" fill="none" xmlns="http://www.w3.org/2000/svg">
<path d="M61.95 0H1.05C0.469612 0 0 0.469612 0 1.05V40.95C0 41.5304 0.469612 42 1.05 42H14.4057L9.48176 61.6958C9.40275 62.0096 9.47349 62.3418 9.67247 62.596C9.87144 62.8513 10.177 63 10.5 63H16.8C17.2819 63 17.7013 62.6719 17.8182 62.2042L22.8693 42H27.3V61.95C27.3 62.5304 27.7696 63 28.35 63H34.65C35.2304 63 35.7 62.5304 35.7 61.95V42H40.1307L45.1818 62.2044C45.2987 62.6719 45.718 63 46.2 63H52.5C52.823 63 53.1286 62.8513 53.3275 62.596C53.5265 62.3416 53.5972 62.0095 53.5182 61.6958L48.5943 42H61.95C62.5304 42 63 41.5304 63 40.95V1.05C63 0.469612 62.5304 0 61.95 0ZM15.9797 60.9H11.8453L16.5694 42H20.7057L15.9797 60.9ZM33.6 60.9H29.4V42H33.6V60.9ZM51.1547 60.9H47.0203L42.2944 42H46.4307L51.1547 60.9ZM60.9 39.9H2.1V2.1H60.9V39.9Z" fill="white"/>
<path d="M57.75 4.2002H5.25001C4.66962 4.2002 4.20001 4.66981 4.20001 5.2502V36.7502C4.20001 37.3306 4.66962 37.8002 5.25001 37.8002H42H54.6H57.75C58.3304 37.8002 58.8 37.3306 58.8 36.7502V5.2502C58.8 4.66981 58.3304 4.2002 57.75 4.2002ZM53.55 35.7002H43.05V34.6502H53.55V35.7002ZM53.55 32.5502H43.05V31.5002H53.55V32.5502ZM56.7 35.7002H55.65V30.4502C55.65 29.8698 55.1804 29.4002 54.6 29.4002H42C41.4196 29.4002 40.95 29.8698 40.95 30.4502V35.7002H6.30001V6.3002H56.7V35.7002Z" fill="white"/>
<path d="M17.85 32.5498H10.5V34.6498H17.85V32.5498Z" fill="white"/>
<path d="M33.9045 15.7502C33.1406 15.7502 32.393 15.6056 31.6814 15.3216L28.1868 13.924C27.6075 13.6913 26.9687 13.7005 26.3934 13.9466L21.3433 16.1112C21.2408 16.1522 21.1608 16.1224 21.1106 16.0896C21.0605 16.0568 21 15.9942 21 15.8845C21 15.0386 20.5632 14.2788 19.8311 13.8542C19.0989 13.4296 18.2232 13.4266 17.489 13.847L12.079 16.9386L13.1209 18.7618L18.5309 15.6702C18.6345 15.6127 18.7216 15.6394 18.777 15.6712C18.8334 15.703 18.9001 15.7666 18.9001 15.8845C18.9001 16.675 19.2939 17.4073 19.9542 17.843C20.6166 18.2788 21.445 18.3505 22.1701 18.0409L27.2202 15.8764C27.2796 15.8508 27.3504 15.8517 27.4089 15.8743L30.9024 17.2718C31.8631 17.6553 32.8732 17.8501 33.9047 17.8501H38.85V15.7501H33.9045V15.7502Z" fill="white"/>
</svg>
