<svg width="51" height="33" viewBox="0 0 51 33" fill="none" xmlns="http://www.w3.org/2000/svg">
<path d="M51 8.59792C51 5.92209 48.823 3.74508 46.1472 3.74508C43.4713 3.74508 41.2947 5.92209 41.2947 8.59792C41.2947 9.88428 41.7986 11.0547 42.6188 11.9239C41.1601 13.5558 39.0418 14.5858 36.6862 14.5858C32.873 14.5858 29.6793 11.8901 28.9066 8.30493C29.7988 7.4244 30.3528 6.20224 30.3528 4.85284C30.3528 2.17701 28.1758 0 25.5 0C22.8242 0 20.6472 2.17701 20.6472 4.85284C20.6472 6.20224 21.2016 7.4244 22.0934 8.30493C21.3207 11.8901 18.127 14.5858 14.3138 14.5858C11.9582 14.5858 9.83993 13.5558 8.3812 11.9239C9.20142 11.0547 9.70569 9.88428 9.70569 8.59792C9.70569 5.92209 7.52868 3.74508 4.85284 3.74508C2.17701 3.74508 0 5.92209 0 8.59792C0 10.917 1.63538 12.8601 3.81317 13.3372C4.32951 17.5986 5.42326 22.9759 7.73685 26.6338V31.1143C7.73685 31.9439 8.40921 32.6166 9.23877 32.6166H41.7612C42.5908 32.6166 43.2632 31.9439 43.2632 31.1143V26.6338C45.5767 22.9759 46.6705 17.599 47.1868 13.3372C49.3646 12.8597 51 10.917 51 8.59792ZM44.2985 8.59792C44.2985 7.57848 45.1277 6.74892 46.1472 6.74892C47.1666 6.74892 47.9962 7.57848 47.9962 8.59792C47.9962 9.61736 47.1666 10.4465 46.1472 10.4465C45.1277 10.4465 44.2985 9.61736 44.2985 8.59792ZM23.651 4.85284C23.651 3.8334 24.4806 3.00385 25.5 3.00385C26.5194 3.00385 27.3486 3.8334 27.3486 4.85284C27.3486 5.87228 26.5194 6.70145 25.5 6.70145C24.4806 6.70145 23.651 5.87228 23.651 4.85284ZM3.00385 8.59792C3.00385 7.57848 3.8334 6.74892 4.85284 6.74892C5.87228 6.74892 6.70145 7.57848 6.70145 8.59792C6.70145 9.61736 5.87228 10.4465 4.85284 10.4465C3.8334 10.4465 3.00385 9.61736 3.00385 8.59792ZM10.7407 29.6124V27.6891H40.2593V29.6124H10.7407ZM40.936 24.6848H10.0644C8.48353 22.0032 7.57576 18.2359 7.05515 14.836C8.99014 16.5488 11.5325 17.5896 14.3138 17.5896C19.3067 17.5896 23.53 14.2344 24.8494 9.66055C25.0623 9.68935 25.2794 9.7053 25.5 9.7053C25.7206 9.7053 25.9377 9.68935 26.1506 9.66055C27.47 14.2344 31.6933 17.5896 36.6862 17.5896C39.4683 17.5896 42.0122 16.548 43.9472 14.8336C43.427 18.2332 42.5192 22.0001 40.936 24.6848Z" fill="url(#paint0_linear_43_324)"/>
<defs>
<linearGradient id="paint0_linear_43_324" x1="0.361275" y1="17.763" x2="51.0049" y2="17.5499" gradientUnits="userSpaceOnUse">
<stop stop-color="#372E7F"/>
<stop offset="1" stop-color="#C6368B"/>
</linearGradient>
</defs>
</svg>
