<svg width="205" height="229" viewBox="0 0 205 229" fill="none" xmlns="http://www.w3.org/2000/svg">
<g filter="url(#filter0_d_5435_6)">
<path d="M66.6929 181.167L66.6954 181.169C100.18 202.046 143.322 195.157 160.388 168.537C169.576 154.182 172.614 145.223 173.569 135.849C174.062 131.015 174.013 125.945 173.822 119.711C173.784 118.457 173.74 117.158 173.694 115.809C173.516 110.52 173.311 104.474 173.32 97.4219C173.34 82.4332 176.889 70.3175 179.849 60.2129C180.512 57.9491 181.146 55.7863 181.703 53.7148C184.754 42.3843 185.732 33.5217 179.467 22.9763C176.726 18.3695 173.43 14.5058 169.618 11.3104C169.619 11.3111 169.61 11.3031 169.588 11.2865C169.566 11.2701 169.536 11.2474 169.494 11.2186C169.411 11.1603 169.296 11.0845 169.146 10.9928C168.845 10.8082 168.438 10.5819 167.919 10.3248C166.88 9.81021 165.477 9.21346 163.723 8.60832C160.219 7.39909 155.431 6.19604 149.555 5.52992C137.826 4.20032 121.799 5.01309 103.017 12.1526C83.7226 19.4872 69.17 27.1174 57.4937 36.4604C45.8653 45.7651 36.891 56.9282 28.9716 71.5897L28.9703 71.5922C20.5852 87.095 19.35 102.587 20.2486 114.303C20.6974 120.155 21.6761 125.019 22.5351 128.398C22.964 130.085 23.3614 131.396 23.6445 132.266C23.786 132.701 23.8988 133.025 23.9724 133.231C24.0092 133.334 24.0363 133.408 24.0522 133.45L24.0652 133.485L24.0665 133.488L24.0675 133.491L24.0686 133.494L24.1068 133.592L24.1391 133.689L24.1395 133.69L24.1398 133.691L24.141 133.694L24.1421 133.698L24.1488 133.717C24.1599 133.748 24.1805 133.806 24.211 133.889C24.2721 134.055 24.3729 134.322 24.5174 134.681C24.8064 135.399 25.2696 136.486 25.938 137.875C27.2751 140.654 29.4301 144.637 32.6488 149.296C39.0817 158.608 49.7654 170.627 66.6929 181.167Z" stroke="#29C034" stroke-width="10"/>
</g>
<defs>
<filter id="filter0_d_5435_6" x="0" y="0" width="204.094" height="228.392" filterUnits="userSpaceOnUse" color-interpolation-filters="sRGB">
<feFlood flood-opacity="0" result="BackgroundImageFix"/>
<feColorMatrix in="SourceAlpha" type="matrix" values="0 0 0 0 0 0 0 0 0 0 0 0 0 0 0 0 0 0 127 0" result="hardAlpha"/>
<feOffset dy="15"/>
<feGaussianBlur stdDeviation="7.5"/>
<feColorMatrix type="matrix" values="0 0 0 0 0.160784 0 0 0 0 0.752941 0 0 0 0 0.203922 0 0 0 0.15 0"/>
<feBlend mode="normal" in2="BackgroundImageFix" result="effect1_dropShadow_5435_6"/>
<feBlend mode="normal" in="SourceGraphic" in2="effect1_dropShadow_5435_6" result="shape"/>
</filter>
</defs>
</svg>
