<svg width="120" height="136" viewBox="0 0 120 136" fill="none" xmlns="http://www.w3.org/2000/svg">
<path d="M36.2435 13.1364L36.2459 13.1349C58.6648 -0.843014 87.1677 3.98567 98.2686 21.3015C104.474 30.997 106.435 36.8991 107.057 43.0037C107.383 46.202 107.354 49.5848 107.223 53.8504C107.197 54.702 107.167 55.5868 107.136 56.507C107.014 60.1322 106.872 64.3076 106.879 69.1694C106.893 79.6847 109.401 88.2373 111.432 95.1634C111.88 96.6928 112.306 98.1429 112.676 99.5173C114.724 107.128 115.278 112.681 111.31 119.359C109.521 122.368 107.377 124.877 104.906 126.949C104.925 126.933 104.925 126.933 104.902 126.949C104.835 126.992 104.579 127.16 104.054 127.42C103.411 127.739 102.513 128.123 101.366 128.518C99.0751 129.309 95.9079 130.107 91.9964 130.551C84.1964 131.435 73.4709 130.903 60.8537 126.107C47.7234 121.116 37.9183 115.959 30.0932 109.698C22.3162 103.475 16.2969 96.0014 10.9566 86.1146L10.9552 86.1121C5.3942 75.8305 4.56609 65.5414 5.16571 57.7236C5.46503 53.8212 6.11771 50.5796 6.68805 48.3359C6.97266 47.2163 7.23506 46.3518 7.41933 45.7854C7.5114 45.5024 7.58374 45.2945 7.62932 45.167C7.6521 45.1033 7.66816 45.0597 7.67663 45.037L7.68077 45.0258L7.68245 45.0214L7.68255 45.0212L7.68351 45.0187L7.71987 44.925L7.75005 44.8349L7.75069 44.833L7.7521 44.8288L7.75299 44.8265C7.75812 44.8118 7.76965 44.7794 7.78791 44.7297C7.82443 44.6304 7.88782 44.4625 7.9807 44.2316C8.1665 43.7698 8.46996 43.0571 8.91195 42.1385C9.79633 40.3004 11.2323 37.6444 13.3856 34.5274C17.6879 28.2997 24.856 20.2272 36.2435 13.1364Z" stroke="#29C034" stroke-width="10"/>
</svg>
