<svg width="277" height="311" viewBox="0 0 277 311" fill="none" xmlns="http://www.w3.org/2000/svg">
<g filter="url(#filter0_d_5435_5)">
<path d="M87.1061 22.6249L87.1036 22.6264C62.857 37.7242 47.5287 54.9572 38.2809 68.3436C33.6548 75.04 30.5499 80.7749 28.6146 84.797C27.6472 86.8077 26.9729 88.3887 26.5475 89.4458C26.3349 89.9743 26.1846 90.3716 26.0911 90.626C26.0443 90.7531 26.0118 90.8445 25.9928 90.8986L25.9756 90.9477L25.9744 90.9514L25.9743 90.9517L25.9734 90.9541L25.9725 90.9569L25.939 91.0568L25.8999 91.1577L25.8995 91.1588L25.8987 91.1609L25.8974 91.164L25.8959 91.1681C25.8912 91.1806 25.8823 91.2041 25.8694 91.2386C25.8437 91.3076 25.8022 91.4202 25.7469 91.5751C25.6361 91.8848 25.47 92.3631 25.2631 92.9989C24.8493 94.2708 24.2737 96.1703 23.6541 98.6076C22.4138 103.487 21.0045 110.495 20.3582 118.921C19.0646 135.786 20.8375 158.153 32.9535 180.554L32.9548 180.556C44.2816 201.526 57.1598 217.563 73.8762 230.939C90.6406 244.354 111.465 255.252 138.903 265.682C165.829 275.917 188.861 277.101 205.78 275.183C214.251 274.223 221.181 272.486 226.289 270.723C231.572 268.9 234.5 267.191 235.295 266.524C240.876 261.845 245.695 256.193 249.691 249.475L87.1061 22.6249ZM87.1061 22.6249C135.21 -7.36713 197.691 2.24238 222.638 41.1555M87.1061 22.6249L222.638 41.1555M222.638 41.1555C235.766 61.6665 240.227 74.6645 241.623 88.3582M222.638 41.1555L241.623 88.3582M241.623 88.3582C242.335 95.3511 242.261 102.652 241.991 111.485M241.623 88.3582L241.991 111.485M241.991 111.485C241.936 113.271 241.874 115.118 241.809 117.032M241.991 111.485L241.809 117.032M241.809 117.032C241.556 124.519 241.268 133.036 241.281 142.983M241.809 117.032L241.281 142.983M241.281 142.983C241.308 163.883 246.233 180.707 250.42 195.008M241.281 142.983L250.42 195.008M250.42 195.008C251.366 198.241 252.275 201.346 253.081 204.34M250.42 195.008L253.081 204.34M253.081 204.34C257.454 220.584 258.994 233.819 249.693 249.473L253.081 204.34Z" stroke="url(#paint0_linear_5435_5)" stroke-width="10"/>
</g>
<defs>
<filter id="filter0_d_5435_5" x="0" y="0" width="276.538" height="310.947" filterUnits="userSpaceOnUse" color-interpolation-filters="sRGB">
<feFlood flood-opacity="0" result="BackgroundImageFix"/>
<feColorMatrix in="SourceAlpha" type="matrix" values="0 0 0 0 0 0 0 0 0 0 0 0 0 0 0 0 0 0 127 0" result="hardAlpha"/>
<feOffset dy="15"/>
<feGaussianBlur stdDeviation="7.5"/>
<feColorMatrix type="matrix" values="0 0 0 0 0.764706 0 0 0 0 0.211765 0 0 0 0 0.545098 0 0 0 0.15 0"/>
<feBlend mode="normal" in2="BackgroundImageFix" result="effect1_dropShadow_5435_5"/>
<feBlend mode="normal" in="SourceGraphic" in2="effect1_dropShadow_5435_5" result="shape"/>
</filter>
<linearGradient id="paint0_linear_5435_5" x1="16.7464" y1="153.004" x2="261.565" y2="152.426" gradientUnits="userSpaceOnUse">
<stop stop-color="#372E7F"/>
<stop offset="1" stop-color="#C6368B"/>
</linearGradient>
</defs>
</svg>
