<svg width="394" height="449" viewBox="0 0 394 449" fill="none" xmlns="http://www.w3.org/2000/svg">
<path d="M113.585 33.604L113.588 33.6025C191.402 -14.9139 293.189 0.225823 334.151 64.1218C355.288 97.1435 362.641 118.35 364.931 140.822C366.091 152.205 365.964 164.037 365.533 178.154C365.445 181.022 365.345 183.981 365.242 187.044C364.838 198.999 364.38 212.538 364.401 228.368C364.444 261.281 372.166 287.676 378.843 310.502C380.366 315.706 381.834 320.725 383.145 325.594C390.207 351.826 392.888 373.946 377.415 399.985C370.865 410.996 362.951 420.283 353.772 427.979C352.078 429.4 346.985 432.273 338.443 435.22C330.077 438.107 318.795 440.93 305.049 442.488C277.582 445.602 240.313 443.664 196.837 427.137C152.848 410.415 119.276 392.875 92.1712 371.186C65.1141 349.536 44.3017 323.592 26.0501 289.802L26.0488 289.8C6.35031 253.38 3.48453 217.043 5.58085 189.711C6.62852 176.052 8.91314 164.687 10.9283 156.76C11.9354 152.798 12.8734 149.702 13.5527 147.613C13.8923 146.57 14.167 145.779 14.3531 145.258C14.4461 144.998 14.517 144.805 14.5627 144.683C14.5855 144.621 14.602 144.578 14.6119 144.552L14.6212 144.527L14.6217 144.526L14.6223 144.525L14.6227 144.523L14.6628 144.42L14.6976 144.316L14.6977 144.316L14.6982 144.314L14.6994 144.311L14.704 144.298C14.7108 144.278 14.7229 144.243 14.7404 144.193C14.7755 144.093 14.8323 143.934 14.912 143.717C15.0714 143.283 15.3223 142.621 15.6735 141.748C16.3759 140.002 17.4793 137.416 19.0545 134.143C22.2053 127.594 27.241 118.298 34.7274 107.461C49.6959 85.7935 74.4636 57.964 113.585 33.604Z" stroke="url(#paint0_linear_5435_9)" stroke-width="10"/>
<defs>
<linearGradient id="paint0_linear_5435_9" x1="2.78939" y1="244.377" x2="393.812" y2="243.454" gradientUnits="userSpaceOnUse">
<stop stop-color="#372E7F"/>
<stop offset="1" stop-color="#C6368B"/>
</linearGradient>
</defs>
</svg>
