<svg width="104" height="114" viewBox="0 0 104 114" fill="none" xmlns="http://www.w3.org/2000/svg">
<g filter="url(#filter0_d_5435_3)">
<path d="M38.2652 73.7012L38.2627 73.6997C31.53 69.5073 27.3158 64.7507 24.8037 61.1144C23.5454 59.293 22.7136 57.7515 22.2097 56.7041C21.9579 56.1808 21.7887 55.7823 21.6896 55.536C21.64 55.413 21.6081 55.3281 21.5922 55.2849C21.5881 55.2736 21.585 55.2652 21.5831 55.2597L21.5546 55.1749L21.5196 55.0846C21.5166 55.0764 21.5102 55.059 21.5008 55.0328C21.4788 54.9713 21.4404 54.8612 21.3899 54.7059C21.2887 54.3949 21.1397 53.9051 20.9764 53.2625C20.6485 51.9728 20.2698 50.0945 20.096 47.8296C19.7476 43.2869 20.2337 37.3697 23.422 31.475L23.4233 31.4726C26.5967 25.5976 30.1331 21.224 34.6743 17.5903C39.2634 13.9182 45.0796 10.8404 53.0307 7.81783C60.4688 4.99033 66.7392 4.6944 71.2382 5.20443C73.4993 5.46075 75.3046 5.9199 76.5755 6.35846C77.7341 6.75825 78.2077 7.05536 78.215 7.04432C78.2157 7.04317 78.2115 7.03872 78.2024 7.03072C79.5205 8.14818 80.6741 9.50272 81.6483 11.1405C83.6851 14.5691 83.4884 17.3423 82.2809 21.8275C82.0682 22.6178 81.8178 23.4694 81.5498 24.3814C80.3004 28.6319 78.666 34.1926 78.6572 40.9509C78.6532 43.9719 78.7414 46.576 78.8167 48.8029C78.8357 49.3633 78.8538 49.8999 78.8695 50.4132C78.9493 53.0254 78.9626 54.99 78.7767 56.8148C78.4345 60.1727 77.3782 63.5065 73.6774 69.2883L38.2652 73.7012ZM38.2652 73.7012C51.3853 81.8814 67.5864 78.7848 73.6769 69.2891L38.2652 73.7012Z" stroke="#29C034" stroke-width="10"/>
</g>
<defs>
<filter id="filter0_d_5435_3" x="0" y="0" width="103.186" height="113.401" filterUnits="userSpaceOnUse" color-interpolation-filters="sRGB">
<feFlood flood-opacity="0" result="BackgroundImageFix"/>
<feColorMatrix in="SourceAlpha" type="matrix" values="0 0 0 0 0 0 0 0 0 0 0 0 0 0 0 0 0 0 127 0" result="hardAlpha"/>
<feOffset dy="15"/>
<feGaussianBlur stdDeviation="7.5"/>
<feColorMatrix type="matrix" values="0 0 0 0 0.160784 0 0 0 0 0.752941 0 0 0 0 0.203922 0 0 0 0.15 0"/>
<feBlend mode="normal" in2="BackgroundImageFix" result="effect1_dropShadow_5435_3"/>
<feBlend mode="normal" in="SourceGraphic" in2="effect1_dropShadow_5435_3" result="shape"/>
</filter>
</defs>
</svg>
