<svg width="132" height="150" viewBox="0 0 132 150" fill="none" xmlns="http://www.w3.org/2000/svg">
<path d="M39.6398 14.0352L39.6423 14.0337C64.4937 -1.46091 96.2147 3.82057 108.627 23.1819C115.488 33.9017 117.686 40.4759 118.381 47.2992C118.744 50.8569 118.71 54.6108 118.567 59.309C118.538 60.2491 118.505 61.2249 118.47 62.2393C118.335 66.2303 118.18 70.8169 118.187 76.1603C118.202 87.6589 120.939 96.9947 123.175 104.62C123.67 106.311 124.141 107.917 124.553 109.445C126.822 117.873 127.469 124.154 122.996 131.683C120.998 135.042 118.6 137.849 115.834 140.168C115.841 140.163 115.838 140.165 115.826 140.173C115.765 140.215 115.459 140.424 114.796 140.752C114.066 141.114 113.057 141.545 111.777 141.986C109.219 142.869 105.696 143.757 101.352 144.249C92.6885 145.231 80.7975 144.638 66.8251 139.326C52.3397 133.82 41.491 128.119 32.8193 121.181C24.1956 114.28 17.5267 105.996 11.6194 95.0591L11.618 95.0567C5.43618 83.6273 4.51859 72.1943 5.18394 63.5196C5.51612 59.1888 6.24047 55.5904 6.87425 53.0971C7.19058 51.8527 7.48266 50.8902 7.68866 50.257C7.7916 49.9406 7.87284 49.7071 7.92458 49.5623C7.95044 49.49 7.96892 49.4399 7.97901 49.4128L7.98561 49.3951L7.98706 49.3914L7.98718 49.391L7.98775 49.3895L8.02475 49.2941L8.05542 49.2026L8.05544 49.2025C8.0556 49.2021 8.05608 49.2007 8.05689 49.1983C8.05761 49.1963 8.05859 49.1935 8.05983 49.19C8.06628 49.1716 8.0798 49.1335 8.10075 49.0765C8.14267 48.9625 8.21429 48.7729 8.31851 48.5139C8.527 47.9957 8.86559 47.2007 9.35734 46.1787C10.3412 44.1338 11.9352 41.1862 14.3228 37.7301C19.0935 30.8245 27.0344 21.8843 39.6398 14.0352Z" stroke="url(#paint0_linear_5435_4)" stroke-width="10"/>
<defs>
<linearGradient id="paint0_linear_5435_4" x1="0.930204" y1="81.4947" x2="131.328" y2="81.1867" gradientUnits="userSpaceOnUse">
<stop stop-color="#372E7F"/>
<stop offset="1" stop-color="#C6368B"/>
</linearGradient>
</defs>
</svg>
