<svg width="46" height="36" viewBox="0 0 46 36" fill="none" xmlns="http://www.w3.org/2000/svg">
<path d="M45.998 19.7976C45.9898 19.5991 45.9432 19.3481 45.7836 19.1031L34.6878 1.9625C33.84 0.652842 32.2626 0.0609803 30.7624 0.489539C29.2579 0.919444 28.2072 2.31246 28.2072 3.87705V6.1667C28.2072 6.91082 28.8105 7.51409 29.5546 7.51409C30.2987 7.51409 30.902 6.91082 30.902 6.1667V3.87705C30.902 3.50921 31.149 3.18161 31.5028 3.08056C31.8553 2.97978 32.2263 3.11892 32.4257 3.42684L42.1753 18.4878H29.2794C26.4586 18.4878 24.1637 20.7827 24.1637 23.6035V23.8907C23.5573 23.6843 22.5921 23.6287 21.8364 23.8885V23.6034C21.8364 20.7826 19.5415 18.4877 16.7207 18.4877H3.8246L13.5743 3.42675C13.7736 3.11883 14.1444 2.97987 14.4971 3.08047C14.8508 3.18152 15.0978 3.50903 15.0978 3.87696V6.16661C15.0978 6.91073 15.7011 7.514 16.4452 7.514C17.1893 7.514 17.7926 6.91073 17.7926 6.16661V3.87696C17.7926 2.31228 16.7418 0.919265 15.2373 0.489449C13.7372 0.0609803 12.1598 0.652842 11.312 1.96241L0.2163 19.1031C0.104018 19.2898 -8.97676e-05 19.5246 5.80846e-08 19.8353V27.6102C5.80846e-08 30.5575 1.16073 32.7365 3.45002 34.0867C5.23118 35.1371 7.65593 35.6477 10.8632 35.6477H10.9732C14.1804 35.6477 16.6052 35.137 18.3863 34.0867C20.6755 32.7365 21.8364 30.5575 21.8364 27.6102V27.1977C22.0077 26.9081 22.3931 26.4024 22.9966 26.4024C23.6018 26.4024 23.9905 26.9091 24.1637 27.1999V27.6102C24.1637 30.5575 25.3245 32.7365 27.6138 34.0867C29.3948 35.1371 31.8197 35.6477 35.0269 35.6477H35.1369C38.3442 35.6477 40.769 35.137 42.5501 34.0867C44.8393 32.7365 46.0001 30.5575 46.0001 27.6102V19.8353C46 19.8225 45.9984 19.8102 45.998 19.7976ZM19.1415 27.6102C19.1415 30.0977 18.2131 32.9529 10.9731 32.9529H10.8631C3.62312 32.9529 2.69468 30.0977 2.69468 27.6102V21.1827H16.7205C18.0554 21.1827 19.1414 22.2687 19.1414 23.6036V27.6102H19.1415ZM43.3052 27.6102C43.3052 30.0977 42.3768 32.9529 35.1368 32.9529H35.0268C27.7869 32.9529 26.8584 30.0977 26.8584 27.6102V23.6037C26.8584 22.2688 27.9444 21.1828 29.2793 21.1828H43.3051V27.6102H43.3052Z" fill="url(#paint0_linear_43_321)"/>
<defs>
<linearGradient id="paint0_linear_43_321" x1="0.325857" y1="19.5739" x2="46.0048" y2="19.4137" gradientUnits="userSpaceOnUse">
<stop stop-color="#372E7F"/>
<stop offset="1" stop-color="#C6368B"/>
</linearGradient>
</defs>
</svg>
