<svg width="191.000000" height="45.000000" viewBox="0 0 191 45" fill="none" xmlns="http://www.w3.org/2000/svg" xmlns:xlink="http://www.w3.org/1999/xlink">
	<desc>
			Created with Pixso.
	</desc>
	<defs>
		<clipPath id="clip158_59">
			<rect id="MdiBookOpenPageVariantOutline" width="45.000000" height="45.000000" fill="white" fill-opacity="0"/>
		</clipPath>
		<linearGradient x1="95.256203" y1="46.000000" x2="80.214859" y2="30.666668" id="paint_linear_158_57_0" gradientUnits="userSpaceOnUse">
			<stop stop-color="#C62E8B"/>
			<stop offset="1.000000" stop-color="#372E7F"/>
		</linearGradient>
		<linearGradient x1="66.246078" y1="1.817062" x2="61.808571" y2="19.499990" id="paint_linear_158_58_0" gradientUnits="userSpaceOnUse">
			<stop stop-color="#372E7F"/>
			<stop offset="1.000000" stop-color="#C62E8B"/>
		</linearGradient>
		<linearGradient x1="22.500000" y1="1.875000" x2="22.500000" y2="40.312500" id="paint_linear_158_60_0" gradientUnits="userSpaceOnUse">
			<stop stop-color="#372E7F"/>
			<stop offset="1.000000" stop-color="#C6368B"/>
		</linearGradient>
	</defs>
	<path id="Подготовка к ЭГЭ от экспертов" d="M113.87 38.94Q113.53 38.59 113.41 37.63L112.46 37.63Q112.58 38.83 113.2 39.46Q113.34 39.61 113.52 39.73Q114.07 40.1 114.86 40.1Q115.29 40.1 115.66 39.95Q115.93 39.85 116.17 39.66Q116.74 39.23 117.04 38.45Q117.35 37.67 117.35 36.64L117.35 35.94Q117.35 34.31 116.65 33.37Q116.3 32.9 115.83 32.66Q115.36 32.43 114.77 32.43Q114.08 32.43 113.58 32.74Q113.36 32.87 113.17 33.07Q112.57 33.72 112.46 34.93L113.41 34.93Q113.51 34.02 113.84 33.63Q113.93 33.52 114.04 33.45Q114.33 33.24 114.77 33.24Q115.11 33.24 115.38 33.37Q115.73 33.54 115.97 33.93Q116.41 34.63 116.41 35.87L113.99 35.87L113.99 36.68L116.41 36.68Q116.39 37.94 115.99 38.62Q115.74 39.02 115.39 39.18Q115.15 39.29 114.86 39.29Q114.26 39.29 113.93 39Q113.9 38.97 113.87 38.94ZM125.19 38.94Q124.84 38.59 124.72 37.63L123.77 37.63Q123.89 38.83 124.51 39.46Q124.66 39.61 124.83 39.73Q125.38 40.1 126.18 40.1Q126.6 40.1 126.97 39.95Q127.24 39.85 127.48 39.66Q128.05 39.23 128.36 38.45Q128.66 37.67 128.66 36.64L128.66 35.94Q128.66 34.31 127.96 33.37Q127.61 32.9 127.14 32.66Q126.68 32.43 126.09 32.43Q125.4 32.43 124.9 32.74Q124.67 32.87 124.49 33.07Q123.89 33.72 123.77 34.93L124.72 34.93Q124.83 34.02 125.16 33.63Q125.24 33.52 125.35 33.45Q125.65 33.24 126.09 33.24Q126.43 33.24 126.7 33.37Q127.05 33.54 127.29 33.93Q127.72 34.63 127.72 35.87L125.31 35.87L125.31 36.68L127.72 36.68Q127.71 37.94 127.3 38.62Q127.06 39.02 126.71 39.18Q126.47 39.29 126.18 39.29Q125.58 39.29 125.24 39Q125.21 38.97 125.19 38.94ZM55.71 40L56.65 40L56.65 32.53L51.85 32.53L51.85 40L52.78 40L52.78 33.34L55.71 33.34L55.71 40ZM119.7 33.34L122.64 33.34L122.64 32.53L118.76 32.53L118.76 40L119.7 40L119.7 33.34ZM58.59 35.05Q58 35.75 58 36.97L58 37.57Q58.02 38.73 58.6 39.42Q58.83 39.69 59.12 39.85Q59.57 40.1 60.15 40.1Q60.72 40.1 61.16 39.85Q61.46 39.68 61.71 39.4Q62.29 38.69 62.29 37.49L62.29 36.9Q62.27 35.72 61.69 35.03Q61.45 34.75 61.14 34.59Q60.71 34.35 60.14 34.35Q59.59 34.35 59.16 34.57Q58.84 34.75 58.59 35.05ZM72.91 35.05Q72.32 35.75 72.32 36.97L72.32 37.57Q72.34 38.73 72.93 39.42Q73.16 39.69 73.45 39.85Q73.89 40.1 74.47 40.1Q75.04 40.1 75.48 39.85Q75.79 39.68 76.03 39.4Q76.61 38.69 76.61 37.49L76.61 36.9Q76.6 35.72 76.01 35.03Q75.77 34.75 75.47 34.59Q75.03 34.35 74.46 34.35Q73.91 34.35 73.49 34.57Q73.16 34.75 72.91 35.05ZM82.31 35.05Q81.73 35.75 81.73 36.97L81.73 37.57Q81.75 38.73 82.33 39.42Q82.56 39.69 82.85 39.85Q83.29 40.1 83.87 40.1Q84.45 40.1 84.89 39.85Q85.19 39.68 85.43 39.4Q86.02 38.69 86.02 37.49L86.02 36.9Q86 35.72 85.41 35.03Q85.18 34.75 84.87 34.59Q84.43 34.35 83.86 34.35Q83.32 34.35 82.89 34.57Q82.57 34.75 82.31 35.05ZM100.25 39.39Q100.29 39.82 100.37 40L101.31 40L101.31 39.91Q101.14 39.44 101.14 38.8L101.14 36Q101.13 35.26 100.75 34.84Q100.72 34.8 100.68 34.77Q100.24 34.35 99.39 34.35Q98.93 34.35 98.55 34.51Q98.49 34.54 98.44 34.57Q98.17 34.71 97.96 34.92Q97.85 35.04 97.76 35.17Q97.58 35.46 97.53 35.77Q97.51 35.88 97.51 35.99L98.42 35.99Q98.42 35.76 98.51 35.59Q98.57 35.47 98.68 35.37Q98.74 35.31 98.81 35.27Q99.03 35.12 99.34 35.12Q99.79 35.12 100.01 35.33Q100.23 35.54 100.23 36.04L100.23 36.63L99.57 36.63Q98.57 36.64 97.99 37.14Q97.79 37.31 97.66 37.53Q97.42 37.93 97.42 38.48Q97.42 39.17 97.76 39.58Q97.8 39.63 97.84 39.67Q97.9 39.73 97.96 39.78Q98.37 40.1 99.02 40.1Q99.28 40.1 99.51 40.01Q99.94 39.85 100.25 39.39ZM132.7 35.05Q132.11 35.75 132.11 36.97L132.11 37.57Q132.13 38.73 132.72 39.42Q132.95 39.69 133.24 39.85Q133.68 40.1 134.26 40.1Q134.84 40.1 135.27 39.85Q135.58 39.68 135.82 39.4Q136.41 38.69 136.41 37.49L136.41 36.9Q136.39 35.72 135.8 35.03Q135.56 34.75 135.26 34.59Q134.82 34.35 134.25 34.35Q133.7 34.35 133.28 34.57Q132.95 34.75 132.7 35.05ZM145.7 35.17Q145.84 35.12 146 35.12Q146.18 35.12 146.33 35.19Q146.59 35.29 146.77 35.57Q147.06 36.01 147.13 36.78L145.52 36.78L145.52 37.56L147.14 37.56Q147.08 38.39 146.78 38.86Q146.58 39.17 146.3 39.27Q146.16 39.33 145.99 39.33Q145.86 39.33 145.74 39.29Q145.5 39.21 145.31 38.98Q145.27 38.92 145.23 38.87Q145.02 38.55 145.02 38.09L144.16 38.09Q144.16 38.71 144.43 39.18Q144.53 39.36 144.69 39.53Q144.93 39.8 145.24 39.94Q145.58 40.1 145.99 40.1Q146.34 40.1 146.65 39.98Q146.87 39.89 147.06 39.74Q147.53 39.39 147.79 38.75Q148.04 38.11 148.04 37.33L148.04 37.18Q148.04 35.89 147.48 35.12Q147.16 34.69 146.74 34.5Q146.4 34.35 146 34.35Q145.88 34.35 145.77 34.36Q145.42 34.41 145.1 34.6Q144.89 34.73 144.72 34.9Q144.55 35.07 144.42 35.3Q144.24 35.61 144.18 35.93Q144.16 36.07 144.16 36.21L145.02 36.21Q145.02 35.96 145.12 35.74Q145.19 35.58 145.31 35.44Q145.49 35.25 145.7 35.17ZM156.74 39.17Q156.5 39.32 156.17 39.32Q155.7 39.32 155.41 39.09Q155.32 39.02 155.25 38.92Q154.96 38.51 154.96 37.53L154.96 36.83Q154.98 35.92 155.27 35.52Q155.34 35.42 155.44 35.34Q155.72 35.12 156.16 35.12Q156.49 35.12 156.72 35.27Q156.82 35.34 156.89 35.43Q157.16 35.74 157.19 36.35L158.05 36.35Q158.02 35.48 157.57 34.95Q157.54 34.91 157.52 34.88Q157.38 34.73 157.21 34.63Q156.78 34.35 156.16 34.35Q155.38 34.35 154.89 34.72Q154.73 34.84 154.6 35Q154.06 35.65 154.06 36.91L154.06 37.52Q154.06 38.8 154.6 39.45Q154.73 39.6 154.88 39.72Q155.38 40.1 156.17 40.1Q156.6 40.1 156.95 39.94Q157.24 39.81 157.48 39.57Q157.68 39.37 157.82 39.13Q158.03 38.74 158.05 38.25L157.19 38.25Q157.16 38.76 156.89 39.04L156.89 39.04Q156.82 39.12 156.74 39.17ZM165.06 39.69Q165.58 40.1 166.42 40.1Q167.27 40.1 167.81 39.69Q168.05 39.52 168.22 39.27L167.75 38.69Q167.49 39.02 167.18 39.17Q166.87 39.32 166.47 39.32Q166.01 39.32 165.7 39.1Q165.6 39.02 165.51 38.92Q165.17 38.51 165.17 37.62L165.17 37.49L168.27 37.49L168.27 36.9Q168.26 35.59 167.78 34.97Q167.66 34.82 167.52 34.71Q167.07 34.35 166.32 34.35Q165.73 34.35 165.3 34.61Q165.02 34.78 164.81 35.05Q164.27 35.75 164.27 37L164.27 37.67Q164.28 38.86 164.83 39.48Q164.94 39.6 165.06 39.69ZM172.89 39.45Q173.37 38.81 173.37 37.49L173.37 36.88Q173.35 35.62 172.9 34.98Q172.76 34.78 172.57 34.64Q172.16 34.35 171.54 34.35Q171.11 34.35 170.78 34.53Q170.46 34.7 170.23 35.06L170.18 34.45L169.36 34.45L169.36 42.13L170.26 42.13L170.26 39.47Q170.45 39.73 170.7 39.88Q171.06 40.1 171.55 40.1Q172.07 40.1 172.44 39.87Q172.7 39.71 172.89 39.45ZM178.77 35.05Q178.18 35.75 178.18 36.97L178.18 37.57Q178.2 38.73 178.78 39.42Q179.01 39.69 179.3 39.85Q179.75 40.1 180.33 40.1Q180.9 40.1 181.34 39.85Q181.65 39.68 181.89 39.4Q182.47 38.69 182.47 37.49L182.47 36.9Q182.46 35.72 181.87 35.03Q181.63 34.75 181.33 34.59Q180.89 34.35 180.32 34.35Q179.77 34.35 179.34 34.57Q179.02 34.75 178.77 35.05ZM63.35 38.83L63.08 39.22L62.71 39.22L62.71 41.63L63.62 41.63L63.62 40L66.77 40L66.77 41.63L67.68 41.63L67.68 39.22L67.03 39.22L67.03 34.45L63.94 34.45L63.86 36.84Q63.79 38.15 63.35 38.83ZM69.7 35.23L71.77 35.23L71.77 34.45L68.79 34.45L68.79 40L69.7 40L69.7 35.23ZM79.66 35.22L81.18 35.22L81.18 34.45L77.27 34.45L77.27 35.22L78.76 35.22L78.76 40L79.66 40L79.66 35.22ZM87.27 34.45L87.27 40L89.41 40Q90.29 40 90.77 39.59Q90.88 39.5 90.96 39.39Q91.25 39.02 91.25 38.42Q91.25 38.03 91.08 37.74Q91.04 37.66 90.99 37.59Q90.87 37.44 90.72 37.33Q90.54 37.2 90.3 37.13Q90.64 36.99 90.83 36.74Q90.86 36.7 90.89 36.66Q90.96 36.55 91 36.43Q91.09 36.22 91.09 35.97Q91.09 35.45 90.84 35.11Q90.74 34.96 90.59 34.84Q90.08 34.45 89.13 34.45L87.27 34.45ZM93.47 37.63L93.98 37.63L95.51 40L96.65 40L94.66 37.09L96.51 34.45L95.43 34.45L93.92 36.8L93.47 36.8L93.47 34.45L92.56 34.45L92.56 40L93.47 40L93.47 37.63ZM105.94 37.63L106.45 37.63L107.98 40L109.12 40L107.14 37.09L108.99 34.45L107.9 34.45L106.39 36.8L105.94 36.8L105.94 34.45L105.03 34.45L105.03 40L105.94 40L105.94 37.63ZM139.46 35.22L140.97 35.22L140.97 34.45L137.06 34.45L137.06 35.22L138.55 35.22L138.55 40L139.46 40L139.46 35.22ZM150.28 37.63L150.79 37.63L152.32 40L153.46 40L151.47 37.09L153.32 34.45L152.24 34.45L150.73 36.8L150.28 36.8L150.28 34.45L149.37 34.45L149.37 40L150.28 40L150.28 37.63ZM162.09 40L162.99 40L162.99 34.45L159.17 34.45L159.17 40L160.09 40L160.09 35.23L162.09 35.23L162.09 40ZM176.12 35.22L177.63 35.22L177.63 34.45L173.72 34.45L173.72 35.22L175.22 35.22L175.22 40L176.12 40L176.12 35.22ZM183.72 34.45L183.72 40L185.87 40Q186.74 40 187.22 39.59Q187.33 39.5 187.41 39.39Q187.7 39.02 187.7 38.42Q187.7 38.03 187.54 37.74Q187.49 37.66 187.44 37.59Q187.33 37.44 187.18 37.33Q186.99 37.2 186.76 37.13Q187.09 36.99 187.29 36.74Q187.32 36.7 187.34 36.66Q187.41 36.55 187.46 36.43Q187.54 36.22 187.54 35.97Q187.54 35.45 187.3 35.11Q187.19 34.96 187.04 34.84Q186.54 34.45 185.58 34.45L183.72 34.45ZM59.24 38.83Q58.91 38.34 58.91 37.49L58.91 36.96Q58.91 36.11 59.24 35.62Q59.44 35.33 59.7 35.21Q59.9 35.12 60.14 35.12Q60.39 35.12 60.59 35.22Q60.85 35.34 61.04 35.62Q61.38 36.11 61.38 36.97L61.38 37.59Q61.36 38.77 60.8 39.15Q60.53 39.32 60.15 39.32Q59.89 39.32 59.68 39.22Q59.43 39.1 59.24 38.83ZM73.57 38.83Q73.23 38.34 73.23 37.49L73.23 36.96Q73.23 36.11 73.57 35.62Q73.76 35.33 74.03 35.21Q74.22 35.12 74.46 35.12Q74.71 35.12 74.92 35.22Q75.18 35.34 75.37 35.62Q75.71 36.11 75.71 36.97L75.71 37.59Q75.68 38.77 75.12 39.15Q74.86 39.32 74.47 39.32Q74.21 39.32 74.01 39.22Q73.75 39.1 73.57 38.83ZM82.97 38.83Q82.63 38.34 82.63 37.49L82.63 36.96Q82.63 36.11 82.97 35.62Q83.16 35.33 83.43 35.21Q83.63 35.12 83.86 35.12Q84.11 35.12 84.32 35.22Q84.58 35.34 84.77 35.62Q85.11 36.11 85.11 36.97L85.11 37.59Q85.09 38.77 84.52 39.15Q84.26 39.32 83.87 39.32Q83.62 39.32 83.41 39.22Q83.15 39.1 82.97 38.83ZM133.36 38.83Q133.02 38.34 133.02 37.49L133.02 36.96Q133.02 36.11 133.36 35.62Q133.55 35.33 133.82 35.21Q134.02 35.12 134.25 35.12Q134.5 35.12 134.71 35.22Q134.97 35.34 135.16 35.62Q135.5 36.11 135.5 36.97L135.5 37.59Q135.47 38.77 134.91 39.15Q134.65 39.32 134.26 39.32Q134 39.32 133.8 39.22Q133.54 39.1 133.36 38.83ZM165.67 35.31Q165.93 35.12 166.32 35.12Q166.69 35.12 166.92 35.3Q167.01 35.37 167.08 35.46Q167.33 35.8 167.36 36.59L167.36 36.71L165.18 36.71Q165.21 35.9 165.49 35.51Q165.57 35.4 165.67 35.31ZM179.42 38.83Q179.09 38.34 179.09 37.49L179.09 36.96Q179.09 36.11 179.42 35.62Q179.62 35.33 179.88 35.21Q180.08 35.12 180.32 35.12Q180.57 35.12 180.77 35.22Q181.04 35.34 181.23 35.62Q181.56 36.11 181.56 36.97L181.56 37.59Q181.54 38.77 180.98 39.15Q180.71 39.32 180.33 39.32Q180.07 39.32 179.86 39.22Q179.61 39.1 179.42 38.83ZM172.18 35.59Q172.46 36.04 172.46 36.97L172.46 37.52Q172.46 38.44 172.17 38.88Q172.07 39.03 171.94 39.13Q171.67 39.32 171.26 39.32Q170.98 39.32 170.75 39.21Q170.45 39.05 170.26 38.69L170.26 35.8Q170.47 35.4 170.79 35.25Q171 35.15 171.25 35.15Q171.7 35.15 171.97 35.37Q172.09 35.46 172.18 35.59ZM89.12 36.8L88.17 36.8L88.17 35.22L89.18 35.22Q89.8 35.23 90.04 35.54Q90.18 35.72 90.18 36.02Q90.18 36.29 90.05 36.47Q89.81 36.8 89.12 36.8ZM185.57 36.8L184.62 36.8L184.62 35.22L185.63 35.22Q186.26 35.23 186.49 35.54Q186.63 35.72 186.63 36.02Q186.63 36.29 186.5 36.47Q186.26 36.8 185.57 36.8ZM66.13 39.22L64.09 39.22Q64.7 38.3 64.77 36.68L64.82 35.32L66.13 35.32L66.13 39.22ZM99.35 39.26Q99.26 39.27 99.16 39.27Q98.71 39.27 98.52 39.06Q98.33 38.85 98.33 38.37Q98.33 38.08 98.46 37.86Q98.55 37.71 98.7 37.59Q99.08 37.31 99.72 37.3L100.23 37.3L100.23 38.63Q100.22 38.65 100.21 38.67Q100.07 38.92 99.79 39.09Q99.58 39.22 99.35 39.26ZM88.17 39.23L88.17 37.56L89.41 37.56Q89.93 37.56 90.16 37.82Q90.34 38.02 90.34 38.39Q90.34 38.77 90.15 38.98Q89.92 39.23 89.42 39.23L88.17 39.23ZM184.62 39.23L184.62 37.56L185.87 37.56Q186.38 37.56 186.61 37.82Q186.79 38.02 186.79 38.39Q186.79 38.77 186.6 38.98Q186.37 39.23 185.88 39.23L184.62 39.23Z" fill="url(#paint_linear_158_57_0)" fill-opacity="1.000000" fill-rule="evenodd"/>
	<path id="VEROMATICA" d="M102.15 23.77Q103.04 21.87 103.04 19.35L103.04 18.59Q103.04 16.08 102.13 14.16Q101.45 12.72 100.33 11.78Q99.97 11.47 99.57 11.22Q99.22 11.01 98.86 10.84Q97.47 10.2 95.78 10.2Q94.09 10.2 92.69 10.84Q92.33 11.01 91.99 11.22Q91.58 11.47 91.22 11.78Q90.11 12.72 89.42 14.16Q88.51 16.08 88.51 18.6L88.51 19.44Q88.52 21.91 89.44 23.8Q90.1 25.18 91.17 26.1Q91.56 26.43 92.01 26.71Q92.39 26.94 92.78 27.11Q94.15 27.73 95.8 27.73Q97.52 27.73 98.93 27.07Q99.27 26.9 99.6 26.7Q100.07 26.41 100.48 26.05Q101.51 25.13 102.15 23.77ZM170.69 25.16Q171.67 23.79 171.81 21.81L168.3 21.81Q168.18 23.37 167.38 24.11Q166.57 24.86 164.94 24.86Q163.72 24.86 162.94 24.27Q162.57 23.99 162.3 23.58Q161.46 22.3 161.46 19.54L161.46 18.25Q161.49 15.6 162.36 14.34Q162.66 13.91 163.07 13.62Q163.84 13.08 164.99 13.08Q166.61 13.08 167.4 13.83Q168.19 14.57 168.32 16.22L171.84 16.22Q171.61 13.89 170.36 12.41Q170.08 12.07 169.75 11.78Q169.55 11.6 169.33 11.44Q167.61 10.2 164.99 10.2Q163.13 10.2 161.67 10.96Q161.45 11.07 161.25 11.2Q160.85 11.45 160.5 11.75Q159.42 12.66 158.77 14.08Q157.9 15.95 157.9 18.41L157.9 19.46Q157.9 23.31 159.78 25.52Q160.4 26.25 161.17 26.73Q162.74 27.73 164.94 27.73Q167.66 27.73 169.42 26.43Q169.61 26.3 169.78 26.15Q170.3 25.7 170.69 25.16ZM57.69 10.43L53.82 23.26L49.98 10.43L46.08 10.43L52 27.5L55.66 27.5L61.6 10.43L57.69 10.43ZM65.73 20.1L72.48 20.1L72.48 17.35L65.73 17.35L65.73 13.28L73.62 13.28L73.62 10.43L62.21 10.43L62.21 27.5L73.65 27.5L73.65 24.67L65.73 24.67L65.73 20.1ZM78.23 21.25L81.03 21.25L84.23 27.5L88 27.5L88 27.33L84.31 20.36Q85.84 19.67 86.6 18.5Q87.35 17.33 87.35 15.59Q87.35 13.87 86.56 12.7Q86.21 12.19 85.71 11.78Q84.07 10.43 81.05 10.43L74.71 10.43L74.71 27.5L78.23 27.5L78.23 21.25ZM113.57 22.81L109.19 10.43L104.6 10.43L104.6 27.5L108.11 27.5L108.11 22.83L107.76 14.79L112.35 27.5L114.77 27.5L119.37 14.78L119.02 22.83L119.02 27.5L122.55 27.5L122.55 10.43L117.93 10.43L113.57 22.81ZM128.3 23.98L134.46 23.98L135.65 27.5L139.39 27.5L133 10.43L129.74 10.43L123.39 27.5L127.13 27.5L128.3 23.98ZM146.19 13.28L151.42 13.28L151.42 10.43L137.52 10.43L137.52 13.28L142.67 13.28L142.67 27.5L146.19 27.5L146.19 13.28ZM152.64 27.5L156.16 27.5L156.16 10.43L152.64 10.43L152.64 27.5ZM176.59 23.98L182.75 23.98L183.94 27.5L187.68 27.5L181.29 10.43L178.03 10.43L171.68 27.5L175.42 27.5L176.59 23.98ZM98.52 14.5Q99.48 15.89 99.48 18.58L99.48 19.41Q99.47 22.07 98.52 23.46Q98.1 24.07 97.52 24.41Q96.79 24.85 95.8 24.85Q94.81 24.85 94.08 24.42Q93.47 24.06 93.03 23.41Q92.07 21.96 92.07 19.35L92.07 18.52Q92.08 15.86 93.05 14.48Q93.47 13.88 94.04 13.54Q94.78 13.1 95.78 13.1Q96.77 13.1 97.51 13.54Q98.09 13.88 98.52 14.5ZM81.06 18.4L78.23 18.4L78.23 13.28L81.05 13.28Q82.47 13.28 83.15 13.97Q83.26 14.08 83.35 14.2Q83.84 14.85 83.84 15.87Q83.84 16.78 83.41 17.38Q83.28 17.57 83.11 17.73Q83.09 17.74 83.08 17.76Q82.35 18.4 81.06 18.4ZM133.52 21.13L129.25 21.13L131.37 14.75L133.52 21.13ZM181.8 21.13L177.54 21.13L179.66 14.75L181.8 21.13Z" fill="url(#paint_linear_158_58_0)" fill-opacity="1.000000" fill-rule="evenodd"/>
	<g clip-path="url(#clip158_59)">
		<path id="path" d="M35.62 1.87L26.25 11.25L26.25 31.87L35.62 23.43L35.62 1.87ZM39.37 9.37L39.37 34.68C37.31 34.03 35.06 33.75 32.81 33.75C29.62 33.75 25.03 34.96 22.5 36.56L22.5 11.25C19.78 9.18 15.84 8.43 12.18 8.43C8.53 8.43 4.59 9.18 1.87 11.25L1.87 38.71C1.87 39.18 2.34 39.65 2.81 39.65C3 39.65 3.09 39.56 3.28 39.56C5.81 38.34 9.46 37.5 12.18 37.5C15.84 37.5 19.78 38.25 22.5 40.31C25.03 38.71 29.62 37.5 32.81 37.5C35.9 37.5 39.09 38.06 41.71 39.46C41.9 39.56 42 39.56 42.18 39.56C42.65 39.56 43.12 39.09 43.12 38.62L43.12 11.25C42 10.4 40.78 9.84 39.37 9.37ZM18.75 34.51C16.4 33.91 14.06 33.75 12.18 33.75C10.19 33.75 7.83 34.1 5.62 34.68L5.62 13.36C7.33 12.61 9.63 12.18 12.18 12.18C14.73 12.18 17.04 12.61 18.75 13.36L18.75 34.51Z" fill="url(#paint_linear_158_60_0)" fill-opacity="1.000000" fill-rule="nonzero"/>
	</g>
</svg>
