<svg width="41" height="51" viewBox="0 0 41 51" fill="none" xmlns="http://www.w3.org/2000/svg">
<path d="M40.8988 14.7884C40.7748 14.4037 40.5395 14.0644 40.2226 13.8135C39.9057 13.5626 39.5214 13.4114 39.1185 13.379L27.0717 12.3729L22.3907 1.25522C22.2339 0.883165 21.9708 0.56563 21.6344 0.342359C21.298 0.119088 20.9032 0 20.4995 0C20.0957 0 19.7009 0.119088 19.3645 0.342359C19.0281 0.56563 18.765 0.883165 18.6082 1.25522L13.9273 12.3729L1.88286 13.3788C1.48007 13.4115 1.09596 13.5626 0.778843 13.8131C0.461726 14.0636 0.22577 14.4023 0.100658 14.7866C-0.0244528 15.1708 -0.0331309 15.5835 0.0757159 15.9727C0.184563 16.3619 0.406073 16.7101 0.712379 16.9737L9.86313 24.8496L7.10079 36.5866C6.66244 38.3214 8.64776 39.7589 10.1602 38.8095L11.3715 38.0773V49.0819C11.3477 49.9005 12.2536 50.5139 13.0059 50.1963L20.455 47.2733L28.1023 50.2001C28.852 50.5124 29.751 49.8955 29.7273 49.082V38.0525L31.6101 39.1897C32.8026 39.9493 34.4034 38.7887 34.0462 37.4183L32.7148 31.768L37.1256 27.9758C38.2215 27.0623 37.6174 25.2078 36.1955 25.1113L31.3059 24.7034L40.2873 16.9733C40.5939 16.7105 40.8157 16.3626 40.9246 15.9737C41.0334 15.5847 41.0245 15.1723 40.8988 14.7884ZM16.16 35.1824V46.3863L13.7657 47.326V36.6299L16.16 35.1824ZM20.0124 44.8749L18.5542 45.4471V33.7354L20.3213 32.667L19.2017 37.4185C19.1283 37.7316 19.1488 38.0594 19.2608 38.3609C19.3729 38.6623 19.5714 38.924 19.8315 39.1132C20.0916 39.3023 20.4017 39.4105 20.723 39.4241C21.0443 39.4378 21.3625 39.3563 21.6378 39.1899L22.5446 38.6422V45.5097L20.8775 44.8717C20.5988 44.7649 20.2903 44.766 20.0124 44.8749ZM27.333 47.342L24.9388 46.4257V37.196L26.6239 36.1785L27.333 36.6065V47.342ZM30.6023 30.4268C30.436 30.5698 30.3122 30.7556 30.2443 30.9641C30.1765 31.1726 30.1672 31.3958 30.2175 31.6092L31.3007 36.206L27.2433 33.7551C27.0565 33.6423 26.8425 33.5827 26.6244 33.5827C26.4063 33.5827 26.1923 33.6423 26.0055 33.7551L21.9476 36.2057L23.0308 31.6089C23.081 31.3955 23.0716 31.1724 23.0037 30.9639C22.9358 30.7555 22.8119 30.5697 22.6456 30.4268L19.063 27.3461L23.7829 26.9523C24.0007 26.9341 24.2094 26.8566 24.3863 26.7282C24.5632 26.5999 24.7016 26.4255 24.7865 26.2241L26.6244 21.8636L28.4624 26.2241C28.5473 26.4255 28.6857 26.5999 28.8626 26.7282C29.0395 26.8566 29.2482 26.9341 29.466 26.9523L34.1858 27.3461L30.6023 30.4268ZM29.678 22.9457L28.13 19.2727C28.005 18.9766 27.7955 18.7238 27.5276 18.5462C27.2597 18.3685 26.9454 18.2737 26.6239 18.2737C26.3025 18.2737 25.9882 18.3685 25.7203 18.5462C25.4524 18.7238 25.2429 18.9766 25.1179 19.2727L22.8612 24.6266L17.2377 25.0955H17.2333L17.0524 25.1105C16.7316 25.137 16.4258 25.2577 16.1734 25.4575C15.9211 25.6572 15.7334 25.9272 15.634 26.2333C15.5346 26.5394 15.5279 26.8681 15.6148 27.1781C15.7017 27.488 15.8783 27.7653 16.1223 27.9751L19.1489 30.5772L9.61872 36.3392L12.3602 24.6907C12.4104 24.4774 12.4011 24.2544 12.3333 24.0461C12.2655 23.8378 12.1419 23.652 11.9758 23.5091L2.89871 15.6967L14.8489 14.6991C15.0668 14.6809 15.2755 14.6035 15.4524 14.4751C15.6293 14.3467 15.7677 14.1723 15.8526 13.9709L20.4995 2.93308L25.1464 13.9699C25.2313 14.1713 25.3697 14.3457 25.5466 14.4741C25.7235 14.6025 25.9322 14.68 26.1501 14.6981L38.1003 15.6957L29.678 22.9457Z" fill="url(#paint0_linear_43_326)"/>
<defs>
<linearGradient id="paint0_linear_43_326" x1="0.290438" y1="27.384" x2="41.0046" y2="27.2947" gradientUnits="userSpaceOnUse">
<stop stop-color="#372E7F"/>
<stop offset="1" stop-color="#C6368B"/>
</linearGradient>
</defs>
</svg>
