<svg width="53" height="63" viewBox="0 0 53 63" fill="none" xmlns="http://www.w3.org/2000/svg">
<path d="M48.7742 2.03226H41.6613V1.01613C41.6613 0.746635 41.5542 0.488178 41.3637 0.297617C41.1731 0.107056 40.9147 0 40.6452 0H34.5484C34.2789 0 34.0204 0.107056 33.8299 0.297617C33.6393 0.488178 33.5323 0.746635 33.5323 1.01613V2.03226H4.06452C2.98685 2.03327 1.95361 2.46182 1.19158 3.22384C0.429557 3.98587 0.00100889 5.01911 0 6.09677V58.9355C0.00100889 60.0131 0.429557 61.0464 1.19158 61.8084C1.95361 62.5704 2.98685 62.999 4.06452 63H48.7742C49.8519 62.999 50.8851 62.5704 51.6471 61.8084C52.4092 61.0464 52.8377 60.0131 52.8387 58.9355V6.09677C52.8377 5.01911 52.4092 3.98587 51.6471 3.22384C50.8851 2.46182 49.8519 2.03327 48.7742 2.03226ZM35.5645 2.03226H39.629V11.3108L38.1607 10.3315C37.9936 10.2205 37.7974 10.1613 37.5968 10.1613C37.3961 10.1613 37.2 10.2205 37.0328 10.3315L35.5645 11.3108V2.03226ZM5.08065 60.9677H4.06452C3.52574 60.967 3.00924 60.7527 2.62827 60.3717C2.2473 59.9908 2.03296 59.4743 2.03226 58.9355V6.09677C2.03296 5.558 2.2473 5.0415 2.62827 4.66053C3.00924 4.27956 3.52574 4.06522 4.06452 4.06452H5.08065V60.9677ZM44.7097 58.9355C44.709 59.4743 44.4946 59.9908 44.1137 60.3717C43.7327 60.7527 43.2162 60.967 42.6774 60.9677H7.1129V4.06452H33.5323V13.2097C33.5325 13.3935 33.5826 13.5739 33.6772 13.7315C33.7718 13.8892 33.9073 14.0183 34.0694 14.105C34.2315 14.1918 34.414 14.233 34.5977 14.2243C34.7813 14.2156 34.9592 14.1573 35.1123 14.0556L37.5968 12.398L40.0812 14.0556C40.2483 14.1666 40.4445 14.2258 40.6452 14.2258C40.9145 14.2253 41.1727 14.1181 41.3631 13.9276C41.5536 13.7372 41.6608 13.479 41.6613 13.2097V4.06452H42.6774C43.2162 4.06522 43.7327 4.27956 44.1137 4.66053C44.4946 5.0415 44.709 5.558 44.7097 6.09677V58.9355ZM50.8064 58.9355C50.8057 59.4743 50.5914 59.9908 50.2104 60.3717C49.8295 60.7527 49.313 60.967 48.7742 60.9677H46.1958C46.5542 60.3505 46.7426 59.6493 46.7419 58.9355V6.09677C46.7426 5.383 46.5542 4.68178 46.1958 4.06452H48.7742C49.313 4.06522 49.8295 4.27956 50.2104 4.66053C50.5914 5.0415 50.8057 5.558 50.8064 6.09677V58.9355Z" fill="white"/>
<path d="M37.5967 56.9033H26.4193C26.1498 56.9033 25.8914 57.0104 25.7008 57.2009C25.5103 57.3915 25.4032 57.65 25.4032 57.9194C25.4032 58.1889 25.5103 58.4474 25.7008 58.638C25.8914 58.8285 26.1498 58.9356 26.4193 58.9356H37.5967C37.8662 58.9356 38.1247 58.8285 38.3153 58.638C38.5058 58.4474 38.6129 58.1889 38.6129 57.9194C38.6129 57.65 38.5058 57.3915 38.3153 57.2009C38.1247 57.0104 37.8662 56.9033 37.5967 56.9033Z" fill="white"/>
<path d="M41.6613 56.9033H40.6452C40.3757 56.9033 40.1172 57.0104 39.9266 57.2009C39.7361 57.3915 39.629 57.65 39.629 57.9194C39.629 58.1889 39.7361 58.4474 39.9266 58.638C40.1172 58.8285 40.3757 58.9356 40.6452 58.9356H41.6613C41.9308 58.9356 42.1892 58.8285 42.3798 58.638C42.5704 58.4474 42.6774 58.1889 42.6774 57.9194C42.6774 57.65 42.5704 57.3915 42.3798 57.2009C42.1892 57.0104 41.9308 56.9033 41.6613 56.9033Z" fill="white"/>
<path d="M48.7742 6.09668C48.5047 6.09668 48.2462 6.20374 48.0557 6.3943C47.8651 6.58486 47.7581 6.84331 47.7581 7.11281V23.3709C47.7581 23.6404 47.8651 23.8988 48.0557 24.0894C48.2462 24.2799 48.5047 24.387 48.7742 24.387C49.0437 24.387 49.3021 24.2799 49.4927 24.0894C49.6833 23.8988 49.7903 23.6404 49.7903 23.3709V7.11281C49.7903 6.84331 49.6833 6.58486 49.4927 6.3943C49.3021 6.20374 49.0437 6.09668 48.7742 6.09668Z" fill="white"/>
<path d="M48.7742 25.4033C48.5047 25.4033 48.2462 25.5104 48.0557 25.7009C47.8651 25.8915 47.7581 26.15 47.7581 26.4194V27.4356C47.7581 27.7051 47.8651 27.9635 48.0557 28.1541C48.2462 28.3447 48.5047 28.4517 48.7742 28.4517C49.0437 28.4517 49.3021 28.3447 49.4927 28.1541C49.6833 27.9635 49.7903 27.7051 49.7903 27.4356V26.4194C49.7903 26.15 49.6833 25.8915 49.4927 25.7009C49.3021 25.5104 49.0437 25.4033 48.7742 25.4033Z" fill="white"/>
<path d="M39.6214 28.35C39.6043 28.1742 39.5415 28.006 39.4392 27.8621C39.3369 27.7181 39.1987 27.6034 39.0384 27.5295L25.8287 21.4327C25.6955 21.3706 25.5502 21.3384 25.4032 21.3384C25.2562 21.3384 25.1109 21.3706 24.9777 21.4327L11.768 27.5295C11.5917 27.6106 11.4423 27.7406 11.3376 27.904C11.233 28.0675 11.1773 28.2575 11.1773 28.4516C11.1773 28.6457 11.233 28.8357 11.3376 28.9992C11.4423 29.1626 11.5917 29.2926 11.768 29.3737L15.2419 30.978V39.629C15.2419 39.8985 15.349 40.157 15.5395 40.3475C15.7301 40.5381 15.9885 40.6452 16.258 40.6452H34.5484C34.8179 40.6452 35.0763 40.5381 35.2669 40.3475C35.4574 40.157 35.5645 39.8985 35.5645 39.629V30.978L37.5967 30.0393V33.5323C37.5967 33.8017 37.7038 34.0602 37.8944 34.2508C38.0849 34.4413 38.3434 34.5484 38.6129 34.5484C38.8824 34.5484 39.1408 34.4413 39.3314 34.2508C39.5219 34.0602 39.629 33.8017 39.629 33.5323V28.4516C39.6294 28.4176 39.6268 28.3836 39.6214 28.35ZM33.5322 38.6129H17.2742V31.9153L24.9777 35.4705C25.111 35.5324 25.2562 35.5645 25.4032 35.5645C25.5502 35.5645 25.6954 35.5324 25.8287 35.4705L33.5322 31.9153V38.6129ZM25.4032 33.4294L14.6183 28.4516L25.4032 23.4738L36.1881 28.4516L25.4032 33.4294Z" fill="white"/>
<path d="M39.629 36.5806C39.629 36.3111 39.5219 36.0526 39.3314 35.8621C39.1408 35.6715 38.8824 35.5645 38.6129 35.5645C38.3434 35.5645 38.0849 35.6715 37.8944 35.8621C37.7038 36.0526 37.5967 36.3111 37.5967 36.5806V37.5967C37.5967 37.8662 37.7038 38.1247 37.8944 38.3152C38.0849 38.5058 38.3434 38.6128 38.6129 38.6128C38.8824 38.6128 39.1408 38.5058 39.3314 38.3152C39.5219 38.1247 39.629 37.8662 39.629 37.5967V36.5806Z" fill="white"/>
</svg>
